<svg xmlns="http://www.w3.org/2000/svg" width="1565" height="317" viewBox="0 0 11245600 2277900" shape-rendering="geometricPrecision" text-rendering="geometricPrecision" image-rendering="optimizeQuality" fill-rule="evenodd" clip-rule="evenodd"><defs><mask id="id0"><linearGradient id="id1" gradientUnits="userSpaceOnUse" x1="9338400" y1="1138900" x2="8911000" y2="1138900"><stop offset="0" stop-color="#fff"/><stop offset="1" stop-opacity="0" stop-color="#fff"/></linearGradient><path fill="url(#id1)" d="M8798200 0h619200v2277900h-619200z"/></mask><mask id="id2"><linearGradient id="id3" gradientUnits="userSpaceOnUse" x1="1908800" y1="1138900" x2="2336200" y2="1138900"><stop offset="0" stop-color="#fff"/><stop offset="1" stop-opacity="0" stop-color="#fff"/></linearGradient><path fill="url(#id3)" d="M1829800 0h619200v2277900h-619200z"/></mask><style>.str0{stroke:#fefefe;stroke-width:14400;stroke-linecap:round;stroke-linejoin:round;stroke-miterlimit:22.9256;stroke-dasharray:71900 71900;stroke-opacity:.501961}.str1,.str5{stroke:#000;stroke-width:15800;stroke-miterlimit:2.61313}.str1{stroke-width:14400;stroke-miterlimit:22.9256}.str3,.str4{stroke:#0062ff;stroke-width:21600;stroke-linecap:round;stroke-miterlimit:2.61313}.str3{stroke:#f26322}.str2,.str6{stroke:#000;stroke-width:14400}.str6{stroke-linecap:round;stroke-miterlimit:2.61313}.str2{stroke-miterlimit:22.9256;stroke-dasharray:28700 14400}.fil2,.fil8{fill:none}.fil3{fill:#fefefe}.fil0{fill:#ecf2fb}.fil7{fill:#fff}.fil4,.fil9{fill:#373435;fill-rule:nonzero}.fil4{fill:#000}.fil5,.fil6{fill:#fefefe;fill-opacity:.290196}.fil5{fill-opacity:.501961}</style></defs><g id="Layer_x0020_1"><path class="fil0" d="M0 0h11245600v2277900H0z"/><path fill="#0062ff" fill-opacity=".102" d="M3392200 0h4461200v2277900H3392200z"/><g id="_1505900649360"><path class="fil2 str0" d="M8718300 843800c374300 216200 623400 485700 556200 602000-67100 116300-425000 35400-799400-180800-374400-216100-623400-485600-556300-601900 67200-116300 425100-35400 799500 180700z"/><path class="fil2 str0" d="M8614500 827500c401500-79000 719000-41500 709100 83900-9800 125300-343300 290900-744800 370000-401400 79000-718900 41400-709100-83900 9900-125300 343300-291000 744800-370000z"/><path class="fil2 str0" d="M8627600 408700c337000-157800 596300 3400 579200 360100-17100 356600-304100 773600-641100 931400-336900 157800-596300-3500-579200-360100 17100-356700 304200-773700 641100-931400z"/></g><path class="fil3 str1" d="M5335700 799600h575800v621200c0 48000-128900 87000-287900 87000s-287900-39000-287900-87000V799600z"/><ellipse class="fil3 str1" cx="5623600" cy="799600" rx="287900" ry="87000"/><path class="fil4" d="M5018600 1682000h-9300v-71000h9300z"/><path id="1" class="fil4" d="M5042900 1629300l200 6600c4100-5100 9300-7600 15800-7600 11200 0 16800 6300 16900 18900v34800h-9000v-34900c-100-3800-900-6600-2600-8400s-4400-2700-8000-2700c-2900 0-5500 800-7700 2300-2200 1600-3900 3600-5200 6100v37600h-9000v-52700h8600z"/><path id="2" class="fil4" d="M5101600 1616500v12800h9900v7000h-9900v32700c0 2100 500 3600 1400 4700 800 1100 2300 1600 4400 1600 1100 0 2500-200 4300-600v7300c-2400 700-4700 1000-6900 1000-4000 0-7100-1200-9100-3700-2100-2400-3100-5900-3100-10300v-32700h-9600v-7000h9600v-12800h9000z"/><path id="3" class="fil4" d="M5143900 1683000c-7200 0-13000-2400-17500-7100-4400-4700-6700-10900-6700-18800v-1700c0-5200 1000-9900 3000-14000s4800-7300 8400-9600c3600-2400 7500-3500 11700-3500 6800 0 12100 2200 16000 6800 3700 4500 5700 11000 5700 19400v3700h-35800c200 5200 1700 9400 4600 12600s6600 4800 11100 4800c3200 0 5900-700 8100-2000 2200-1200 4100-3000 5800-5100l5500 4300c-4400 6800-11100 10200-19900 10200zm-1100-47300c-3700 0-6700 1300-9200 4000-2500 2600-4000 6400-4600 11100h26400v-600c-200-4600-1500-8200-3700-10700-2200-2600-5200-3800-8900-3800z"/><path id="4" class="fil4" d="M5200300 1637300c-1300-200-2800-300-4400-300-5900 0-9900 2500-12000 7500v37500h-9000v-52700h8700l200 6100c2900-4800 7100-7100 12500-7100 1800 0 3100 200 4000 700v8300z"/><path id="5" class="fil4" d="M5217200 1629300l300 6600c4000-5100 9300-7600 15800-7600 11100 0 16700 6300 16800 18900v34800h-9000v-34900c0-3800-900-6600-2600-8400s-4400-2700-8000-2700c-2900 0-5500 800-7700 2300-2200 1600-3900 3600-5100 6100v37600h-9000v-52700h8500z"/><path id="6" class="fil4" d="M5296300 1682000c-500-1100-1000-2900-1300-5600-4200 4400-9200 6600-15000 6600-5200 0-9500-1500-12800-4400-3300-3000-5000-6700-5000-11200 0-5500 2100-9800 6300-12800s10000-4600 17600-4600h8800v-4100c0-3100-1000-5600-2800-7500-1900-1900-4700-2800-8400-2800-3200 0-5900 800-8100 2400s-3200 3600-3200 5900h-9100c0-2600 900-5200 2800-7600 1900-2500 4400-4400 7600-5900 3200-1400 6700-2100 10500-2100 6100 0 10900 1500 14300 4500 3500 3100 5300 7300 5400 12600v24300c0 4800 600 8600 1800 11500v800h-9400zm-15000-6700c2800 0 5500-700 8100-2200 2500-1500 4300-3400 5500-5800v-10900h-7100c-11000 0-16600 3300-16600 9800 0 2900 1000 5100 2800 6700 1900 1600 4400 2400 7300 2400z"/><path id="7" class="fil4" d="M5327800 1682000h-9000v-74900h9000z"/><path id="8" class="fil4" d="M5415400 1618700h-22800v63300h-9300v-63300h-22700v-7700h54800z"/><path id="9" class="fil4" d="M5446400 1637300c-1400-200-2900-300-4500-300-5900 0-9900 2500-12000 7500v37500h-9000v-52700h8700l200 6100c2900-4800 7100-7100 12600-7100 1700 0 3100 200 4000 700v8300z"/><path id="10" class="fil4" d="M5485300 1682000c-600-1100-1000-2900-1300-5600-4200 4400-9200 6600-15000 6600-5200 0-9500-1500-12800-4400-3300-3000-5000-6700-5000-11200 0-5500 2100-9800 6300-12800 4100-3000 10000-4600 17600-4600h8700v-4100c0-3100-900-5600-2800-7500s-4600-2800-8300-2800c-3200 0-5900 800-8100 2400s-3300 3600-3300 5900h-9000c0-2600 900-5200 2800-7600 1800-2500 4400-4400 7600-5900 3200-1400 6700-2100 10500-2100 6100 0 10900 1500 14300 4500 3400 3100 5200 7300 5400 12600v24300c0 4800 600 8600 1800 11500v800h-9400zm-15000-6700c2800 0 5500-700 8000-2200 2600-1500 4400-3400 5500-5800v-10900h-7000c-11100 0-16600 3300-16600 9800 0 2900 1000 5100 2800 6700 1900 1600 4300 2400 7300 2400z"/><path id="11" class="fil4" d="M5515600 1629300l200 6600c4100-5100 9300-7600 15800-7600 11200 0 16800 6300 16900 18900v34800h-9000v-34900c-100-3800-900-6600-2600-8400s-4400-2700-8000-2700c-2900 0-5500 800-7700 2300-2200 1600-3900 3600-5200 6100v37600h-9000v-52700h8600z"/><path id="12" class="fil4" d="M5592800 1668000c0-2400-900-4300-2800-5700-1800-1300-5000-2500-9600-3500-4500-900-8100-2100-10800-3500-2700-1300-4700-2900-6000-4800s-1900-4200-1900-6800c0-4300 1800-7900 5500-10900 3600-3000 8300-4500 14000-4500 6000 0 10800 1500 14500 4600 3800 3100 5600 7000 5600 11900h-9000c0-2500-1100-4600-3200-6400s-4700-2700-7900-2700c-3300 0-5800 700-7700 2100-1900 1500-2800 3300-2800 5600 0 2200 900 3800 2600 5000 1700 1100 4800 2100 9300 3100s8200 2200 11000 3600 4800 3100 6200 5100c1300 1900 2000 4300 2000 7200 0 4700-1900 8500-5600 11300-3800 2900-8700 4300-14700 4300-4200 0-8000-800-11200-2300-3300-1500-5800-3500-7600-6200-1900-2700-2800-5600-2800-8700h9000c200 3000 1400 5400 3700 7200 2200 1700 5200 2600 8900 2600 3400 0 6200-700 8200-2100 2100-1300 3100-3200 3100-5500z"/><path id="13" class="fil4" d="M5623300 1682000h-9000v-74900h9000z"/><path id="14" class="fil4" d="M5670300 1682000c-500-1100-900-2900-1200-5600-4200 4400-9200 6600-15000 6600-5200 0-9500-1500-12800-4400-3400-3000-5000-6700-5000-11200 0-5500 2100-9800 6200-12800 4200-3000 10100-4600 17600-4600h8800v-4100c0-3100-900-5600-2800-7500s-4700-2800-8300-2800c-3300 0-6000 800-8100 2400-2200 1600-3300 3600-3300 5900h-9100c0-2600 1000-5200 2800-7600 1900-2500 4400-4400 7700-5900 3100-1400 6700-2100 10500-2100 6100 0 10800 1500 14300 4500 3400 3100 5200 7300 5300 12600v24300c0 4800 700 8600 1900 11500v800h-9500zm-14900-6700c2800 0 5500-700 8000-2200 2600-1500 4400-3400 5500-5800v-10900h-7000c-11100 0-16600 3300-16600 9800 0 2900 900 5100 2800 6700s4300 2400 7300 2400z"/><path id="15" class="fil4" d="M5704300 1616500v12800h9900v7000h-9900v32700c0 2100 500 3600 1300 4700 900 1100 2400 1600 4500 1600 1100 0 2500-200 4300-600v7300c-2400 700-4700 1000-6900 1000-4000 0-7100-1200-9100-3700-2100-2400-3100-5900-3100-10300v-32700h-9600v-7000h9600v-12800h9000z"/><path id="16" class="fil4" d="M5734500 1682000h-9000v-52700h9000v52700zm-9800-66700c0-1500 500-2700 1400-3800 900-1000 2200-1500 3900-1500 1800 0 3100 500 4000 1500 1000 1100 1400 2300 1400 3800 0 1400-400 2700-1400 3600-900 1000-2200 1500-4000 1500-1700 0-3000-500-3900-1500-900-900-1400-2200-1400-3600z"/><path id="17" class="fil4" d="M5746500 1655100c0-5100 1000-9800 3000-13900 2100-4100 4900-7300 8500-9600 3600-2200 7800-3300 12400-3300 7200 0 13000 2500 17500 7400 4400 5000 6600 11600 6600 19900v600c0 5200-1000 9800-3000 13800-1900 4100-4700 7300-8400 9600-3600 2200-7800 3400-12600 3400-7100 0-12900-2500-17300-7500-4500-4900-6700-11500-6700-19700v-700zm9100 1100c0 5800 1300 10500 4000 14100 2700 3500 6400 5300 10900 5300 4600 0 8200-1800 10900-5400s4100-8600 4100-15100c0-5800-1400-10400-4100-14000-2800-3600-6400-5400-11000-5400-4400 0-8000 1700-10700 5300-2800 3500-4100 8600-4100 15200z"/><path id="18" class="fil4" d="M5814400 1629300l300 6600c4000-5100 9300-7600 15700-7600 11200 0 16800 6300 16900 18900v34800h-9000v-34900c0-3800-900-6600-2600-8400s-4400-2700-8000-2700c-2900 0-5500 800-7700 2300-2200 1600-3900 3600-5100 6100v37600h-9100v-52700h8600z"/><path id="19" class="fil4" d="M5899100 1611000l23200 57900 23200-57900h12100v71000h-9300v-27600l800-29900-23200 57500h-7200l-23300-57300 1000 29700v27600h-9400v-71000z"/><path id="20" class="fil4" d="M5994600 1683000c-7100 0-12900-2400-17400-7100s-6700-10900-6700-18800v-1700c0-5200 1000-9900 3000-14000 1900-4100 4700-7300 8300-9600 3600-2400 7500-3500 11700-3500 6900 0 12200 2200 16000 6800 3800 4500 5700 11000 5700 19400v3700h-35700c100 5200 1600 9400 4500 12600s6600 4800 11100 4800c3200 0 5900-700 8100-2000 2200-1200 4200-3000 5800-5100l5500 4300c-4400 6800-11000 10200-19900 10200zm-1100-47300c-3600 0-6700 1300-9200 4000-2400 2600-4000 6400-4500 11100h26400v-600c-300-4600-1500-8200-3700-10700-2200-2600-5200-3800-9000-3800z"/><path id="21" class="fil4" d="M6034100 1629300l200 5800c3900-4500 9100-6800 15700-6800 7300 0 12400 2800 15000 8500 1800-2600 4100-4600 6900-6200 2800-1500 6100-2300 9900-2300 11600 0 17500 6100 17700 18400v35300h-9000v-34800c0-3700-900-6600-2600-8400-1800-1900-4600-2800-8700-2800-3400 0-6100 1000-8300 3000s-3500 4600-3900 8000v35000h-9000v-34500c0-7700-3800-11500-11300-11500-5900 0-10000 2500-12100 7500v38500h-9100v-52700h8600z"/><path id="22" class="fil4" d="M6110700 1655100c0-5100 1000-9800 3000-13900 2100-4100 4900-7300 8500-9600 3600-2200 7800-3300 12400-3300 7200 0 13000 2500 17500 7400 4400 5000 6600 11600 6600 19900v600c0 5200-1000 9800-2900 13800-2000 4100-4800 7300-8500 9600-3600 2200-7800 3400-12600 3400-7100 0-12900-2500-17300-7500-4500-4900-6700-11500-6700-19700v-700zm9100 1100c0 5800 1300 10500 4000 14100 2700 3500 6400 5300 10900 5300 4600 0 8200-1800 10900-5400s4100-8600 4100-15100c0-5800-1400-10400-4100-14000-2800-3600-6400-5400-11000-5400-4400 0-8000 1700-10700 5300-2800 3500-4100 8600-4100 15200z"/><path id="23" class="fil4" d="M6195500 1637300c-1400-200-2900-300-4400-300-6000 0-10000 2500-12100 7500v37500h-9000v-52700h8800l100 6100c3000-4800 7200-7100 12600-7100 1800 0 3100 200 4000 700v8300z"/><path id="24" class="fil4" d="M6221900 1668800l12300-39500h9600l-21100 60800c-3300 8800-8600 13100-15700 13100l-1700-100-3400-600v-7300l2500 200c3000 0 5400-700 7100-1900s3100-3500 4200-6800l2000-5300-18800-52100h9900l13100 39500z"/><path id="25" class="fil4" d="M5420300 1786500v-70900h20000c6200 0 11600 1300 16400 4100 4700 2700 8400 6600 11000 11600s3900 10800 3900 17300v4600c0 6700-1300 12500-3900 17600-2500 5000-6200 8900-11000 11600s-10400 4100-16800 4100h-19600zm9400-63300v55600h9800c7200 0 12800-2200 16800-6700s6000-10800 6000-19100v-4200c0-8000-1800-14300-5600-18800-3800-4400-9200-6700-16100-6800h-10900z"/><path id="26" class="fil4" d="M5516900 1786500c-500-1000-900-2900-1300-5500-4200 4300-9200 6500-15000 6500-5200 0-9400-1400-12800-4400-3300-2900-5000-6700-5000-11200 0-5500 2100-9700 6300-12800 4200-3000 10000-4500 17600-4500h8800v-4200c0-3100-1000-5600-2800-7500-1900-1900-4700-2800-8400-2800-3200 0-5900 800-8100 2400-2200 1700-3200 3600-3200 5900h-9100c0-2600 900-5100 2800-7600 1900-2400 4400-4400 7600-5800 3200-1500 6700-2200 10600-2200 6000 0 10800 1500 14200 4600 3500 3000 5300 7200 5400 12500v24300c0 4800 600 8700 1900 11500v800h-9500zm-15000-6700c2900 0 5500-700 8100-2200 2500-1400 4300-3400 5500-5700v-10900h-7100c-11000 0-16500 3200-16500 9800 0 2800 900 5000 2800 6600s4300 2400 7200 2400z"/><path id="27" class="fil4" d="M5550900 1721000v12800h9800v7000h-9800v32700c0 2100 400 3700 1300 4800 900 1000 2400 1500 4500 1500 1000 0 2500-200 4300-500v7300c-2400 600-4700 900-6900 900-4100 0-7100-1200-9200-3600-2000-2500-3000-5900-3000-10400v-32700h-9600v-7000h9600v-12800h9000z"/><path id="28" class="fil4" d="M5603800 1786500c-500-1000-900-2900-1300-5500-4200 4300-9200 6500-15000 6500-5200 0-9400-1400-12800-4400-3300-2900-5000-6700-5000-11200 0-5500 2100-9700 6300-12800 4200-3000 10000-4500 17600-4500h8800v-4200c0-3100-1000-5600-2800-7500-1900-1900-4700-2800-8400-2800-3200 0-5900 800-8100 2400-2100 1700-3200 3600-3200 5900h-9100c0-2600 900-5100 2800-7600 1900-2400 4400-4400 7600-5800 3200-1500 6700-2200 10600-2200 6000 0 10800 1500 14200 4600 3500 3000 5300 7200 5400 12500v24300c0 4800 600 8700 1900 11500v800h-9500zm-15000-6700c2900 0 5500-700 8100-2200 2500-1400 4300-3400 5500-5700v-10900h-7100c-11000 0-16500 3200-16500 9800 0 2800 900 5000 2800 6600s4300 2400 7200 2400z"/><path id="29" class="fil4" d="M5670200 1760800c0 8000-1900 14500-5600 19400s-8700 7300-14900 7300c-6700 0-11800-2300-15400-7000l-500 6000h-8300v-74800h9100v27900c3600-4500 8600-6800 15000-6800s11400 2500 15100 7300 5500 11500 5500 19900v800zm-9000-1100c0-6100-1200-10800-3600-14200-2400-3300-5800-5000-10200-5000-6000 0-10300 2800-12800 8300v22800c2700 5500 7000 8200 12900 8200 4300 0 7600-1600 10100-5000 2300-3300 3600-8400 3600-15100z"/><path id="30" class="fil4" d="M5714100 1786500c-500-1000-1000-2900-1300-5500-4200 4300-9200 6500-15000 6500-5200 0-9500-1400-12800-4400-3300-2900-5000-6700-5000-11200 0-5500 2100-9700 6300-12800 4200-3000 10000-4500 17600-4500h8800v-4200c0-3100-1000-5600-2800-7500-1900-1900-4700-2800-8400-2800-3200 0-5900 800-8100 2400-2200 1700-3200 3600-3200 5900h-9100c0-2600 900-5100 2800-7600 1900-2400 4400-4400 7600-5800 3200-1500 6700-2200 10500-2200 6100 0 10900 1500 14300 4600 3500 3000 5300 7200 5400 12500v24300c0 4800 600 8700 1800 11500v800h-9400zm-15000-6700c2800 0 5500-700 8100-2200 2500-1400 4300-3400 5500-5700v-10900h-7100c-11000 0-16600 3200-16600 9800 0 2800 1000 5000 2900 6600 1800 1600 4300 2400 7200 2400z"/><path id="31" class="fil4" d="M5766500 1772500c0-2400-900-4300-2700-5600-1800-1400-5000-2500-9600-3500s-8200-2200-10900-3500c-2700-1400-4600-3000-5900-4900s-1900-4100-1900-6700c0-4300 1800-8000 5400-11000 3700-3000 8400-4500 14100-4500 5900 0 10800 1600 14500 4700 3700 3000 5600 7000 5600 11800h-9100c0-2500-1000-4600-3100-6400s-4800-2700-7900-2700c-3300 0-5900 700-7800 2200-1800 1400-2700 3300-2700 5600 0 2100 800 3800 2500 4900 1800 1100 4900 2200 9400 3200s8100 2200 10900 3600 4900 3000 6200 5000c1400 2000 2100 4400 2100 7200 0 4700-1900 8500-5700 11300-3800 2900-8600 4300-14700 4300-4200 0-7900-700-11200-2200-3200-1500-5800-3600-7600-6300s-2800-5600-2800-8700h9100c100 3000 1300 5400 3600 7200 2200 1800 5200 2600 8900 2600 3400 0 6200-600 8300-2000 2000-1400 3000-3300 3000-5600z"/><path id="32" class="fil4" d="M5809200 1787500c-7200 0-13000-2300-17500-7000-4400-4700-6700-11000-6700-18900v-1600c0-5200 1000-9900 3000-14000s4800-7400 8400-9700 7500-3500 11700-3500c6800 0 12100 2300 16000 6800 3700 4500 5700 11000 5700 19400v3800h-35800c200 5200 1700 9400 4600 12500 2900 3200 6600 4800 11100 4800 3200 0 5900-600 8100-1900s4100-3000 5800-5200l5500 4300c-4400 6800-11100 10200-19900 10200zm-1100-47300c-3700 0-6700 1300-9200 4000s-4000 6400-4600 11200h26400v-700c-200-4600-1500-8200-3700-10700s-5200-3800-8900-3800z"/><path class="fil4" d="M3680800 1674300h33600v7700h-43000v-71000h9400z"/><path id="1" class="fil4" d="M3721300 1655100c0-5100 1000-9800 3000-13900s4900-7300 8500-9600c3600-2200 7700-3300 12400-3300 7200 0 13000 2500 17400 7400 4400 5000 6700 11600 6700 19900v600c0 5200-1000 9800-3000 13800-2000 4100-4800 7300-8400 9600-3700 2200-7900 3400-12600 3400-7200 0-13000-2500-17400-7500-4400-4900-6600-11500-6600-19700v-700zm9000 1100c0 5800 1400 10500 4100 14100 2700 3500 6300 5300 10900 5300s8200-1800 10900-5400 4000-8600 4000-15100c0-5800-1300-10400-4100-14000-2700-3600-6400-5400-10900-5400s-8100 1700-10800 5300c-2700 3500-4100 8600-4100 15200z"/><path id="2" class="fil4" d="M3801700 1675600c3200 0 6000-1000 8400-2900 2500-2000 3800-4400 4000-7300h8600c-200 3000-1200 5900-3100 8600-2000 2700-4500 4900-7700 6600-3200 1600-6600 2400-10200 2400-7200 0-12900-2400-17100-7200-4300-4800-6400-11400-6400-19700v-1500c0-5100 1000-9700 2800-13700 1900-4000 4600-7100 8200-9300 3500-2200 7700-3300 12500-3300 5900 0 10800 1800 14700 5300s6000 8100 6300 13800h-8600c-200-3400-1500-6200-3800-8400-2400-2200-5200-3300-8600-3300-4600 0-8200 1600-10700 4900s-3800 8100-3800 14300v1700c0 6100 1300 10800 3800 14100s6100 4900 10700 4900z"/><path id="3" class="fil4" d="M3865400 1682000c-500-1100-1000-2900-1300-5600-4200 4400-9200 6600-15000 6600-5200 0-9500-1500-12800-4400-3300-3000-5000-6700-5000-11200 0-5500 2100-9800 6300-12800s10000-4600 17600-4600h8800v-4100c0-3100-1000-5600-2800-7500-1900-1900-4700-2800-8400-2800-3200 0-5900 800-8100 2400s-3200 3600-3200 5900h-9100c0-2600 900-5200 2800-7600 1900-2500 4400-4400 7600-5900 3200-1400 6700-2100 10600-2100 6000 0 10800 1500 14200 4500 3500 3100 5300 7300 5400 12600v24300c0 4800 600 8600 1800 11500v800h-9400zm-15000-6700c2900 0 5500-700 8100-2200 2500-1500 4300-3400 5500-5800v-10900h-7100c-11000 0-16600 3300-16600 9800 0 2900 1000 5100 2900 6700s4300 2400 7200 2400z"/><path id="4" class="fil4" d="M3896900 1682000h-9000v-74900h9000z"/><path id="5" class="fil4" d="M3921200 1682000h-9100v-52700h9100v52700zm-9800-66700c0-1500 500-2700 1300-3800 900-1000 2300-1500 4000-1500 1800 0 3100 500 4000 1500 900 1100 1400 2300 1400 3800 0 1400-500 2700-1400 3600-900 1000-2200 1500-4000 1500-1700 0-3100-500-4000-1500-800-900-1300-2200-1300-3600z"/><path id="6" class="fil4" d="M3944000 1674600h30900v7400h-41900v-6700l29100-38500h-28600v-7500h39900v6400z"/><path id="7" class="fil4" d="M4017600 1682000c-500-1100-900-2900-1300-5600-4200 4400-9200 6600-15000 6600-5200 0-9400-1500-12800-4400-3300-3000-5000-6700-5000-11200 0-5500 2100-9800 6300-12800s10000-4600 17600-4600h8800v-4100c0-3100-1000-5600-2800-7500-1900-1900-4700-2800-8400-2800-3200 0-5900 800-8100 2400-2100 1600-3200 3600-3200 5900h-9100c0-2600 900-5200 2800-7600 1900-2500 4400-4400 7600-5900 3200-1400 6700-2100 10600-2100 6000 0 10800 1500 14200 4500 3500 3100 5300 7300 5400 12600v24300c0 4800 600 8600 1900 11500v800h-9500zm-15000-6700c2900 0 5500-700 8100-2200 2500-1500 4300-3400 5500-5800v-10900h-7100c-11000 0-16500 3300-16500 9800 0 2900 900 5100 2800 6700s4300 2400 7200 2400z"/><path id="8" class="fil4" d="M4084000 1656200c0 8100-1900 14600-5600 19400-3700 4900-8700 7400-14900 7400-6700 0-11800-2400-15400-7100l-500 6100h-8300v-74900h9100v28000c3600-4600 8600-6800 15000-6800s11400 2400 15100 7300c3700 4800 5500 11400 5500 19800v800zm-9000-1000c0-6100-1200-10900-3600-14200-2400-3400-5800-5000-10200-5000-6000 0-10300 2700-12800 8200v22800c2700 5500 7000 8300 12900 8300 4300 0 7600-1700 10100-5000 2300-3300 3600-8400 3600-15100z"/><path id="9" class="fil4" d="M4105100 1682000h-9000v-74900h9000z"/><path id="10" class="fil4" d="M4141400 1683000c-7100 0-12900-2400-17400-7100s-6700-10900-6700-18800v-1700c0-5200 1000-9900 3000-14000s4700-7300 8300-9600c3600-2400 7500-3500 11700-3500 6900 0 12200 2200 16000 6800 3800 4500 5700 11000 5700 19400v3700h-35700c100 5200 1600 9400 4500 12600 3000 3200 6600 4800 11100 4800 3200 0 5900-700 8100-2000 2200-1200 4200-3000 5800-5100l5500 4300c-4400 6800-11000 10200-19900 10200zm-1100-47300c-3600 0-6700 1300-9100 4000-2500 2600-4000 6400-4600 11100h26400v-600c-300-4600-1500-8200-3700-10700-2200-2600-5200-3800-9000-3800z"/><path id="11" class="fil4" d="M4224600 1653300h-16700v28700h-9400v-71000h23500c8000 0 14100 1800 18400 5500 4400 3600 6500 8900 6500 15900 0 4400-1200 8300-3600 11600s-5700 5700-9900 7300l16600 30100v600h-10000l-15400-28700zm-16700-7600h14400c4600 0 8300-1200 11100-3700 2700-2400 4100-5600 4100-9600 0-4400-1300-7800-3900-10100-2600-2400-6400-3600-11400-3600h-14300v27000z"/><path id="12" class="fil4" d="M4280500 1683000c-7200 0-13000-2400-17500-7100s-6700-10900-6700-18800v-1700c0-5200 1000-9900 3000-14000s4800-7300 8400-9600c3600-2400 7500-3500 11600-3500 6900 0 12200 2200 16000 6800 3800 4500 5700 11000 5700 19400v3700h-35700c100 5200 1700 9400 4600 12600s6600 4800 11100 4800c3100 0 5800-700 8000-2000 2300-1200 4200-3000 5900-5100l5500 4300c-4500 6800-11100 10200-19900 10200zm-1200-47300c-3600 0-6600 1300-9100 4000-2500 2600-4000 6400-4600 11100h26400v-600c-200-4600-1500-8200-3700-10700-2200-2600-5200-3800-9000-3800z"/><path id="13" class="fil4" d="M4342200 1668000c0-2400-900-4300-2800-5700-1800-1300-5000-2500-9600-3500-4500-900-8200-2100-10800-3500-2700-1300-4700-2900-6000-4800s-1900-4200-1900-6800c0-4300 1800-7900 5500-10900 3600-3000 8300-4500 14000-4500 6000 0 10800 1500 14500 4600s5600 7000 5600 11900h-9100c0-2500-1000-4600-3100-6400s-4700-2700-7900-2700c-3300 0-5900 700-7700 2100-1900 1500-2800 3300-2800 5600 0 2200 900 3800 2600 5000 1700 1100 4800 2100 9300 3100s8200 2200 11000 3600 4800 3100 6200 5100c1300 1900 2000 4300 2000 7200 0 4700-1900 8500-5700 11300-3700 2900-8600 4300-14600 4300-4300 0-8000-800-11200-2300-3300-1500-5800-3500-7700-6200-1800-2700-2700-5600-2700-8700h9000c200 3000 1400 5400 3600 7200 2300 1700 5300 2600 9000 2600 3400 0 6100-700 8200-2100 2000-1300 3100-3200 3100-5500z"/><path id="14" class="fil4" d="M4360500 1655100c0-5100 1000-9800 3100-13900 2000-4100 4800-7300 8500-9600 3600-2200 7700-3300 12300-3300 7200 0 13000 2500 17500 7400 4400 5000 6600 11600 6600 19900v600c0 5200-1000 9800-2900 13800-2000 4100-4800 7300-8500 9600-3600 2200-7800 3400-12600 3400-7100 0-12900-2500-17300-7500-4500-4900-6700-11500-6700-19700v-700zm9100 1100c0 5800 1300 10500 4100 14100 2700 3500 6300 5300 10800 5300 4600 0 8300-1800 11000-5400s4000-8600 4000-15100c0-5800-1400-10400-4100-14000-2800-3600-6400-5400-11000-5400-4400 0-8000 1700-10700 5300-2700 3500-4100 8600-4100 15200z"/><path id="15" class="fil4" d="M4452400 1676800c-3500 4100-8700 6200-15500 6200-5600 0-9800-1600-12800-4900-2900-3300-4400-8100-4500-14500v-34300h9100v34000c0 8000 3200 12000 9700 12000 6900 0 11500-2600 13800-7700v-38300h9000v52700h-8600l-200-5200z"/><path id="16" class="fil4" d="M4500300 1637300c-1300-200-2800-300-4400-300-5900 0-9900 2500-12000 7500v37500h-9000v-52700h8700l200 6100c2900-4800 7100-7100 12600-7100 1700 0 3100 200 3900 700v8300z"/><path id="17" class="fil4" d="M4528900 1675600c3200 0 6000-1000 8400-2900 2400-2000 3700-4400 4000-7300h8500c-100 3000-1200 5900-3100 8600s-4500 4900-7700 6600c-3200 1600-6600 2400-10100 2400-7200 0-12900-2400-17200-7200-4200-4800-6300-11400-6300-19700v-1500c0-5100 900-9700 2800-13700s4600-7100 8100-9300 7700-3300 12500-3300c5900 0 10800 1800 14800 5300 3900 3500 5900 8100 6200 13800h-8500c-300-3400-1600-6200-3900-8400s-5200-3300-8600-3300c-4600 0-8100 1600-10600 4900-2600 3300-3800 8100-3800 14300v1700c0 6100 1200 10800 3700 14100s6100 4900 10800 4900z"/><path id="18" class="fil4" d="M4581900 1683000c-7200 0-13000-2400-17500-7100s-6700-10900-6700-18800v-1700c0-5200 1000-9900 3000-14000s4800-7300 8400-9600c3600-2400 7500-3500 11700-3500 6800 0 12100 2200 15900 6800 3800 4500 5700 11000 5700 19400v3700h-35700c100 5200 1700 9400 4600 12600s6600 4800 11100 4800c3100 0 5800-700 8000-2000 2300-1200 4200-3000 5900-5100l5500 4300c-4500 6800-11100 10200-19900 10200zm-1100-47300c-3700 0-6700 1300-9200 4000-2500 2600-4000 6400-4600 11100h26400v-600c-200-4600-1500-8200-3700-10700-2200-2600-5200-3800-8900-3800z"/><path id="19" class="fil4" d="M4078000 1755200h-29800v31300h-9400v-70900h44000v7600h-34600v24300h29800z"/><path id="20" class="fil4" d="M4102400 1786500h-9000v-52700h9000v52700zm-9800-66700c0-1500 500-2700 1400-3700s2200-1500 4000-1500c1700 0 3000 500 3900 1500 1000 1000 1400 2200 1400 3700s-400 2700-1400 3700c-900 1000-2200 1400-3900 1400-1800 0-3100-400-4000-1400s-1400-2200-1400-3700z"/><path id="21" class="fil4" d="M4126600 1786500h-9000v-74800h9000z"/><path id="22" class="fil4" d="M4162900 1787500c-7100 0-12900-2300-17400-7000s-6800-11000-6800-18900v-1600c0-5200 1000-9900 3000-14000s4800-7400 8400-9700 7500-3500 11700-3500c6900 0 12200 2300 16000 6800s5700 11000 5700 19400v3800h-35700c100 5200 1600 9400 4500 12500 2900 3200 6600 4800 11100 4800 3200 0 5900-600 8100-1900s4100-3000 5800-5200l5500 4300c-4400 6800-11100 10200-19900 10200zm-1100-47300c-3600 0-6700 1300-9200 4000-2400 2700-4000 6400-4500 11200h26400v-700c-300-4600-1500-8200-3700-10700s-5200-3800-9000-3800z"/><path id="23" class="fil4" d="M4224600 1772500c0-2400-900-4300-2700-5600-1900-1400-5100-2500-9600-3500-4600-1000-8200-2200-10900-3500-2700-1400-4700-3000-5900-4900-1300-1900-2000-4100-2000-6700 0-4300 1900-8000 5500-11000 3700-3000 8300-4500 14000-4500 6000 0 10900 1600 14600 4700 3700 3000 5600 7000 5600 11800h-9100c0-2500-1100-4600-3200-6400-2000-1800-4700-2700-7900-2700-3300 0-5800 700-7700 2200-1800 1400-2700 3300-2700 5600 0 2100 800 3800 2500 4900 1800 1100 4900 2200 9400 3200s8100 2200 10900 3600 4900 3000 6200 5000c1400 2000 2000 4400 2000 7200 0 4700-1800 8500-5600 11300-3800 2900-8700 4300-14700 4300-4200 0-7900-700-11200-2200-3200-1500-5800-3600-7600-6300-1900-2700-2800-5600-2800-8700h9000c200 3000 1400 5400 3700 7200 2200 1800 5200 2600 8900 2600 3400 0 6200-600 8200-2000 2100-1400 3100-3300 3100-5600z"/><path class="fil4" d="M6645100 1618700h-22800v63300h-9300v-63300h-22700v-7700h54800z"/><path id="1" class="fil4" d="M6676100 1637300c-1400-200-2900-300-4500-300-5900 0-9900 2500-12000 7500v37500h-9000v-52700h8700l200 6100c2900-4800 7100-7100 12600-7100 1700 0 3100 200 4000 700v8300z"/><path id="2" class="fil4" d="M6715000 1682000c-600-1100-1000-2900-1300-5600-4200 4400-9200 6600-15000 6600-5200 0-9500-1500-12800-4400-3300-3000-5000-6700-5000-11200 0-5500 2100-9800 6300-12800 4100-3000 10000-4600 17600-4600h8800v-4100c0-3100-1000-5600-2900-7500s-4600-2800-8300-2800c-3200 0-5900 800-8100 2400s-3300 3600-3300 5900h-9000c0-2600 900-5200 2800-7600 1900-2500 4400-4400 7600-5900 3200-1400 6700-2100 10500-2100 6100 0 10900 1500 14300 4500 3500 3100 5200 7300 5400 12600v24300c0 4800 600 8600 1800 11500v800h-9400zm-15000-6700c2800 0 5500-700 8000-2200 2600-1500 4400-3400 5600-5800v-10900h-7100c-11000 0-16600 3300-16600 9800 0 2900 1000 5100 2800 6700 1900 1600 4400 2400 7300 2400z"/><path id="3" class="fil4" d="M6745300 1629300l200 6600c4100-5100 9300-7600 15800-7600 11200 0 16800 6300 16900 18900v34800h-9000v-34900c-100-3800-900-6600-2600-8400s-4400-2700-8000-2700c-2900 0-5500 800-7700 2300-2200 1600-3900 3600-5200 6100v37600h-9000v-52700h8600z"/><path id="4" class="fil4" d="M6822500 1668000c0-2400-900-4300-2700-5700-1900-1300-5100-2500-9700-3500-4500-900-8100-2100-10800-3500-2700-1300-4700-2900-5900-4800-1300-1900-2000-4200-2000-6800 0-4300 1900-7900 5500-10900 3700-3000 8300-4500 14000-4500 6000 0 10800 1500 14600 4600 3700 3100 5500 7000 5500 11900h-9000c0-2500-1100-4600-3200-6400s-4700-2700-7900-2700c-3300 0-5800 700-7700 2100-1800 1500-2800 3300-2800 5600 0 2200 900 3800 2600 5000 1700 1100 4900 2100 9300 3100 4600 1000 8200 2200 11000 3600s4900 3100 6200 5100c1300 1900 2000 4300 2000 7200 0 4700-1900 8500-5600 11300-3800 2900-8700 4300-14700 4300-4200 0-8000-800-11200-2300-3300-1500-5800-3500-7600-6200-1900-2700-2800-5600-2800-8700h9000c200 3000 1400 5400 3700 7200 2200 1700 5200 2600 8900 2600 3400 0 6200-700 8200-2100 2100-1300 3100-3200 3100-5500z"/><path id="5" class="fil4" d="M6853100 1682000h-9100v-74900h9100z"/><path id="6" class="fil4" d="M6900000 1682000c-500-1100-900-2900-1200-5600-4200 4400-9200 6600-15000 6600-5200 0-9500-1500-12800-4400-3400-3000-5000-6700-5000-11200 0-5500 2100-9800 6200-12800 4200-3000 10100-4600 17700-4600h8700v-4100c0-3100-900-5600-2800-7500s-4700-2800-8300-2800c-3300 0-6000 800-8100 2400-2200 1600-3300 3600-3300 5900h-9100c0-2600 1000-5200 2800-7600 1900-2500 4400-4400 7700-5900 3200-1400 6700-2100 10500-2100 6100 0 10800 1500 14300 4500 3400 3100 5200 7300 5300 12600v24300c0 4800 700 8600 1900 11500v800h-9500zm-14900-6700c2800 0 5500-700 8000-2200 2600-1500 4400-3400 5500-5800v-10900h-7000c-11100 0-16600 3300-16600 9800 0 2900 900 5100 2800 6700s4300 2400 7300 2400z"/><path id="7" class="fil4" d="M6934000 1616500v12800h9900v7000h-9900v32700c0 2100 500 3600 1300 4700 900 1100 2400 1600 4500 1600 1100 0 2500-200 4300-600v7300c-2400 700-4700 1000-6900 1000-4000 0-7100-1200-9100-3700-2100-2400-3100-5900-3100-10300v-32700h-9600v-7000h9600v-12800h9000z"/><path id="8" class="fil4" d="M6964200 1682000h-9000v-52700h9000v52700zm-9800-66700c0-1500 500-2700 1400-3800 900-1000 2200-1500 4000-1500 1700 0 3000 500 3900 1500 1000 1100 1400 2300 1400 3800 0 1400-400 2700-1400 3600-900 1000-2200 1500-3900 1500-1800 0-3100-500-4000-1500-900-900-1400-2200-1400-3600z"/><path id="9" class="fil4" d="M6976200 1655100c0-5100 1000-9800 3000-13900 2100-4100 4900-7300 8500-9600 3600-2200 7800-3300 12400-3300 7200 0 13000 2500 17500 7400 4400 5000 6600 11600 6600 19900v600c0 5200-1000 9800-2900 13800-2000 4100-4800 7300-8500 9600-3600 2200-7800 3400-12600 3400-7100 0-12900-2500-17300-7500-4500-4900-6700-11500-6700-19700v-700zm9100 1100c0 5800 1300 10500 4000 14100 2700 3500 6400 5300 10900 5300 4600 0 8200-1800 10900-5400s4100-8600 4100-15100c0-5800-1400-10400-4100-14000-2800-3600-6400-5400-11000-5400-4400 0-8000 1700-10700 5300-2800 3500-4100 8600-4100 15200z"/><path id="10" class="fil4" d="M7044100 1629300l300 6600c4000-5100 9300-7600 15700-7600 11200 0 16800 6300 16900 18900v34800h-9000v-34900c0-3800-900-6600-2600-8400s-4400-2700-8000-2700c-2900 0-5500 800-7700 2300-2200 1600-3900 3600-5100 6100v37600h-9100v-52700h8600z"/><path id="11" class="fil4" d="M7126800 1682000h-9400v-71000h9400z"/><path id="12" class="fil4" d="M7151000 1629300l300 6600c4000-5100 9300-7600 15800-7600 11100 0 16700 6300 16800 18900v34800h-9000v-34900c0-3800-900-6600-2600-8400s-4300-2700-8000-2700c-2900 0-5400 800-7700 2300-2100 1600-3900 3600-5100 6100v37600h-9000v-52700h8500z"/><path id="13" class="fil4" d="M7209800 1616500v12800h9800v7000h-9800v32700c0 2100 400 3600 1300 4700s2400 1600 4500 1600c1000 0 2500-200 4300-600v7300c-2400 700-4700 1000-6900 1000-4100 0-7100-1200-9200-3700-2000-2400-3000-5900-3000-10300v-32700h-9600v-7000h9600v-12800h9000z"/><path id="14" class="fil4" d="M7252000 1683000c-7100 0-12900-2400-17400-7100s-6700-10900-6700-18800v-1700c0-5200 1000-9900 3000-14000s4700-7300 8300-9600c3600-2400 7500-3500 11700-3500 6900 0 12200 2200 16000 6800 3800 4500 5700 11000 5700 19400v3700h-35700c100 5200 1600 9400 4500 12600 3000 3200 6600 4800 11100 4800 3200 0 5900-700 8100-2000 2200-1200 4200-3000 5800-5100l5500 4300c-4400 6800-11000 10200-19900 10200zm-1100-47300c-3600 0-6700 1300-9100 4000-2500 2600-4000 6400-4600 11100h26400v-600c-300-4600-1500-8200-3700-10700-2200-2600-5200-3800-9000-3800z"/><path id="15" class="fil4" d="M7308500 1637300c-1400-200-2900-300-4400-300-6000 0-10000 2500-12100 7500v37500h-9000v-52700h8800l100 6100c3000-4800 7200-7100 12600-7100 1800 0 3100 200 4000 700v8300z"/><path id="16" class="fil4" d="M7337000 1675600c3200 0 6000-1000 8400-2900 2400-2000 3800-4400 4000-7300h8600c-200 3000-1200 5900-3200 8600-1900 2700-4400 4900-7600 6600-3200 1600-6600 2400-10200 2400-7200 0-12900-2400-17100-7200-4300-4800-6400-11400-6400-19700v-1500c0-5100 1000-9700 2800-13700 1900-4000 4600-7100 8200-9300 3500-2200 7600-3300 12500-3300 5900 0 10800 1800 14700 5300s6000 8100 6300 13800h-8600c-200-3400-1500-6200-3900-8400-2300-2200-5100-3300-8500-3300-4600 0-8200 1600-10700 4900s-3800 8100-3800 14300v1700c0 6100 1300 10800 3800 14100s6100 4900 10700 4900z"/><path id="17" class="fil4" d="M7377200 1635600c3900-4900 9200-7300 15500-7300 11200 0 16800 6300 16900 18900v34800h-9000v-34900c0-3800-900-6600-2600-8400s-4400-2700-8000-2700c-2900 0-5500 800-7700 2300-2200 1600-3900 3600-5100 6100v37600h-9100v-74900h9100v28500z"/><path id="18" class="fil4" d="M7455700 1682000c-600-1100-1000-2900-1300-5600-4200 4400-9200 6600-15000 6600-5200 0-9500-1500-12800-4400-3300-3000-5000-6700-5000-11200 0-5500 2100-9800 6300-12800 4100-3000 10000-4600 17600-4600h8700v-4100c0-3100-900-5600-2800-7500s-4600-2800-8300-2800c-3200 0-5900 800-8100 2400s-3300 3600-3300 5900h-9000c0-2600 900-5200 2800-7600 1800-2500 4400-4400 7600-5900 3200-1400 6700-2100 10500-2100 6100 0 10900 1500 14300 4500 3400 3100 5200 7300 5400 12600v24300c0 4800 600 8600 1800 11500v800h-9400zm-15000-6700c2800 0 5500-700 8000-2200 2600-1500 4400-3400 5500-5800v-10900h-7000c-11100 0-16600 3300-16600 9800 0 2900 1000 5100 2800 6700 1900 1600 4300 2400 7300 2400z"/><path id="19" class="fil4" d="M7485900 1629300l300 6600c4100-5100 9300-7600 15800-7600 11200 0 16800 6300 16900 18900v34800h-9000v-34900c-100-3800-900-6600-2600-8400s-4400-2700-8000-2700c-2900 0-5500 800-7700 2300-2200 1600-3900 3600-5200 6100v37600h-9000v-52700h8500z"/><path id="20" class="fil4" d="M7530300 1655200c0-8200 1900-14800 5700-19600 3800-4900 8900-7300 15100-7300 6500 0 11500 2300 15100 6800l400-5800h8300v51400c0 6800-2000 12200-6100 16200-4000 3900-9500 5800-16300 5800-3800 0-7500-800-11200-2400-3600-1600-6400-3800-8300-6700l4700-5400c3900 4800 8600 7200 14200 7200 4400 0 7800-1300 10200-3700 2500-2500 3700-6000 3700-10400v-4600c-3600 4200-8500 6300-14800 6300-6100 0-11100-2500-14900-7500-3900-4900-5800-11700-5800-20300zm9100 1000c0 6000 1200 10600 3700 14000 2400 3400 5800 5100 10200 5100 5700 0 9800-2600 12500-7700v-24100c-2800-5000-6900-7500-12400-7500-4400 0-7800 1700-10300 5100s-3700 8400-3700 15100z"/><path id="21" class="fil4" d="M7610400 1683000c-7200 0-13000-2400-17500-7100s-6700-10900-6700-18800v-1700c0-5200 1000-9900 3000-14000s4800-7300 8400-9600c3600-2400 7500-3500 11600-3500 6900 0 12200 2200 16000 6800 3800 4500 5700 11000 5700 19400v3700h-35700c100 5200 1700 9400 4600 12600s6600 4800 11100 4800c3100 0 5800-700 8000-2000 2300-1200 4200-3000 5800-5100l5600 4300c-4500 6800-11100 10200-19900 10200zm-1200-47300c-3600 0-6600 1300-9100 4000-2500 2600-4000 6400-4600 11100h26400v-600c-200-4600-1500-8200-3700-10700-2200-2600-5200-3800-9000-3800z"/><path id="22" class="fil4" d="M7054600 1755200h-29800v31300h-9300v-70900h43900v7600h-34600v24300h29800z"/><path id="23" class="fil4" d="M7079000 1786500h-9000v-52700h9000v52700zm-9700-66700c0-1500 400-2700 1300-3700s2200-1500 4000-1500c1700 0 3100 500 4000 1500s1300 2200 1300 3700-400 2700-1300 3700-2300 1400-4000 1400c-1800 0-3100-400-4000-1400s-1300-2200-1300-3700z"/><path id="24" class="fil4" d="M7103200 1786500h-9000v-74800h9000z"/><path id="25" class="fil4" d="M7139500 1787500c-7100 0-12900-2300-17400-7000s-6700-11000-6700-18900v-1600c0-5200 1000-9900 3000-14000s4700-7400 8300-9700 7500-3500 11700-3500c6900 0 12200 2300 16000 6800s5700 11000 5700 19400v3800h-35700c100 5200 1600 9400 4500 12500 3000 3200 6600 4800 11100 4800 3200 0 5900-600 8100-1900s4200-3000 5800-5200l5500 4300c-4400 6800-11000 10200-19900 10200zm-1100-47300c-3600 0-6700 1300-9100 4000-2500 2700-4000 6400-4600 11200h26400v-700c-300-4600-1500-8200-3700-10700s-5200-3800-9000-3800z"/><path id="26" class="fil4" d="M7201200 1772500c0-2400-900-4300-2700-5600-1800-1400-5000-2500-9600-3500s-8200-2200-10900-3500c-2700-1400-4600-3000-5900-4900s-1900-4100-1900-6700c0-4300 1800-8000 5400-11000 3700-3000 8400-4500 14100-4500 5900 0 10800 1600 14500 4700 3700 3000 5600 7000 5600 11800h-9100c0-2500-1000-4600-3100-6400s-4800-2700-7900-2700c-3300 0-5900 700-7800 2200-1800 1400-2700 3300-2700 5600 0 2100 800 3800 2500 4900 1800 1100 4900 2200 9400 3200s8100 2200 10900 3600 4900 3000 6200 5000c1400 2000 2100 4400 2100 7200 0 4700-1900 8500-5700 11300-3700 2900-8600 4300-14700 4300-4200 0-7900-700-11200-2200-3200-1500-5800-3600-7600-6300s-2800-5600-2800-8700h9100c100 3000 1300 5400 3600 7200s5200 2600 8900 2600c3400 0 6200-600 8300-2000 2000-1400 3000-3300 3000-5600z"/><path class="fil5" d="M9132900 486400c86200 0 162200 44000 206600 110700 6400-600 12800-900 19400-900 106500 0 193000 86400 193000 193000s-86500 193000-193000 193000h-471700c-86800 0-157100-70300-157100-157100s70300-157100 157100-157100c2300 0 4500 0 6700 100 29000-104800 125000-181700 239000-181700z"/><g id="_1507270457152"><path class="fil2 str0" d="M876700 425000c48000-12700 101200-19700 157300-19700 56000 0 109300 7000 157300 19700M1505900 425000c-48000 12700-101200 19700-157300 19700-56000 0-109300-7000-157300-19700M1505900 425000c48100-12700 101300-19700 157400-19700 56000 0 109300 7000 157300 19700M2135200 425000c-48000 12700-101300 19700-157300 19700s-109300-7000-157300-19700M2135200 425000c48100-12700 101300-19700 157300-19700 56100 0 109300 7000 157400 19700M2764500 425000c-48000 12700-101300 19700-157300 19700-56100 0-109300-7000-157300-19700M2764500 425000c48000-12700 101300-19700 157300-19700 56100 0 109300 7000 157300 19700M3393800 425000c-48100 12700-101300 19700-157300 19700-56100 0-109300-7000-157400-19700"/><g><path class="fil2 str0" d="M876700 621200c48000-12700 101200-19800 157300-19800 56000 0 109300 7100 157300 19800M1505900 621200c-48000 12600-101200 19700-157300 19700-56000 0-109300-7100-157300-19700M1505900 621200c48100-12700 101300-19800 157400-19800 56000 0 109300 7100 157300 19800M2135200 621200c-48000 12600-101300 19700-157300 19700s-109300-7100-157300-19700M2135200 621200c48100-12700 101300-19800 157300-19800 56100 0 109300 7100 157400 19800M2764500 621200c-48000 12600-101300 19700-157300 19700-56100 0-109300-7100-157300-19700M2764500 621200c48000-12700 101300-19800 157300-19800 56100 0 109300 7100 157300 19800M3393800 621200c-48100 12600-101300 19700-157300 19700-56100 0-109300-7100-157400-19700"/></g><g><path class="fil2 str0" d="M876700 817300c48000-12700 101200-19700 157300-19700 56000 0 109300 7000 157300 19700M1505900 817300c-48000 12700-101200 19700-157300 19700-56000 0-109300-7000-157300-19700M1505900 817300c48100-12700 101300-19700 157400-19700 56000 0 109300 7000 157300 19700M2135200 817300c-48000 12700-101300 19700-157300 19700s-109300-7000-157300-19700M2135200 817300c48100-12700 101300-19700 157300-19700 56100 0 109300 7000 157400 19700M2764500 817300c-48000 12700-101300 19700-157300 19700-56100 0-109300-7000-157300-19700M2764500 817300c48000-12700 101300-19700 157300-19700 56100 0 109300 7000 157300 19700M3393800 817300c-48100 12700-101300 19700-157300 19700-56100 0-109300-7000-157400-19700"/></g><g><path class="fil2 str0" d="M876700 1013500c48000-12700 101200-19800 157300-19800 56000 0 109300 7100 157300 19800M1505900 1013500c-48000 12600-101200 19700-157300 19700-56000 0-109300-7100-157300-19700M1505900 1013500c48100-12700 101300-19800 157400-19800 56000 0 109300 7100 157300 19800M2135200 1013500c-48000 12600-101300 19700-157300 19700s-109300-7100-157300-19700M2135200 1013500c48100-12700 101300-19800 157300-19800 56100 0 109300 7100 157400 19800M2764500 1013500c-48000 12600-101300 19700-157300 19700-56100 0-109300-7100-157300-19700M2764500 1013500c48000-12700 101300-19800 157300-19800 56100 0 109300 7100 157300 19800M3393800 1013500c-48100 12600-101300 19700-157300 19700-56100 0-109300-7100-157400-19700"/></g><g><path class="fil2 str0" d="M876700 1209600c48000-12700 101200-19700 157300-19700 56000 0 109300 7000 157300 19700M1505900 1209600c-48000 12700-101200 19800-157300 19800-56000 0-109300-7100-157300-19800M1505900 1209600c48100-12700 101300-19700 157400-19700 56000 0 109300 7000 157300 19700M2135200 1209600c-48000 12700-101300 19800-157300 19800s-109300-7100-157300-19800M2135200 1209600c48100-12700 101300-19700 157300-19700 56100 0 109300 7000 157400 19700M2764500 1209600c-48000 12700-101300 19800-157300 19800-56100 0-109300-7100-157300-19800M2764500 1209600c48000-12700 101300-19700 157300-19700 56100 0 109300 7000 157300 19700M3393800 1209600c-48100 12700-101300 19800-157300 19800-56100 0-109300-7100-157400-19800"/></g><g><path class="fil2 str0" d="M876700 1405800c48000-12700 101200-19800 157300-19800 56000 0 109300 7100 157300 19800M1505900 1405800c-48000 12600-101200 19700-157300 19700-56000 0-109300-7100-157300-19700M1505900 1405800c48100-12700 101300-19800 157400-19800 56000 0 109300 7100 157300 19800M2135200 1405800c-48000 12600-101300 19700-157300 19700s-109300-7100-157300-19700M2135200 1405800c48100-12700 101300-19800 157300-19800 56100 0 109300 7100 157400 19800M2764500 1405800c-48000 12600-101300 19700-157300 19700-56100 0-109300-7100-157300-19700M2764500 1405800c48000-12700 101300-19800 157300-19800 56100 0 109300 7100 157300 19800M3393800 1405800c-48100 12600-101300 19700-157300 19700-56100 0-109300-7100-157400-19700"/></g><g><path class="fil2 str0" d="M876700 1601900c48000-12600 101200-19700 157300-19700 56000 0 109300 7100 157300 19700M1505900 1601900c-48000 12700-101200 19800-157300 19800-56000 0-109300-7100-157300-19800M1505900 1601900c48100-12600 101300-19700 157400-19700 56000 0 109300 7100 157300 19700M2135200 1601900c-48000 12700-101300 19800-157300 19800s-109300-7100-157300-19800M2135200 1601900c48100-12600 101300-19700 157300-19700 56100 0 109300 7100 157400 19700M2764500 1601900c-48000 12700-101300 19800-157300 19800-56100 0-109300-7100-157300-19800M2764500 1601900c48000-12600 101300-19700 157300-19700 56100 0 109300 7100 157300 19700M3393800 1601900c-48100 12700-101300 19800-157300 19800-56100 0-109300-7100-157400-19800"/></g><g><path class="fil2 str0" d="M876700 1798100c48000-12700 101200-19800 157300-19800 56000 0 109300 7100 157300 19800M1505900 1798100c-48000 12700-101200 19700-157300 19700-56000 0-109300-7000-157300-19700M1505900 1798100c48100-12700 101300-19800 157400-19800 56000 0 109300 7100 157300 19800M2135200 1798100c-48000 12700-101300 19700-157300 19700s-109300-7000-157300-19700M2135200 1798100c48100-12700 101300-19800 157300-19800 56100 0 109300 7100 157400 19800M2764500 1798100c-48000 12700-101300 19700-157300 19700-56100 0-109300-7000-157300-19700M2764500 1798100c48000-12700 101300-19800 157300-19800 56100 0 109300 7100 157300 19800M3393800 1798100c-48100 12700-101300 19700-157300 19700-56100 0-109300-7000-157400-19700"/></g></g><path class="fil3" d="M9224700 853400c31100 0 58500 15900 74500 40000 2300-200 4700-400 7000-400 38500 0 69600 31200 69600 69700 0 38400-31100 69600-69600 69600h-170100c-31300 0-56600-25400-56600-56700s25300-56700 56600-56700c800 0 1600 100 2400 100 10500-37800 45100-65600 86200-65600z"/><g id="_1507268802848"><path class="fil5" d="M2575300 601500l-523600 44700 99100 141000c102900-37700 224600-1900 341600-22600l82900-163100zM2317800 598600l-147000 37400 99600-301500zM2508900 591900l-214400-225100 45200 230400z"/></g><path class="fil6" d="M8379000 409400c-69000 0-129700 35200-165300 88700-5100-600-10300-800-15500-800-85300 0-154500 69100-154500 154500 0 85300 69200 154400 154500 154400h377500c69400 0 125700-56300 125700-125700 0-69500-56300-125800-125700-125800-1800 0-3600 100-5400 200-23200-83900-100000-145500-191300-145500zM9067000 1143300c-102700 0-193200 52400-246100 132000-7600-700-15300-1100-23100-1100-127000 0-230000 103000-230000 230000s103000 230000 230000 230000h562100c103400 0 187200-83800 187200-187200 0-103500-83800-187300-187200-187300-2700 0-5400 100-8100 200-34500-124900-148900-216600-284800-216600z"/><path class="fil5" d="M8122100 1628100c-36600 0-68800 18700-87700 47100-2700-300-5400-400-8200-400-45300 0-82000 36700-82000 81900 0 45300 36700 82000 82000 82000h200300c36800 0 66700-29900 66700-66700 0-36900-29900-66800-66700-66800-1000 0-1900 100-2900 100-12300-44500-53000-77200-101500-77200z"/><path class="fil0" mask="url(#id0)" d="M9417400 0h-619200v2277900h619200z"/><path class="fil0" d="M9338400 348400h1907300v1581100H9338400z"/><path class="fil4" d="M4569200 441000c-1000 8400-4100 14800-9300 19300-5200 4600-12100 6800-20700 6800-9300 0-16800-3300-22400-10000s-8400-15600-8400-26900v-7500c0-7400 1300-13800 3900-19400 2700-5600 6400-9900 11200-12800 4800-3000 10300-4500 16600-4500 8500 0 15200 2300 20200 7000 5100 4700 8000 11200 8900 19400h-10500c-900-6300-2900-10800-5900-13600-3000-2900-7200-4300-12700-4300-6600 0-11800 2500-15600 7400s-5600 11900-5600 21000v7600c0 8600 1800 15400 5300 20500 3600 5100 8600 7600 15000 7600 5800 0 10300-1300 13300-3900 3100-2600 5200-7200 6200-13700h10500z"/><path id="1" class="fil4" d="M4579100 436200c0-5800 1100-10900 3400-15500s5400-8200 9400-10700c4100-2500 8700-3700 13800-3700 8000 0 14500 2800 19400 8300s7400 12900 7400 22100v700c0 5700-1100 10800-3300 15300-2200 4600-5300 8100-9400 10600-4000 2600-8700 3800-14000 3800-7900 0-14400-2700-19300-8300-4900-5500-7400-12800-7400-21900v-700zm10100 1200c0 6400 1500 11700 4500 15600 3000 4000 7100 5900 12100 5900 5100 0 9200-2000 12200-6000s4500-9600 4500-16800c0-6400-1500-11600-4600-15600s-7100-6000-12200-6000c-4900 0-8900 2000-12000 5900-3000 4000-4500 9600-4500 17000z"/><path id="2" class="fil4" d="M4654600 407400l300 7400c4500-5700 10400-8500 17600-8500 12400 0 18600 7000 18700 21000v38700h-10000v-38800c0-4200-1000-7300-2900-9300s-4800-3100-8900-3100c-3200 0-6100 900-8500 2600-2500 1800-4400 4100-5800 6900v41700h-10000v-58600h9500z"/><path id="3" class="fil4" d="M4720000 393200v14200h10900v7800h-10900v36300c0 2400 500 4100 1500 5300 900 1200 2600 1800 4900 1800 1200 0 2800-200 4800-700v8200c-2600 700-5200 1000-7700 1000-4500 0-7900-1300-10100-4000-2300-2700-3400-6600-3400-11600v-36300h-10700v-7800h10700v-14200h10000z"/><path id="4" class="fil4" d="M4753500 466000h-10000v-58600h10000v58600zm-10800-74200c0-1600 500-3000 1500-4100 1000-1200 2500-1700 4400-1700 2000 0 3400 500 4400 1700 1100 1100 1600 2500 1600 4100s-500 3000-1600 4100c-1000 1100-2400 1600-4400 1600-1900 0-3400-500-4400-1600s-1500-2500-1500-4100z"/><path id="5" class="fil4" d="M4779100 407400l300 7400c4500-5700 10300-8500 17500-8500 12400 0 18700 7000 18800 21000v38700h-10000v-38800c-100-4200-1000-7300-2900-9300s-4900-3100-8900-3100c-3200 0-6100 900-8600 2600-2400 1800-4300 4100-5700 6900v41700h-10000v-58600h9500z"/><path id="6" class="fil4" d="M4867000 460300c-3900 4500-9600 6800-17200 6800-6200 0-11000-1800-14200-5400-3300-3700-5000-9000-5000-16100v-38200h10000v37900c0 8800 3600 13300 10900 13300 7600 0 12700-2900 15200-8600v-42600h10100v58600h-9600l-200-5700z"/><path id="7" class="fil4" d="M4889400 436200c0-5800 1100-10900 3300-15500 2300-4600 5400-8200 9500-10700 4000-2500 8600-3700 13800-3700 8000 0 14400 2800 19400 8300 4900 5500 7300 12900 7300 22100v700c0 5700-1100 10800-3200 15300-2200 4600-5400 8100-9400 10600-4100 2600-8800 3800-14000 3800-8000 0-14400-2700-19300-8300-5000-5500-7400-12800-7400-21900v-700zm10000 1200c0 6400 1500 11700 4600 15600 3000 4000 7000 5900 12100 5900s9100-2000 12100-6000 4500-9600 4500-16800c0-6400-1500-11600-4600-15600-3000-4000-7100-6000-12100-6000s-9000 2000-12000 5900c-3000 4000-4600 9600-4600 17000z"/><path id="8" class="fil4" d="M4991500 460300c-3900 4500-9600 6800-17100 6800-6300 0-11100-1800-14300-5400-3300-3700-5000-9000-5000-16100v-38200h10000v37900c0 8800 3600 13300 10900 13300 7600 0 12700-2900 15300-8600v-42600h10000v58600h-9600l-200-5700z"/><path id="9" class="fil4" d="M5050700 450500c0-2700-1000-4800-3100-6300-2000-1500-5500-2800-10600-3900s-9100-2400-12100-3900-5200-3300-6600-5400c-1500-2100-2200-4600-2200-7500 0-4800 2100-8900 6100-12200 4100-3300 9300-5000 15600-5000 6700 0 12100 1700 16200 5100 4100 3500 6200 7900 6200 13200h-10100c0-2700-1100-5100-3500-7100-2300-2000-5300-3000-8800-3000-3700 0-6500 800-8600 2400-2000 1600-3000 3700-3000 6200s900 4300 2800 5500 5400 2400 10400 3500c5000 1200 9100 2500 12200 4000 3100 1600 5400 3500 6900 5700s2200 4800 2200 8000c0 5200-2100 9400-6300 12600-4100 3100-9600 4700-16300 4700-4700 0-8800-800-12400-2500-3600-1600-6500-3900-8500-6900-2100-3000-3100-6200-3100-9700h10000c200 3400 1600 6000 4100 8000 2500 1900 5800 2900 9900 2900 3800 0 6900-700 9200-2300 2300-1500 3400-3600 3400-6100z"/><path id="10" class="fil4" d="M5113300 457500h37400v8500h-47900v-78900h10500z"/><path id="11" class="fil4" d="M5158300 436200c0-5800 1200-10900 3400-15500 2300-4600 5400-8200 9500-10700 4000-2500 8600-3700 13700-3700 8000 0 14500 2800 19400 8300 5000 5500 7400 12900 7400 22100v700c0 5700-1100 10800-3300 15300-2100 4600-5300 8100-9300 10600-4100 2600-8800 3800-14000 3800-8000 0-14400-2700-19400-8300-4900-5500-7400-12800-7400-21900v-700zm10100 1200c0 6400 1500 11700 4500 15600 3100 4000 7100 5900 12200 5900 5000 0 9100-2000 12100-6000s4500-9600 4500-16800c0-6400-1500-11600-4600-15600-3000-4000-7100-6000-12200-6000-4900 0-8900 2000-11900 5900-3100 4000-4600 9600-4600 17000z"/><path id="12" class="fil4" d="M5247800 458900c3600 0 6700-1100 9400-3200 2700-2200 4200-4900 4400-8100h9500c-200 3300-1300 6500-3400 9600-2200 3000-5000 5400-8600 7200-3500 1800-7300 2700-11300 2700-8000 0-14300-2600-19000-8000-4700-5300-7100-12600-7100-21800v-1700c0-5700 1000-10800 3100-15300 2100-4400 5100-7900 9100-10300 3900-2500 8500-3700 13900-3700 6500 0 12000 2000 16400 5900 4300 3900 6600 9100 6900 15300h-9500c-200-3800-1700-6900-4300-9300-2500-2500-5700-3700-9500-3700-5100 0-9100 1800-11900 5500s-4200 9000-4200 15900v1900c0 6800 1400 12000 4200 15600 2800 3700 6800 5500 11900 5500z"/><path id="13" class="fil4" d="M5318600 466000c-500-1100-1000-3200-1400-6100-4600 4800-10200 7200-16600 7200-5800 0-10600-1600-14300-4900-3700-3200-5500-7400-5500-12400 0-6100 2300-10900 6900-14200 4700-3400 11200-5100 19600-5100h9800v-4600c0-3500-1100-6300-3200-8400s-5200-3100-9200-3100c-3600 0-6600 900-9000 2700-2500 1800-3700 4000-3700 6600h-10000c0-3000 1000-5800 3100-8500 2100-2800 4900-4900 8400-6500 3600-1600 7500-2400 11800-2400 6700 0 12000 1700 15800 5100 3900 3300 5900 8000 6000 13900v27000c0 5400 700 9700 2100 12900v800h-10600zm-16600-7400c3200 0 6100-800 9000-2500 2800-1600 4800-3800 6100-6400v-12100h-7900c-12300 0-18400 3600-18400 10900 0 3200 1000 5600 3100 7400s4800 2700 8100 2700z"/><path id="14" class="fil4" d="M5353700 466000h-10000v-83200h10000z"/><path id="15" class="fil4" d="M5380700 466000h-10000v-58600h10000v58600zm-10900-74200c0-1600 500-3000 1500-4100 1000-1200 2500-1700 4400-1700 2000 0 3500 500 4500 1700 1000 1100 1500 2500 1500 4100s-500 3000-1500 4100-2500 1600-4500 1600c-1900 0-3400-500-4400-1600s-1500-2500-1500-4100z"/><path id="16" class="fil4" d="M5406100 457800h34300v8200h-46500v-7400l32300-42900h-31800v-8300h44400v7100z"/><path id="17" class="fil4" d="M5487900 466000c-500-1100-1000-3200-1400-6100-4600 4800-10200 7200-16700 7200-5700 0-10500-1600-14200-4900-3700-3200-5500-7400-5500-12400 0-6100 2300-10900 6900-14200 4700-3400 11200-5100 19600-5100h9800v-4600c0-3500-1100-6300-3200-8400s-5200-3100-9200-3100c-3600 0-6600 900-9000 2700-2500 1800-3700 4000-3700 6600h-10000c0-3000 1000-5800 3100-8500 2000-2800 4900-4900 8400-6500 3600-1600 7500-2400 11800-2400 6700 0 12000 1700 15800 5100 3900 3300 5900 8000 6000 13900v27000c0 5400 700 9700 2100 12900v800h-10600zm-16600-7400c3200 0 6100-800 8900-2500 2900-1600 4900-3800 6200-6400v-12100h-7900c-12300 0-18400 3600-18400 10900 0 3200 1000 5600 3100 7400s4800 2700 8100 2700z"/><path id="18" class="fil4" d="M5525800 393200v14200h10900v7800h-10900v36300c0 2400 400 4100 1400 5300s2600 1800 5000 1800c1200 0 2700-200 4800-700v8200c-2700 700-5200 1000-7700 1000-4500 0-7900-1300-10200-4000-2200-2700-3400-6600-3400-11600v-36300h-10700v-7800h10700v-14200h10100z"/><path id="19" class="fil4" d="M5559300 466000h-10000v-58600h10000v58600zm-10800-74200c0-1600 500-3000 1400-4100 1000-1200 2500-1700 4500-1700 1900 0 3400 500 4400 1700 1000 1100 1500 2500 1500 4100s-500 3000-1500 4100-2500 1600-4400 1600c-2000 0-3500-500-4500-1600-900-1100-1400-2500-1400-4100z"/><path id="20" class="fil4" d="M5572700 436200c0-5800 1100-10900 3300-15500 2300-4600 5400-8200 9500-10700 4000-2500 8600-3700 13800-3700 8000 0 14400 2800 19400 8300 4900 5500 7300 12900 7300 22100v700c0 5700-1100 10800-3200 15300-2200 4600-5300 8100-9400 10600-4100 2600-8800 3800-14000 3800-8000 0-14400-2700-19300-8300-5000-5500-7400-12800-7400-21900v-700zm10000 1200c0 6400 1500 11700 4600 15600 3000 4000 7000 5900 12100 5900s9100-2000 12100-6000 4500-9600 4500-16800c0-6400-1500-11600-4600-15600-3000-4000-7100-6000-12100-6000s-9000 2000-12000 5900c-3000 4000-4600 9600-4600 17000z"/><path id="21" class="fil4" d="M5648100 407400l400 7400c4400-5700 10300-8500 17500-8500 12400 0 18700 7000 18800 21000v38700h-10000v-38800c-100-4200-1000-7300-2900-9300s-4900-3100-8900-3100c-3300 0-6100 900-8600 2600-2400 1800-4300 4100-5700 6900v41700h-10000v-58600h9400z"/><path id="22" class="fil4" d="M5752200 430900c-8900-2600-15400-5800-19500-9500-4100-3800-6100-8400-6100-13900 0-6200 2500-11300 7500-15400 4900-4100 11400-6100 19300-6100 5400 0 10300 1000 14500 3100 4300 2100 7600 5000 9900 8700s3500 7700 3500 12100h-10500c0-4800-1500-8500-4500-11300-3000-2700-7300-4100-12900-4100-5100 0-9100 1200-12000 3400-2800 2300-4300 5400-4300 9400 0 3300 1400 6000 4100 8200s7400 4300 13900 6100c6600 1900 11700 3900 15400 6100s6500 4800 8300 7800 2700 6500 2700 10500c0 6400-2500 11500-7500 15400-5000 3800-11700 5700-20000 5700-5400 0-10500-1000-15200-3100s-8300-4900-10900-8500c-2500-3600-3800-7700-3800-12300h10500c0 4700 1700 8500 5300 11200 3500 2800 8200 4200 14100 4200 5500 0 9700-1100 12600-3400 2900-2200 4400-5300 4400-9100 0-3900-1400-6900-4100-9000s-7600-4200-14700-6200z"/><path id="23" class="fil4" d="M5817600 467100c-8000 0-14400-2600-19400-7800s-7500-12200-7500-21000v-1800c0-5800 1100-11000 3300-15600 2300-4600 5400-8100 9400-10700s8300-3900 12900-3900c7700 0 13600 2500 17800 7500 4200 5100 6400 12300 6400 21600v4200h-39800c200 5800 1900 10400 5100 14000 3200 3500 7300 5300 12300 5300 3600 0 6600-700 9000-2100 2500-1500 4600-3400 6500-5800l6100 4800c-4900 7600-12300 11300-22100 11300zm-1300-52600c-4000 0-7400 1500-10100 4500-2800 2900-4500 7100-5100 12400h29300v-800c-200-5100-1600-9100-4100-11900-2400-2800-5800-4200-10000-4200z"/><path id="24" class="fil4" d="M5880400 416300c-1500-200-3200-300-4900-300-6600 0-11100 2800-13400 8400v41600h-10100v-58600h9800l200 6800c3200-5300 7900-7900 13900-7900 2000 0 3500 300 4500 800v9200z"/><path id="25" class="fil4" d="M5909900 452400l14600-45000h10200l-21000 58600h-7700l-21200-58600h10200z"/><path id="26" class="fil4" d="M5968000 467100c-7900 0-14400-2600-19400-7800s-7500-12200-7500-21000v-1800c0-5800 1100-11000 3400-15600 2200-4600 5300-8100 9300-10700s8300-3900 13000-3900c7600 0 13500 2500 17800 7500 4200 5100 6300 12300 6300 21600v4200h-39700c100 5800 1800 10400 5000 14000 3300 3500 7400 5300 12400 5300 3500 0 6500-700 9000-2100 2400-1500 4600-3400 6400-5800l6100 4800c-4900 7600-12300 11300-22100 11300zm-1200-52600c-4100 0-7500 1500-10200 4500-2800 2900-4500 7100-5100 12400h29400v-800c-300-5100-1700-9100-4200-11900-2400-2800-5700-4200-9900-4200z"/><path id="27" class="fil4" d="M6030800 416300c-1500-200-3200-300-4900-300-6600 0-11100 2800-13400 8400v41600h-10000v-58600h9700l200 6800c3300-5300 7900-7900 14000-7900 1900 0 3400 300 4400 800v9200z"/><path id="28" class="fil4" d="M6095800 416300c-1500-200-3100-300-4900-300-6600 0-11000 2800-13400 8400v41600h-10000v-58600h9700l200 6800c3300-5300 8000-7900 14000-7900 2000 0 3400 300 4400 800v9200z"/><path id="29" class="fil4" d="M6141300 460300c-3900 4500-9700 6800-17200 6800-6300 0-11000-1800-14300-5400-3300-3700-4900-9000-4900-16100v-38200h10000v37900c0 8800 3600 13300 10800 13300 7700 0 12800-2900 15300-8600v-42600h10000v58600h-9500l-200-5700z"/><path id="30" class="fil4" d="M6175800 407400l300 7400c4500-5700 10300-8500 17600-8500 12400 0 18600 7000 18700 21000v38700h-10000v-38800c0-4200-1000-7300-2900-9300s-4900-3100-8900-3100c-3200 0-6100 900-8500 2600-2500 1800-4400 4100-5800 6900v41700h-10000v-58600h9500z"/><path id="31" class="fil4" d="M6237000 407400l400 7400c4400-5700 10300-8500 17500-8500 12400 0 18700 7000 18800 21000v38700h-10000v-38800c-100-4200-1000-7300-3000-9300-1800-2000-4800-3100-8800-3100-3300 0-6100 900-8600 2600-2400 1800-4300 4100-5700 6900v41700h-10000v-58600h9400z"/><path id="32" class="fil4" d="M6299700 466000h-10000v-58600h10000v58600zm-10800-74200c0-1600 500-3000 1500-4100 1000-1200 2400-1700 4400-1700 1900 0 3400 500 4400 1700 1000 1100 1500 2500 1500 4100s-500 3000-1500 4100-2500 1600-4400 1600c-2000 0-3400-500-4400-1600s-1500-2500-1500-4100z"/><path id="33" class="fil4" d="M6325200 407400l400 7400c4400-5700 10300-8500 17500-8500 12400 0 18700 7000 18800 21000v38700h-10100v-38800c0-4200-1000-7300-2900-9300-1800-2000-4800-3100-8800-3100-3300 0-6100 900-8600 2600-2400 1800-4400 4100-5700 6900v41700h-10100v-58600h9500z"/><path id="34" class="fil4" d="M6374600 436200c0-9100 2100-16400 6300-21800 4300-5400 9900-8100 16900-8100 7100 0 12700 2500 16700 7600l500-6500h9200v57200c0 7600-2300 13600-6800 18000-4500 4300-10500 6500-18100 6500-4300 0-8400-900-12400-2700-4100-1800-7200-4300-9300-7400l5200-6000c4300 5300 9500 7900 15800 7900 4800 0 8600-1400 11400-4100 2700-2700 4100-6600 4100-11600v-5000c-4000 4600-9500 6900-16500 6900-6800 0-12400-2700-16600-8300-4300-5500-6400-13000-6400-22600zm10100 1200c0 6600 1300 11800 4100 15500 2700 3800 6500 5700 11300 5700 6400 0 11000-2900 14000-8600v-26800c-3100-5600-7700-8400-13800-8400-4900 0-8700 1900-11500 5700-2700 3800-4100 9400-4100 16900z"/><path id="35" class="fil4" d="M6491600 430900c-9000-2600-15500-5800-19500-9500-4100-3800-6100-8400-6100-13900 0-6200 2500-11300 7400-15400 5000-4100 11500-6100 19400-6100 5400 0 10300 1000 14500 3100 4300 2100 7500 5000 9900 8700 2300 3700 3500 7700 3500 12100h-10500c0-4800-1500-8500-4500-11300-3100-2700-7400-4100-12900-4100-5100 0-9100 1200-12000 3400-2900 2300-4300 5400-4300 9400 0 3300 1300 6000 4100 8200 2700 2200 7400 4300 13900 6100 6600 1900 11700 3900 15400 6100s6500 4800 8300 7800c1700 3000 2600 6500 2600 10500 0 6400-2500 11500-7400 15400-5000 3800-11700 5700-20000 5700-5500 0-10500-1000-15200-3100s-8300-4900-10900-8500-3800-7700-3800-12300h10400c0 4700 1800 8500 5300 11200 3500 2800 8200 4200 14200 4200 5400 0 9700-1100 12600-3400 2900-2200 4400-5300 4400-9100 0-3900-1400-6900-4100-9000s-7600-4200-14700-6200z"/><path id="36" class="fil4" d="M6557000 467100c-8000 0-14500-2600-19400-7800-5000-5200-7500-12200-7500-21000v-1800c0-5800 1100-11000 3300-15600s5300-8100 9300-10700 8400-3900 13000-3900c7600 0 13600 2500 17800 7500 4200 5100 6300 12300 6300 21600v4200h-39700c200 5800 1800 10400 5100 14000 3200 3500 7300 5300 12300 5300 3600 0 6600-700 9000-2100 2500-1500 4600-3400 6500-5800l6100 4800c-4900 7600-12300 11300-22100 11300zm-1300-52600c-4000 0-7400 1500-10200 4500-2700 2900-4400 7100-5100 12400h29400v-800c-300-5100-1600-9100-4100-11900s-5800-4200-10000-4200z"/><path id="37" class="fil4" d="M6619800 416300c-1600-200-3200-300-5000-300-6500 0-11000 2800-13400 8400v41600h-10000v-58600h9800l100 6800c3300-5300 8000-7900 14000-7900 2000 0 3500 300 4500 800v9200z"/><path id="38" class="fil4" d="M6625600 436200c0-9100 2100-16400 6300-21800s9900-8100 16800-8100c7200 0 12800 2500 16800 7600l500-6500h9100v57200c0 7600-2200 13600-6700 18000-4500 4300-10600 6500-18100 6500-4300 0-8400-900-12500-2700-4000-1800-7100-4300-9200-7400l5200-6000c4300 5300 9500 7900 15700 7900 4900 0 8700-1400 11500-4100 2700-2700 4100-6600 4100-11600v-5000c-4100 4600-9500 6900-16500 6900-6800 0-12400-2700-16600-8300-4300-5500-6400-13000-6400-22600zm10100 1200c0 6600 1300 11800 4000 15500 2700 3800 6500 5700 11400 5700 6400 0 11000-2900 14000-8600v-26800c-3100-5600-7700-8400-13900-8400-4900 0-8700 1900-11400 5700-2800 3800-4100 9400-4100 16900z"/><path id="39" class="fil4" d="M6714600 467100c-7900 0-14400-2600-19400-7800s-7500-12200-7500-21000v-1800c0-5800 1100-11000 3300-15600 2300-4600 5400-8100 9400-10700s8300-3900 13000-3900c7600 0 13500 2500 17700 7500 4300 5100 6400 12300 6400 21600v4200h-39800c200 5800 1900 10400 5100 14000 3300 3500 7400 5300 12400 5300 3500 0 6500-700 9000-2100 2400-1500 4600-3400 6400-5800l6100 4800c-4900 7600-12300 11300-22100 11300zm-1200-52600c-4100 0-7500 1500-10200 4500-2800 2900-4500 7100-5100 12400h29400v-800c-300-5100-1700-9100-4200-11900-2400-2800-5800-4200-9900-4200z"/><path class="fil0" mask="url(#id2)" d="M1829800 0h619200v2277900h-619200z"/><path class="fil0" d="M0 319700h1907300v1581100H0z"/><g id="_1507268764960"><path class="fil7 str1" d="M6807000 704200h390400v529900h-390400z"/><path class="fil8 str1" d="M6873300 796600h108900M6873300 879600h108900M6873300 962600h108900"/><path class="fil9" d="M6933400 1165200c0-2800 900-5100 2800-6900 2000-1700 4300-2600 7200-2600 3000 0 5400 900 7300 2600 1900 1800 2900 4100 2900 6900s-1000 5100-2900 6800c-1900 1800-4300 2600-7300 2600-2900 0-5300-800-7200-2600-1900-1700-2800-4000-2800-6800z"/><path id="1" class="fil9" d="M6991000 1142400v31600h-18500v-89800h35100c6700 0 12700 1200 17800 3700 5100 2400 9000 5900 11800 10500 2700 4500 4100 9700 4100 15500 0 8800-3000 15800-9000 20900s-14400 7600-25000 7600h-16300zm0-15000h16600c4900 0 8600-1200 11200-3500 2500-2300 3800-5600 3800-9800 0-4400-1300-8000-3900-10700s-6100-4100-10700-4200h-17000v28200z"/><path id="2" class="fil9" d="M7132300 1131100c0 8900-1600 16600-4700 23300-3200 6700-7600 11800-13400 15400-5900 3700-12500 5500-20100 5500-7400 0-14100-1800-19900-5400-5900-3600-10400-8700-13600-15300-3200-6700-4800-14300-4900-23000v-4400c0-8900 1600-16700 4800-23400s7700-11900 13500-15500c5900-3600 12500-5400 20000-5400s14100 1800 20000 5400c5800 3600 10300 8800 13500 15500s4800 14500 4800 23300v4000zm-18800-4100c0-9400-1700-16600-5000-21500-3400-4900-8200-7300-14500-7300-6200 0-11000 2400-14400 7200-3400 4900-5100 12000-5100 21300v4400c0 9200 1700 16400 5100 21400 3300 5100 8200 7600 14500 7600 6200 0 11000-2400 14400-7300 3300-4900 5000-12000 5000-21400v-4400z"/><path class="fil8 str1" d="M7022300 796600h108900M7022300 879600h108900M7022300 962600h108900"/><g><path class="fil7 str1" d="M6914900 845300h390400v529900h-390400z"/><path class="fil8 str1" d="M6981100 937600h109000M6981100 1020700h109000M6981100 1103700h109000"/><path class="fil9" d="M7041300 1306300c0-2800 900-5200 2800-6900 1900-1800 4300-2700 7200-2700s5400 900 7300 2700c1900 1700 2800 4100 2800 6900s-900 5000-2800 6800c-1900 1700-4300 2600-7300 2600-2900 0-5300-900-7200-2600-1900-1800-2800-4000-2800-6800z"/><path id="1" class="fil9" d="M7098900 1283500v31600h-18500v-89900h35100c6700 0 12600 1200 17800 3700 5100 2500 9000 6000 11800 10500 2700 4600 4100 9800 4100 15600 0 8800-3000 15700-9000 20800-6100 5100-14400 7700-25100 7700h-16200zm0-15100h16600c4800 0 8600-1100 11200-3400 2500-2300 3800-5600 3800-9900 0-4400-1300-8000-3900-10700s-6200-4100-10700-4200h-17000v28200z"/><path id="2" class="fil9" d="M7240200 1272200c0 8800-1600 16600-4700 23200-3200 6700-7600 11900-13500 15500-5800 3600-12500 5400-20000 5400-7400 0-14100-1800-19900-5400-5900-3500-10400-8600-13600-15300-3200-6600-4800-14300-4900-22900v-4500c0-8800 1600-16600 4800-23400 3200-6700 7700-11900 13500-15500s12500-5400 20000-5400 14100 1800 20000 5400c5800 3600 10300 8800 13500 15500 3200 6800 4800 14500 4800 23300v4100zm-18800-4100c0-9500-1700-16600-5100-21500s-8200-7400-14400-7400-11000 2400-14400 7300c-3400 4800-5100 11900-5100 21300v4400c0 9200 1700 16300 5100 21300 3300 5100 8200 7700 14500 7700 6200 0 11000-2500 14300-7400 3400-4800 5000-12000 5100-21300v-4400z"/><path class="fil8 str1" d="M7130100 937600h109000M7130100 1020700h109000M7130100 1103700h109000"/></g><g><path class="fil7 str1" d="M7022800 986300h390400v529900h-390400z"/><path class="fil8 str1" d="M7089000 1078700h109000M7089000 1161700h109000M7089000 1244700h109000"/><path class="fil9" d="M7149100 1447300c0-2800 1000-5100 2900-6900 1900-1700 4300-2600 7200-2600s5300 900 7200 2600c2000 1800 2900 4100 2900 6900s-900 5100-2800 6800c-1900 1800-4300 2600-7300 2600-2900 0-5300-800-7200-2600-1900-1700-2900-4000-2900-6800z"/><path id="1" class="fil9" d="M7206800 1424500v31600h-18500v-89900h35000c6800 0 12700 1300 17800 3700 5100 2500 9100 6000 11800 10600 2800 4500 4200 9700 4200 15500 0 8800-3000 15800-9100 20900-6000 5100-14300 7600-25000 7600h-16200zm0-15000h16500c4900 0 8600-1200 11200-3500s3900-5600 3900-9900c0-4400-1300-7900-3900-10600-2600-2800-6200-4100-10700-4200h-17000v28200z"/><path id="2" class="fil9" d="M7348000 1413200c0 8900-1500 16600-4700 23300-3100 6700-7600 11800-13400 15400-5800 3700-12500 5500-20000 5500s-14100-1800-19900-5400c-5900-3600-10400-8700-13600-15400-3200-6600-4800-14300-4900-22900v-4500c0-8800 1600-16600 4800-23300 3200-6800 7700-11900 13500-15500s12500-5400 20000-5400 14100 1800 19900 5400 10400 8700 13500 15500c3200 6700 4800 14500 4800 23300v4000zm-18700-4100c0-9400-1700-16600-5100-21500s-8200-7300-14400-7300c-6300 0-11000 2400-14400 7200-3400 4900-5100 12000-5100 21300v4400c0 9200 1600 16300 5000 21400s8200 7600 14600 7600c6200 0 11000-2500 14300-7300 3300-4900 5000-12000 5100-21400v-4400z"/><path class="fil8 str1" d="M7238000 1078700h109000M7238000 1161700h109000M7238000 1244700h109000"/></g></g><path class="fil4" d="M5598200 1123800h-27500v74800h-18500v-74800h-27200v-15000h73200z"/><path id="1" class="fil4" d="M5637400 1108800l23100 65200 23000-65200h24300v89800h-18600v-24500l1900-42400-24300 66900h-12700l-24200-66900 1800 42400v24500h-18500v-89800z"/><path class="fil4" d="M2394700 1650400c-8000-2400-13900-5200-17500-8600-3700-3300-5500-7500-5500-12400 0-5600 2200-10200 6700-13900s10300-5500 17400-5500c4900 0 9300 1000 13100 2800 3800 1900 6700 4500 8800 7900 2100 3300 3200 6900 3200 10800h-9400c0-4300-1400-7700-4100-10100-2700-2500-6600-3700-11600-3700-4600 0-8200 1000-10800 3100-2600 2000-3800 4800-3800 8400 0 2900 1200 5400 3600 7400 2500 2000 6700 3800 12600 5500 5900 1600 10500 3500 13800 5500 3300 1900 5800 4300 7400 7000 1600 2600 2400 5800 2400 9400 0 5700-2200 10300-6700 13800s-10500 5200-18000 5200c-4900 0-9400-1000-13600-2800-4200-1900-7500-4500-9800-7700s-3400-6900-3400-11100h9400c0 4300 1500 7700 4700 10200s7400 3700 12700 3700c5000 0 8700-1000 11400-3000 2600-2000 3900-4800 3900-8200 0-3500-1200-6200-3600-8100-2500-1900-6900-3800-13300-5600z"/><path id="1" class="fil4" d="M2429200 1655100c0-5100 1000-9800 3100-13900 2000-4100 4800-7300 8400-9600 3700-2200 7800-3300 12400-3300 7200 0 13000 2500 17500 7400 4400 5000 6600 11600 6600 19900v600c0 5200-1000 9800-2900 13800-2000 4100-4800 7300-8500 9600-3600 2200-7800 3400-12600 3400-7100 0-12900-2500-17300-7500-4500-4900-6700-11500-6700-19700v-700zm9100 1100c0 5800 1300 10500 4000 14100 2800 3500 6400 5300 10900 5300 4600 0 8300-1800 11000-5400 2600-3600 4000-8600 4000-15100 0-5800-1400-10400-4100-14000-2800-3600-6400-5400-11000-5400-4400 0-8000 1700-10700 5300-2700 3500-4100 8600-4100 15200z"/><path id="2" class="fil4" d="M2521100 1676800c-3500 4100-8700 6200-15500 6200-5600 0-9900-1600-12800-4900s-4400-8100-4500-14500v-34300h9100v34000c0 8000 3200 12000 9700 12000 6900 0 11500-2600 13700-7700v-38300h9100v52700h-8600l-200-5200z"/><path id="3" class="fil4" d="M2569000 1637300c-1300-200-2800-300-4400-300-5900 0-9900 2500-12000 7500v37500h-9000v-52700h8700l200 6100c2900-4800 7100-7100 12500-7100 1800 0 3100 200 4000 700v8300z"/><path id="4" class="fil4" d="M2597600 1675600c3200 0 6000-1000 8400-2900 2400-2000 3700-4400 4000-7300h8500c-200 3000-1200 5900-3100 8600s-4500 4900-7700 6600c-3200 1600-6600 2400-10100 2400-7200 0-12900-2400-17200-7200-4200-4800-6300-11400-6300-19700v-1500c0-5100 900-9700 2800-13700s4600-7100 8100-9300 7700-3300 12500-3300c5900 0 10800 1800 14800 5300 3900 3500 5900 8100 6200 13800h-8500c-300-3400-1600-6200-3900-8400s-5200-3300-8600-3300c-4600 0-8100 1600-10700 4900-2500 3300-3700 8100-3700 14300v1700c0 6100 1200 10800 3700 14100s6100 4900 10800 4900z"/><path id="5" class="fil4" d="M2650600 1683000c-7200 0-13000-2400-17500-7100s-6700-10900-6700-18800v-1700c0-5200 1000-9900 3000-14000s4800-7300 8400-9600c3600-2400 7500-3500 11600-3500 6900 0 12200 2200 16000 6800 3800 4500 5700 11000 5700 19400v3700h-35700c100 5200 1700 9400 4600 12600s6600 4800 11100 4800c3100 0 5800-700 8000-2000 2300-1200 4200-3000 5800-5100l5600 4300c-4500 6800-11100 10200-19900 10200zm-1200-47300c-3600 0-6600 1300-9100 4000-2500 2600-4000 6400-4600 11100h26400v-600c-200-4600-1500-8200-3700-10700-2200-2600-5200-3800-9000-3800z"/><path id="6" class="fil4" d="M2759900 1659500c-900 7500-3700 13300-8400 17400-4600 4000-10800 6100-18500 6100-8400 0-15100-3000-20200-9000-5000-6100-7600-14100-7600-24200v-6800c0-6600 1200-12400 3600-17400 2300-5000 5700-8900 10000-11600 4300-2600 9300-4000 15000-4000 7500 0 13600 2100 18100 6300 4600 4200 7200 10100 8000 17500h-9500c-700-5700-2500-9800-5200-12300s-6500-3800-11400-3800c-6000 0-10700 2200-14100 6600-3400 4500-5100 10800-5100 18900v6900c0 7700 1600 13800 4900 18400 3200 4500 7700 6800 13500 6800 5200 0 9100-1200 11900-3500 2800-2400 4700-6500 5500-12300h9500z"/><path id="7" class="fil4" d="M2768800 1655100c0-5100 1000-9800 3100-13900 2000-4100 4800-7300 8400-9600 3700-2200 7800-3300 12400-3300 7200 0 13000 2500 17500 7400 4400 5000 6600 11600 6600 19900v600c0 5200-1000 9800-2900 13800-2000 4100-4800 7300-8500 9600-3600 2200-7800 3400-12600 3400-7100 0-12900-2500-17300-7500-4500-4900-6700-11500-6700-19700v-700zm9100 1100c0 5800 1300 10500 4000 14100 2800 3500 6400 5300 10900 5300 4600 0 8300-1800 11000-5400 2600-3600 4000-8600 4000-15100 0-5800-1400-10400-4100-14000-2800-3600-6400-5400-11000-5400-4400 0-8000 1700-10700 5300-2800 3500-4100 8600-4100 15200z"/><path id="8" class="fil4" d="M2825900 1655200c0-8100 2000-14600 5800-19500s8800-7400 15100-7400c6100 0 11000 2100 14600 6300v-27500h9000v74900h-8200l-500-5700c-3600 4500-8600 6700-15000 6700-6200 0-11100-2500-15000-7500-3800-5000-5800-11600-5800-19600v-700zm9100 1000c0 6000 1200 10700 3700 14000 2400 3400 5900 5100 10200 5100 5700 0 9900-2600 12500-7700v-24200c-2700-4900-6800-7400-12400-7400-4400 0-7900 1700-10300 5100-2500 3400-3700 8400-3700 15100z"/><path id="9" class="fil4" d="M2906300 1683000c-7100 0-12900-2400-17400-7100s-6700-10900-6700-18800v-1700c0-5200 1000-9900 3000-14000 1900-4100 4700-7300 8300-9600 3600-2400 7500-3500 11700-3500 6900 0 12200 2200 16000 6800 3800 4500 5700 11000 5700 19400v3700h-35700c100 5200 1600 9400 4500 12600s6600 4800 11100 4800c3200 0 5900-700 8100-2000 2200-1200 4200-3000 5800-5100l5500 4300c-4400 6800-11000 10200-19900 10200zm-1100-47300c-3600 0-6700 1300-9200 4000-2400 2600-3900 6400-4500 11100h26400v-600c-300-4600-1500-8200-3700-10700-2200-2600-5200-3800-9000-3800z"/><path id="10" class="fil4" d="M2405400 1757900h-16700v28600h-9400v-70900h23500c8000 0 14200 1800 18500 5400 4300 3700 6400 9000 6400 15900 0 4500-1200 8300-3600 11600s-5700 5800-9900 7400l16600 30000v600h-10000l-15400-28600zm-16700-7700h14400c4700 0 8300-1200 11100-3600 2700-2400 4100-5700 4100-9700 0-4400-1300-7700-3900-10100-2600-2300-6400-3500-11300-3600h-14400v27000z"/><path id="11" class="fil4" d="M2461300 1787500c-7200 0-13000-2300-17500-7000-4400-4700-6700-11000-6700-18900v-1600c0-5200 1000-9900 3000-14000s4800-7400 8400-9700 7500-3500 11700-3500c6800 0 12100 2300 16000 6800 3700 4500 5700 11000 5700 19400v3800h-35800c200 5200 1700 9400 4600 12500 2900 3200 6600 4800 11100 4800 3200 0 5900-600 8100-1900s4100-3000 5800-5200l5500 4300c-4400 6800-11100 10200-19900 10200zm-1100-47300c-3700 0-6700 1300-9200 4000s-4000 6400-4600 11200h26400v-700c-200-4600-1500-8200-3700-10700s-5200-3800-8900-3800z"/><path id="12" class="fil4" d="M2536800 1760800c0 8000-1800 14400-5500 19300-3700 5000-8600 7400-14900 7400-6400 0-11400-2000-15100-6100v25400h-9000v-73000h8200l500 5800c3600-4500 8700-6800 15200-6800 6400 0 11400 2400 15100 7200s5500 11400 5500 19900v900zm-9000-1100c0-5900-1300-10600-3800-14000-2500-3500-6000-5200-10400-5200-5500 0-9600 2400-12300 7300v25100c2700 4800 6800 7200 12400 7200 4300 0 7700-1700 10300-5100 2500-3400 3800-8500 3800-15300z"/><path id="13" class="fil4" d="M2545900 1759700c0-5200 1000-9800 3000-13900 2000-4200 4900-7400 8500-9600 3600-2300 7700-3400 12400-3400 7200 0 13000 2500 17400 7500 4500 4900 6700 11600 6700 19800v700c0 5100-1000 9700-3000 13800-1900 4100-4800 7200-8400 9500-3700 2300-7900 3400-12600 3400-7200 0-13000-2500-17400-7400-4400-5000-6600-11600-6600-19800v-600zm9000 1000c0 5900 1400 10600 4100 14100 2700 3600 6300 5300 10900 5300s8200-1800 10900-5400c2700-3500 4000-8600 4000-15000 0-5800-1300-10500-4100-14100-2700-3600-6400-5400-10900-5400s-8000 1800-10800 5300c-2700 3600-4100 8600-4100 15200z"/><path id="14" class="fil4" d="M2635900 1772500c0-2400-900-4300-2700-5600-1900-1400-5100-2500-9600-3500-4600-1000-8200-2200-10900-3500-2700-1400-4700-3000-5900-4900-1300-1900-2000-4100-2000-6700 0-4300 1900-8000 5500-11000 3700-3000 8300-4500 14000-4500 6000 0 10900 1600 14600 4700 3700 3000 5600 7000 5600 11800h-9100c0-2500-1100-4600-3200-6400s-4700-2700-7900-2700c-3300 0-5800 700-7700 2200-1800 1400-2800 3300-2800 5600 0 2100 900 3800 2600 4900s4900 2200 9400 3200 8100 2200 10900 3600 4900 3000 6200 5000c1400 2000 2000 4400 2000 7200 0 4700-1800 8500-5600 11300-3800 2900-8700 4300-14700 4300-4200 0-7900-700-11200-2200s-5800-3600-7600-6300c-1900-2700-2800-5600-2800-8700h9000c200 3000 1400 5400 3700 7200 2200 1800 5200 2600 8900 2600 3400 0 6200-600 8200-2000 2100-1400 3100-3300 3100-5600z"/><path id="15" class="fil4" d="M2666500 1786500h-9000v-52700h9000v52700zm-9800-66700c0-1500 500-2700 1400-3700s2200-1500 3900-1500c1800 0 3100 500 4000 1500s1400 2200 1400 3700-500 2700-1400 3700-2200 1400-4000 1400c-1700 0-3000-400-3900-1400s-1400-2200-1400-3700z"/><path id="16" class="fil4" d="M2693100 1721000v12800h9900v7000h-9900v32700c0 2100 500 3700 1400 4800 800 1000 2300 1500 4400 1500 1100 0 2500-200 4300-500v7300c-2400 600-4700 900-6900 900-4000 0-7100-1200-9100-3600-2100-2500-3100-5900-3100-10400v-32700h-9600v-7000h9600v-12800h9000z"/><path id="17" class="fil4" d="M2710100 1759700c0-5200 1000-9800 3100-13900 2000-4200 4800-7400 8400-9600 3600-2300 7800-3400 12400-3400 7200 0 13000 2500 17500 7500 4400 4900 6600 11600 6600 19800v700c0 5100-1000 9700-2900 13800-2000 4100-4800 7200-8500 9500-3600 2300-7800 3400-12600 3400-7100 0-12900-2500-17300-7400-4500-5000-6700-11600-6700-19800v-600zm9100 1000c0 5900 1300 10600 4000 14100 2700 3600 6400 5300 10900 5300 4600 0 8200-1800 10900-5400 2700-3500 4100-8600 4100-15000 0-5800-1400-10500-4100-14100-2800-3600-6400-5400-11000-5400-4400 0-8000 1800-10700 5300-2800 3600-4100 8600-4100 15200z"/><path id="18" class="fil4" d="M2794900 1741900c-1400-300-2800-400-4400-400-5900 0-10000 2500-12100 7600v37400h-9000v-52700h8800l100 6100c3000-4700 7200-7100 12600-7100 1800 0 3100 300 4000 700v8400z"/><path id="19" class="fil4" d="M2813000 1786500h-9000v-52700h9000v52700zm-9700-66700c0-1500 400-2700 1300-3700s2200-1500 4000-1500c1700 0 3100 500 4000 1500s1300 2200 1300 3700-400 2700-1300 3700-2300 1400-4000 1400c-1800 0-3100-400-4000-1400s-1300-2200-1300-3700z"/><path id="20" class="fil4" d="M2849300 1787500c-7100 0-12900-2300-17400-7000s-6800-11000-6800-18900v-1600c0-5200 1000-9900 3000-14000s4800-7400 8400-9700 7500-3500 11700-3500c6900 0 12200 2300 16000 6800s5700 11000 5700 19400v3800h-35700c100 5200 1600 9400 4500 12500 2900 3200 6600 4800 11100 4800 3200 0 5900-600 8100-1900s4100-3000 5800-5200l5500 4300c-4400 6800-11100 10200-19900 10200zm-1100-47300c-3600 0-6700 1300-9200 4000-2400 2700-4000 6400-4500 11200h26400v-700c-300-4600-1500-8200-3700-10700s-5200-3800-9000-3800z"/><path id="21" class="fil4" d="M2911000 1772500c0-2400-900-4300-2700-5600-1900-1400-5100-2500-9600-3500-4600-1000-8200-2200-10900-3500-2700-1400-4700-3000-5900-4900-1300-1900-2000-4100-2000-6700 0-4300 1900-8000 5500-11000 3700-3000 8300-4500 14000-4500 6000 0 10900 1600 14600 4700 3700 3000 5600 7000 5600 11800h-9100c0-2500-1100-4600-3100-6400-2100-1800-4800-2700-8000-2700-3300 0-5800 700-7700 2200-1800 1400-2700 3300-2700 5600 0 2100 800 3800 2500 4900 1800 1100 4900 2200 9400 3200s8100 2200 10900 3600 4900 3000 6200 5000c1400 2000 2000 4400 2000 7200 0 4700-1800 8500-5600 11300-3800 2900-8700 4300-14700 4300-4200 0-7900-700-11200-2200-3200-1500-5800-3600-7600-6300-1900-2700-2800-5600-2800-8700h9000c200 3000 1400 5400 3700 7200 2200 1800 5200 2600 8900 2600 3400 0 6200-600 8200-2000 2100-1400 3100-3300 3100-5600z"/><path class="fil2 str0" d="M2644300 1490100c41600 0 75300 7400 75300 16500s-33700 16500-75300 16500c-41700 0-75400-7400-75400-16500s33700-16500 75400-16500z"/><path class="fil2 str0" d="M2644300 1467200c99300 0 179900 17600 179900 39400s-80600 39400-179900 39400c-99400 0-179900-17600-179900-39400s80500-39400 179900-39400z"/><g id="_1507258072496"><rect class="fil3 str1" transform="matrix(.7179 .7179 -.7179 .7179 2650510 705215)" width="564100" height="564100" rx="57000" ry="57000"/><path class="fil8 str1" d="M2557200 798600l284100 284100M2699200 940600v319100"/></g><path class="fil8 str2" d="M7853400 0v2277900M3393800 0v2277900"/><path class="fil4" d="M8197500 1682000h-9400v-71000h9400z"/><path id="1" class="fil4" d="M8221700 1629300l300 6600c4100-5100 9300-7600 15800-7600 11200 0 16800 6300 16900 18900v34800h-9000v-34900c-100-3800-900-6600-2600-8400s-4400-2700-8000-2700c-2900 0-5500 800-7700 2300-2200 1600-3900 3600-5200 6100v37600h-9000v-52700h8500z"/><path id="2" class="fil4" d="M8280500 1616500v12800h9900v7000h-9900v32700c0 2100 500 3600 1300 4700 900 1100 2400 1600 4500 1600 1100 0 2500-200 4300-600v7300c-2400 700-4700 1000-6900 1000-4000 0-7100-1200-9100-3700-2100-2400-3100-5900-3100-10300v-32700h-9600v-7000h9600v-12800h9000z"/><path id="3" class="fil4" d="M8322800 1683000c-7200 0-13000-2400-17500-7100s-6700-10900-6700-18800v-1700c0-5200 1000-9900 3000-14000s4800-7300 8400-9600c3600-2400 7500-3500 11700-3500 6800 0 12100 2200 15900 6800 3800 4500 5700 11000 5700 19400v3700h-35700c100 5200 1700 9400 4600 12600s6600 4800 11100 4800c3100 0 5800-700 8100-2000 2200-1200 4100-3000 5800-5100l5500 4300c-4500 6800-11100 10200-19900 10200zm-1100-47300c-3700 0-6700 1300-9200 4000-2500 2600-4000 6400-4600 11100h26400v-600c-200-4600-1500-8200-3700-10700-2200-2600-5200-3800-8900-3800z"/><path id="4" class="fil4" d="M8379200 1637300c-1300-200-2800-300-4400-300-5900 0-9900 2500-12000 7500v37500h-9100v-52700h8800l200 6100c2900-4800 7100-7100 12500-7100 1800 0 3100 200 4000 700v8300z"/><path id="5" class="fil4" d="M8396100 1629300l300 6600c4000-5100 9300-7600 15800-7600 11100 0 16700 6300 16800 18900v34800h-9000v-34900c0-3800-900-6600-2600-8400s-4400-2700-8000-2700c-2900 0-5500 800-7700 2300-2200 1600-3900 3600-5100 6100v37600h-9100v-52700h8600z"/><path id="6" class="fil4" d="M8475200 1682000c-600-1100-1000-2900-1300-5600-4200 4400-9200 6600-15000 6600-5200 0-9500-1500-12800-4400-3300-3000-5000-6700-5000-11200 0-5500 2100-9800 6300-12800 4100-3000 10000-4600 17600-4600h8700v-4100c0-3100-900-5600-2800-7500s-4600-2800-8300-2800c-3200 0-5900 800-8100 2400s-3300 3600-3300 5900h-9000c0-2600 900-5200 2800-7600 1800-2500 4400-4400 7600-5900 3200-1400 6700-2100 10500-2100 6100 0 10900 1500 14300 4500 3500 3100 5200 7300 5400 12600v24300c0 4800 600 8600 1800 11500v800h-9400zm-15000-6700c2800 0 5500-700 8000-2200 2600-1500 4400-3400 5500-5800v-10900h-7000c-11000 0-16600 3300-16600 9800 0 2900 1000 5100 2800 6700 1900 1600 4300 2400 7300 2400z"/><path id="7" class="fil4" d="M8506700 1682000h-9000v-74900h9000z"/><path id="8" class="fil4" d="M8543400 1655100c0-5100 1000-9800 3100-13900 2000-4100 4800-7300 8500-9600 3600-2200 7700-3300 12400-3300 7100 0 12900 2500 17400 7400 4400 5000 6600 11600 6600 19900v600c0 5200-1000 9800-2900 13800-2000 4100-4800 7300-8500 9600-3600 2200-7800 3400-12500 3400-7200 0-13000-2500-17400-7500-4500-4900-6700-11500-6700-19700v-700zm9100 1100c0 5800 1300 10500 4100 14100 2700 3500 6300 5300 10900 5300 4500 0 8200-1800 10900-5400s4000-8600 4000-15100c0-5800-1400-10400-4100-14000s-6400-5400-10900-5400-8100 1700-10800 5300c-2700 3500-4100 8600-4100 15200z"/><path id="9" class="fil4" d="M8628200 1637300c-1300-200-2800-300-4400-300-5900 0-9900 2500-12000 7500v37500h-9100v-52700h8800l100 6100c3000-4800 7200-7100 12600-7100 1800 0 3100 200 4000 700v8300z"/><path id="10" class="fil4" d="M8702700 1649200h-30700v25100h35700v7700h-45100v-71000h44600v7700h-35200v22900h30700z"/><path id="11" class="fil4" d="M8735700 1648500l11600-19200h10600l-17300 26000 17800 26700h-10400l-12200-19700-12200 19700h-10500l17800-26700-17200-26000h10400z"/><path id="12" class="fil4" d="M8779700 1616500v12800h9800v7000h-9800v32700c0 2100 400 3600 1300 4700s2400 1600 4500 1600c1000 0 2400-200 4300-600v7300c-2400 700-4700 1000-7000 1000-4000 0-7000-1200-9100-3700-2000-2400-3000-5900-3000-10300v-32700h-9700v-7000h9700v-12800h9000z"/><path id="13" class="fil4" d="M8821900 1683000c-7100 0-12900-2400-17400-7100s-6700-10900-6700-18800v-1700c0-5200 1000-9900 2900-14000 2000-4100 4800-7300 8400-9600 3600-2400 7500-3500 11700-3500 6900 0 12200 2200 16000 6800 3800 4500 5700 11000 5700 19400v3700h-35700c100 5200 1600 9400 4500 12600s6600 4800 11100 4800c3200 0 5900-700 8100-2000 2200-1200 4100-3000 5800-5100l5500 4300c-4400 6800-11000 10200-19900 10200zm-1100-47300c-3600 0-6700 1300-9200 4000-2400 2600-4000 6400-4500 11100h26400v-600c-300-4600-1500-8200-3700-10700-2200-2600-5200-3800-9000-3800z"/><path id="14" class="fil4" d="M8878400 1637300c-1400-200-2900-300-4400-300-6000 0-10000 2500-12100 7500v37500h-9000v-52700h8800l100 6100c3000-4800 7200-7100 12600-7100 1800 0 3100 200 4000 700v8300z"/><path id="15" class="fil4" d="M8895200 1629300l300 6600c4000-5100 9300-7600 15800-7600 11100 0 16800 6300 16900 18900v34800h-9000v-34900c-100-3800-900-6600-2700-8400-1700-1800-4300-2700-7900-2700-2900 0-5500 800-7700 2300-2200 1600-4000 3600-5200 6100v37600h-9000v-52700h8500z"/><path id="16" class="fil4" d="M8974300 1682000c-500-1100-900-2900-1200-5600-4200 4400-9200 6600-15100 6600-5200 0-9400-1500-12700-4400-3400-3000-5000-6700-5000-11200 0-5500 2000-9800 6200-12800s10100-4600 17600-4600h8800v-4100c0-3100-900-5600-2800-7500s-4700-2800-8300-2800c-3300 0-6000 800-8100 2400-2200 1600-3300 3600-3300 5900h-9100c0-2600 1000-5200 2800-7600 1900-2500 4400-4400 7600-5900 3200-1400 6700-2100 10600-2100 6100 0 10800 1500 14300 4500 3400 3100 5200 7300 5300 12600v24300c0 4800 700 8600 1900 11500v800h-9500zm-14900-6700c2800 0 5500-700 8000-2200s4400-3400 5500-5800v-10900h-7100c-11000 0-16500 3300-16500 9800 0 2900 900 5100 2800 6700s4300 2400 7300 2400z"/><path id="17" class="fil4" d="M9005900 1682000h-9100v-74900h9100z"/><path id="18" class="fil4" d="M8199800 1723200h-22800v63300h-9300v-63300h-22700v-7600h54800z"/><path id="19" class="fil4" d="M8230800 1741900c-1400-300-2900-400-4500-400-5900 0-9900 2500-12000 7600v37400h-9000v-52700h8700l200 6100c2900-4700 7100-7100 12600-7100 1700 0 3100 300 4000 700v8400z"/><path id="20" class="fil4" d="M8269700 1786500c-600-1000-1000-2900-1300-5500-4200 4300-9200 6500-15000 6500-5200 0-9500-1400-12800-4400-3300-2900-5000-6700-5000-11200 0-5500 2100-9700 6300-12800 4100-3000 10000-4500 17600-4500h8800v-4200c0-3100-1000-5600-2900-7500s-4600-2800-8300-2800c-3200 0-5900 800-8100 2400-2200 1700-3300 3600-3300 5900h-9000c0-2600 900-5100 2800-7600 1900-2400 4400-4400 7600-5800 3200-1500 6700-2200 10500-2200 6100 0 10900 1500 14300 4600 3500 3000 5200 7200 5400 12500v24300c0 4800 600 8700 1800 11500v800h-9400zm-15000-6700c2800 0 5500-700 8000-2200 2600-1400 4400-3400 5600-5700v-10900h-7100c-11000 0-16600 3200-16600 9800 0 2800 1000 5000 2800 6600 1900 1600 4400 2400 7300 2400z"/><path id="21" class="fil4" d="M8300000 1733800l200 6600c4100-5000 9300-7600 15800-7600 11200 0 16800 6300 16900 18900v34800h-9000v-34800c-100-3800-900-6600-2600-8500-1700-1800-4400-2700-8000-2700-2900 0-5500 800-7700 2300-2200 1600-3900 3700-5200 6200v37500h-9000v-52700h8600z"/><path id="22" class="fil4" d="M8377200 1772500c0-2400-900-4300-2700-5600-1900-1400-5100-2500-9700-3500-4500-1000-8100-2200-10800-3500-2700-1400-4700-3000-5900-4900-1300-1900-2000-4100-2000-6700 0-4300 1900-8000 5500-11000 3700-3000 8300-4500 14000-4500 6000 0 10800 1600 14600 4700 3700 3000 5500 7000 5500 11800h-9000c0-2500-1100-4600-3200-6400s-4700-2700-7900-2700c-3300 0-5800 700-7700 2200-1800 1400-2800 3300-2800 5600 0 2100 900 3800 2600 4900s4900 2200 9300 3200c4600 1000 8200 2200 11000 3600s4900 3000 6200 5000 2000 4400 2000 7200c0 4700-1900 8500-5600 11300-3800 2900-8700 4300-14700 4300-4200 0-8000-700-11200-2200-3300-1500-5800-3600-7600-6300-1900-2700-2800-5600-2800-8700h9000c200 3000 1400 5400 3700 7200 2200 1800 5200 2600 8900 2600 3400 0 6200-600 8200-2000 2100-1400 3100-3300 3100-5600z"/><path id="23" class="fil4" d="M8407800 1786500h-9100v-74800h9100z"/><path id="24" class="fil4" d="M8454700 1786500c-500-1000-900-2900-1200-5500-4200 4300-9200 6500-15000 6500-5200 0-9500-1400-12800-4400-3400-2900-5000-6700-5000-11200 0-5500 2100-9700 6200-12800 4200-3000 10100-4500 17700-4500h8700v-4200c0-3100-900-5600-2800-7500s-4700-2800-8300-2800c-3300 0-6000 800-8100 2400-2200 1700-3300 3600-3300 5900h-9100c0-2600 1000-5100 2800-7600 1900-2400 4400-4400 7700-5800 3200-1500 6700-2200 10500-2200 6100 0 10800 1500 14300 4600 3400 3000 5200 7200 5300 12500v24300c0 4800 700 8700 1900 11500v800h-9500zm-14900-6700c2800 0 5500-700 8000-2200 2600-1400 4400-3400 5500-5700v-10900h-7000c-11100 0-16600 3200-16600 9800 0 2800 900 5000 2800 6600s4300 2400 7300 2400z"/><path id="25" class="fil4" d="M8488700 1721000v12800h9900v7000h-9900v32700c0 2100 500 3700 1300 4800 900 1000 2400 1500 4500 1500 1100 0 2500-200 4300-500v7300c-2400 600-4700 900-6900 900-4000 0-7100-1200-9100-3600-2100-2500-3100-5900-3100-10400v-32700h-9600v-7000h9600v-12800h9000z"/><path id="26" class="fil4" d="M8518900 1786500h-9000v-52700h9000v52700zm-9800-66700c0-1500 500-2700 1400-3700s2200-1500 4000-1500c1700 0 3000 500 3900 1500 1000 1000 1400 2200 1400 3700s-400 2700-1400 3700c-900 1000-2200 1400-3900 1400-1800 0-3100-400-4000-1400s-1400-2200-1400-3700z"/><path id="27" class="fil4" d="M8530900 1759700c0-5200 1000-9800 3000-13900 2100-4200 4900-7400 8500-9600 3600-2300 7800-3400 12400-3400 7200 0 13000 2500 17500 7500 4400 4900 6600 11600 6600 19800v700c0 5100-1000 9700-2900 13800-2000 4100-4800 7200-8500 9500-3600 2300-7800 3400-12600 3400-7100 0-12900-2500-17300-7400-4500-5000-6700-11600-6700-19800v-600zm9100 1000c0 5900 1300 10600 4000 14100 2700 3600 6400 5300 10900 5300 4600 0 8200-1800 10900-5400 2700-3500 4100-8600 4100-15000 0-5800-1400-10500-4100-14100-2800-3600-6400-5400-11000-5400-4400 0-8000 1800-10700 5300-2800 3600-4100 8600-4100 15200z"/><path id="28" class="fil4" d="M8598800 1733800l300 6600c4000-5000 9300-7600 15700-7600 11200 0 16800 6300 16900 18900v34800h-9000v-34800c0-3800-900-6600-2600-8500-1700-1800-4400-2700-8000-2700-2900 0-5500 800-7700 2300-2200 1600-3900 3700-5100 6200v37500h-9100v-52700h8600z"/><path id="29" class="fil4" d="M8680800 1758800v27700h-9400v-70900h26200c7800 0 13800 1900 18300 5900 4400 4000 6600 9200 6600 15800 0 6900-2200 12200-6500 15900s-10500 5600-18500 5600h-16700zm0-7700h16800c5000 0 8800-1200 11500-3600 2700-2300 4000-5700 4000-10200 0-4200-1300-7600-4000-10100s-6300-3900-11000-4000h-17300v27900z"/><path id="30" class="fil4" d="M8742800 1786500h-9000v-74800h9000z"/><path id="31" class="fil4" d="M8789700 1786500c-500-1000-900-2900-1200-5500-4200 4300-9200 6500-15000 6500-5200 0-9500-1400-12800-4400-3300-2900-5000-6700-5000-11200 0-5500 2100-9700 6200-12800 4200-3000 10100-4500 17700-4500h8700v-4200c0-3100-900-5600-2800-7500s-4700-2800-8300-2800c-3200 0-5900 800-8100 2400-2200 1700-3300 3600-3300 5900h-9000c0-2600 900-5100 2800-7600 1800-2400 4400-4400 7600-5800 3200-1500 6700-2200 10500-2200 6100 0 10800 1500 14300 4600 3400 3000 5200 7200 5300 12500v24300c0 4800 700 8700 1900 11500v800h-9500zm-14900-6700c2800 0 5500-700 8000-2200 2600-1400 4400-3400 5500-5700v-10900h-7000c-11100 0-16600 3200-16600 9800 0 2800 900 5000 2800 6600s4300 2400 7300 2400z"/><path id="32" class="fil4" d="M8823700 1721000v12800h9900v7000h-9900v32700c0 2100 500 3700 1400 4800 800 1000 2300 1500 4400 1500 1100 0 2500-200 4300-500v7300c-2400 600-4600 900-6900 900-4000 0-7100-1200-9100-3600-2100-2500-3100-5900-3100-10400v-32700h-9600v-7000h9600v-12800h9000z"/><path id="33" class="fil4" d="M8848500 1786500v-45700h-8300v-7000h8300v-5400c0-5600 1500-10000 4600-13100 3000-3100 7200-4600 12800-4600 2000 0 4100 200 6200 800l-500 7300c-1600-300-3200-500-4900-500-2900 0-5200 900-6800 2600s-2400 4200-2400 7400v5500h11300v7000h-11300v45700h-9000z"/><path id="34" class="fil4" d="M8876300 1759700c0-5200 1100-9800 3100-13900 2000-4200 4800-7400 8500-9600 3600-2300 7700-3400 12400-3400 7100 0 13000 2500 17400 7500 4400 4900 6600 11600 6600 19800v700c0 5100-900 9700-2900 13800s-4800 7200-8400 9500c-3700 2300-7900 3400-12600 3400-7200 0-13000-2500-17400-7400-4400-5000-6700-11600-6700-19800v-600zm9100 1000c0 5900 1400 10600 4100 14100 2700 3600 6300 5300 10900 5300 4500 0 8200-1800 10900-5400 2700-3500 4000-8600 4000-15000 0-5800-1300-10500-4100-14100-2700-3600-6400-5400-10900-5400s-8100 1800-10800 5300c-2700 3600-4100 8600-4100 15200z"/><path id="35" class="fil4" d="M8961100 1741900c-1300-300-2800-400-4400-400-5900 0-9900 2500-12000 7600v37400h-9000v-52700h8700l200 6100c2900-4700 7100-7100 12500-7100 1800 0 3100 300 4000 700v8400z"/><path id="36" class="fil4" d="M8977900 1733800l200 5800c3900-4500 9100-6800 15700-6800 7400 0 12400 2900 15000 8500 1800-2500 4100-4600 6900-6100 2800-1600 6100-2400 10000-2400 11500 0 17400 6100 17600 18400v35300h-9000v-34700c0-3800-900-6600-2600-8500s-4600-2800-8700-2800c-3300 0-6100 1000-8300 3000s-3500 4700-3900 8100v34900h-9000v-34500c0-7700-3800-11500-11300-11500-5900 0-9900 2500-12100 7600v38400h-9000v-52700h8500z"/><g id="_1507258076592"><path class="fil7 str1" d="M3833900 704200h390400v529900h-390400z"/><path class="fil8 str1" d="M4072800 796600h85400M3925500 857900h160400M4040600 928800h117600M3900200 1069400h129000M3900200 796600h76800M3935100 960300h117600M4005700 995200h117600M3900200 1022900h117600M4029200 1106000h129000M4066700 1069400h71400M3900200 1158100h129000"/><g><path class="fil7 str1" d="M3941800 845300h390400v529900h-390400z"/><path class="fil8 str1" d="M4180700 1282800h85300M4033300 1221500h160500M4148500 1150600h117500M4008100 1010000h129000M4008100 1282800h76700M4043000 1119100h117600M4113600 1084100h117600M4008100 1056400h117500M4137100 973400h128900M4174600 1010000h71400M4008100 921200h129000"/></g><g><path class="fil7 str1" d="M4049700 986300h390400v529900h-390400z"/><path class="fil8 str1" d="M4288600 1078700h85300M4141200 1140000h160500M4256300 1210900h117600M4116000 1351500h128900M4116000 1078700h76700M4150900 1242400h117600M4221500 1277300h117600M4116000 1305000h117500M4244900 1388100h129000M4282500 1351500h71400M4116000 1440200h128900"/></g></g><g id="_1541850549744"><path class="fil8 str3" d="M3145200 1013200h540200M3606300 934000l79100 79200-79100 79100"/><g><path class="fil8 str4" d="M3642300 1207200h-540200M3181300 1286400l-79200-79200 79200-79100"/></g></g><g id="_1541850552432"><path class="fil8 str3" d="M4631800 1013200h540200M5092800 934000l79200 79200-79200 79100"/><g><path class="fil8 str4" d="M5128900 1207200h-540200M4667800 1286400l-79100-79200 79100-79100"/></g></g><g id="_1541850566608"><path class="fil8 str3" d="M6118300 1013200h540200M6579300 934000l79200 79200-79200 79100"/><g><path class="fil8 str4" d="M6615400 1207200h-540200M6154400 1286400l-79200-79200 79200-79100"/></g></g><g id="_1541850571504"><path class="fil8 str3" d="M7604900 1013200h540100M8065900 934000l79100 79200-79100 79100"/><g><path class="fil8 str4" d="M8101900 1207200h-540200M7640900 1286400l-79200-79200 79200-79100"/></g></g><g id="_1541850539504"><rect class="fil7 str1" x="8231700" y="797600" width="729800" height="513600" rx="26100" ry="18300"/><rect class="fil3 str1" x="8384300" y="1381700" width="424600" height="41000" rx="15200" ry="1500"/><path class="fil3 str1" d="M8539400 1311300h114500v70500h-114500z"/><path class="fil9" d="M8455800 1091500h-32500l-6100 18500h-19700l33400-89900h17200l33600 89900h-19700l-6200-18500zm-27500-15000h22500l-11300-33700-11200 33700z"/><path class="fil8 str5" d="M8745200 1005400c0 69700-20900 100300-64900 100300M8690000 1036500h110500M8745200 1005400c0 69700 21000 100300 65000 100300"/><g><path class="fil8 str6" d="M8522300 1065100h102400M8594700 1035000l30000 30100-30000 30000"/></g></g></g></svg>