<?xml version="1.0" encoding="UTF-8"?>
<!DOCTYPE svg PUBLIC "-//W3C//DTD SVG 1.1//EN" "http://www.w3.org/Graphics/SVG/1.1/DTD/svg11.dtd">
<!-- Creator: CorelDRAW X6 -->
<svg xmlns="http://www.w3.org/2000/svg" xml:space="preserve" width="156.477mm" height="22mm" version="1.1" style="shape-rendering:geometricPrecision; text-rendering:geometricPrecision; image-rendering:optimizeQuality; fill-rule:evenodd; clip-rule:evenodd"
viewBox="0 0 11244 1581"
 xmlns:xlink="http://www.w3.org/1999/xlink">
 <defs>
  <style type="text/css">
   <![CDATA[
    .str1 {stroke:#2B2A29;stroke-width:14.3714}
    .str2 {stroke:#2B2A29;stroke-width:14.3714;stroke-dasharray:28.742806 14.371403}
    .str0 {stroke:#FEFEFE;stroke-width:14.3714;stroke-linecap:round;stroke-linejoin:round;stroke-dasharray:71.857016 71.857016;stroke-opacity:0.501961}
    .fil11 {fill:none}
    .fil2 {fill:none}
    .fil8 {fill:#CC6F3C}
    .fil3 {fill:#EBECEC}
    .fil9 {fill:#FEFEFE}
    .fil0 {fill:#E5E1DB}
    .fil4 {fill:#2B2A29;fill-rule:nonzero}
    .fil7 {fill:#CC6F3C;fill-rule:nonzero}
    .fil6 {fill:#5FB336;fill-rule:nonzero}
    .fil1 {fill:#2B2A29;fill-opacity:0.101961}
    .fil10 {fill:#FEFEFE;fill-opacity:0.290196}
    .fil5 {fill:#FEFEFE;fill-opacity:0.501961}
   ]]>
  </style>
    <mask id="id0">
  <linearGradient id="id1" gradientUnits="userSpaceOnUse" x1="9310.77" y1="790.427" x2="8902.13" y2="790.427">
   <stop offset="0" style="stop-opacity:1; stop-color:white"/>
   <stop offset="1" style="stop-opacity:0; stop-color:white"/>
  </linearGradient>
     <rect style="fill:url(#id1)" x="8797" width="619" height="1581"/>
    </mask>
    <mask id="id2">
  <linearGradient id="id3" gradientUnits="userSpaceOnUse" x1="1934.76" y1="790.427" x2="2343.39" y2="790.427">
   <stop offset="0" style="stop-opacity:1; stop-color:white"/>
   <stop offset="1" style="stop-opacity:0; stop-color:white"/>
  </linearGradient>
     <rect style="fill:url(#id3)" x="1830" width="619" height="1581"/>
    </mask>
 </defs>
 <g id="Layer_x0020_1">
  <metadata id="CorelCorpID_0Corel-Layer"/>
  <g id="_694089504">
   <rect class="fil0" width="11244" height="1581"/>
   <polygon class="fil1" points="3392,0 7852,0 7852,1581 3392,1581 "/>
   <g>
    <path class="fil2 str0" d="M8717 524c374,216 623,486 556,602 -67,116 -425,35 -799,-181 -374,-216 -624,-485 -556,-602 67,-116 425,-35 799,181z"/>
    <path class="fil2 str0" d="M8613 508c402,-79 719,-42 709,84 -10,125 -343,291 -744,370 -402,79 -719,41 -709,-84 9,-126 343,-291 744,-370z"/>
    <path class="fil2 str0" d="M8626 89c337,-158 597,3 579,360 -17,357 -304,774 -641,931 -336,158 -596,-3 -579,-360 17,-356 304,-773 641,-931z"/>
   </g>
   <path class="fil3 str1" d="M5335 480l576 0 0 621c0,48 -129,87 -288,87 -159,0 -288,-39 -288,-87l0 -621z"/>
   <ellipse class="fil3 str1" cx="5623" cy="480" rx="288" ry="87"/>
   <polygon class="fil4" points="5006,1362 4997,1362 4997,1291 5006,1291 "/>
   <path id="1" class="fil4" d="M5031 1309l1 8c2,-3 4,-5 7,-6 2,-2 5,-3 9,-3 5,0 10,2 13,5 3,4 4,9 4,16l0 33 -9 0 0 -33c0,-5 -1,-8 -3,-10 -2,-2 -5,-3 -8,-3 -3,0 -6,1 -8,2 -2,2 -3,3 -5,6l0 38 -9 0 0 -53 8 0z"/>
   <path id="2" class="fil4" d="M5092 1297l0 12 10 0 0 8 -10 0 0 31c0,3 1,5 2,6 1,1 2,1 4,1 0,0 1,0 1,0 1,0 2,0 2,-1l2 7c-1,1 -2,1 -4,2 -1,0 -2,0 -4,0 -4,0 -7,-1 -9,-3 -2,-3 -4,-6 -4,-11l0 -32 -8 0 0 -8 8 0 0 -12 10 0z"/>
   <path id="3" class="fil4" d="M5136 1363c-8,0 -13,-2 -18,-7 -4,-5 -6,-11 -6,-19l0 -2c0,-8 2,-14 6,-19 5,-5 10,-8 16,-8 7,0 13,3 16,7 4,4 6,10 6,17l0 6 -34 0 0 0c0,5 1,9 3,13 3,3 6,5 11,5 3,0 6,-1 8,-2 3,-1 5,-2 7,-4l3 7c-1,1 -4,3 -7,4 -3,1 -7,2 -11,2zm-2 -47c-3,0 -6,1 -8,4 -2,3 -4,6 -4,10l0 0 24 0 0 -1c0,-4 -1,-7 -3,-9 -2,-3 -5,-4 -9,-4z"/>
   <path id="4" class="fil4" d="M5192 1318l-5 0c-3,0 -5,0 -7,1 -1,2 -3,3 -4,5l0 38 -9 0 0 -53 8 0 1 8c2,-3 3,-5 6,-6 2,-2 4,-3 7,-3 1,0 2,0 2,1 1,0 1,0 2,0l-1 9z"/>
   <path id="5" class="fil4" d="M5209 1309l1 8c2,-3 4,-5 7,-6 2,-2 5,-3 9,-3 5,0 10,2 13,5 3,4 5,9 5,16l0 33 -10 0 0 -33c0,-5 -1,-8 -3,-10 -2,-2 -4,-3 -8,-3 -3,0 -5,1 -7,2 -3,2 -4,3 -6,6l0 38 -9 0 0 -53 8 0z"/>
   <path id="6" class="fil4" d="M5290 1362c0,-1 -1,-3 -1,-4 0,-1 0,-3 0,-4 -2,3 -4,5 -7,7 -3,1 -6,2 -9,2 -6,0 -10,-1 -13,-4 -3,-3 -4,-7 -4,-12 0,-5 2,-9 6,-12 4,-2 9,-4 16,-4l11 0 0 -5c0,-3 -1,-5 -3,-7 -2,-2 -4,-3 -8,-3 -3,0 -6,1 -7,2 -2,2 -3,4 -3,6l-10 0 0 0c0,-4 2,-8 6,-11 4,-3 9,-5 15,-5 6,0 10,2 14,5 4,3 5,7 5,13l0 26c0,1 1,3 1,5 0,2 0,3 1,5l-10 0zm-16 -7c4,0 7,-1 9,-3 3,-1 5,-3 6,-6l0 -8 -11 0c-4,0 -7,1 -9,3 -2,2 -4,4 -4,6 0,3 1,5 3,6 1,1 3,2 6,2z"/>
   <polygon id="7" class="fil4" points="5323,1362 5313,1362 5313,1286 5323,1286 "/>
   <polygon id="8" class="fil4" points="5412,1299 5389,1299 5389,1362 5380,1362 5380,1299 5357,1299 5357,1291 5412,1291 "/>
   <path id="9" class="fil4" d="M5443 1318l-5 0c-3,0 -5,0 -7,1 -1,2 -3,3 -4,5l0 38 -9 0 0 -53 8 0 1 8c2,-3 4,-5 6,-6 2,-2 4,-3 7,-3 1,0 2,0 2,1 1,0 2,0 2,0l-1 9z"/>
   <path id="10" class="fil4" d="M5484 1362c0,-1 0,-3 0,-4 -1,-1 -1,-3 -1,-4 -2,3 -4,5 -7,7 -3,1 -6,2 -9,2 -6,0 -10,-1 -13,-4 -2,-3 -4,-7 -4,-12 0,-5 2,-9 6,-12 4,-2 10,-4 17,-4l10 0 0 -5c0,-3 -1,-5 -3,-7 -1,-2 -4,-3 -8,-3 -3,0 -5,1 -7,2 -2,2 -3,4 -3,6l-9 0 0 0c0,-4 1,-8 5,-11 4,-3 9,-5 15,-5 6,0 11,2 14,5 4,3 6,7 6,13l0 26c0,1 0,3 0,5 0,2 1,3 1,5l-10 0zm-16 -7c4,0 7,-1 10,-3 3,-1 4,-3 5,-6l0 -8 -11 0c-3,0 -6,1 -9,3 -2,2 -3,4 -3,6 0,3 0,5 2,6 1,1 4,2 6,2z"/>
   <path id="11" class="fil4" d="M5515 1309l1 8c2,-3 4,-5 7,-6 2,-2 5,-3 9,-3 5,0 10,2 13,5 3,4 5,9 5,16l0 33 -10 0 0 -33c0,-5 -1,-8 -3,-10 -2,-2 -4,-3 -8,-3 -3,0 -5,1 -8,2 -2,2 -3,3 -5,6l0 38 -9 0 0 -53 8 0z"/>
   <path id="12" class="fil4" d="M5594 1348c0,-2 -1,-4 -2,-5 -2,-1 -5,-3 -9,-4 -7,-1 -12,-3 -15,-5 -3,-3 -5,-6 -5,-10 0,-4 2,-8 6,-11 3,-3 8,-5 14,-5 6,0 11,2 15,5 3,3 5,7 5,12l0 0 -9 0c0,-2 -1,-4 -3,-6 -2,-2 -5,-3 -8,-3 -3,0 -6,1 -8,2 -1,2 -2,4 -2,6 0,2 1,3 2,5 2,1 5,2 9,3 7,1 12,3 15,6 3,2 5,5 5,9 0,5 -2,9 -6,12 -4,3 -9,4 -15,4 -7,0 -12,-2 -16,-5 -4,-3 -5,-7 -5,-12l0 0 9 0c0,3 2,6 4,7 2,2 5,3 8,3 4,0 6,-1 8,-3 2,-1 3,-3 3,-5z"/>
   <polygon id="13" class="fil4" points="5626,1362 5616,1362 5616,1286 5626,1286 "/>
   <path id="14" class="fil4" d="M5673 1362c0,-1 0,-3 -1,-4 0,-1 0,-3 0,-4 -2,3 -4,5 -7,7 -3,1 -6,2 -9,2 -6,0 -10,-1 -13,-4 -3,-3 -4,-7 -4,-12 0,-5 2,-9 6,-12 4,-2 10,-4 17,-4l10 0 0 -5c0,-3 -1,-5 -3,-7 -2,-2 -4,-3 -8,-3 -3,0 -5,1 -7,2 -2,2 -3,4 -3,6l-9 0 0 0c-1,-4 1,-8 5,-11 4,-3 9,-5 15,-5 6,0 11,2 14,5 4,3 6,7 6,13l0 26c0,1 0,3 0,5 0,2 1,3 1,5l-10 0zm-16 -7c4,0 7,-1 10,-3 2,-1 4,-3 5,-6l0 -8 -11 0c-3,0 -7,1 -9,3 -2,2 -3,4 -3,6 0,3 0,5 2,6 1,1 3,2 6,2z"/>
   <path id="15" class="fil4" d="M5708 1297l0 12 10 0 0 8 -10 0 0 31c0,3 1,5 2,6 1,1 2,1 4,1 1,0 1,0 2,0 0,0 1,0 2,-1l1 7c-1,1 -2,1 -3,2 -2,0 -3,0 -4,0 -4,0 -7,-1 -10,-3 -2,-3 -3,-6 -3,-11l0 -32 -9 0 0 -8 9 0 0 -12 9 0z"/>
   <path id="16" class="fil4" d="M5741 1362l-10 0 0 -53 10 0 0 53zm0 -66l-10 0 0 -10 10 0 0 10z"/>
   <path id="17" class="fil4" d="M5753 1335c0,-8 2,-14 6,-19 5,-5 10,-8 18,-8 7,0 13,3 17,8 4,5 6,11 6,19l0 1c0,8 -2,15 -6,20 -4,5 -10,7 -17,7 -8,0 -13,-2 -18,-7 -4,-5 -6,-12 -6,-20l0 -1zm10 1c0,6 1,10 3,14 3,4 6,6 11,6 4,0 8,-2 10,-6 3,-4 4,-8 4,-14l0 -1c0,-5 -1,-10 -4,-13 -2,-4 -6,-6 -10,-6 -5,0 -8,2 -11,6 -2,3 -3,8 -3,13l0 1z"/>
   <path id="18" class="fil4" d="M5821 1309l0 8c2,-3 4,-5 7,-6 3,-2 6,-3 9,-3 6,0 10,2 13,5 3,4 5,9 5,16l0 33 -10 0 0 -33c0,-5 -1,-8 -3,-10 -1,-2 -4,-3 -8,-3 -3,0 -5,1 -7,2 -2,2 -4,3 -5,6l0 38 -10 0 0 -53 9 0z"/>
   <polygon id="19" class="fil4" points="5908,1291 5930,1349 5931,1349 5953,1291 5965,1291 5965,1362 5956,1362 5956,1334 5957,1305 5957,1305 5934,1362 5927,1362 5904,1305 5904,1305 5905,1334 5905,1362 5895,1362 5895,1291 "/>
   <path id="20" class="fil4" d="M6003 1363c-7,0 -13,-2 -17,-7 -5,-5 -7,-11 -7,-19l0 -2c0,-8 2,-14 7,-19 4,-5 10,-8 16,-8 7,0 12,3 16,7 3,4 5,10 5,17l0 6 -34 0 0 0c0,5 1,9 4,13 2,3 6,5 10,5 3,0 6,-1 9,-2 2,-1 4,-2 6,-4l4 7c-2,1 -5,3 -8,4 -3,1 -6,2 -11,2zm-1 -47c-4,0 -6,1 -9,4 -2,3 -3,6 -4,10l0 0 25 0 0 -1c0,-4 -1,-7 -3,-9 -2,-3 -5,-4 -9,-4z"/>
   <path id="21" class="fil4" d="M6043 1309l0 7c2,-2 4,-4 7,-5 2,-2 6,-3 9,-3 4,0 7,1 9,3 3,1 5,4 6,7 1,-3 4,-5 6,-7 3,-2 6,-3 10,-3 5,0 10,2 13,6 3,4 4,9 4,17l0 31 -9 0 0 -32c0,-5 -1,-8 -3,-11 -2,-2 -4,-3 -8,-3 -3,0 -6,1 -8,4 -2,2 -3,5 -4,8l0 1 0 33 -9 0 0 -32c0,-4 -1,-8 -3,-10 -2,-3 -4,-4 -8,-4 -3,0 -5,1 -7,2 -2,1 -3,3 -4,5l0 39 -10 0 0 -53 9 0z"/>
   <path id="22" class="fil4" d="M6119 1335c0,-8 2,-14 6,-19 5,-5 10,-8 18,-8 7,0 13,3 17,8 4,5 6,11 6,19l0 1c0,8 -2,15 -6,20 -4,5 -10,7 -17,7 -8,0 -13,-2 -18,-7 -4,-5 -6,-12 -6,-20l0 -1zm10 1c0,6 1,10 3,14 2,4 6,6 11,6 4,0 8,-2 10,-6 2,-4 4,-8 4,-14l0 -1c0,-5 -2,-10 -4,-13 -2,-4 -6,-6 -10,-6 -5,0 -9,2 -11,6 -2,3 -3,8 -3,13l0 1z"/>
   <path id="23" class="fil4" d="M6203 1318l-5 0c-3,0 -5,0 -6,1 -2,2 -4,3 -4,5l0 38 -10 0 0 -53 9 0 0 8c2,-3 4,-5 6,-6 2,-2 5,-3 8,-3 0,0 1,0 2,1 0,0 1,0 1,0l-1 9z"/>
   <path id="24" class="fil4" d="M6229 1343l2 6 0 0 13 -40 11 0 -22 61c-2,4 -4,7 -6,9 -3,3 -6,4 -10,4 -1,0 -2,0 -3,0 -1,0 -2,0 -3,0l1 -8c0,0 0,0 2,0 1,0 2,0 2,0 2,0 4,-1 5,-2 2,-2 3,-4 4,-6l2 -6 -20 -52 11 0 11 34z"/>
   <path id="25" class="fil4" d="M5417 1451l0 -71 22 0c9,0 17,3 23,8 5,6 8,13 8,22l0 10c0,9 -3,17 -8,22 -6,6 -14,9 -23,9l-22 0zm10 -64l0 56 12 0c7,0 12,-2 16,-6 3,-5 5,-10 5,-17l0 -10c0,-6 -2,-12 -5,-16 -4,-4 -9,-7 -16,-7l-12 0z"/>
   <path id="26" class="fil4" d="M5514 1451c-1,-2 -1,-3 -1,-4 0,-2 0,-3 0,-4 -2,2 -4,5 -7,6 -3,2 -6,3 -10,3 -5,0 -9,-2 -12,-4 -3,-3 -4,-7 -4,-12 0,-5 2,-9 6,-12 4,-3 9,-4 16,-4l11 0 0 -5c0,-3 -1,-6 -3,-8 -2,-1 -5,-2 -8,-2 -3,0 -6,0 -8,2 -2,2 -3,3 -3,6l-9 0 0 -1c0,-3 2,-7 6,-10 3,-3 8,-5 14,-5 6,0 11,2 15,5 3,3 5,7 5,13l0 25c0,2 0,4 1,6 0,1 0,3 1,5l-10 0zm-16 -7c3,0 6,-1 9,-3 3,-2 5,-4 6,-6l0 -9 -11 0c-4,0 -7,1 -9,3 -3,2 -4,4 -4,7 0,2 1,4 2,6 2,1 4,2 7,2z"/>
   <path id="27" class="fil4" d="M5549 1385l0 13 10 0 0 7 -10 0 0 32c0,2 0,4 1,5 1,1 3,2 4,2 1,0 2,0 2,-1 1,0 2,0 2,0l1 7c0,0 -1,1 -3,1 -1,1 -3,1 -4,1 -4,0 -7,-1 -9,-4 -3,-2 -4,-6 -4,-11l0 -32 -8 0 0 -7 8 0 0 -13 10 0z"/>
   <path id="28" class="fil4" d="M5603 1451c0,-2 0,-3 -1,-4 0,-2 0,-3 0,-4 -2,2 -4,5 -7,6 -3,2 -6,3 -9,3 -6,0 -10,-2 -13,-4 -3,-3 -4,-7 -4,-12 0,-5 2,-9 6,-12 4,-3 10,-4 17,-4l10 0 0 -5c0,-3 -1,-6 -3,-8 -2,-1 -4,-2 -8,-2 -3,0 -5,0 -7,2 -2,2 -3,3 -3,6l-9 0 0 -1c-1,-3 1,-7 5,-10 4,-3 9,-5 15,-5 6,0 11,2 14,5 4,3 6,7 6,13l0 25c0,2 0,4 0,6 0,1 0,3 1,5l-10 0zm-16 -7c4,0 7,-1 10,-3 2,-2 4,-4 5,-6l0 -9 -11 0c-4,0 -7,1 -9,3 -2,2 -4,4 -4,7 0,2 1,4 3,6 1,1 3,2 6,2z"/>
   <path id="29" class="fil4" d="M5671 1426c0,8 -2,14 -6,19 -4,4 -9,7 -15,7 -3,0 -6,-1 -9,-2 -3,-2 -5,-4 -6,-6l-2 7 -7 0 0 -76 9 0 0 29c2,-2 4,-4 6,-5 3,-1 6,-2 9,-2 6,0 11,3 15,8 4,5 6,12 6,20l0 1zm-10 -1c0,-6 -1,-11 -3,-14 -3,-4 -6,-6 -11,-6 -2,0 -5,1 -7,2 -2,1 -4,3 -5,6l0 23c1,2 3,4 5,6 2,1 5,2 8,2 4,0 7,-2 10,-5 2,-3 3,-7 3,-13l0 -1z"/>
   <path id="30" class="fil4" d="M5715 1451c-1,-2 -1,-3 -1,-4 0,-2 0,-3 0,-4 -2,2 -5,5 -7,6 -3,2 -6,3 -10,3 -5,0 -9,-2 -12,-4 -3,-3 -5,-7 -5,-12 0,-5 2,-9 7,-12 4,-3 9,-4 16,-4l11 0 0 -5c0,-3 -1,-6 -3,-8 -2,-1 -5,-2 -8,-2 -3,0 -6,0 -8,2 -2,2 -3,3 -3,6l-9 0 0 -1c0,-3 2,-7 6,-10 3,-3 8,-5 14,-5 6,0 11,2 15,5 3,3 5,7 5,13l0 25c0,2 0,4 0,6 1,1 1,3 2,5l-10 0zm-16 -7c3,0 6,-1 9,-3 3,-2 5,-4 6,-6l0 -9 -11 0c-4,0 -7,1 -9,3 -3,2 -4,4 -4,7 0,2 1,4 2,6 2,1 4,2 7,2z"/>
   <path id="31" class="fil4" d="M5768 1437c0,-2 -1,-4 -3,-5 -1,-2 -4,-3 -9,-4 -6,-1 -11,-3 -14,-6 -3,-2 -5,-5 -5,-9 0,-5 2,-8 5,-11 4,-3 9,-5 15,-5 6,0 11,2 14,5 4,3 6,7 5,11l0 1 -9 0c0,-3 -1,-5 -3,-7 -2,-1 -4,-2 -7,-2 -4,0 -6,0 -8,2 -2,1 -2,3 -2,5 0,2 0,4 2,5 1,1 4,2 9,3 6,2 11,4 15,6 3,3 4,6 4,10 0,5 -2,9 -5,11 -4,3 -9,5 -15,5 -7,0 -12,-2 -16,-5 -4,-4 -6,-8 -6,-12l1 -1 9 0c0,4 1,6 4,8 2,1 5,2 8,2 3,0 6,-1 8,-2 2,-1 3,-3 3,-5z"/>
   <path id="32" class="fil4" d="M5811 1452c-7,0 -13,-3 -17,-8 -5,-4 -7,-11 -7,-19l0 -2c0,-7 2,-13 7,-18 4,-5 10,-8 16,-8 7,0 12,2 16,7 4,4 5,9 5,17l0 6 -34 0 0 0c0,5 1,9 4,12 2,4 6,5 10,5 3,0 6,0 9,-1 2,-1 4,-2 6,-4l4 6c-2,2 -5,4 -8,5 -3,1 -6,2 -11,2zm-1 -47c-3,0 -6,1 -9,4 -2,2 -3,6 -4,10l0 0 25 0 0 -1c0,-4 -1,-7 -3,-10 -2,-2 -5,-3 -9,-3z"/>
   <polygon class="fil4" points="3674,1355 3707,1355 3707,1362 3664,1362 3664,1291 3674,1291 "/>
   <path id="1" class="fil4" d="M3714 1335c0,-8 2,-14 7,-19 4,-5 9,-8 17,-8 7,0 13,3 17,8 4,5 6,11 6,19l0 1c0,8 -2,15 -6,20 -4,5 -10,7 -17,7 -7,0 -13,-2 -17,-7 -5,-5 -7,-12 -7,-20l0 -1zm10 1c0,6 1,10 3,14 3,4 6,6 11,6 4,0 8,-2 10,-6 3,-4 4,-8 4,-14l0 -1c0,-5 -1,-10 -4,-13 -2,-4 -6,-6 -10,-6 -5,0 -8,2 -11,6 -2,3 -3,8 -3,13l0 1z"/>
   <path id="2" class="fil4" d="M3795 1356c3,0 6,-1 8,-3 2,-2 4,-5 4,-8l8 0 0 1c0,4 -2,8 -6,12 -4,3 -9,5 -14,5 -8,0 -14,-2 -18,-7 -4,-5 -6,-12 -6,-19l0 -2c0,-8 2,-14 6,-19 4,-5 10,-8 18,-8 6,0 11,2 15,6 4,4 6,8 5,13l0 1 -8 0c0,-4 -2,-6 -4,-9 -2,-2 -5,-3 -8,-3 -5,0 -9,2 -11,5 -2,4 -3,8 -3,14l0 2c0,5 1,10 3,13 2,4 5,6 11,6z"/>
   <path id="3" class="fil4" d="M3859 1362c-1,-1 -1,-3 -1,-4 0,-1 -1,-3 -1,-4 -1,3 -4,5 -7,7 -2,1 -6,2 -9,2 -5,0 -10,-1 -12,-4 -3,-3 -5,-7 -5,-12 0,-5 2,-9 6,-12 4,-2 10,-4 17,-4l10 0 0 -5c0,-3 -1,-5 -2,-7 -2,-2 -5,-3 -8,-3 -3,0 -6,1 -8,2 -2,2 -3,4 -3,6l-9 0 0 0c0,-4 2,-8 5,-11 4,-3 9,-5 15,-5 6,0 11,2 15,5 3,3 5,7 5,13l0 26c0,1 0,3 0,5 1,2 1,3 1,5l-9 0zm-16 -7c3,0 6,-1 9,-3 3,-1 5,-3 5,-6l0 -8 -10 0c-4,0 -7,1 -10,3 -2,2 -3,4 -3,6 0,3 1,5 2,6 2,1 4,2 7,2z"/>
   <polygon id="4" class="fil4" points="3891,1362 3882,1362 3882,1286 3891,1286 "/>
   <path id="5" class="fil4" d="M3917 1362l-10 0 0 -53 10 0 0 53zm0 -66l-10 0 0 -10 10 0 0 10z"/>
   <polygon id="6" class="fil4" points="3940,1355 3971,1355 3971,1362 3929,1362 3929,1355 3957,1317 3929,1317 3929,1309 3969,1309 3969,1316 "/>
   <path id="7" class="fil4" d="M4014 1362c0,-1 -1,-3 -1,-4 0,-1 0,-3 0,-4 -2,3 -4,5 -7,7 -3,1 -6,2 -9,2 -6,0 -10,-1 -13,-4 -3,-3 -4,-7 -4,-12 0,-5 2,-9 6,-12 4,-2 9,-4 16,-4l11 0 0 -5c0,-3 -1,-5 -3,-7 -2,-2 -5,-3 -8,-3 -3,0 -6,1 -8,2 -1,2 -2,4 -2,6l-10 0 0 0c0,-4 2,-8 6,-11 4,-3 8,-5 15,-5 6,0 10,2 14,5 4,3 5,7 5,13l0 26c0,1 1,3 1,5 0,2 0,3 1,5l-10 0zm-16 -7c3,0 7,-1 9,-3 3,-1 5,-3 6,-6l0 -8 -11 0c-4,0 -7,1 -9,3 -3,2 -4,4 -4,6 0,3 1,5 2,6 2,1 4,2 7,2z"/>
   <path id="8" class="fil4" d="M4081 1338c0,7 -1,13 -5,18 -4,5 -9,7 -15,7 -4,0 -7,-1 -9,-2 -3,-1 -5,-3 -7,-6l-1 7 -8 0 0 -76 10 0 0 30c2,-3 4,-4 6,-6 3,-1 5,-2 9,-2 6,0 11,3 15,8 4,5 5,12 5,21l0 1zm-9 -1c0,-6 -1,-11 -4,-15 -2,-4 -5,-6 -10,-6 -3,0 -5,1 -7,2 -2,2 -4,4 -5,6l0 23c1,3 3,5 5,6 2,2 4,2 7,2 5,0 8,-1 10,-4 3,-4 4,-8 4,-13l0 -1z"/>
   <polygon id="9" class="fil4" points="4103,1362 4094,1362 4094,1286 4103,1286 "/>
   <path id="10" class="fil4" d="M4140 1363c-7,0 -13,-2 -17,-7 -5,-5 -7,-11 -7,-19l0 -2c0,-8 2,-14 7,-19 4,-5 10,-8 16,-8 7,0 12,3 16,7 3,4 5,10 5,17l0 6 -34 0 0 0c0,5 1,9 4,13 2,3 6,5 10,5 3,0 6,-1 9,-2 2,-1 4,-2 6,-4l4 7c-2,1 -5,3 -8,4 -3,1 -7,2 -11,2zm-1 -47c-4,0 -6,1 -9,4 -2,3 -3,6 -4,10l0 0 25 0 0 -1c0,-4 -1,-7 -3,-9 -2,-3 -5,-4 -9,-4z"/>
   <path id="11" class="fil4" d="M4207 1331l0 31 -9 0 0 -71 25 0c8,0 14,2 18,5 4,4 6,9 6,15 0,4 -1,7 -3,10 -2,3 -4,5 -8,6 4,2 7,4 8,6 2,3 3,7 3,11l0 7c0,2 0,4 1,6 0,1 1,3 2,4l0 1 -10 0c-1,-1 -2,-3 -2,-5 0,-2 -1,-4 -1,-6l0 -7c0,-4 -1,-7 -3,-9 -2,-2 -5,-4 -9,-4l-18 0zm0 -7l15 0c6,0 10,-1 12,-3 2,-2 4,-5 4,-10 0,-4 -2,-7 -4,-9 -2,-2 -6,-3 -11,-3l-16 0 0 25z"/>
   <path id="12" class="fil4" d="M4284 1363c-8,0 -13,-2 -18,-7 -4,-5 -6,-11 -6,-19l0 -2c0,-8 2,-14 6,-19 5,-5 10,-8 16,-8 7,0 13,3 16,7 4,4 6,10 6,17l0 6 -34 0 0 0c0,5 1,9 3,13 3,3 6,5 11,5 3,0 6,-1 8,-2 3,-1 5,-2 7,-4l3 7c-1,1 -4,3 -7,4 -3,1 -7,2 -11,2zm-2 -47c-3,0 -6,1 -8,4 -2,3 -4,6 -4,10l0 0 24 0 0 -1c0,-4 -1,-7 -3,-9 -2,-3 -5,-4 -9,-4z"/>
   <path id="13" class="fil4" d="M4345 1348c0,-2 0,-4 -2,-5 -2,-1 -5,-3 -9,-4 -7,-1 -11,-3 -15,-5 -3,-3 -5,-6 -5,-10 0,-4 2,-8 6,-11 4,-3 8,-5 14,-5 6,0 11,2 15,5 3,3 5,7 5,12l0 0 -9 0c0,-2 -1,-4 -3,-6 -2,-2 -5,-3 -8,-3 -3,0 -6,1 -7,2 -2,2 -3,4 -3,6 0,2 1,3 2,5 2,1 5,2 9,3 7,1 12,3 15,6 3,2 5,5 5,9 0,5 -2,9 -6,12 -4,3 -8,4 -15,4 -6,0 -12,-2 -15,-5 -4,-3 -6,-7 -6,-12l0 0 9 0c0,3 2,6 4,7 2,2 5,3 8,3 4,0 6,-1 8,-3 2,-1 3,-3 3,-5z"/>
   <path id="14" class="fil4" d="M4365 1335c0,-8 2,-14 6,-19 4,-5 10,-8 17,-8 7,0 13,3 17,8 5,5 7,11 7,19l0 1c0,8 -2,15 -6,20 -5,5 -10,7 -18,7 -7,0 -13,-2 -17,-7 -4,-5 -6,-12 -6,-20l0 -1zm9 1c0,6 1,10 4,14 2,4 6,6 10,6 5,0 8,-2 11,-6 2,-4 3,-8 3,-14l0 -1c0,-5 -1,-10 -3,-13 -3,-4 -6,-6 -11,-6 -4,0 -8,2 -10,6 -3,3 -4,8 -4,13l0 1z"/>
   <path id="15" class="fil4" d="M4457 1354c-2,3 -4,5 -6,7 -3,1 -6,2 -9,2 -6,0 -11,-2 -14,-5 -3,-4 -5,-10 -5,-18l0 -31 10 0 0 32c0,5 1,9 2,11 2,2 5,3 8,3 4,0 6,0 9,-2 2,-1 4,-3 5,-6l0 -38 9 0 0 53 -8 0 -1 -8z"/>
   <path id="16" class="fil4" d="M4505 1318l-5 0c-2,0 -4,0 -6,1 -2,2 -3,3 -4,5l0 38 -10 0 0 -53 9 0 1 8c1,-3 3,-5 5,-6 3,-2 5,-3 8,-3 1,0 1,0 2,1 1,0 1,0 2,0l-2 9z"/>
   <path id="17" class="fil4" d="M4535 1356c3,0 6,-1 8,-3 3,-2 4,-5 4,-8l9 0 0 1c0,4 -2,8 -6,12 -4,3 -9,5 -15,5 -8,0 -13,-2 -18,-7 -4,-5 -6,-12 -6,-19l0 -2c0,-8 2,-14 6,-19 5,-5 10,-8 18,-8 6,0 11,2 15,6 4,4 6,8 6,13l0 1 -9 0c0,-4 -1,-6 -3,-9 -3,-2 -5,-3 -9,-3 -5,0 -9,2 -11,5 -2,4 -3,8 -3,14l0 2c0,5 1,10 3,13 2,4 6,6 11,6z"/>
   <path id="18" class="fil4" d="M4588 1363c-7,0 -13,-2 -17,-7 -4,-5 -7,-11 -7,-19l0 -2c0,-8 3,-14 7,-19 5,-5 10,-8 16,-8 7,0 12,3 16,7 4,4 6,10 6,17l0 6 -35 0 0 0c0,5 2,9 4,13 3,3 6,5 10,5 4,0 7,-1 9,-2 2,-1 5,-2 6,-4l4 7c-2,1 -4,3 -7,4 -3,1 -7,2 -12,2zm-1 -47c-3,0 -6,1 -8,4 -3,3 -4,6 -4,10l0 0 24 0 0 -1c0,-4 -1,-7 -3,-9 -2,-3 -5,-4 -9,-4z"/>
   <polygon id="19" class="fil4" points="4078,1419 4046,1419 4046,1451 4036,1451 4036,1380 4083,1380 4083,1387 4046,1387 4046,1412 4078,1412 "/>
   <path id="20" class="fil4" d="M4103 1451l-10 0 0 -53 10 0 0 53zm0 -66l-10 0 0 -10 10 0 0 10z"/>
   <polygon id="21" class="fil4" points="4128,1451 4118,1451 4118,1375 4128,1375 "/>
   <path id="22" class="fil4" d="M4165 1452c-8,0 -14,-3 -18,-8 -4,-4 -6,-11 -6,-19l0 -2c0,-7 2,-13 6,-18 5,-5 10,-8 16,-8 7,0 13,2 16,7 4,4 6,9 6,17l0 6 -35 0 0 0c0,5 2,9 4,12 3,4 6,5 11,5 3,0 6,0 8,-1 3,-1 5,-2 6,-4l4 6c-2,2 -4,4 -7,5 -3,1 -7,2 -11,2zm-2 -47c-3,0 -6,1 -8,4 -2,2 -4,6 -4,10l0 0 24 0 0 -1c0,-4 -1,-7 -3,-10 -2,-2 -5,-3 -9,-3z"/>
   <path id="23" class="fil4" d="M4226 1437c0,-2 -1,-4 -2,-5 -2,-2 -5,-3 -9,-4 -7,-1 -12,-3 -15,-6 -3,-2 -5,-5 -5,-9 0,-5 2,-8 6,-11 3,-3 8,-5 14,-5 6,0 11,2 15,5 3,3 5,7 5,11l0 1 -9 0c0,-3 -1,-5 -3,-7 -2,-1 -5,-2 -8,-2 -3,0 -6,0 -8,2 -1,1 -2,3 -2,5 0,2 1,4 2,5 1,1 4,2 9,3 7,2 12,4 15,6 3,3 5,6 5,10 0,5 -2,9 -6,11 -4,3 -9,5 -15,5 -7,0 -12,-2 -16,-5 -4,-4 -5,-8 -5,-12l0 -1 9 0c0,4 1,6 4,8 2,1 5,2 8,2 4,0 6,-1 8,-2 2,-1 3,-3 3,-5z"/>
   <polygon class="fil4" points="6633,1299 6610,1299 6610,1362 6601,1362 6601,1299 6578,1299 6578,1291 6633,1291 "/>
   <path id="1" class="fil4" d="M6664 1318l-5 0c-3,0 -5,0 -7,1 -1,2 -3,3 -4,5l0 38 -9 0 0 -53 8 0 1 8c2,-3 4,-5 6,-6 2,-2 4,-3 7,-3 1,0 2,0 2,1 1,0 2,0 2,0l-1 9z"/>
   <path id="2" class="fil4" d="M6705 1362c0,-1 0,-3 0,-4 -1,-1 -1,-3 -1,-4 -2,3 -4,5 -7,7 -3,1 -6,2 -9,2 -6,0 -10,-1 -13,-4 -2,-3 -4,-7 -4,-12 0,-5 2,-9 6,-12 4,-2 10,-4 17,-4l10 0 0 -5c0,-3 -1,-5 -3,-7 -1,-2 -4,-3 -8,-3 -3,0 -5,1 -7,2 -2,2 -3,4 -3,6l-9 0 0 0c0,-4 1,-8 5,-11 4,-3 9,-5 15,-5 6,0 11,2 14,5 4,3 6,7 6,13l0 26c0,1 0,3 0,5 0,2 1,3 1,5l-10 0zm-16 -7c4,0 7,-1 10,-3 3,-1 4,-3 5,-6l0 -8 -11 0c-3,0 -6,1 -9,3 -2,2 -3,4 -3,6 0,3 0,5 2,6 1,1 4,2 6,2z"/>
   <path id="3" class="fil4" d="M6736 1309l1 8c2,-3 4,-5 7,-6 2,-2 5,-3 9,-3 5,0 10,2 13,5 3,4 5,9 5,16l0 33 -10 0 0 -33c0,-5 -1,-8 -3,-10 -2,-2 -4,-3 -8,-3 -3,0 -5,1 -8,2 -2,2 -3,3 -5,6l0 38 -9 0 0 -53 8 0z"/>
   <path id="4" class="fil4" d="M6815 1348c0,-2 -1,-4 -2,-5 -2,-1 -5,-3 -9,-4 -7,-1 -12,-3 -15,-5 -3,-3 -5,-6 -5,-10 0,-4 2,-8 6,-11 3,-3 8,-5 14,-5 6,0 11,2 15,5 3,3 5,7 5,12l0 0 -9 0c0,-2 -1,-4 -3,-6 -2,-2 -5,-3 -8,-3 -3,0 -6,1 -8,2 -1,2 -2,4 -2,6 0,2 1,3 2,5 2,1 5,2 9,3 7,1 12,3 15,6 3,2 5,5 5,9 0,5 -2,9 -6,12 -4,3 -9,4 -15,4 -6,0 -12,-2 -16,-5 -4,-3 -5,-7 -5,-12l0 0 9 0c0,3 2,6 4,7 2,2 5,3 8,3 4,0 6,-1 8,-3 2,-1 3,-3 3,-5z"/>
   <polygon id="5" class="fil4" points="6847,1362 6837,1362 6837,1286 6847,1286 "/>
   <path id="6" class="fil4" d="M6894 1362c0,-1 0,-3 -1,-4 0,-1 0,-3 0,-4 -2,3 -4,5 -7,7 -3,1 -6,2 -9,2 -6,0 -10,-1 -13,-4 -3,-3 -4,-7 -4,-12 0,-5 2,-9 6,-12 4,-2 10,-4 17,-4l10 0 0 -5c0,-3 -1,-5 -3,-7 -2,-2 -4,-3 -8,-3 -3,0 -5,1 -7,2 -2,2 -3,4 -3,6l-9 0 0 0c-1,-4 1,-8 5,-11 4,-3 9,-5 15,-5 6,0 11,2 14,5 4,3 6,7 6,13l0 26c0,1 0,3 0,5 0,2 1,3 1,5l-10 0zm-16 -7c4,0 7,-1 10,-3 3,-1 4,-3 5,-6l0 -8 -11 0c-3,0 -7,1 -9,3 -2,2 -3,4 -3,6 0,3 0,5 2,6 1,1 3,2 6,2z"/>
   <path id="7" class="fil4" d="M6929 1297l0 12 10 0 0 8 -10 0 0 31c0,3 1,5 2,6 1,1 2,1 4,1 1,0 1,0 2,0 0,0 1,0 2,-1l1 7c-1,1 -2,1 -3,2 -2,0 -3,0 -4,0 -4,0 -7,-1 -10,-3 -2,-3 -3,-6 -3,-11l0 -32 -9 0 0 -8 9 0 0 -12 9 0z"/>
   <path id="8" class="fil4" d="M6962 1362l-10 0 0 -53 10 0 0 53zm0 -66l-10 0 0 -10 10 0 0 10z"/>
   <path id="9" class="fil4" d="M6974 1335c0,-8 2,-14 6,-19 5,-5 10,-8 18,-8 7,0 13,3 17,8 4,5 6,11 6,19l0 1c0,8 -2,15 -6,20 -4,5 -10,7 -17,7 -8,0 -13,-2 -18,-7 -4,-5 -6,-12 -6,-20l0 -1zm10 1c0,6 1,10 3,14 3,4 6,6 11,6 4,0 8,-2 10,-6 3,-4 4,-8 4,-14l0 -1c0,-5 -1,-10 -4,-13 -2,-4 -6,-6 -10,-6 -5,0 -8,2 -11,6 -2,3 -3,8 -3,13l0 1z"/>
   <path id="10" class="fil4" d="M7042 1309l0 8c2,-3 4,-5 7,-6 3,-2 6,-3 9,-3 6,0 10,2 13,5 3,4 5,9 5,16l0 33 -10 0 0 -33c0,-5 -1,-8 -2,-10 -2,-2 -5,-3 -9,-3 -3,0 -5,1 -7,2 -2,2 -4,3 -5,6l0 38 -10 0 0 -53 9 0z"/>
   <polygon id="11" class="fil4" points="7127,1362 7117,1362 7117,1291 7127,1291 "/>
   <path id="12" class="fil4" d="M7151 1309l1 8c2,-3 4,-5 7,-6 2,-2 5,-3 9,-3 5,0 10,2 13,5 3,4 5,9 5,16l0 33 -10 0 0 -33c0,-5 -1,-8 -3,-10 -2,-2 -4,-3 -8,-3 -3,0 -5,1 -8,2 -2,2 -3,3 -5,6l0 38 -9 0 0 -53 8 0z"/>
   <path id="13" class="fil4" d="M7212 1297l0 12 10 0 0 8 -10 0 0 31c0,3 1,5 2,6 1,1 2,1 4,1 0,0 1,0 2,0 0,0 1,0 1,-1l2 7c-1,1 -2,1 -3,2 -2,0 -3,0 -5,0 -4,0 -7,-1 -9,-3 -2,-3 -3,-6 -3,-11l0 -32 -9 0 0 -8 9 0 0 -12 9 0z"/>
   <path id="14" class="fil4" d="M7256 1363c-7,0 -13,-2 -18,-7 -4,-5 -6,-11 -6,-19l0 -2c0,-8 2,-14 7,-19 4,-5 9,-8 15,-8 8,0 13,3 17,7 3,4 5,10 5,17l0 6 -34 0 0 0c0,5 1,9 4,13 2,3 5,5 10,5 3,0 6,-1 8,-2 3,-1 5,-2 7,-4l4 7c-2,1 -5,3 -8,4 -3,1 -7,2 -11,2zm-2 -47c-3,0 -6,1 -8,4 -2,3 -3,6 -4,10l0 0 24 0 0 -1c0,-4 -1,-7 -3,-9 -2,-3 -5,-4 -9,-4z"/>
   <path id="15" class="fil4" d="M7312 1318l-5 0c-3,0 -5,0 -7,1 -1,2 -3,3 -4,5l0 38 -9 0 0 -53 8 0 1 8c2,-3 4,-5 6,-6 2,-2 5,-3 7,-3 1,0 2,0 2,1 1,0 2,0 2,0l-1 9z"/>
   <path id="16" class="fil4" d="M7342 1356c3,0 5,-1 8,-3 2,-2 4,-5 4,-8l8 0 0 1c0,4 -2,8 -6,12 -4,3 -9,5 -14,5 -8,0 -14,-2 -18,-7 -4,-5 -6,-12 -6,-19l0 -2c0,-8 2,-14 6,-19 4,-5 10,-8 18,-8 6,0 11,2 15,6 4,4 5,8 5,13l0 1 -8 0c0,-4 -2,-6 -4,-9 -2,-2 -5,-3 -8,-3 -6,0 -9,2 -11,5 -2,4 -4,8 -4,14l0 2c0,5 2,10 4,13 2,4 5,6 11,6z"/>
   <path id="17" class="fil4" d="M7383 1316c1,-2 4,-4 6,-5 3,-2 6,-3 9,-3 6,0 10,2 13,6 3,3 5,8 5,15l0 33 -10 0 0 -33c0,-4 -1,-8 -2,-10 -2,-2 -5,-3 -9,-3 -2,0 -5,1 -7,2 -2,1 -4,3 -5,5l0 39 -10 0 0 -76 10 0 0 30z"/>
   <path id="18" class="fil4" d="M7462 1362c0,-1 0,-3 -1,-4 0,-1 0,-3 0,-4 -2,3 -4,5 -7,7 -3,1 -6,2 -9,2 -6,0 -10,-1 -13,-4 -3,-3 -4,-7 -4,-12 0,-5 2,-9 6,-12 4,-2 10,-4 17,-4l10 0 0 -5c0,-3 -1,-5 -3,-7 -2,-2 -4,-3 -8,-3 -3,0 -5,1 -7,2 -2,2 -3,4 -3,6l-9 0 0 0c-1,-4 1,-8 5,-11 4,-3 9,-5 15,-5 6,0 11,2 14,5 4,3 6,7 6,13l0 26c0,1 0,3 0,5 0,2 1,3 1,5l-10 0zm-16 -7c4,0 7,-1 10,-3 2,-1 4,-3 5,-6l0 -8 -11 0c-4,0 -7,1 -9,3 -2,2 -3,4 -3,6 0,3 0,5 2,6 1,1 3,2 6,2z"/>
   <path id="19" class="fil4" d="M7493 1309l1 8c2,-3 4,-5 6,-6 3,-2 6,-3 10,-3 5,0 10,2 13,5 3,4 4,9 4,16l0 33 -9 0 0 -33c0,-5 -1,-8 -3,-10 -2,-2 -5,-3 -8,-3 -3,0 -6,1 -8,2 -2,2 -4,3 -5,6l0 38 -9 0 0 -53 8 0z"/>
   <path id="20" class="fil4" d="M7539 1337c0,-9 2,-16 6,-21 4,-5 9,-8 15,-8 3,0 6,1 9,2 2,2 5,4 6,6l1 -7 8 0 0 53c0,7 -2,12 -6,16 -4,4 -9,5 -17,5 -2,0 -5,0 -8,-1 -3,0 -6,-1 -8,-3l3 -7c1,1 3,2 6,2 2,1 5,1 7,1 5,0 8,-1 10,-3 2,-2 4,-5 4,-10l0 -6c-2,3 -4,4 -7,5 -2,2 -5,2 -8,2 -6,0 -11,-2 -15,-7 -4,-5 -6,-11 -6,-18l0 -1zm10 1c0,5 1,9 3,13 2,3 6,4 10,4 3,0 6,0 8,-2 2,-1 3,-3 5,-5l0 -24c-2,-3 -3,-4 -5,-6 -2,-1 -5,-2 -7,-2 -5,0 -8,2 -11,6 -2,4 -3,9 -3,15l0 1z"/>
   <path id="21" class="fil4" d="M7620 1363c-7,0 -13,-2 -18,-7 -4,-5 -6,-11 -6,-19l0 -2c0,-8 2,-14 7,-19 4,-5 9,-8 15,-8 8,0 13,3 17,7 3,4 5,10 5,17l0 6 -34 0 0 0c0,5 1,9 4,13 2,3 5,5 10,5 3,0 6,-1 8,-2 3,-1 5,-2 7,-4l4 7c-2,1 -5,3 -8,4 -3,1 -7,2 -11,2zm-2 -47c-3,0 -5,1 -8,4 -2,3 -3,6 -4,10l0 0 24 0 0 -1c0,-4 -1,-7 -3,-9 -2,-3 -5,-4 -9,-4z"/>
   <polygon id="22" class="fil4" points="6929,1419 6897,1419 6897,1451 6887,1451 6887,1380 6934,1380 6934,1387 6897,1387 6897,1412 6929,1412 "/>
   <path id="23" class="fil4" d="M6954 1451l-10 0 0 -53 10 0 0 53zm0 -66l-10 0 0 -10 10 0 0 10z"/>
   <polygon id="24" class="fil4" points="6979,1451 6969,1451 6969,1375 6979,1375 "/>
   <path id="25" class="fil4" d="M7016 1452c-8,0 -13,-3 -18,-8 -4,-4 -6,-11 -6,-19l0 -2c0,-7 2,-13 6,-18 5,-5 10,-8 16,-8 7,0 13,2 16,7 4,4 6,9 6,17l0 6 -34 0 -1 0c1,5 2,9 4,12 3,4 6,5 11,5 3,0 6,0 8,-1 3,-1 5,-2 7,-4l3 6c-2,2 -4,4 -7,5 -3,1 -7,2 -11,2zm-2 -47c-3,0 -6,1 -8,4 -2,2 -4,6 -4,10l0 0 24 0 0 -1c0,-4 -1,-7 -3,-10 -2,-2 -5,-3 -9,-3z"/>
   <path id="26" class="fil4" d="M7077 1437c0,-2 -1,-4 -2,-5 -2,-2 -5,-3 -9,-4 -7,-1 -12,-3 -15,-6 -3,-2 -5,-5 -5,-9 0,-5 2,-8 6,-11 4,-3 8,-5 14,-5 6,0 11,2 15,5 3,3 5,7 5,11l0 1 -9 0c0,-3 -1,-5 -3,-7 -2,-1 -5,-2 -8,-2 -3,0 -6,0 -7,2 -2,1 -3,3 -3,5 0,2 1,4 2,5 2,1 5,2 9,3 7,2 12,4 15,6 3,3 5,6 5,10 0,5 -2,9 -6,11 -4,3 -9,5 -15,5 -6,0 -12,-2 -16,-5 -3,-4 -5,-8 -5,-12l0 -1 9 0c0,4 2,6 4,8 2,1 5,2 8,2 4,0 6,-1 8,-2 2,-1 3,-3 3,-5z"/>
   <path id="27" class="fil4" d="M7123 1422c0,-13 3,-24 8,-33 5,-9 10,-15 16,-18l0 0 2 6c-4,3 -8,9 -11,16 -4,8 -5,18 -5,29l0 0c0,12 1,21 5,29 3,8 7,13 11,17l-2 5 0 0c-6,-3 -11,-9 -16,-18 -5,-9 -8,-20 -8,-33l0 0z"/>
   <polygon id="28" class="fil4" points="7167,1451 7158,1451 7158,1441 7167,1441 "/>
   <path id="29" class="fil4" d="M7195 1422l0 29 -10 0 0 -71 27 0c8,0 14,2 18,6 4,4 6,9 6,15 0,7 -2,12 -6,16 -4,3 -10,5 -18,5l-17 0zm0 -7l17 0c5,0 9,-2 11,-4 2,-3 4,-6 4,-10 0,-4 -2,-7 -4,-10 -2,-2 -6,-4 -11,-4l-17 0 0 28z"/>
   <path id="30" class="fil4" d="M7303 1422c0,8 -3,15 -8,21 -6,6 -13,9 -21,9 -8,0 -15,-3 -20,-9 -6,-6 -8,-13 -8,-21l0 -13c0,-9 2,-16 8,-22 5,-5 12,-8 20,-8 8,0 15,3 21,8 5,6 8,13 8,22l0 13zm-10 -13c0,-6 -2,-12 -5,-16 -4,-4 -8,-6 -14,-6 -6,0 -10,2 -14,6 -3,4 -5,10 -5,16l0 13c0,6 2,12 5,16 4,4 8,6 14,6 6,0 10,-2 14,-6 3,-4 5,-10 5,-16l0 -13z"/>
   <path id="31" class="fil4" d="M7335 1422c0,13 -3,24 -8,33 -5,9 -11,15 -16,18l0 0 -2 -5c4,-3 8,-9 11,-17 4,-8 5,-17 5,-29l0 0c0,-11 -1,-21 -5,-29 -3,-7 -7,-13 -11,-17l2 -5 0 0c5,3 11,9 16,18 5,9 8,20 8,33l0 0z"/>
   <path class="fil5" d="M9132 167c86,0 162,44 206,110 6,0 13,-1 19,-1 107,0 193,87 193,193 0,107 -86,193 -193,193l-225 0 -246 0c-87,0 -157,-70 -157,-157 0,-86 70,-157 157,-157 2,0 4,0 7,0 29,-104 125,-181 239,-181z"/>
   <g>
    <g>
     <path class="fil6" d="M4564 881l137 59c-19,-40 -19,-78 0,-117l-137 58z"/>
     <rect class="fil6" x="4648" y="862" width="546.809" height="37.9066"/>
    </g>
    <g>
     <path class="fil7" d="M5195 668l-137 -59c20,40 20,78 0,117l137 -58z"/>
     <rect class="fil8" x="4564" y="649" width="546.809" height="37.9066"/>
    </g>
   </g>
   <g>
    <g>
     <path class="fil2 str0" d="M877 105c48,-12 101,-19 157,-19 56,0 109,7 157,19"/>
     <path class="fil2 str0" d="M1506 105c-48,13 -102,20 -158,20 -56,0 -109,-7 -157,-20"/>
     <path class="fil2 str0" d="M1506 105c48,-12 101,-19 157,-19 56,0 109,7 157,19"/>
     <path class="fil2 str0" d="M2135 105c-48,13 -101,20 -157,20 -56,0 -110,-7 -158,-20"/>
     <path class="fil2 str0" d="M2135 105c48,-12 101,-19 157,-19 56,0 109,7 157,19"/>
     <path class="fil2 str0" d="M2764 105c-48,13 -101,20 -157,20 -56,0 -109,-7 -158,-20"/>
     <path class="fil2 str0" d="M2764 105c48,-12 101,-19 157,-19 56,0 110,7 158,19"/>
     <path class="fil2 str0" d="M3393 105c-48,13 -101,20 -157,20 -56,0 -109,-7 -157,-20"/>
    </g>
    <g>
     <path class="fil2 str0" d="M877 301c48,-12 101,-19 157,-19 56,0 109,7 157,19"/>
     <path class="fil2 str0" d="M1506 301c-48,13 -102,20 -158,20 -56,0 -109,-7 -157,-20"/>
     <path class="fil2 str0" d="M1506 301c48,-12 101,-19 157,-19 56,0 109,7 157,19"/>
     <path class="fil2 str0" d="M2135 301c-48,13 -101,20 -157,20 -56,0 -110,-7 -158,-20"/>
     <path class="fil2 str0" d="M2135 301c48,-12 101,-19 157,-19 56,0 109,7 157,19"/>
     <path class="fil2 str0" d="M2764 301c-48,13 -101,20 -157,20 -56,0 -109,-7 -158,-20"/>
     <path class="fil2 str0" d="M2764 301c48,-12 101,-19 157,-19 56,0 110,7 158,19"/>
     <path class="fil2 str0" d="M3393 301c-48,13 -101,20 -157,20 -56,0 -109,-7 -157,-20"/>
    </g>
    <g>
     <path class="fil2 str0" d="M877 498c48,-13 101,-20 157,-20 56,0 109,7 157,20"/>
     <path class="fil2 str0" d="M1506 498c-48,12 -102,19 -158,19 -56,0 -109,-7 -157,-19"/>
     <path class="fil2 str0" d="M1506 498c48,-13 101,-20 157,-20 56,0 109,7 157,20"/>
     <path class="fil2 str0" d="M2135 498c-48,12 -101,19 -157,19 -56,0 -110,-7 -158,-19"/>
     <path class="fil2 str0" d="M2135 498c48,-13 101,-20 157,-20 56,0 109,7 157,20"/>
     <path class="fil2 str0" d="M2764 498c-48,12 -101,19 -157,19 -56,0 -109,-7 -158,-19"/>
     <path class="fil2 str0" d="M2764 498c48,-13 101,-20 157,-20 56,0 110,7 158,20"/>
     <path class="fil2 str0" d="M3393 498c-48,12 -101,19 -157,19 -56,0 -109,-7 -157,-19"/>
    </g>
    <g>
     <path class="fil2 str0" d="M877 694c48,-13 101,-20 157,-20 56,0 109,7 157,20"/>
     <path class="fil2 str0" d="M1506 694c-48,12 -102,19 -158,19 -56,0 -109,-7 -157,-19"/>
     <path class="fil2 str0" d="M1506 694c48,-13 101,-20 157,-20 56,0 109,7 157,20"/>
     <path class="fil2 str0" d="M2135 694c-48,12 -101,19 -157,19 -56,0 -110,-7 -158,-19"/>
     <path class="fil2 str0" d="M2135 694c48,-13 101,-20 157,-20 56,0 109,7 157,20"/>
     <path class="fil2 str0" d="M2764 694c-48,12 -101,19 -157,19 -56,0 -109,-7 -158,-19"/>
     <path class="fil2 str0" d="M2764 694c48,-13 101,-20 157,-20 56,0 110,7 158,20"/>
     <path class="fil2 str0" d="M3393 694c-48,12 -101,19 -157,19 -56,0 -109,-7 -157,-19"/>
    </g>
    <g>
     <path class="fil2 str0" d="M877 890c48,-13 101,-20 157,-20 56,0 109,7 157,20"/>
     <path class="fil2 str0" d="M1506 890c-48,13 -102,20 -158,20 -56,0 -109,-7 -157,-20"/>
     <path class="fil2 str0" d="M1506 890c48,-13 101,-20 157,-20 56,0 109,7 157,20"/>
     <path class="fil2 str0" d="M2135 890c-48,13 -101,20 -157,20 -56,0 -110,-7 -158,-20"/>
     <path class="fil2 str0" d="M2135 890c48,-13 101,-20 157,-20 56,0 109,7 157,20"/>
     <path class="fil2 str0" d="M2764 890c-48,13 -101,20 -157,20 -56,0 -109,-7 -158,-20"/>
     <path class="fil2 str0" d="M2764 890c48,-13 101,-20 157,-20 56,0 110,7 158,20"/>
     <path class="fil2 str0" d="M3393 890c-48,13 -101,20 -157,20 -56,0 -109,-7 -157,-20"/>
    </g>
    <g>
     <path class="fil2 str0" d="M877 1086c48,-13 101,-20 157,-20 56,0 109,7 157,20"/>
     <path class="fil2 str0" d="M1506 1086c-48,13 -102,20 -158,20 -56,0 -109,-7 -157,-20"/>
     <path class="fil2 str0" d="M1506 1086c48,-13 101,-20 157,-20 56,0 109,7 157,20"/>
     <path class="fil2 str0" d="M2135 1086c-48,13 -101,20 -157,20 -56,0 -110,-7 -158,-20"/>
     <path class="fil2 str0" d="M2135 1086c48,-13 101,-20 157,-20 56,0 109,7 157,20"/>
     <path class="fil2 str0" d="M2764 1086c-48,13 -101,20 -157,20 -56,0 -109,-7 -158,-20"/>
     <path class="fil2 str0" d="M2764 1086c48,-13 101,-20 157,-20 56,0 110,7 158,20"/>
     <path class="fil2 str0" d="M3393 1086c-48,13 -101,20 -157,20 -56,0 -109,-7 -157,-20"/>
    </g>
    <g>
     <path class="fil2 str0" d="M877 1282c48,-13 101,-20 157,-20 56,0 109,7 157,20"/>
     <path class="fil2 str0" d="M1506 1282c-48,13 -102,20 -158,20 -56,0 -109,-7 -157,-20"/>
     <path class="fil2 str0" d="M1506 1282c48,-13 101,-20 157,-20 56,0 109,7 157,20"/>
     <path class="fil2 str0" d="M2135 1282c-48,13 -101,20 -157,20 -56,0 -110,-7 -158,-20"/>
     <path class="fil2 str0" d="M2135 1282c48,-13 101,-20 157,-20 56,0 109,7 157,20"/>
     <path class="fil2 str0" d="M2764 1282c-48,13 -101,20 -157,20 -56,0 -109,-7 -158,-20"/>
     <path class="fil2 str0" d="M2764 1282c48,-13 101,-20 157,-20 56,0 110,7 158,20"/>
     <path class="fil2 str0" d="M3393 1282c-48,13 -101,20 -157,20 -56,0 -109,-7 -157,-20"/>
    </g>
    <g>
     <path class="fil2 str0" d="M877 1478c48,-12 101,-20 157,-20 56,0 109,8 157,20"/>
     <path class="fil2 str0" d="M1506 1478c-48,13 -102,20 -158,20 -56,0 -109,-7 -157,-20"/>
     <path class="fil2 str0" d="M1506 1478c48,-12 101,-20 157,-20 56,0 109,8 157,20"/>
     <path class="fil2 str0" d="M2135 1478c-48,13 -101,20 -157,20 -56,0 -110,-7 -158,-20"/>
     <path class="fil2 str0" d="M2135 1478c48,-12 101,-20 157,-20 56,0 109,8 157,20"/>
     <path class="fil2 str0" d="M2764 1478c-48,13 -101,20 -157,20 -56,0 -109,-7 -158,-20"/>
     <path class="fil2 str0" d="M2764 1478c48,-12 101,-20 157,-20 56,0 110,8 158,20"/>
     <path class="fil2 str0" d="M3393 1478c-48,13 -101,20 -157,20 -56,0 -109,-7 -157,-20"/>
    </g>
   </g>
   <path class="fil9" d="M9223 534c31,0 59,16 75,40 2,-1 4,-1 7,-1 38,0 69,31 69,70 0,38 -31,70 -69,70l-82 0 -88 0c-32,0 -57,-26 -57,-57 0,-31 25,-57 57,-57 1,0 1,0 2,0 11,-38 45,-65 86,-65z"/>
   <g>
    <path class="fil5" d="M2575 282l-524 45 99 141c103,-38 225,-2 342,-23l83 -163z"/>
    <polygon class="fil5" points="2317,279 2171,316 2270,15 "/>
    <polygon class="fil5" points="2508,272 2294,47 2339,277 "/>
   </g>
   <path class="fil10" d="M8378 90c-69,0 -130,35 -166,88 -5,0 -10,0 -15,0 -85,0 -154,69 -154,154 0,85 69,155 154,155l181 0 196 0c70,0 126,-57 126,-126 0,-70 -56,-126 -126,-126 -1,0 -3,0 -5,0 -23,-84 -100,-145 -191,-145z"/>
   <path class="fil10" d="M9066 824c-103,0 -194,52 -246,132 -8,-1 -16,-2 -24,-2 -127,0 -229,103 -229,230 0,127 102,230 229,230l270 0 292 0c104,0 188,-83 188,-187 0,-103 -84,-187 -188,-187 -2,0 -5,0 -8,0 -34,-125 -148,-216 -284,-216z"/>
   <path class="fil5" d="M8121 1308c-37,0 -69,19 -88,47 -2,0 -5,0 -8,0 -45,0 -82,37 -82,82 0,45 37,82 82,82l96 0 104 0c37,0 67,-30 67,-67 0,-37 -30,-67 -67,-67 -1,0 -2,0 -3,0 -12,-44 -53,-77 -101,-77z"/>
   <polygon class="fil0" style="mask:url(#id0)" points="9416,0 8797,0 8797,1581 9416,1581 "/>
   <rect class="fil0" x="9337" width="1907" height="1581"/>
   <polygon class="fil4" points="8248,123 8225,123 8225,186 8215,186 8215,123 8193,123 8193,115 8248,115 "/>
   <path id="1" class="fil4" d="M8278 142l-5 0c-2,0 -4,1 -6,2 -2,1 -3,3 -4,5l0 37 -10 0 0 -52 9 0 1 7c1,-2 3,-4 5,-6 2,-1 5,-2 8,-2 1,0 1,0 2,0 1,0 1,0 1,0l-1 9z"/>
   <path id="2" class="fil4" d="M8320 186c0,-1 -1,-3 -1,-4 0,-1 0,-2 0,-3 -2,2 -4,4 -7,6 -3,2 -6,2 -10,2 -5,0 -9,-1 -12,-4 -3,-3 -4,-6 -4,-11 0,-5 2,-9 6,-12 4,-3 9,-5 16,-5l11 0 0 -5c0,-3 -1,-5 -3,-7 -2,-2 -5,-3 -8,-3 -3,0 -6,1 -8,3 -2,1 -2,3 -2,5l-10 0 0 0c0,-4 2,-7 6,-11 4,-3 8,-4 14,-4 6,0 11,1 15,4 4,3 5,8 5,13l0 26c0,2 0,4 1,5 0,2 0,4 1,5l-10 0zm-16 -7c3,0 7,-1 9,-2 3,-2 5,-4 6,-6l0 -9 -11 0c-4,0 -7,1 -9,3 -3,2 -4,4 -4,7 0,2 1,4 2,5 2,2 4,2 7,2z"/>
   <path id="3" class="fil4" d="M8351 134l1 8c1,-3 4,-5 6,-7 3,-1 6,-2 9,-2 6,0 10,1 13,5 4,3 5,8 5,15l0 33 -10 0 0 -33c0,-4 0,-8 -2,-10 -2,-1 -5,-2 -9,-2 -2,0 -5,0 -7,2 -2,1 -4,3 -5,5l0 38 -10 0 0 -52 9 0z"/>
   <path id="4" class="fil4" d="M8430 172c0,-2 -1,-3 -3,-5 -1,-1 -4,-2 -9,-3 -6,-2 -11,-4 -14,-6 -4,-2 -5,-6 -5,-10 0,-4 2,-8 5,-11 4,-3 9,-4 15,-4 6,0 11,1 14,4 4,4 6,7 5,12l0 0 -9 0c0,-2 -1,-4 -3,-6 -2,-2 -4,-3 -7,-3 -4,0 -6,1 -8,3 -2,1 -3,3 -3,5 0,2 1,4 3,5 1,1 4,2 9,3 6,1 11,3 14,6 4,2 5,6 5,10 0,4 -2,8 -5,11 -4,3 -9,4 -15,4 -7,0 -12,-1 -16,-5 -4,-3 -6,-7 -6,-12l0 0 10 0c0,3 1,6 3,8 3,1 6,2 9,2 3,0 6,-1 8,-2 2,-2 3,-3 3,-6z"/>
   <polygon id="5" class="fil4" points="8462,186 8452,186 8452,110 8462,110 "/>
   <path id="6" class="fil4" d="M8509 186c-1,-1 -1,-3 -1,-4 0,-1 0,-2 0,-3 -2,2 -4,4 -7,6 -3,2 -6,2 -10,2 -5,0 -9,-1 -12,-4 -3,-3 -4,-6 -4,-11 0,-5 2,-9 6,-12 4,-3 9,-5 16,-5l11 0 0 -5c0,-3 -1,-5 -3,-7 -2,-2 -5,-3 -8,-3 -3,0 -6,1 -8,3 -2,1 -3,3 -3,5l-9 0 0 0c0,-4 2,-7 6,-11 3,-3 8,-4 14,-4 6,0 11,1 15,4 3,3 5,8 5,13l0 26c0,2 0,4 1,5 0,2 0,4 1,5l-10 0zm-16 -7c3,0 6,-1 9,-2 3,-2 5,-4 6,-6l0 -9 -11 0c-4,0 -7,1 -9,3 -3,2 -4,4 -4,7 0,2 1,4 2,5 2,2 4,2 7,2z"/>
   <path id="7" class="fil4" d="M8544 121l0 13 10 0 0 7 -10 0 0 32c0,2 0,4 1,5 1,1 3,1 5,1 0,0 1,0 1,0 1,0 2,0 2,0l1 6c0,1 -1,1 -3,2 -1,0 -3,0 -4,0 -4,0 -7,-1 -9,-3 -3,-2 -4,-6 -4,-11l0 -32 -8 0 0 -7 8 0 0 -13 10 0z"/>
   <path id="8" class="fil4" d="M8563 160c0,-8 3,-15 7,-20 4,-5 10,-7 17,-7 7,0 13,2 17,7 5,5 7,12 7,20l0 1c0,8 -2,14 -7,19 -4,5 -10,7 -17,7 -7,0 -13,-2 -17,-7 -4,-5 -7,-12 -7,-19l0 -1zm10 1c0,5 1,10 4,13 2,4 5,6 10,6 5,0 8,-2 11,-6 2,-3 3,-8 3,-13l0 -1c0,-6 -1,-11 -3,-14 -3,-4 -6,-6 -11,-6 -5,0 -8,2 -10,6 -3,3 -4,8 -4,14l0 1z"/>
   <path id="9" class="fil4" d="M8647 142l-5 0c-2,0 -4,1 -6,2 -2,1 -3,3 -4,5l0 37 -10 0 0 -52 9 0 1 7c1,-2 3,-4 5,-6 3,-1 5,-2 8,-2 1,0 1,0 2,0 1,0 1,0 2,0l-2 9z"/>
   <path id="10" class="fil4" d="M8687 172c0,-2 -1,-3 -2,-5 -2,-1 -5,-2 -9,-3 -7,-2 -11,-4 -15,-6 -3,-2 -5,-6 -5,-10 0,-4 2,-8 6,-11 4,-3 8,-4 14,-4 6,0 11,1 15,4 3,4 5,7 5,12l0 0 -9 0c0,-2 -1,-4 -3,-6 -2,-2 -5,-3 -8,-3 -3,0 -6,1 -7,3 -2,1 -3,3 -3,5 0,2 1,4 2,5 2,1 5,2 9,3 7,1 12,3 15,6 3,2 5,6 5,10 0,4 -2,8 -6,11 -4,3 -8,4 -15,4 -6,0 -12,-1 -15,-5 -4,-3 -6,-7 -6,-12l0 0 9 0c0,3 2,6 4,8 2,1 5,2 8,2 4,0 6,-1 8,-2 2,-2 3,-3 3,-6z"/>
   <polygon id="11" class="fil4" points="8718,120 8711,137 8706,137 8709,120 8709,110 8718,110 "/>
   <path id="12" class="fil4" d="M8806 164l0 0c0,7 -2,12 -7,17 -5,4 -11,6 -19,6 -8,0 -15,-2 -20,-8 -5,-6 -7,-13 -7,-22l0 -12c0,-9 2,-16 7,-22 5,-6 12,-9 20,-9 8,0 14,3 19,7 5,4 7,10 7,17l0 0 -9 0c0,-5 -2,-9 -5,-12 -3,-2 -7,-4 -12,-4 -5,0 -10,2 -13,7 -3,4 -5,9 -5,16l0 12c0,7 2,12 5,16 3,5 8,7 13,7 5,0 9,-2 12,-4 3,-3 5,-7 5,-12l9 0z"/>
   <polygon id="13" class="fil4" points="8828,186 8818,186 8818,110 8828,110 "/>
   <path id="14" class="fil4" d="M8840 160c0,-8 2,-15 6,-20 5,-5 10,-7 18,-7 7,0 13,2 17,7 4,5 6,12 6,20l0 1c0,8 -2,14 -6,19 -4,5 -10,7 -17,7 -8,0 -13,-2 -18,-7 -4,-5 -6,-12 -6,-19l0 -1zm10 1c0,5 1,10 3,13 3,4 6,6 11,6 4,0 8,-2 10,-6 3,-3 4,-8 4,-13l0 -1c0,-6 -1,-11 -4,-14 -2,-4 -6,-6 -10,-6 -5,0 -8,2 -11,6 -2,3 -3,8 -3,14l0 1z"/>
   <path id="15" class="fil4" d="M8933 179c-2,2 -4,5 -7,6 -2,2 -5,2 -9,2 -6,0 -10,-1 -13,-5 -3,-4 -5,-9 -5,-17l0 -31 9 0 0 31c0,6 1,9 3,11 2,3 4,4 8,4 3,0 6,-1 8,-2 2,-2 4,-4 5,-6l0 -38 10 0 0 52 -9 0 0 -7z"/>
   <path id="16" class="fil4" d="M8954 161c0,-8 1,-15 5,-20 4,-6 9,-8 15,-8 3,0 6,0 8,1 3,2 5,3 7,5l0 -29 9 0 0 76 -8 0 -1 -6c-1,2 -4,4 -6,6 -3,1 -6,1 -9,1 -6,0 -11,-2 -15,-7 -4,-4 -5,-10 -5,-18l0 -1zm9 1c0,5 1,10 3,13 3,3 6,5 11,5 2,0 5,-1 7,-2 2,-2 3,-3 5,-6l0 -24c-2,-3 -3,-4 -5,-6 -2,-1 -5,-1 -7,-1 -5,0 -8,1 -11,5 -2,4 -3,9 -3,15l0 1z"/>
   <path class="fil4" d="M4656 164l0 0c0,7 -3,12 -7,17 -5,4 -12,6 -19,6 -8,0 -15,-2 -20,-8 -5,-6 -8,-13 -8,-22l0 -12c0,-9 3,-16 8,-22 5,-6 12,-9 20,-9 8,0 14,3 19,7 4,4 7,10 7,17l0 0 -10 0c0,-5 -1,-9 -4,-12 -3,-2 -7,-4 -12,-4 -6,0 -10,2 -13,7 -3,4 -5,9 -5,16l0 12c0,7 2,12 5,16 3,5 7,7 13,7 5,0 9,-2 12,-4 3,-3 4,-7 4,-12l10 0z"/>
   <path id="1" class="fil4" d="M4665 160c0,-8 2,-15 6,-20 4,-5 10,-7 17,-7 7,0 13,2 17,7 5,5 7,12 7,20l0 1c0,8 -2,14 -7,19 -4,5 -10,7 -17,7 -7,0 -13,-2 -17,-7 -4,-5 -6,-12 -6,-19l0 -1zm9 1c0,5 1,10 4,13 2,4 6,6 10,6 5,0 8,-2 11,-6 2,-3 3,-8 3,-13l0 -1c0,-6 -1,-11 -3,-14 -3,-4 -6,-6 -11,-6 -4,0 -8,2 -10,6 -3,3 -4,8 -4,14l0 1z"/>
   <path id="2" class="fil4" d="M4732 134l1 8c2,-3 4,-5 6,-7 3,-1 6,-2 9,-2 6,0 10,1 14,5 3,3 4,8 4,15l0 33 -9 0 0 -33c0,-4 -1,-8 -3,-10 -2,-1 -5,-2 -8,-2 -3,0 -6,0 -8,2 -2,1 -4,3 -5,5l0 38 -9 0 0 -52 8 0z"/>
   <path id="3" class="fil4" d="M4793 121l0 13 10 0 0 7 -10 0 0 32c0,2 0,4 1,5 1,1 3,1 5,1 0,0 1,0 1,0 1,0 2,0 2,0l1 6c0,1 -1,1 -3,2 -1,0 -3,0 -4,0 -4,0 -7,-1 -9,-3 -3,-2 -4,-6 -4,-11l0 -32 -8 0 0 -7 8 0 0 -13 10 0z"/>
   <path id="4" class="fil4" d="M4825 186l-9 0 0 -52 9 0 0 52zm0 -66l-9 0 0 -10 9 0 0 10z"/>
   <path id="5" class="fil4" d="M4848 134l1 8c2,-3 4,-5 7,-7 2,-1 5,-2 9,-2 5,0 10,1 13,5 3,3 5,8 5,15l0 33 -10 0 0 -33c0,-4 -1,-8 -3,-10 -2,-1 -4,-2 -8,-2 -3,0 -5,0 -7,2 -3,1 -4,3 -6,5l0 38 -9 0 0 -52 8 0z"/>
   <path id="6" class="fil4" d="M4930 179c-2,2 -4,5 -6,6 -3,2 -6,2 -9,2 -6,0 -11,-1 -14,-5 -3,-4 -5,-9 -5,-17l0 -31 10 0 0 31c0,6 1,9 2,11 2,3 5,4 8,4 4,0 6,-1 9,-2 2,-2 4,-4 5,-6l0 -38 9 0 0 52 -8 0 -1 -7z"/>
   <path id="7" class="fil4" d="M4951 160c0,-8 2,-15 6,-20 5,-5 10,-7 18,-7 7,0 13,2 17,7 4,5 6,12 6,20l0 1c0,8 -2,14 -6,19 -4,5 -10,7 -17,7 -8,0 -13,-2 -18,-7 -4,-5 -6,-12 -6,-19l0 -1zm10 1c0,5 1,10 3,13 3,4 6,6 11,6 4,0 8,-2 10,-6 3,-3 4,-8 4,-13l0 -1c0,-6 -2,-11 -4,-14 -2,-4 -6,-6 -10,-6 -5,0 -8,2 -11,6 -2,3 -3,8 -3,14l0 1z"/>
   <path id="8" class="fil4" d="M5044 179c-2,2 -4,5 -7,6 -2,2 -5,2 -9,2 -6,0 -10,-1 -13,-5 -4,-4 -5,-9 -5,-17l0 -31 9 0 0 31c0,6 1,9 3,11 2,3 4,4 8,4 3,0 6,-1 8,-2 2,-2 4,-4 5,-6l0 -38 10 0 0 52 -9 0 0 -7z"/>
   <path id="9" class="fil4" d="M5097 172c0,-2 0,-3 -2,-5 -2,-1 -5,-2 -9,-3 -7,-2 -11,-4 -15,-6 -3,-2 -4,-6 -4,-10 0,-4 1,-8 5,-11 4,-3 8,-4 14,-4 6,0 11,1 15,4 3,4 5,7 5,12l0 0 -9 0c0,-2 -1,-4 -3,-6 -2,-2 -5,-3 -8,-3 -3,0 -6,1 -7,3 -2,1 -3,3 -3,5 0,2 1,4 2,5 2,1 5,2 9,3 7,1 12,3 15,6 3,2 5,6 5,10 0,4 -2,8 -6,11 -3,3 -8,4 -15,4 -6,0 -12,-1 -15,-5 -4,-3 -6,-7 -6,-12l0 0 9 0c1,3 2,6 4,8 3,1 5,2 8,2 4,0 7,-1 8,-2 2,-2 3,-3 3,-6z"/>
   <polygon id="10" class="fil4" points="5155,179 5189,179 5189,186 5146,186 5146,115 5155,115 "/>
   <path id="11" class="fil4" d="M5195 160c0,-8 2,-15 7,-20 4,-5 10,-7 17,-7 7,0 13,2 17,7 4,5 7,12 7,20l0 1c0,8 -3,14 -7,19 -4,5 -10,7 -17,7 -7,0 -13,-2 -17,-7 -4,-5 -7,-12 -7,-19l0 -1zm10 1c0,5 1,10 4,13 2,4 5,6 10,6 5,0 8,-2 10,-6 3,-3 4,-8 4,-13l0 -1c0,-6 -1,-11 -4,-14 -2,-4 -5,-6 -10,-6 -5,0 -8,2 -10,6 -3,3 -4,8 -4,14l0 1z"/>
   <path id="12" class="fil4" d="M5276 180c3,0 6,-1 8,-3 3,-2 4,-4 4,-7l8 0 1 0c0,5 -2,9 -7,12 -4,4 -9,5 -14,5 -8,0 -14,-2 -18,-7 -4,-5 -6,-11 -6,-19l0 -2c0,-7 2,-14 6,-19 4,-5 10,-7 18,-7 6,0 11,2 15,5 4,4 6,8 6,14l-1 0 -8 0c0,-3 -1,-6 -4,-8 -2,-3 -5,-4 -8,-4 -5,0 -9,2 -11,6 -2,3 -3,8 -3,13l0 2c0,5 1,10 3,13 2,4 6,6 11,6z"/>
   <path id="13" class="fil4" d="M5340 186c-1,-1 -1,-3 -1,-4 0,-1 0,-2 0,-3 -2,2 -4,4 -7,6 -3,2 -6,2 -10,2 -5,0 -9,-1 -12,-4 -3,-3 -4,-6 -4,-11 0,-5 2,-9 6,-12 4,-3 9,-5 16,-5l11 0 0 -5c0,-3 -1,-5 -3,-7 -2,-2 -5,-3 -8,-3 -3,0 -6,1 -8,3 -2,1 -3,3 -3,5l-9 0 0 0c0,-4 2,-7 6,-11 3,-3 8,-4 14,-4 6,0 11,1 15,4 3,3 5,8 5,13l0 26c0,2 0,4 1,5 0,2 0,4 1,5l-10 0zm-16 -7c3,0 6,-1 9,-2 3,-2 5,-4 6,-6l0 -9 -11 0c-4,0 -7,1 -9,3 -3,2 -4,4 -4,7 0,2 1,4 2,5 2,2 4,2 7,2z"/>
   <polygon id="14" class="fil4" points="5373,186 5363,186 5363,110 5373,110 "/>
   <path id="15" class="fil4" d="M5398 186l-10 0 0 -52 10 0 0 52zm0 -66l-10 0 0 -10 10 0 0 10z"/>
   <polygon id="16" class="fil4" points="5422,179 5452,179 5452,186 5410,186 5410,180 5439,141 5410,141 5410,134 5450,134 5450,140 "/>
   <path id="17" class="fil4" d="M5495 186c0,-1 0,-3 -1,-4 0,-1 0,-2 0,-3 -2,2 -4,4 -7,6 -3,2 -6,2 -9,2 -6,0 -10,-1 -13,-4 -3,-3 -4,-6 -4,-11 0,-5 2,-9 6,-12 4,-3 10,-5 17,-5l10 0 0 -5c0,-3 -1,-5 -3,-7 -2,-2 -4,-3 -8,-3 -3,0 -5,1 -7,3 -2,1 -3,3 -3,5l-9 0 0 0c-1,-4 1,-7 5,-11 4,-3 9,-4 15,-4 6,0 11,1 14,4 4,3 6,8 6,13l0 26c0,2 0,4 0,5 0,2 0,4 1,5l-10 0zm-16 -7c4,0 7,-1 10,-2 2,-2 4,-4 5,-6l0 -9 -11 0c-4,0 -7,1 -9,3 -2,2 -4,4 -4,7 0,2 1,4 3,5 1,2 3,2 6,2z"/>
   <path id="18" class="fil4" d="M5530 121l0 13 10 0 0 7 -10 0 0 32c0,2 1,4 2,5 1,1 2,1 4,1 0,0 1,0 2,0 0,0 1,0 1,0l2 6c-1,1 -2,1 -3,2 -2,0 -3,0 -5,0 -4,0 -7,-1 -9,-3 -2,-2 -3,-6 -3,-11l0 -32 -9 0 0 -7 9 0 0 -13 9 0z"/>
   <path id="19" class="fil4" d="M5562 186l-9 0 0 -52 9 0 0 52zm0 -66l-9 0 0 -10 9 0 0 10z"/>
   <path id="20" class="fil4" d="M5575 160c0,-8 2,-15 6,-20 5,-5 10,-7 17,-7 8,0 14,2 18,7 4,5 6,12 6,20l0 1c0,8 -2,14 -6,19 -4,5 -10,7 -17,7 -8,0 -13,-2 -18,-7 -4,-5 -6,-12 -6,-19l0 -1zm10 1c0,5 1,10 3,13 2,4 6,6 11,6 4,0 8,-2 10,-6 2,-3 4,-8 4,-13l0 -1c0,-6 -2,-11 -4,-14 -2,-4 -6,-6 -11,-6 -4,0 -8,2 -10,6 -2,3 -3,8 -3,14l0 1z"/>
   <path id="21" class="fil4" d="M5643 134l0 8c2,-3 4,-5 7,-7 2,-1 5,-2 9,-2 6,0 10,1 13,5 3,3 5,8 5,15l0 33 -10 0 0 -33c0,-4 -1,-8 -3,-10 -1,-1 -4,-2 -8,-2 -3,0 -5,0 -7,2 -3,1 -4,3 -5,5l0 38 -10 0 0 -52 9 0z"/>
   <path id="22" class="fil4" d="M5756 169c0,-4 -1,-6 -4,-9 -2,-2 -7,-4 -13,-5 -7,-2 -13,-4 -17,-8 -5,-3 -7,-8 -7,-13 0,-6 3,-10 7,-14 5,-4 11,-6 18,-6 8,0 14,3 18,7 5,4 7,9 7,15l0 0 -9 0c0,-4 -2,-8 -4,-10 -3,-3 -7,-4 -12,-4 -5,0 -9,1 -11,3 -3,2 -4,5 -4,9 0,3 1,5 4,7 3,3 7,4 14,6 7,2 13,4 17,8 4,4 5,8 5,13 0,6 -2,11 -7,14 -4,4 -10,5 -18,5 -7,0 -13,-2 -19,-5 -5,-4 -8,-9 -8,-16l1 0 9 0c0,4 1,8 5,10 3,3 7,4 12,4 5,0 9,-1 12,-3 2,-2 4,-5 4,-8z"/>
   <path id="23" class="fil4" d="M5800 187c-8,0 -14,-2 -18,-7 -4,-5 -6,-11 -6,-19l0 -2c0,-8 2,-14 6,-19 5,-5 10,-7 16,-7 7,0 13,2 16,6 4,4 6,10 6,17l0 6 -35 0 0 1c0,5 2,9 4,12 3,3 6,5 11,5 3,0 6,-1 8,-2 3,0 5,-2 6,-3l4 6c-2,2 -4,3 -7,5 -3,1 -7,1 -11,1zm-2 -47c-3,0 -6,2 -8,4 -2,3 -4,6 -4,10l0 1 24 0 0 -2c0,-3 -1,-6 -3,-9 -2,-2 -5,-4 -9,-4z"/>
   <path id="24" class="fil4" d="M5855 142l-5 0c-2,0 -4,1 -6,2 -2,1 -3,3 -4,5l0 37 -10 0 0 -52 9 0 1 7c1,-2 3,-4 5,-6 3,-1 5,-2 8,-2 1,0 1,0 2,0 1,0 1,0 2,0l-2 9z"/>
   <polygon id="25" class="fil4" points="5883,171 5884,175 5884,175 5885,171 5897,134 5907,134 5888,186 5880,186 5861,134 5871,134 "/>
   <path id="26" class="fil4" d="M5937 187c-7,0 -13,-2 -18,-7 -4,-5 -6,-11 -6,-19l0 -2c0,-8 2,-14 7,-19 4,-5 9,-7 15,-7 8,0 13,2 17,6 3,4 5,10 5,17l0 6 -34 0 0 1c0,5 1,9 4,12 2,3 5,5 10,5 3,0 6,-1 8,-2 3,0 5,-2 7,-3l4 6c-2,2 -5,3 -8,5 -3,1 -7,1 -11,1zm-2 -47c-3,0 -5,2 -8,4 -2,3 -3,6 -4,10l0 1 24 0 0 -2c0,-3 -1,-6 -3,-9 -2,-2 -5,-4 -9,-4z"/>
   <path id="27" class="fil4" d="M5993 142l-5 0c-3,0 -5,1 -7,2 -1,1 -3,3 -4,5l0 37 -9 0 0 -52 8 0 1 7c2,-2 4,-4 6,-6 2,-1 5,-2 7,-2 1,0 2,0 2,0 1,0 2,0 2,0l-1 9z"/>
   <path id="28" class="fil4" d="M6052 142l-5 0c-3,0 -5,1 -7,2 -1,1 -3,3 -4,5l0 37 -9 0 0 -52 8 0 1 7c2,-2 4,-4 6,-6 2,-1 5,-2 7,-2 1,0 2,0 2,0 1,0 2,0 2,0l-1 9z"/>
   <path id="29" class="fil4" d="M6095 179c-2,2 -4,5 -7,6 -2,2 -5,2 -9,2 -6,0 -10,-1 -13,-5 -4,-4 -5,-9 -5,-17l0 -31 9 0 0 31c0,6 1,9 3,11 2,3 4,4 8,4 3,0 6,-1 8,-2 2,-2 4,-4 5,-6l0 -38 10 0 0 52 -9 0 0 -7z"/>
   <path id="30" class="fil4" d="M6126 134l1 8c2,-3 4,-5 7,-7 2,-1 5,-2 9,-2 5,0 10,1 13,5 3,3 5,8 5,15l0 33 -10 0 0 -33c0,-4 -1,-8 -3,-10 -2,-1 -4,-2 -8,-2 -3,0 -5,0 -8,2 -2,1 -3,3 -5,5l0 38 -9 0 0 -52 8 0z"/>
   <path id="31" class="fil4" d="M6183 134l1 8c1,-3 4,-5 6,-7 3,-1 6,-2 9,-2 6,0 10,1 14,5 3,3 4,8 4,15l0 33 -9 0 0 -33c0,-4 -1,-8 -3,-10 -2,-1 -5,-2 -9,-2 -2,0 -5,0 -7,2 -2,1 -4,3 -5,5l0 38 -10 0 0 -52 9 0z"/>
   <path id="32" class="fil4" d="M6242 186l-10 0 0 -52 10 0 0 52zm0 -66l-10 0 0 -10 10 0 0 10z"/>
   <path id="33" class="fil4" d="M6265 134l1 8c1,-3 4,-5 6,-7 3,-1 6,-2 9,-2 6,0 10,1 13,5 4,3 5,8 5,15l0 33 -9 0 0 -33c0,-4 -1,-8 -3,-10 -2,-1 -5,-2 -9,-2 -2,0 -5,0 -7,2 -2,1 -4,3 -5,5l0 38 -10 0 0 -52 9 0z"/>
   <path id="34" class="fil4" d="M6311 161c0,-8 2,-15 6,-20 3,-6 8,-8 15,-8 3,0 6,0 9,2 2,1 4,3 6,6l1 -7 8 0 0 53c0,6 -2,12 -6,15 -4,4 -10,6 -17,6 -3,0 -5,-1 -8,-1 -3,-1 -6,-2 -8,-3l2 -8c2,1 4,2 7,3 2,0 4,1 7,1 5,0 8,-1 10,-4 2,-2 3,-5 3,-9l0 -6c-1,2 -4,4 -6,5 -2,1 -5,1 -8,1 -7,0 -12,-2 -15,-7 -4,-4 -6,-10 -6,-18l0 -1zm10 1c0,5 1,10 3,13 2,3 6,5 10,5 3,0 5,-1 7,-2 2,-2 4,-4 5,-6l0 -24c-1,-2 -3,-4 -5,-5 -2,-2 -4,-2 -7,-2 -4,0 -8,1 -10,5 -2,4 -3,9 -3,15l0 1z"/>
   <path id="35" class="fil4" d="M6435 169c0,-4 -1,-6 -4,-9 -2,-2 -6,-4 -13,-5 -7,-2 -13,-4 -17,-8 -4,-3 -6,-8 -6,-13 0,-6 2,-10 6,-14 5,-4 11,-6 18,-6 8,0 14,3 18,7 5,4 7,9 7,15l0 0 -9 0c0,-4 -2,-8 -4,-10 -3,-3 -7,-4 -12,-4 -5,0 -9,1 -11,3 -3,2 -4,5 -4,9 0,3 2,5 4,7 3,3 8,4 14,6 7,2 13,4 17,8 4,4 6,8 6,13 0,6 -3,11 -7,14 -5,4 -11,5 -19,5 -7,0 -13,-2 -19,-5 -5,-4 -8,-9 -7,-16l0 0 9 0c0,4 2,8 5,10 3,3 7,4 12,4 5,0 9,-1 12,-3 3,-2 4,-5 4,-8z"/>
   <path id="36" class="fil4" d="M6479 187c-8,0 -14,-2 -18,-7 -4,-5 -6,-11 -6,-19l0 -2c0,-8 2,-14 6,-19 5,-5 10,-7 16,-7 7,0 13,2 16,6 4,4 6,10 6,17l0 6 -34 0 -1 1c1,5 2,9 4,12 3,3 6,5 11,5 3,0 6,-1 8,-2 3,0 5,-2 7,-3l3 6c-2,2 -4,3 -7,5 -3,1 -7,1 -11,1zm-2 -47c-3,0 -6,2 -8,4 -2,3 -4,6 -4,10l0 1 24 0 0 -2c0,-3 -1,-6 -3,-9 -2,-2 -5,-4 -9,-4z"/>
   <path id="37" class="fil4" d="M6535 142l-5 0c-3,0 -5,1 -7,2 -2,1 -3,3 -4,5l0 37 -9 0 0 -52 8 0 1 7c2,-2 3,-4 6,-6 2,-1 4,-2 7,-2 1,0 2,0 2,0 1,0 1,0 2,0l-1 9z"/>
   <path id="38" class="fil4" d="M6541 161c0,-8 2,-15 5,-20 4,-6 9,-8 16,-8 3,0 6,0 8,2 3,1 5,3 7,6l1 -7 8 0 0 53c0,6 -2,12 -6,15 -4,4 -10,6 -17,6 -3,0 -6,-1 -8,-1 -3,-1 -6,-2 -8,-3l2 -8c2,1 4,2 6,3 3,0 5,1 8,1 4,0 8,-1 10,-4 2,-2 3,-5 3,-9l0 -6c-2,2 -4,4 -6,5 -3,1 -5,1 -8,1 -7,0 -12,-2 -16,-7 -3,-4 -5,-10 -5,-18l0 -1zm9 1c0,5 1,10 4,13 2,3 5,5 10,5 3,0 5,-1 7,-2 2,-2 4,-4 5,-6l0 -24c-1,-2 -3,-4 -5,-5 -2,-2 -4,-2 -7,-2 -5,0 -8,1 -10,5 -3,4 -4,9 -4,15l0 1z"/>
   <path id="39" class="fil4" d="M6621 187c-7,0 -13,-2 -17,-7 -4,-5 -7,-11 -7,-19l0 -2c0,-8 3,-14 7,-19 5,-5 10,-7 16,-7 7,0 12,2 16,6 4,4 6,10 6,17l0 6 -35 0 0 1c0,5 2,9 4,12 3,3 6,5 10,5 4,0 7,-1 9,-2 2,0 5,-2 6,-3l4 6c-2,2 -4,3 -7,5 -3,1 -7,1 -12,1zm-1 -47c-3,0 -6,2 -8,4 -3,3 -4,6 -4,10l0 1 24 0 0 -2c0,-3 -1,-6 -3,-9 -2,-2 -5,-4 -9,-4z"/>
   <polygon class="fil0" style="mask:url(#id2)" points="1830,0 2449,0 2449,1581 1830,1581 "/>
   <path class="fil4" d="M2231 186l0 -71 22 0c9,0 16,3 22,9 6,6 8,13 8,22l0 10c0,9 -2,16 -8,22 -6,6 -13,8 -22,8l-22 0zm9 -63l0 56 13 0c6,0 11,-2 15,-7 4,-4 6,-9 6,-16l0 -10c0,-7 -2,-12 -6,-16 -4,-5 -9,-7 -15,-7l-13 0z"/>
   <path id="1" class="fil4" d="M2317 187c-8,0 -13,-2 -18,-7 -4,-5 -6,-11 -6,-19l0 -2c0,-8 2,-14 6,-19 5,-5 10,-7 16,-7 7,0 13,2 16,6 4,4 6,10 6,17l0 6 -34 0 -1 1c1,5 2,9 4,12 3,3 6,5 11,5 3,0 6,-1 8,-2 3,0 5,-2 7,-3l3 6c-2,2 -4,3 -7,5 -3,1 -7,1 -11,1zm-2 -47c-3,0 -6,2 -8,4 -2,3 -4,6 -4,10l0 1 24 0 0 -2c0,-3 -1,-6 -3,-9 -2,-2 -5,-4 -9,-4z"/>
   <polygon id="2" class="fil4" points="2365,171 2365,175 2366,175 2367,171 2379,134 2389,134 2369,186 2362,186 2342,134 2352,134 "/>
   <path id="3" class="fil4" d="M2418 187c-7,0 -13,-2 -17,-7 -4,-5 -7,-11 -7,-19l0 -2c0,-8 3,-14 7,-19 5,-5 10,-7 16,-7 7,0 12,2 16,6 4,4 6,10 6,17l0 6 -35 0 0 1c0,5 2,9 4,12 2,3 6,5 10,5 4,0 6,-1 9,-2 2,0 5,-2 6,-3l4 6c-2,2 -4,3 -7,5 -3,1 -7,1 -12,1zm-1 -47c-3,0 -6,2 -8,4 -3,3 -4,6 -4,10l0 1 24 0 0 -2c0,-3 -1,-6 -3,-9 -2,-2 -5,-4 -9,-4z"/>
   <polygon id="4" class="fil4" points="2460,186 2450,186 2450,110 2460,110 "/>
   <path id="5" class="fil4" d="M2472 160c0,-8 2,-15 7,-20 4,-5 9,-7 17,-7 7,0 13,2 17,7 4,5 6,12 6,20l0 1c0,8 -2,14 -6,19 -4,5 -10,7 -17,7 -7,0 -13,-2 -17,-7 -5,-5 -7,-12 -7,-19l0 -1zm10 1c0,5 1,10 3,13 3,4 6,6 11,6 4,0 8,-2 10,-6 3,-3 4,-8 4,-13l0 -1c0,-6 -1,-11 -4,-14 -2,-4 -6,-6 -10,-6 -5,0 -8,2 -11,6 -2,3 -3,8 -3,14l0 1z"/>
   <path id="6" class="fil4" d="M2576 162c0,8 -2,14 -5,18 -4,5 -9,7 -15,7 -4,0 -7,0 -9,-1 -2,-1 -5,-3 -6,-5l0 26 -10 0 0 -73 8 0 1 7c2,-3 4,-5 6,-6 3,-2 6,-2 9,-2 7,0 12,2 16,8 3,5 5,12 5,20l0 1zm-10 -1c0,-6 -1,-11 -3,-15 -2,-4 -6,-5 -10,-5 -3,0 -6,0 -8,1 -1,2 -3,3 -4,6l0 25c1,2 3,4 4,5 2,1 5,2 8,2 4,0 8,-2 10,-5 2,-3 3,-8 3,-13l0 -1z"/>
   <path id="7" class="fil4" d="M2610 187c-8,0 -13,-2 -18,-7 -4,-5 -6,-11 -6,-19l0 -2c0,-8 2,-14 6,-19 5,-5 10,-7 16,-7 7,0 13,2 16,6 4,4 6,10 6,17l0 6 -34 0 0 1c0,5 1,9 3,12 3,3 6,5 11,5 3,0 6,-1 8,-2 3,0 5,-2 7,-3l3 6c-1,2 -4,3 -7,5 -3,1 -7,1 -11,1zm-2 -47c-3,0 -6,2 -8,4 -2,3 -4,6 -4,10l0 1 24 0 0 -2c0,-3 -1,-6 -3,-9 -2,-2 -5,-4 -9,-4z"/>
   <path id="8" class="fil4" d="M2666 142l-5 0c-3,0 -5,1 -7,2 -1,1 -3,3 -4,5l0 37 -9 0 0 -52 8 0 1 7c2,-2 3,-4 6,-6 2,-1 4,-2 7,-2 1,0 2,0 2,0 1,0 1,0 2,0l-1 9z"/>
   <path id="9" class="fil4" d="M2706 172c0,-2 -1,-3 -3,-5 -2,-1 -5,-2 -9,-3 -6,-2 -11,-4 -14,-6 -4,-2 -5,-6 -5,-10 0,-4 1,-8 5,-11 4,-3 8,-4 14,-4 6,0 11,1 15,4 4,4 5,7 5,12l0 0 -9 0c0,-2 -1,-4 -3,-6 -2,-2 -4,-3 -8,-3 -3,0 -6,1 -7,3 -2,1 -3,3 -3,5 0,2 1,4 2,5 2,1 5,2 9,3 7,1 12,3 15,6 3,2 5,6 5,10 0,4 -2,8 -6,11 -3,3 -8,4 -14,4 -7,0 -12,-1 -16,-5 -4,-3 -6,-7 -6,-12l0 0 9 0c1,3 2,6 4,8 3,1 5,2 9,2 3,0 6,-1 8,-2 2,-2 3,-3 3,-6z"/>
   <polygon id="10" class="fil4" points="2736,120 2729,137 2724,137 2727,120 2727,110 2736,110 "/>
   <polygon id="11" class="fil4" points="2828,186 2818,186 2818,155 2784,155 2784,186 2774,186 2774,115 2784,115 2784,148 2818,148 2818,115 2828,115 "/>
   <path id="12" class="fil4" d="M2876 186c-1,-1 -1,-3 -1,-4 0,-1 0,-2 0,-3 -2,2 -4,4 -7,6 -3,2 -6,2 -10,2 -5,0 -9,-1 -12,-4 -3,-3 -4,-6 -4,-11 0,-5 2,-9 6,-12 4,-3 9,-5 16,-5l11 0 0 -5c0,-3 -1,-5 -3,-7 -2,-2 -5,-3 -8,-3 -3,0 -6,1 -8,3 -2,1 -3,3 -3,5l-9 0 0 0c0,-4 2,-7 6,-11 3,-3 8,-4 14,-4 6,0 11,1 15,4 4,3 5,8 5,13l0 26c0,2 0,4 1,5 0,2 0,4 1,5l-10 0zm-16 -7c3,0 6,-1 9,-2 3,-2 5,-4 6,-6l0 -9 -11 0c-4,0 -7,1 -9,3 -3,2 -4,4 -4,7 0,2 1,4 2,5 2,2 4,2 7,2z"/>
   <path id="13" class="fil4" d="M2923 142l-5 0c-2,0 -4,1 -6,2 -2,1 -3,3 -4,5l0 37 -10 0 0 -52 9 0 1 7c1,-2 3,-4 5,-6 3,-1 5,-2 8,-2 1,0 1,0 2,0 1,0 1,0 2,0l-2 9z"/>
   <path id="14" class="fil4" d="M2978 162c0,8 -2,14 -6,18 -4,5 -9,7 -15,7 -4,0 -7,0 -9,-2 -3,-1 -5,-3 -7,-6l-1 7 -8 0 0 -76 10 0 0 30c2,-2 4,-4 6,-5 3,-2 6,-2 9,-2 6,0 11,2 15,8 4,5 6,12 6,20l0 1zm-10 -1c0,-6 -1,-11 -3,-15 -3,-4 -6,-5 -11,-5 -3,0 -5,0 -7,2 -2,1 -4,3 -5,6l0 22c1,3 3,5 5,6 2,2 4,3 8,3 4,0 7,-2 10,-5 2,-3 3,-8 3,-13l0 -1z"/>
   <path id="15" class="fil4" d="M2987 160c0,-8 2,-15 6,-20 5,-5 10,-7 17,-7 8,0 14,2 18,7 4,5 6,12 6,20l0 1c0,8 -2,14 -6,19 -4,5 -10,7 -17,7 -8,0 -13,-2 -18,-7 -4,-5 -6,-12 -6,-19l0 -1zm10 1c0,5 1,10 3,13 2,4 6,6 11,6 4,0 8,-2 10,-6 2,-3 4,-8 4,-13l0 -1c0,-6 -2,-11 -4,-14 -2,-4 -6,-6 -11,-6 -4,0 -8,2 -10,6 -2,3 -3,8 -3,14l0 1z"/>
   <path id="16" class="fil4" d="M3071 142l-5 0c-3,0 -5,1 -6,2 -2,1 -4,3 -4,5l0 37 -10 0 0 -52 8 0 1 7c2,-2 4,-4 6,-6 2,-1 5,-2 8,-2 0,0 1,0 2,0 0,0 1,0 1,0l-1 9z"/>
   <rect class="fil0" x="2" width="1907" height="1581"/>
   <g>
    <g>
     <rect class="fil3 str1" x="3833" y="385" width="390" height="530"/>
     <line class="fil11 str1" x1="4072" y1="477" x2="4158" y2= "477" />
     <line class="fil11 str1" x1="3925" y1="538" x2="4085" y2= "538" />
     <line class="fil11 str1" x1="4040" y1="609" x2="4158" y2= "609" />
     <line class="fil11 str1" x1="3900" y1="750" x2="4029" y2= "750" />
     <line class="fil11 str1" x1="3900" y1="477" x2="3976" y2= "477" />
     <line class="fil11 str1" x1="3935" y1="641" x2="4052" y2= "641" />
     <line class="fil11 str1" x1="4005" y1="675" x2="4123" y2= "675" />
     <line class="fil11 str1" x1="3900" y1="703" x2="4017" y2= "703" />
     <line class="fil11 str1" x1="4029" y1="786" x2="4158" y2= "786" />
     <line class="fil11 str1" x1="4066" y1="750" x2="4137" y2= "750" />
     <line class="fil11 str1" x1="3900" y1="838" x2="4029" y2= "838" />
    </g>
    <g>
     <rect class="fil3 str1" x="3941" y="526" width="390" height="530"/>
     <line class="fil11 str1" x1="4180" y1="963" x2="4265" y2= "963" />
     <line class="fil11 str1" x1="4033" y1="902" x2="4193" y2= "902" />
     <line class="fil11 str1" x1="4148" y1="831" x2="4265" y2= "831" />
     <line class="fil11 str1" x1="4007" y1="690" x2="4136" y2= "690" />
     <line class="fil11 str1" x1="4007" y1="963" x2="4084" y2= "963" />
     <line class="fil11 str1" x1="4042" y1="799" x2="4160" y2= "799" />
     <line class="fil11 str1" x1="4113" y1="764" x2="4231" y2= "764" />
     <line class="fil11 str1" x1="4007" y1="737" x2="4125" y2= "737" />
     <line class="fil11 str1" x1="4136" y1="654" x2="4265" y2= "654" />
     <line class="fil11 str1" x1="4174" y1="690" x2="4245" y2= "690" />
     <line class="fil11 str1" x1="4007" y1="601" x2="4136" y2= "601" />
    </g>
    <g>
     <rect class="fil3 str1" x="4049" y="667" width="390" height="530"/>
     <line class="fil11 str1" x1="4288" y1="759" x2="4373" y2= "759" />
     <line class="fil11 str1" x1="4141" y1="820" x2="4301" y2= "820" />
     <line class="fil11 str1" x1="4256" y1="891" x2="4373" y2= "891" />
     <line class="fil11 str1" x1="4115" y1="1032" x2="4244" y2= "1032" />
     <line class="fil11 str1" x1="4115" y1="759" x2="4192" y2= "759" />
     <line class="fil11 str1" x1="4150" y1="923" x2="4268" y2= "923" />
     <line class="fil11 str1" x1="4221" y1="958" x2="4338" y2= "958" />
     <line class="fil11 str1" x1="4115" y1="985" x2="4233" y2= "985" />
     <line class="fil11 str1" x1="4244" y1="1068" x2="4373" y2= "1068" />
     <line class="fil11 str1" x1="4282" y1="1032" x2="4353" y2= "1032" />
     <line class="fil11 str1" x1="4115" y1="1120" x2="4244" y2= "1120" />
    </g>
   </g>
   <g>
    <g>
     <rect class="fil3 str1" x="6806" y="385" width="390" height="530"/>
     <line class="fil11 str1" x1="6872" y1="477" x2="6981" y2= "477" />
     <line class="fil11 str1" x1="6872" y1="560" x2="6981" y2= "560" />
     <line class="fil11 str1" x1="6872" y1="643" x2="6981" y2= "643" />
     <polygon class="fil4" points="6960,854 6942,854 6942,838 6960,838 "/>
     <path id="1" class="fil4" d="M6997 822l0 32 -18 0 0 -90 35 0c11,0 19,3 25,8 6,6 9,12 9,21 0,9 -3,16 -9,21 -6,5 -14,8 -25,8l-17 0zm0 -14l17 0c5,0 9,-2 12,-4 2,-3 4,-7 4,-11 0,-4 -2,-8 -4,-11 -3,-2 -7,-4 -12,-4l-17 0 0 30z"/>
     <path id="2" class="fil4" d="M7133 817c0,11 -3,21 -10,28 -7,7 -16,11 -27,11 -11,0 -20,-4 -27,-11 -7,-7 -11,-17 -11,-28l0 -16c0,-11 4,-20 11,-27 6,-7 15,-11 27,-11 11,0 20,4 27,11 7,7 10,16 10,27l0 16zm-18 -16c0,-7 -2,-13 -5,-17 -4,-5 -8,-7 -14,-7 -7,0 -11,2 -15,7 -3,4 -5,10 -5,17l0 16c0,8 2,13 5,18 4,4 8,7 15,7 6,0 11,-3 14,-7 3,-5 5,-10 5,-18l0 -16z"/>
     <line class="fil11 str1" x1="7021" y1="477" x2="7130" y2= "477" />
     <line class="fil11 str1" x1="7021" y1="560" x2="7130" y2= "560" />
     <line class="fil11 str1" x1="7021" y1="643" x2="7130" y2= "643" />
    </g>
    <g>
     <rect class="fil3 str1" x="6914" y="526" width="390" height="530"/>
     <line class="fil11 str1" x1="6980" y1="618" x2="7089" y2= "618" />
     <line class="fil11 str1" x1="6980" y1="701" x2="7089" y2= "701" />
     <line class="fil11 str1" x1="6980" y1="784" x2="7089" y2= "784" />
     <polygon class="fil4" points="7068,995 7050,995 7050,979 7068,979 "/>
     <path id="1" class="fil4" d="M7105 963l0 32 -18 0 0 -90 35 0c11,0 19,3 25,8 6,6 9,12 9,21 0,9 -3,16 -9,21 -6,5 -14,8 -25,8l-17 0zm0 -14l17 0c5,0 9,-2 12,-4 2,-3 4,-7 4,-11 0,-4 -2,-8 -4,-10 -3,-3 -7,-5 -12,-5l-17 0 0 30z"/>
     <path id="2" class="fil4" d="M7241 958c0,11 -3,21 -10,28 -7,7 -16,11 -28,11 -11,0 -20,-4 -27,-11 -6,-7 -10,-17 -10,-28l0 -16c0,-11 4,-20 10,-27 7,-7 16,-11 27,-11 12,0 21,4 28,11 7,7 10,16 10,27l0 16zm-18 -16c0,-7 -2,-13 -5,-17 -4,-5 -8,-7 -15,-7 -6,0 -11,2 -14,7 -3,4 -5,10 -5,17l0 16c0,8 2,13 5,18 4,4 8,7 14,7 7,0 11,-3 15,-7 3,-5 5,-10 5,-18l0 -16z"/>
     <line class="fil11 str1" x1="7129" y1="618" x2="7238" y2= "618" />
     <line class="fil11 str1" x1="7129" y1="701" x2="7238" y2= "701" />
     <line class="fil11 str1" x1="7129" y1="784" x2="7238" y2= "784" />
    </g>
    <g>
     <rect class="fil3 str1" x="7022" y="667" width="390" height="530"/>
     <line class="fil11 str1" x1="7088" y1="759" x2="7197" y2= "759" />
     <line class="fil11 str1" x1="7088" y1="842" x2="7197" y2= "842" />
     <line class="fil11 str1" x1="7088" y1="925" x2="7197" y2= "925" />
     <polygon class="fil4" points="7176,1136 7158,1136 7158,1120 7176,1120 "/>
     <path id="1" class="fil4" d="M7212 1104l0 32 -18 0 0 -90 36 0c10,0 19,3 25,8 5,6 8,13 8,21 0,9 -3,16 -8,21 -6,5 -15,8 -25,8l-18 0zm0 -14l18 0c5,0 9,-2 12,-4 2,-3 3,-7 3,-11 0,-4 -1,-8 -3,-10 -3,-3 -7,-5 -12,-5l-18 0 0 30z"/>
     <path id="2" class="fil4" d="M7349 1099c0,11 -4,21 -11,28 -7,7 -16,11 -27,11 -11,0 -20,-4 -27,-11 -7,-7 -10,-17 -10,-28l0 -16c0,-11 3,-20 10,-27 7,-7 16,-11 27,-11 11,0 20,4 27,11 7,7 11,16 11,27l0 16zm-18 -16c0,-7 -2,-13 -5,-17 -4,-5 -9,-7 -15,-7 -6,0 -11,2 -14,7 -3,4 -5,10 -5,17l0 16c0,8 2,13 5,18 3,4 8,7 14,7 6,0 11,-3 15,-7 3,-5 5,-10 5,-18l0 -16z"/>
     <line class="fil11 str1" x1="7237" y1="759" x2="7346" y2= "759" />
     <line class="fil11 str1" x1="7237" y1="842" x2="7346" y2= "842" />
     <line class="fil11 str1" x1="7237" y1="925" x2="7346" y2= "925" />
    </g>
   </g>
   <g>
    <rect class="fil9 str1" x="8231" y="478" width="730" height="514" rx="26" ry="18"/>
    <rect class="fil9 str1" x="8383" y="1062" width="424.582" height="41.0356" rx="15" ry="1"/>
    <rect class="fil9 str1" x="8538" y="991" width="114.462" height="70.4781"/>
    <g>
     <polygon class="fil4" points="8628,748 8620,760 8620,761 8661,742 8620,722 8620,722 8628,736 8536,736 8536,748 "/>
     <g>
      <path class="fil4" d="M8489 771l-32 0 -6 19 -18 0 31 -90 18 0 31 90 -18 0 -6 -19zm-27 -14l22 0 -11 -36 0 0 -11 36z"/>
      <path class="fil4" d="M8752 751l-38 0 0 25 44 0 0 14 -62 0 0 -90 62 0 0 14 -44 0 0 23 38 0 0 14zm-3 -59l-17 0 0 -13 17 0 0 13zm-31 0l-16 0 0 -13 16 0 0 13z"/>
     </g>
    </g>
   </g>
   <g>
    <g>
     <path class="fil6" d="M6051 881l136 59c-19,-40 -19,-78 0,-117l-136 58z"/>
     <rect class="fil6" x="6134" y="862" width="546.809" height="37.9066"/>
    </g>
    <g>
     <path class="fil7" d="M6681 668l-137 -59c20,40 20,78 0,117l137 -58z"/>
     <rect class="fil8" x="6051" y="649" width="546.809" height="37.9066"/>
    </g>
   </g>
   <g>
    <g>
     <path class="fil6" d="M7537 881l137 59c-20,-40 -20,-78 0,-117l-137 58z"/>
     <rect class="fil6" x="7621" y="862" width="546.809" height="37.9066"/>
    </g>
    <g>
     <path class="fil7" d="M8167 668l-136 -59c19,40 19,78 0,117l136 -58z"/>
     <rect class="fil8" x="7537" y="649" width="546.809" height="37.9066"/>
    </g>
   </g>
   <polygon class="fil4" points="5605,803 5580,803 5580,879 5562,879 5562,803 5537,803 5537,789 5605,789 "/>
   <polygon id="1" class="fil4" points="5639,789 5662,855 5662,855 5685,789 5709,789 5709,879 5691,879 5691,852 5693,812 5692,812 5668,879 5656,879 5632,813 5632,813 5633,852 5633,879 5615,879 5615,789 "/>
   <path class="fil4" d="M2411 1344c0,-3 -2,-6 -4,-8 -2,-2 -7,-4 -13,-5 -8,-2 -13,-5 -18,-8 -4,-4 -6,-8 -6,-13 0,-6 2,-11 7,-14 4,-4 10,-6 18,-6 7,0 13,2 18,7 5,4 7,9 7,14l0 1 -10 0c0,-4 -1,-8 -4,-10 -2,-3 -6,-4 -11,-4 -5,0 -9,1 -11,3 -3,2 -4,5 -4,8 0,4 1,6 4,8 3,2 7,4 13,6 8,1 13,4 17,8 4,3 6,8 6,13 0,6 -2,10 -7,14 -4,3 -11,5 -18,5 -7,0 -13,-2 -19,-6 -5,-4 -8,-9 -8,-15l0 0 9 0c0,4 2,8 5,10 4,2 8,4 13,4 5,0 9,-1 11,-4 3,-2 5,-4 5,-8z"/>
   <path id="1" class="fil4" d="M2430 1335c0,-8 2,-14 6,-19 5,-5 10,-8 18,-8 7,0 13,3 17,8 4,5 6,11 6,19l0 1c0,8 -2,15 -6,20 -4,5 -10,7 -17,7 -7,0 -13,-2 -17,-7 -5,-5 -7,-12 -7,-20l0 -1zm10 1c0,6 1,10 3,14 3,4 6,6 11,6 4,0 8,-2 10,-6 3,-4 4,-8 4,-14l0 -1c0,-5 -1,-10 -4,-13 -2,-4 -6,-6 -10,-6 -5,0 -8,2 -11,6 -2,3 -3,8 -3,13l0 1z"/>
   <path id="2" class="fil4" d="M2523 1354c-2,3 -4,5 -7,7 -2,1 -5,2 -9,2 -6,0 -10,-2 -13,-5 -3,-4 -5,-10 -5,-18l0 -31 10 0 0 32c0,5 0,9 2,11 2,2 4,3 8,3 3,0 6,0 8,-2 2,-1 4,-3 5,-6l0 -38 10 0 0 53 -9 0 0 -8z"/>
   <path id="3" class="fil4" d="M2571 1318l-5 0c-3,0 -5,0 -7,1 -1,2 -3,3 -4,5l0 38 -9 0 0 -53 8 0 1 8c2,-3 4,-5 6,-6 2,-2 5,-3 7,-3 1,0 2,0 2,1 1,0 2,0 2,0l-1 9z"/>
   <path id="4" class="fil4" d="M2601 1356c3,0 6,-1 8,-3 2,-2 4,-5 4,-8l8 0 0 1c0,4 -2,8 -6,12 -4,3 -9,5 -14,5 -8,0 -14,-2 -18,-7 -4,-5 -6,-12 -6,-19l0 -2c0,-8 2,-14 6,-19 4,-5 10,-8 18,-8 6,0 11,2 15,6 4,4 5,8 5,13l0 1 -8 0c0,-4 -2,-6 -4,-9 -2,-2 -5,-3 -8,-3 -5,0 -9,2 -11,5 -2,4 -3,8 -3,14l0 2c0,5 1,10 3,13 2,4 5,6 11,6z"/>
   <path id="5" class="fil4" d="M2654 1363c-7,0 -13,-2 -18,-7 -4,-5 -6,-11 -6,-19l0 -2c0,-8 2,-14 7,-19 4,-5 9,-8 16,-8 7,0 12,3 16,7 3,4 5,10 5,17l0 6 -34 0 0 0c0,5 1,9 4,13 2,3 6,5 10,5 3,0 6,-1 9,-2 2,-1 4,-2 6,-4l4 7c-2,1 -5,3 -8,4 -3,1 -7,2 -11,2zm-1 -47c-4,0 -6,1 -9,4 -2,3 -3,6 -4,10l0 0 24 0 0 -1c0,-4 -1,-7 -3,-9 -2,-3 -5,-4 -8,-4z"/>
   <path id="6" class="fil4" d="M2762 1339l0 1c0,6 -3,12 -7,16 -5,5 -11,7 -19,7 -8,0 -15,-3 -20,-8 -5,-6 -8,-13 -8,-22l0 -13c0,-8 3,-16 8,-21 5,-6 12,-9 20,-9 8,0 14,2 19,7 5,4 7,10 7,17l0 0 -10 0c0,-5 -1,-9 -4,-12 -3,-3 -7,-4 -12,-4 -6,0 -10,2 -13,6 -3,5 -5,10 -5,16l0 13c0,6 2,12 5,16 3,4 7,7 13,7 5,0 9,-2 12,-5 3,-3 4,-7 4,-12l10 0z"/>
   <path id="7" class="fil4" d="M2771 1335c0,-8 2,-14 6,-19 4,-5 10,-8 17,-8 7,0 13,3 17,8 5,5 7,11 7,19l0 1c0,8 -2,15 -7,20 -4,5 -9,7 -17,7 -7,0 -13,-2 -17,-7 -4,-5 -6,-12 -6,-20l0 -1zm9 1c0,6 1,10 4,14 2,4 6,6 10,6 5,0 8,-2 11,-6 2,-4 3,-8 3,-14l0 -1c0,-5 -1,-10 -3,-13 -3,-4 -6,-6 -11,-6 -4,0 -8,2 -10,6 -3,3 -4,8 -4,13l0 1z"/>
   <path id="8" class="fil4" d="M2827 1337c0,-9 2,-16 6,-21 3,-5 9,-8 15,-8 3,0 6,1 8,2 3,1 5,3 6,5l0 -29 10 0 0 76 -8 0 -1 -6c-2,2 -4,4 -6,5 -3,1 -6,2 -9,2 -6,0 -12,-2 -15,-7 -4,-5 -6,-11 -6,-18l0 -1zm10 1c0,5 1,9 3,13 2,3 6,4 10,4 3,0 6,0 8,-2 2,-1 3,-3 4,-5l0 -25c-1,-2 -2,-4 -4,-5 -2,-1 -5,-2 -8,-2 -4,0 -8,2 -10,6 -2,4 -3,9 -3,15l0 1z"/>
   <path id="9" class="fil4" d="M2908 1363c-7,0 -13,-2 -17,-7 -5,-5 -7,-11 -7,-19l0 -2c0,-8 2,-14 7,-19 4,-5 10,-8 16,-8 7,0 12,3 16,7 3,4 5,10 5,17l0 6 -34 0 0 0c0,5 1,9 4,13 2,3 6,5 10,5 3,0 6,-1 9,-2 2,-1 4,-2 6,-4l4 7c-2,1 -5,3 -8,4 -3,1 -6,2 -11,2zm-1 -47c-4,0 -6,1 -9,4 -2,3 -3,6 -4,10l0 0 25 0 0 -1c0,-4 -1,-7 -3,-9 -2,-3 -5,-4 -9,-4z"/>
   <path id="10" class="fil4" d="M2383 1420l0 31 -9 0 0 -71 25 0c8,0 14,2 18,5 4,4 6,9 6,15 0,4 -1,7 -2,10 -2,2 -5,4 -9,6 4,1 7,3 9,6 1,3 2,7 2,11l0 6c0,3 0,5 1,6 0,2 1,3 2,5l0 1 -9 0c-2,-1 -2,-3 -3,-5 0,-2 0,-4 0,-7l0 -6c0,-4 -1,-7 -4,-9 -2,-3 -5,-4 -9,-4l-18 0zm0 -8l16 0c5,0 9,-1 11,-3 3,-2 4,-5 4,-9 0,-4 -1,-7 -4,-9 -2,-2 -6,-3 -11,-3l-16 0 0 24z"/>
   <path id="11" class="fil4" d="M2460 1452c-7,0 -13,-3 -18,-8 -4,-4 -6,-11 -6,-19l0 -2c0,-7 2,-13 7,-18 4,-5 9,-8 16,-8 7,0 12,2 16,7 3,4 5,9 5,17l0 6 -34 0 0 0c0,5 1,9 4,12 2,4 6,5 10,5 3,0 6,0 9,-1 2,-1 4,-2 6,-4l4 6c-2,2 -5,4 -8,5 -3,1 -7,2 -11,2zm-1 -47c-4,0 -6,1 -9,4 -2,2 -3,6 -4,10l0 0 25 0 0 -1c0,-4 -1,-7 -3,-10 -3,-2 -5,-3 -9,-3z"/>
   <path id="12" class="fil4" d="M2536 1426c0,8 -2,14 -6,19 -3,4 -8,7 -15,7 -3,0 -6,-1 -8,-2 -3,-1 -5,-3 -6,-5l0 26 -10 0 0 -73 7 0 2 7c2,-3 4,-5 6,-6 3,-1 6,-2 9,-2 7,0 12,3 15,8 4,5 6,12 6,20l0 1zm-10 -1c0,-6 -1,-11 -3,-14 -3,-4 -6,-6 -11,-6 -2,0 -5,0 -7,2 -2,1 -3,3 -4,5l0 25c1,2 2,4 4,5 2,2 5,2 7,2 5,0 8,-1 11,-5 2,-3 3,-7 3,-13l0 -1z"/>
   <path id="13" class="fil4" d="M2545 1424c0,-8 2,-14 7,-19 4,-5 10,-8 17,-8 7,0 13,3 17,8 4,5 7,11 7,19l0 1c0,8 -3,14 -7,19 -4,5 -10,8 -17,8 -7,0 -13,-3 -17,-8 -4,-5 -7,-11 -7,-19l0 -1zm10 1c0,6 1,10 4,14 2,3 5,5 10,5 5,0 8,-2 10,-5 3,-4 4,-8 4,-14l0 -1c0,-6 -1,-10 -4,-14 -2,-4 -5,-5 -10,-5 -5,0 -8,1 -10,5 -3,4 -4,8 -4,14l0 1z"/>
   <path id="14" class="fil4" d="M2635 1437c0,-2 -1,-4 -2,-5 -2,-2 -5,-3 -10,-4 -6,-1 -11,-3 -14,-6 -3,-2 -5,-5 -5,-9 0,-5 2,-8 6,-11 3,-3 8,-5 14,-5 6,0 11,2 14,5 4,3 6,7 6,11l0 1 -10 0c0,-3 -1,-5 -2,-7 -2,-1 -5,-2 -8,-2 -4,0 -6,0 -8,2 -1,1 -2,3 -2,5 0,2 0,4 2,5 1,1 4,2 9,3 7,2 11,4 15,6 3,3 5,6 5,10 0,5 -2,9 -6,11 -4,3 -9,5 -15,5 -7,0 -12,-2 -16,-5 -4,-4 -6,-8 -5,-12l0 -1 9 0c0,4 1,6 4,8 2,1 5,2 8,2 3,0 6,-1 8,-2 2,-1 3,-3 3,-5z"/>
   <path id="15" class="fil4" d="M2667 1451l-10 0 0 -53 10 0 0 53zm0 -66l-10 0 0 -10 10 0 0 10z"/>
   <path id="16" class="fil4" d="M2694 1385l0 13 10 0 0 7 -10 0 0 32c0,2 1,4 2,5 1,1 2,2 4,2 1,0 1,0 2,-1 0,0 1,0 2,0l1 7c-1,0 -2,1 -3,1 -2,1 -3,1 -4,1 -4,0 -7,-1 -10,-4 -2,-2 -3,-6 -3,-11l0 -32 -9 0 0 -7 9 0 0 -13 9 0z"/>
   <path id="17" class="fil4" d="M2714 1424c0,-8 2,-14 6,-19 4,-5 10,-8 17,-8 8,0 14,3 18,8 4,5 6,11 6,19l0 1c0,8 -2,14 -6,19 -4,5 -10,8 -17,8 -8,0 -13,-3 -18,-8 -4,-5 -6,-11 -6,-19l0 -1zm10 1c0,6 1,10 3,14 2,3 6,5 11,5 4,0 8,-2 10,-5 2,-4 4,-8 4,-14l0 -1c0,-6 -2,-10 -4,-14 -2,-4 -6,-5 -11,-5 -4,0 -8,1 -10,5 -2,4 -3,8 -3,14l0 1z"/>
   <path id="18" class="fil4" d="M2798 1407l-5 -1c-3,0 -5,1 -6,2 -2,1 -4,3 -5,5l0 38 -9 0 0 -53 8 0 1 8c2,-3 4,-5 6,-7 2,-1 5,-2 7,-2 1,0 2,0 3,0 0,0 1,0 1,1l-1 9z"/>
   <path id="19" class="fil4" d="M2817 1451l-9 0 0 -53 9 0 0 53zm0 -66l-9 0 0 -10 9 0 0 10z"/>
   <path id="20" class="fil4" d="M2854 1452c-7,0 -13,-3 -17,-8 -5,-4 -7,-11 -7,-19l0 -2c0,-7 2,-13 7,-18 4,-5 10,-8 16,-8 7,0 12,2 16,7 3,4 5,9 5,17l0 6 -34 0 0 0c0,5 1,9 4,12 2,4 6,5 10,5 3,0 6,0 9,-1 2,-1 4,-2 6,-4l4 6c-2,2 -5,4 -8,5 -3,1 -6,2 -11,2zm-1 -47c-4,0 -6,1 -9,4 -2,2 -3,6 -4,10l0 0 25 0 0 -1c0,-4 -1,-7 -3,-10 -2,-2 -5,-3 -9,-3z"/>
   <path id="21" class="fil4" d="M2916 1437c0,-2 -1,-4 -3,-5 -1,-2 -4,-3 -9,-4 -6,-1 -11,-3 -14,-6 -4,-2 -5,-5 -5,-9 0,-5 2,-8 5,-11 4,-3 9,-5 15,-5 6,0 11,2 14,5 4,3 6,7 5,11l0 1 -9 0c0,-3 -1,-5 -3,-7 -2,-1 -4,-2 -7,-2 -4,0 -6,0 -8,2 -2,1 -3,3 -3,5 0,2 1,4 3,5 1,1 4,2 9,3 6,2 11,4 14,6 4,3 5,6 5,10 0,5 -2,9 -5,11 -4,3 -9,5 -15,5 -7,0 -12,-2 -16,-5 -4,-4 -6,-8 -6,-12l0 -1 10 0c0,4 1,6 3,8 3,1 6,2 9,2 3,0 6,-1 8,-2 2,-1 3,-3 3,-5z"/>
   <path class="fil2 str0" d="M2644 1170c41,0 75,8 75,17 0,9 -34,16 -75,16 -42,0 -75,-7 -75,-16 0,-9 33,-17 75,-17z"/>
   <path class="fil2 str0" d="M2644 1147c99,0 180,18 180,40 0,22 -81,39 -180,39 -99,0 -180,-17 -180,-39 0,-22 81,-40 180,-40z"/>
   <g>
    <rect class="fil9 str1" transform="matrix(0.717895 0.717895 -0.717895 0.717895 2650.11 385.51)" width="564" height="564" rx="57" ry="57"/>
    <line class="fil11 str1" x1="2557" y1="479" x2="2841" y2= "763" />
    <line class="fil11 str1" x1="2699" y1="621" x2="2699" y2= "940" />
   </g>
   <g>
    <g>
     <path class="fil6" d="M3078 881l137 59c-20,-40 -20,-78 0,-117l-137 58z"/>
     <rect class="fil6" x="3162" y="862" width="546.809" height="37.9066"/>
    </g>
    <g>
     <path class="fil7" d="M3708 668l-136 -59c19,40 19,78 0,117l136 -58z"/>
     <rect class="fil8" x="3078" y="649" width="546.809" height="37.9066"/>
    </g>
   </g>
   <line class="fil11 str2" x1="7852" y1="0" x2="7852" y2= "1581" />
   <line class="fil11 str2" x1="3393" y1="0" x2="3393" y2= "1581" />
   <polygon class="fil4" points="8189,1362 8179,1362 8179,1291 8189,1291 "/>
   <path id="1" class="fil4" d="M8214 1309l0 8c2,-3 4,-5 7,-6 3,-2 6,-3 9,-3 6,0 10,2 13,5 3,4 5,9 5,16l0 33 -10 0 0 -33c0,-5 -1,-8 -3,-10 -1,-2 -4,-3 -8,-3 -3,0 -5,1 -7,2 -2,2 -4,3 -5,6l0 38 -10 0 0 -53 9 0z"/>
   <path id="2" class="fil4" d="M8274 1297l0 12 10 0 0 8 -10 0 0 31c0,3 1,5 2,6 1,1 2,1 4,1 1,0 1,0 2,0 1,0 1,0 2,-1l1 7c-1,1 -2,1 -3,2 -2,0 -3,0 -4,0 -4,0 -7,-1 -10,-3 -2,-3 -3,-6 -3,-11l0 -32 -9 0 0 -8 9 0 0 -12 9 0z"/>
   <path id="3" class="fil4" d="M8318 1363c-7,0 -13,-2 -17,-7 -5,-5 -7,-11 -7,-19l0 -2c0,-8 2,-14 7,-19 4,-5 10,-8 16,-8 7,0 12,3 16,7 3,4 5,10 5,17l0 6 -34 0 0 0c0,5 1,9 4,13 2,3 6,5 10,5 3,0 6,-1 9,-2 2,-1 4,-2 6,-4l4 7c-2,1 -5,3 -8,4 -3,1 -6,2 -11,2zm-1 -47c-4,0 -6,1 -9,4 -2,3 -3,6 -4,10l0 0 25 0 0 -1c0,-4 -1,-7 -3,-9 -2,-3 -5,-4 -9,-4z"/>
   <path id="4" class="fil4" d="M8374 1318l-5 0c-2,0 -5,0 -6,1 -2,2 -3,3 -4,5l0 38 -10 0 0 -53 9 0 1 8c1,-3 3,-5 5,-6 2,-2 5,-3 8,-3 0,0 1,0 2,1 0,0 1,0 1,0l-1 9z"/>
   <path id="5" class="fil4" d="M8392 1309l0 8c2,-3 4,-5 7,-6 3,-2 6,-3 9,-3 6,0 10,2 13,5 3,4 5,9 5,16l0 33 -10 0 0 -33c0,-5 -1,-8 -2,-10 -2,-2 -5,-3 -9,-3 -3,0 -5,1 -7,2 -2,2 -4,3 -5,6l0 38 -10 0 0 -53 9 0z"/>
   <path id="6" class="fil4" d="M8472 1362c0,-1 0,-3 0,-4 -1,-1 -1,-3 -1,-4 -2,3 -4,5 -7,7 -3,1 -6,2 -9,2 -5,0 -10,-1 -13,-4 -2,-3 -4,-7 -4,-12 0,-5 2,-9 6,-12 4,-2 10,-4 17,-4l10 0 0 -5c0,-3 -1,-5 -3,-7 -1,-2 -4,-3 -8,-3 -3,0 -5,1 -7,2 -2,2 -3,4 -3,6l-9 0 0 0c0,-4 1,-8 5,-11 4,-3 9,-5 15,-5 6,0 11,2 14,5 4,3 6,7 6,13l0 26c0,1 0,3 0,5 0,2 1,3 1,5l-10 0zm-16 -7c4,0 7,-1 10,-3 3,-1 4,-3 5,-6l0 -8 -10 0c-4,0 -7,1 -10,3 -2,2 -3,4 -3,6 0,3 0,5 2,6 1,1 4,2 6,2z"/>
   <polygon id="7" class="fil4" points="8505,1362 8496,1362 8496,1286 8505,1286 "/>
   <path id="8" class="fil4" d="M8543 1335c0,-8 2,-14 6,-19 4,-5 10,-8 17,-8 7,0 13,3 17,8 5,5 7,11 7,19l0 1c0,8 -2,15 -7,20 -4,5 -10,7 -17,7 -7,0 -13,-2 -17,-7 -4,-5 -6,-12 -6,-20l0 -1zm9 1c0,6 1,10 4,14 2,4 6,6 10,6 5,0 8,-2 11,-6 2,-4 3,-8 3,-14l0 -1c0,-5 -1,-10 -3,-13 -3,-4 -6,-6 -11,-6 -5,0 -8,2 -10,6 -3,3 -4,8 -4,13l0 1z"/>
   <path id="9" class="fil4" d="M8626 1318l-4 0c-3,0 -5,0 -7,1 -2,2 -3,3 -4,5l0 38 -10 0 0 -53 9 0 1 8c1,-3 3,-5 6,-6 2,-2 4,-3 7,-3 1,0 1,0 2,1 1,0 1,0 2,0l-2 9z"/>
   <polygon id="10" class="fil4" points="8704,1329 8672,1329 8672,1355 8709,1355 8709,1362 8662,1362 8662,1291 8709,1291 8709,1299 8672,1299 8672,1322 8704,1322 "/>
   <polygon id="11" class="fil4" points="8737,1329 8748,1309 8759,1309 8742,1335 8760,1362 8749,1362 8737,1342 8725,1362 8714,1362 8732,1335 8715,1309 8726,1309 "/>
   <path id="12" class="fil4" d="M8782 1297l0 12 10 0 0 8 -10 0 0 31c0,3 0,5 1,6 1,1 3,1 4,1 1,0 1,0 2,0 1,0 1,0 2,-1l1 7c-1,1 -2,1 -3,2 -1,0 -3,0 -4,0 -4,0 -7,-1 -9,-3 -3,-3 -4,-6 -4,-11l0 -32 -8 0 0 -8 8 0 0 -12 10 0z"/>
   <path id="13" class="fil4" d="M8825 1363c-7,0 -13,-2 -17,-7 -4,-5 -7,-11 -7,-19l0 -2c0,-8 3,-14 7,-19 5,-5 10,-8 16,-8 7,0 12,3 16,7 4,4 6,10 6,17l0 6 -35 0 0 0c0,5 2,9 4,13 2,3 6,5 10,5 4,0 6,-1 9,-2 2,-1 5,-2 6,-4l4 7c-2,1 -4,3 -7,4 -3,1 -7,2 -12,2zm-1 -47c-3,0 -6,1 -8,4 -3,3 -4,6 -4,10l0 0 24 0 0 -1c0,-4 -1,-7 -3,-9 -2,-3 -5,-4 -9,-4z"/>
   <path id="14" class="fil4" d="M8881 1318l-5 0c-2,0 -4,0 -6,1 -2,2 -3,3 -4,5l0 38 -10 0 0 -53 9 0 1 8c1,-3 3,-5 5,-6 3,-2 5,-3 8,-3 1,0 1,0 2,1 1,0 1,0 2,0l-2 9z"/>
   <path id="15" class="fil4" d="M8899 1309l1 8c2,-3 4,-5 6,-6 3,-2 6,-3 9,-3 6,0 10,2 14,5 3,4 4,9 4,16l0 33 -9 0 0 -33c0,-5 -1,-8 -3,-10 -2,-2 -5,-3 -8,-3 -3,0 -6,1 -8,2 -2,2 -4,3 -5,6l0 38 -9 0 0 -53 8 0z"/>
   <path id="16" class="fil4" d="M8980 1362c-1,-1 -1,-3 -1,-4 0,-1 0,-3 0,-4 -2,3 -5,5 -7,7 -3,1 -6,2 -10,2 -5,0 -9,-1 -12,-4 -3,-3 -5,-7 -5,-12 0,-5 2,-9 7,-12 4,-2 9,-4 16,-4l11 0 0 -5c0,-3 -1,-5 -3,-7 -2,-2 -5,-3 -8,-3 -3,0 -6,1 -8,2 -2,2 -3,4 -3,6l-9 0 0 0c0,-4 2,-8 5,-11 4,-3 9,-5 15,-5 6,0 11,2 15,5 3,3 5,7 5,13l0 26c0,1 0,3 0,5 1,2 1,3 2,5l-10 0zm-16 -7c3,0 6,-1 9,-3 3,-1 5,-3 6,-6l0 -8 -11 0c-4,0 -7,1 -10,3 -2,2 -3,4 -3,6 0,3 1,5 2,6 2,1 4,2 7,2z"/>
   <polygon id="17" class="fil4" points="9012,1362 9003,1362 9003,1286 9012,1286 "/>
   <polygon id="18" class="fil4" points="8221,1387 8198,1387 8198,1451 8188,1451 8188,1387 8166,1387 8166,1380 8221,1380 "/>
   <path id="19" class="fil4" d="M8251 1407l-5 -1c-2,0 -4,1 -6,2 -2,1 -3,3 -4,5l0 38 -10 0 0 -53 9 0 1 8c1,-3 3,-5 5,-7 2,-1 5,-2 8,-2 0,0 1,0 2,0 0,0 1,0 1,1l-1 9z"/>
   <path id="20" class="fil4" d="M8293 1451c-1,-2 -1,-3 -1,-4 0,-2 0,-3 0,-4 -2,2 -4,5 -7,6 -3,2 -6,3 -10,3 -5,0 -9,-2 -12,-4 -3,-3 -4,-7 -4,-12 0,-5 2,-9 6,-12 4,-3 9,-4 16,-4l11 0 0 -5c0,-3 -1,-6 -3,-8 -2,-1 -5,-2 -8,-2 -3,0 -6,0 -8,2 -2,2 -3,3 -3,6l-9 0 0 -1c0,-3 2,-7 6,-10 3,-3 8,-5 14,-5 6,0 11,2 15,5 3,3 5,7 5,13l0 25c0,2 0,4 1,6 0,1 0,3 1,5l-10 0zm-16 -7c3,0 6,-1 9,-3 3,-2 5,-4 6,-6l0 -9 -11 0c-4,0 -7,1 -9,3 -3,2 -4,4 -4,7 0,2 1,4 2,6 2,1 4,2 7,2z"/>
   <path id="21" class="fil4" d="M8324 1398l0 8c2,-3 4,-5 7,-7 3,-1 6,-2 9,-2 6,0 10,2 13,5 3,3 5,9 5,15l0 34 -10 0 0 -33c0,-5 0,-8 -2,-10 -2,-2 -5,-3 -9,-3 -3,0 -5,1 -7,2 -2,1 -4,3 -5,5l0 39 -10 0 0 -53 9 0z"/>
   <path id="22" class="fil4" d="M8403 1437c0,-2 -1,-4 -3,-5 -1,-2 -4,-3 -9,-4 -6,-1 -11,-3 -14,-6 -4,-2 -5,-5 -5,-9 0,-5 2,-8 5,-11 4,-3 9,-5 14,-5 7,0 11,2 15,5 4,3 5,7 5,11l0 1 -9 0c0,-3 -1,-5 -3,-7 -2,-1 -4,-2 -8,-2 -3,0 -6,0 -7,2 -2,1 -3,3 -3,5 0,2 1,4 3,5 1,1 4,2 8,3 7,2 12,4 15,6 4,3 5,6 5,10 0,5 -2,9 -5,11 -4,3 -9,5 -15,5 -7,0 -12,-2 -16,-5 -4,-4 -6,-8 -6,-12l0 -1 10 0c0,4 1,6 3,8 3,1 6,2 9,2 3,0 6,-1 8,-2 2,-1 3,-3 3,-5z"/>
   <polygon id="23" class="fil4" points="8435,1451 8425,1451 8425,1375 8435,1375 "/>
   <path id="24" class="fil4" d="M8482 1451c-1,-2 -1,-3 -1,-4 0,-2 0,-3 0,-4 -2,2 -4,5 -7,6 -3,2 -6,3 -10,3 -5,0 -9,-2 -12,-4 -3,-3 -5,-7 -5,-12 0,-5 3,-9 7,-12 4,-3 9,-4 16,-4l11 0 0 -5c0,-3 -1,-6 -3,-8 -2,-1 -5,-2 -8,-2 -3,0 -6,0 -8,2 -2,2 -3,3 -3,6l-9 0 0 -1c0,-3 2,-7 6,-10 3,-3 8,-5 14,-5 6,0 11,2 15,5 3,3 5,7 5,13l0 25c0,2 0,4 1,6 0,1 0,3 1,5l-10 0zm-16 -7c3,0 6,-1 9,-3 3,-2 5,-4 6,-6l0 -9 -11 0c-4,0 -7,1 -9,3 -3,2 -4,4 -4,7 0,2 1,4 2,6 2,1 4,2 7,2z"/>
   <path id="25" class="fil4" d="M8517 1385l0 13 10 0 0 7 -10 0 0 32c0,2 0,4 1,5 1,1 3,2 4,2 1,0 2,0 2,-1 1,0 2,0 2,0l1 7c0,0 -1,1 -3,1 -1,1 -3,1 -4,1 -4,0 -7,-1 -9,-4 -3,-2 -4,-6 -4,-11l0 -32 -8 0 0 -7 8 0 0 -13 10 0z"/>
   <path id="26" class="fil4" d="M8549 1451l-10 0 0 -53 10 0 0 53zm0 -66l-10 0 0 -10 10 0 0 10z"/>
   <path id="27" class="fil4" d="M8562 1424c0,-8 2,-14 6,-19 4,-5 10,-8 17,-8 7,0 13,3 17,8 5,5 7,11 7,19l0 1c0,8 -2,14 -7,19 -4,5 -10,8 -17,8 -7,0 -13,-3 -17,-8 -4,-5 -6,-11 -6,-19l0 -1zm9 1c0,6 1,10 4,14 2,3 6,5 10,5 5,0 8,-2 11,-5 2,-4 3,-8 3,-14l0 -1c0,-6 -1,-10 -3,-14 -3,-4 -6,-5 -11,-5 -4,0 -8,1 -10,5 -3,4 -4,8 -4,14l0 1z"/>
   <path id="28" class="fil4" d="M8629 1398l1 8c2,-3 4,-5 6,-7 3,-1 6,-2 9,-2 6,0 11,2 14,5 3,3 4,9 4,15l0 34 -9 0 0 -33c0,-5 -1,-8 -3,-10 -2,-2 -5,-3 -8,-3 -3,0 -6,1 -8,2 -2,1 -4,3 -5,5l0 39 -9 0 0 -53 8 0z"/>
   <path id="29" class="fil4" d="M8742 1433c0,-3 -1,-6 -3,-8 -3,-2 -7,-4 -13,-6 -8,-2 -13,-4 -18,-8 -4,-3 -6,-7 -6,-13 0,-5 2,-10 7,-14 4,-3 10,-5 17,-5 8,0 14,2 19,6 5,4 7,9 7,15l0 0 -10 0c0,-4 -1,-7 -4,-10 -3,-2 -6,-4 -12,-4 -4,0 -8,1 -11,4 -2,2 -3,5 -3,8 0,3 1,6 4,8 2,2 7,4 13,5 8,2 13,5 17,8 4,4 6,8 6,14 0,5 -2,10 -7,14 -5,3 -11,5 -18,5 -7,0 -14,-2 -19,-6 -5,-4 -8,-9 -8,-15l0 -1 9 0c0,5 2,8 5,11 4,2 8,3 13,3 5,0 8,-1 11,-3 3,-2 4,-5 4,-8z"/>
   <path id="30" class="fil4" d="M8786 1452c-7,0 -13,-3 -17,-8 -5,-4 -7,-11 -7,-19l0 -2c0,-7 2,-13 7,-18 4,-5 10,-8 16,-8 7,0 12,2 16,7 3,4 5,9 5,17l0 6 -34 0 0 0c0,5 1,9 4,12 2,4 6,5 10,5 3,0 6,0 9,-1 2,-1 4,-2 6,-4l4 6c-2,2 -5,4 -8,5 -3,1 -6,2 -11,2zm-1 -47c-4,0 -6,1 -9,4 -2,2 -3,6 -4,10l0 0 25 0 0 -1c0,-4 -1,-7 -3,-10 -2,-2 -5,-3 -9,-3z"/>
   <path id="31" class="fil4" d="M8842 1407l-5 -1c-2,0 -5,1 -6,2 -2,1 -3,3 -4,5l0 38 -10 0 0 -53 9 0 1 8c1,-3 3,-5 5,-7 2,-1 5,-2 8,-2 0,0 1,0 2,0 0,0 1,0 1,1l-1 9z"/>
   <polygon id="32" class="fil4" points="8870,1435 8871,1439 8871,1439 8872,1435 8884,1398 8894,1398 8874,1451 8867,1451 8847,1398 8857,1398 "/>
   <path id="33" class="fil4" d="M8913 1451l-10 0 0 -53 10 0 0 53zm0 -66l-10 0 0 -10 10 0 0 10z"/>
   <path id="34" class="fil4" d="M8949 1444c3,0 6,-1 8,-3 3,-2 4,-4 4,-7l9 0 0 0c0,5 -2,9 -6,12 -5,4 -10,6 -15,6 -8,0 -14,-3 -18,-8 -4,-5 -6,-11 -6,-19l0 -2c0,-7 2,-13 6,-18 4,-5 10,-8 18,-8 6,0 11,2 15,6 4,3 6,8 6,13l0 0 -9 0c0,-3 -1,-6 -3,-8 -3,-2 -6,-3 -9,-3 -5,0 -9,1 -11,5 -2,4 -3,8 -3,13l0 2c0,6 1,10 3,14 2,3 6,5 11,5z"/>
   <path id="35" class="fil4" d="M9002 1452c-7,0 -13,-3 -17,-8 -5,-4 -7,-11 -7,-19l0 -2c0,-7 3,-13 7,-18 4,-5 10,-8 16,-8 7,0 12,2 16,7 4,4 5,9 5,17l0 6 -34 0 0 0c0,5 1,9 4,12 2,4 6,5 10,5 4,0 6,0 9,-1 2,-1 4,-2 6,-4l4 6c-2,2 -4,4 -7,5 -4,1 -7,2 -12,2zm-1 -47c-3,0 -6,1 -8,4 -3,2 -4,6 -5,10l1 0 24 0 0 -1c0,-4 -1,-7 -3,-10 -2,-2 -5,-3 -9,-3z"/>
  </g>
 </g>
</svg>
