<svg xmlns="http://www.w3.org/2000/svg" width="1031" height="351" viewBox="0 0 6056700 2059900" shape-rendering="geometricPrecision" text-rendering="geometricPrecision" image-rendering="optimizeQuality" fill-rule="evenodd" clip-rule="evenodd"><defs><style>.str5{stroke:#000;stroke-width:15300;stroke-miterlimit:2.61313}.str0,.str4{stroke:#373435;stroke-width:13900;stroke-miterlimit:22.9256}.str4{stroke:#000}.str1,.str2,.str3,.str6{stroke:#0062ff;stroke-width:20800;stroke-linecap:round;stroke-miterlimit:2.61313}.str1,.str2,.str6{stroke:#f26322}.str1,.str6{stroke:#96989a;stroke-width:13900;stroke-miterlimit:22.9256}.str6{stroke:#000;stroke-miterlimit:2.61313}.fil0{fill:none}.fil4{fill:#fefefe}.fil1{fill:#e6e7e8}.fil2{fill:#727376;fill-rule:nonzero}.fil3,.fil5,.fil6{fill:#373435;fill-rule:nonzero}.fil5{fill:#000}</style></defs><g id="Layer_x0020_1"><path class="fil0" d="M0 0h6056700v2059900H0z"/><path class="fil1 str0" d="M2776300 1093200h505500v545300c0 42200-113200 76400-252800 76400-139500 0-252700-34200-252700-76400v-545300z"/><ellipse class="fil1 str0" cx="3029000" cy="1093200" rx="252700" ry="76400"/><path class="fil2" d="M2497900 1867800h-8200v-62300h8200z"/><path id="1" class="fil2" d="M2519200 1821600l200 5800c3600-4500 8200-6700 13900-6700 9800 0 14700 5500 14800 16500v30600h-7900v-30600c0-3300-800-5800-2300-7400s-3800-2400-7000-2400c-2600 0-4800 700-6800 2100-1900 1300-3400 3100-4500 5400v32900h-7900v-46200h7500z"/><path id="2" class="fil2" d="M2570800 1810300v11300h8600v6100h-8600v28700c0 1800 400 3200 1100 4200 800 900 2100 1300 4000 1300 900 0 2200-100 3700-500v6400c-2000 600-4100 900-6000 900-3600 0-6200-1100-8000-3200s-2700-5200-2700-9100v-28700h-8500v-6100h8500v-11300h7900z"/><path id="3" class="fil2" d="M2607900 1868700c-6300 0-11400-2100-15300-6200-4000-4100-6000-9600-6000-16500v-1500c0-4600 900-8700 2700-12300 1700-3600 4200-6400 7300-8500 3200-2000 6600-3000 10300-3000 6000 0 10700 2000 14000 5900 3400 4000 5000 9700 5000 17100v3300h-31300c100 4500 1400 8200 4000 11000 2500 2800 5800 4200 9700 4200 2800 0 5200-600 7100-1700 2000-1100 3600-2600 5100-4500l4800 3800c-3800 5900-9700 8900-17400 8900zm-1000-41500c-3200 0-5900 1100-8100 3500-2100 2300-3500 5600-4000 9800h23200v-600c-200-4100-1300-7200-3200-9400-2000-2200-4600-3300-7900-3300z"/><path id="4" class="fil2" d="M2657400 1828600c-1200-200-2500-300-3800-300-5200 0-8800 2200-10600 6600v32900h-7900v-46200h7700l100 5300c2600-4100 6300-6200 11000-6200 1600 0 2800 200 3500 600v7300z"/><path id="5" class="fil2" d="M2672200 1821600l300 5800c3500-4500 8100-6700 13800-6700 9800 0 14800 5500 14900 16500v30600h-8000v-30600c0-3300-700-5800-2300-7400-1400-1600-3800-2400-7000-2400-2500 0-4800 700-6700 2100-1900 1300-3500 3100-4500 5400v32900h-8000v-46200h7500z"/><path id="6" class="fil2" d="M2741700 1867800c-500-900-900-2500-1100-4800-3700 3800-8100 5700-13200 5700-4600 0-8300-1300-11200-3900-3000-2600-4400-5800-4400-9800 0-4800 1800-8600 5500-11200 3600-2700 8800-4000 15400-4000h7700v-3700c0-2700-800-4900-2400-6600-1700-1600-4200-2400-7400-2400-2800 0-5200 700-7100 2100s-2800 3200-2800 5200h-8000c0-2300 800-4600 2500-6700 1600-2200 3800-3900 6600-5100 2800-1300 5900-1900 9300-1900 5300 0 9500 1300 12500 4000 3100 2600 4600 6300 4700 11000v21300c0 4200 600 7600 1700 10100v700h-8300zm-13200-5900c2500 0 4900-600 7100-1900s3800-3000 4800-5000v-9600h-6200c-9700 0-14500 2800-14500 8600 0 2500 800 4400 2500 5800 1600 1400 3700 2100 6300 2100z"/><path id="7" class="fil2" d="M2769400 1867800h-8000v-65700h8000z"/><path id="8" class="fil2" d="M2846300 1812300h-20000v55500h-8200v-55500h-20000v-6800h48200z"/><path id="9" class="fil2" d="M2873400 1828600c-1200-200-2500-300-3800-300-5200 0-8800 2200-10600 6600v32900h-7900v-46200h7700l100 5300c2600-4100 6300-6200 11000-6200 1600 0 2700 200 3500 600v7300z"/><path id="10" class="fil2" d="M2907600 1867800c-500-900-800-2500-1100-4800-3700 3800-8100 5700-13200 5700-4600 0-8300-1300-11200-3900s-4400-5800-4400-9800c0-4800 1800-8600 5500-11200 3700-2700 8800-4000 15500-4000h7700v-3700c0-2700-900-4900-2500-6600-1700-1600-4100-2400-7300-2400-2900 0-5200 700-7100 2100-2000 1400-2900 3200-2900 5200h-8000c0-2300 900-4600 2500-6700 1600-2200 3900-3900 6700-5100 2800-1300 5900-1900 9200-1900 5400 0 9500 1300 12600 4000 3000 2600 4600 6300 4700 11000v21300c0 4200 500 7600 1600 10100v700h-8300zm-13100-5900c2500 0 4800-600 7000-1900 2300-1300 3900-3000 4900-5000v-9600h-6200c-9700 0-14600 2800-14600 8600 0 2500 800 4400 2500 5800 1600 1400 3800 2100 6400 2100z"/><path id="11" class="fil2" d="M2934200 1821600l200 5800c3600-4500 8200-6700 13900-6700 9800 0 14700 5500 14800 16500v30600h-7900v-30600c0-3300-800-5800-2300-7400s-3800-2400-7000-2400c-2500 0-4800 700-6800 2100-1900 1300-3400 3100-4500 5400v32900h-7900v-46200h7500z"/><path id="12" class="fil2" d="M3002000 1855500c0-2100-800-3800-2400-4900-1600-1200-4400-2200-8400-3100-4000-800-7200-1900-9600-3100-2300-1200-4100-2600-5200-4300-1100-1600-1700-3600-1700-5900 0-3800 1600-7000 4800-9600s7300-3900 12300-3900c5300 0 9500 1300 12800 4000 3300 2800 4900 6200 4900 10400h-8000c0-2100-900-4000-2700-5600-1900-1600-4200-2300-7000-2300-2900 0-5100 600-6700 1800-1700 1300-2500 2900-2500 5000 0 1900 800 3300 2300 4300s4300 1900 8200 2800c4000 900 7100 1900 9600 3100 2500 1300 4300 2800 5400 4500 1200 1700 1800 3800 1800 6300 0 4100-1600 7400-4900 9900s-7600 3800-12900 3800c-3700 0-7000-700-9900-2000-2800-1300-5000-3100-6700-5500-1600-2300-2400-4900-2400-7600h7900c200 2600 1300 4700 3200 6300 2000 1500 4600 2300 7900 2300 3000 0 5400-600 7200-1800s2700-2800 2700-4900z"/><path id="13" class="fil2" d="M3028800 1867800h-7900v-65700h7900z"/><path id="14" class="fil2" d="M3070100 1867800c-500-900-800-2500-1100-4800-3700 3800-8100 5700-13200 5700-4600 0-8300-1300-11200-3900-3000-2600-4400-5800-4400-9800 0-4800 1800-8600 5500-11200 3600-2700 8800-4000 15400-4000h7700v-3700c0-2700-800-4900-2400-6600-1700-1600-4100-2400-7400-2400-2800 0-5200 700-7100 2100s-2800 3200-2800 5200h-8000c0-2300 800-4600 2500-6700 1600-2200 3800-3900 6700-5100 2800-1300 5800-1900 9200-1900 5300 0 9500 1300 12500 4000 3100 2600 4600 6300 4800 11000v21300c0 4200 500 7600 1600 10100v700h-8300zm-13200-5900c2500 0 4900-600 7100-1900s3800-3000 4800-5000v-9600h-6200c-9700 0-14500 2800-14500 8600 0 2500 800 4400 2500 5800 1600 1400 3700 2100 6300 2100z"/><path id="15" class="fil2" d="M3099900 1810300v11300h8700v6100h-8700v28700c0 1800 400 3200 1200 4200 700 900 2100 1300 3900 1300 900 0 2200-100 3800-500v6400c-2100 600-4100 900-6100 900-3500 0-6200-1100-8000-3200s-2700-5200-2700-9100v-28700h-8400v-6100h8400v-11300h7900z"/><path id="16" class="fil2" d="M3126400 1867800h-7900v-46200h7900v46200zm-8600-58600c0-1200 400-2300 1200-3200s2000-1400 3500-1400c1600 0 2700 500 3500 1400s1200 2000 1200 3200c0 1300-400 2400-1200 3300-800 800-1900 1300-3500 1300-1500 0-2700-500-3500-1300-800-900-1200-2000-1200-3300z"/><path id="17" class="fil2" d="M3137000 1844300c0-4600 800-8700 2600-12300s4300-6400 7500-8400c3100-1900 6800-2900 10900-2900 6300 0 11400 2200 15300 6500 3800 4400 5800 10200 5800 17400v600c0 4500-900 8600-2600 12100-1700 3600-4200 6400-7400 8400s-6900 3000-11100 3000c-6200 0-11300-2200-15200-6500-3900-4400-5800-10200-5800-17400v-500zm7900 900c0 5100 1200 9200 3600 12400 2400 3100 5600 4600 9500 4600 4100 0 7300-1600 9600-4700 2400-3200 3600-7600 3600-13300 0-5000-1200-9200-3600-12300-2500-3200-5700-4700-9600-4700s-7100 1500-9500 4600-3600 7600-3600 13400z"/><path id="18" class="fil2" d="M3196500 1821600l300 5800c3500-4500 8100-6700 13800-6700 9800 0 14800 5500 14900 16500v30600h-8000v-30600c0-3300-800-5800-2300-7400-1400-1600-3800-2400-7000-2400-2500 0-4800 700-6700 2100-1900 1300-3500 3100-4500 5400v32900h-8000v-46200h7500z"/><path id="19" class="fil2" d="M3270900 1805500l20400 50900 20400-50900h10600v62300h-8200v-24200l800-26200-20500 50400h-6300l-20400-50300 800 26100v24200h-8200v-62300z"/><path id="20" class="fil2" d="M3354800 1868700c-6300 0-11400-2100-15300-6200-4000-4100-5900-9600-5900-16500v-1500c0-4600 800-8700 2600-12300 1700-3600 4200-6400 7400-8500 3100-2000 6500-3000 10200-3000 6000 0 10700 2000 14000 5900 3400 4000 5000 9700 5000 17100v3300h-31300c100 4500 1400 8200 4000 11000 2500 2800 5800 4200 9700 4200 2800 0 5200-600 7100-1700 2000-1100 3700-2600 5100-4500l4900 3800c-3900 5900-9800 8900-17500 8900zm-1000-41500c-3200 0-5900 1100-8000 3500-2200 2300-3500 5600-4100 9800h23200v-600c-200-4100-1300-7200-3200-9400-2000-2200-4600-3300-7900-3300z"/><path id="21" class="fil2" d="M3389400 1821600l200 5100c3400-4000 8000-6000 13800-6000 6400 0 10900 2500 13200 7400 1500-2200 3500-4000 6000-5400 2500-1300 5400-2000 8800-2000 10100 0 15300 5400 15400 16100v31000h-7900v-30500c0-3300-700-5800-2200-7400-1600-1700-4100-2500-7700-2500-2900 0-5300 900-7300 2700-1900 1700-3000 4100-3400 7000v30700h-7900v-30300c0-6700-3300-10100-9900-10100-5200 0-8700 2200-10600 6700v33700h-8000v-46200h7500z"/><path id="22" class="fil2" d="M3456700 1844300c0-4600 900-8700 2700-12300s4200-6400 7400-8400c3200-1900 6800-2900 10900-2900 6300 0 11400 2200 15300 6500 3900 4400 5800 10200 5800 17400v600c0 4500-800 8600-2600 12100-1700 3600-4100 6400-7400 8400-3200 2000-6900 3000-11000 3000-6300 0-11400-2200-15300-6500-3900-4400-5800-10200-5800-17400v-500zm8000 900c0 5100 1100 9200 3500 12400 2400 3100 5600 4600 9600 4600s7200-1600 9600-4700c2300-3200 3500-7600 3500-13300 0-5000-1200-9200-3600-12300-2400-3200-5600-4700-9600-4700-3900 0-7100 1500-9500 4600-2300 3100-3500 7600-3500 13400z"/><path id="23" class="fil2" d="M3531100 1828600c-1200-200-2500-300-3800-300-5200 0-8800 2200-10600 6600v32900h-7900v-46200h7700l100 5300c2600-4100 6300-6200 11000-6200 1600 0 2800 200 3500 600v7300z"/><path id="24" class="fil2" d="M3554300 1856200l10800-34600h8500l-18600 53300c-2900 7700-7500 11600-13800 11600l-1400-100-3000-600v-6400l2100 200c2700 0 4800-600 6300-1700 1500-1000 2700-3000 3700-5900l1800-4700-16600-45700h8700l11500 34600z"/><path id="25" class="fil2" d="M2850600 1959600v-62300h17500c5500 0 10200 1200 14400 3600s7400 5800 9700 10200c2200 4400 3400 9500 3400 15200v4000c0 5900-1100 11100-3400 15500s-5500 7800-9700 10200c-4200 2300-9100 3500-14700 3600h-17200zm8200-55600v48900h8600c6300 0 11300-2000 14800-5900 3500-4000 5300-9600 5300-16900v-3600c0-7100-1700-12600-5000-16500s-8000-5900-14100-6000h-9600z"/><path id="26" class="fil2" d="M2935400 1959600c-500-900-900-2500-1100-4900-3700 3900-8100 5800-13200 5800-4600 0-8300-1300-11200-3900-3000-2600-4400-5900-4400-9800 0-4800 1800-8600 5500-11200 3600-2700 8800-4000 15400-4000h7700v-3700c0-2700-800-4900-2400-6600-1700-1600-4100-2400-7400-2400-2800 0-5200 700-7100 2100s-2800 3100-2800 5200h-8000c0-2400 800-4600 2500-6800 1600-2100 3800-3800 6600-5100 2800-1200 5900-1800 9300-1800 5300 0 9500 1300 12500 4000 3100 2600 4600 6300 4700 11000v21300c0 4200 600 7600 1700 10100v700h-8300zm-13200-5900c2500 0 4900-600 7100-1900s3800-3000 4800-5100v-9500h-6200c-9700 0-14500 2800-14500 8600 0 2500 800 4400 2500 5800 1600 1400 3700 2100 6300 2100z"/><path id="27" class="fil2" d="M2965200 1902100v11200h8600v6200h-8600v28700c0 1800 400 3200 1200 4100 700 1000 2000 1400 3900 1400 900 0 2200-100 3800-500v6400c-2100 600-4100 900-6100 900-3500 0-6200-1100-8000-3200-1800-2200-2700-5200-2700-9100v-28700h-8400v-6200h8400v-11200h7900z"/><path id="28" class="fil2" d="M3011700 1959600c-500-900-900-2500-1200-4900-3600 3900-8000 5800-13100 5800-4600 0-8300-1300-11300-3900-2900-2600-4300-5900-4300-9800 0-4800 1800-8600 5500-11200 3600-2700 8800-4000 15400-4000h7700v-3700c0-2700-800-4900-2500-6600-1600-1600-4100-2400-7300-2400-2800 0-5200 700-7100 2100s-2800 3100-2800 5200h-8000c0-2400 800-4600 2500-6800 1600-2100 3800-3800 6600-5100 2800-1200 5900-1800 9300-1800 5300 0 9500 1300 12500 4000 3100 2600 4600 6300 4700 11000v21300c0 4200 600 7600 1700 10100v700h-8300zm-13200-5900c2500 0 4900-600 7100-1900s3800-3000 4800-5100v-9500h-6200c-9700 0-14500 2800-14500 8600 0 2500 800 4400 2500 5800 1600 1400 3700 2100 6300 2100z"/><path id="29" class="fil2" d="M3070000 1937000c0 7100-1700 12700-4900 17000-3300 4300-7700 6500-13100 6500-5900 0-10400-2100-13600-6200l-400 5300h-7200v-65700h7900v24500c3200-4000 7600-5900 13200-5900s10000 2100 13200 6300c3200 4300 4900 10100 4900 17500v700zm-8000-900c0-5400-1000-9600-3100-12500s-5100-4400-9000-4400c-5200 0-9000 2400-11200 7300v20000c2400 4800 6200 7200 11300 7200 3800 0 6700-1400 8900-4400 2100-2900 3100-7300 3100-13200z"/><path id="30" class="fil2" d="M3108500 1959600c-500-900-800-2500-1100-4900-3700 3900-8100 5800-13200 5800-4600 0-8300-1300-11200-3900s-4400-5900-4400-9800c0-4800 1800-8600 5500-11200 3700-2700 8800-4000 15500-4000h7600v-3700c0-2700-800-4900-2400-6600-1700-1600-4100-2400-7300-2400-2900 0-5200 700-7200 2100-1900 1400-2800 3100-2800 5200h-8000c0-2400 800-4600 2500-6800 1600-2100 3900-3800 6700-5100 2800-1200 5900-1800 9200-1800 5400 0 9500 1300 12600 4000 3000 2600 4600 6300 4700 11000v21300c0 4200 500 7600 1600 10100v700h-8300zm-13100-5900c2400 0 4800-600 7000-1900 2300-1300 3900-3000 4800-5100v-9500h-6100c-9700 0-14600 2800-14600 8600 0 2500 800 4400 2500 5800 1600 1400 3800 2100 6400 2100z"/><path id="31" class="fil2" d="M3154600 1947300c0-2100-800-3800-2500-4900-1600-1200-4400-2300-8400-3100-4000-900-7200-1900-9500-3100-2400-1200-4100-2600-5200-4300-1200-1600-1700-3600-1700-5900 0-3800 1600-7000 4800-9600s7300-3900 12300-3900c5200 0 9500 1300 12700 4000 3300 2700 4900 6200 4900 10400h-7900c0-2200-900-4000-2800-5600-1800-1600-4100-2400-6900-2400-2900 0-5200 700-6800 1900-1600 1300-2400 2900-2400 4900s700 3400 2200 4400c1600 900 4300 1900 8200 2700 4000 900 7200 2000 9600 3200 2500 1200 4300 2700 5500 4500 1200 1700 1800 3800 1800 6300 0 4100-1700 7400-5000 9900s-7600 3800-12900 3800c-3700 0-7000-700-9800-2000-2900-1300-5100-3100-6700-5500-1600-2300-2400-4900-2400-7600h7900c100 2600 1200 4700 3200 6300 2000 1500 4600 2300 7800 2300 3000 0 5400-600 7200-1800s2800-2900 2800-4900z"/><path id="32" class="fil2" d="M3192000 1960500c-6300 0-11400-2100-15300-6200-4000-4100-5900-9600-5900-16500v-1500c0-4600 800-8700 2600-12300 1700-3600 4200-6400 7400-8500 3100-2000 6500-3000 10200-3000 6000 0 10700 1900 14000 5900 3400 4000 5100 9700 5100 17000v3300h-31400c100 4600 1400 8300 4000 11100 2500 2800 5800 4200 9700 4200 2800 0 5200-600 7100-1700 2000-1200 3700-2700 5100-4500l4900 3700c-3900 6000-9800 9000-17500 9000zm-1000-41600c-3200 0-5900 1200-8000 3500-2200 2400-3500 5700-4100 9900h23200v-600c-200-4100-1300-7200-3200-9400-2000-2300-4600-3400-7900-3400z"/><path class="fil2" d="M1323400 1861100h29500v6700h-37800v-62300h8300z"/><path id="1" class="fil2" d="M1359000 1844300c0-4600 800-8700 2600-12300s4300-6400 7500-8400c3100-1900 6800-2900 10900-2900 6300 0 11400 2200 15300 6500 3800 4400 5800 10200 5800 17400v600c0 4500-900 8600-2600 12100-1700 3600-4200 6400-7400 8400s-6900 3000-11100 3000c-6200 0-11300-2200-15200-6500-3900-4400-5800-10200-5800-17400v-500zm7900 900c0 5100 1200 9200 3600 12400 2400 3100 5600 4600 9500 4600 4100 0 7300-1600 9600-4700 2400-3200 3600-7600 3600-13300 0-5000-1200-9200-3600-12300-2500-3200-5700-4700-9600-4700s-7100 1500-9500 4600-3600 7600-3600 13400z"/><path id="2" class="fil2" d="M1429600 1862200c2800 0 5300-800 7400-2500 2100-1800 3300-3900 3500-6500h7500c-200 2700-1100 5200-2800 7600-1600 2400-3900 4300-6700 5800-2800 1400-5800 2100-8900 2100-6300 0-11300-2100-15100-6300-3700-4200-5500-10000-5500-17300v-1300c0-4500 800-8500 2400-12000 1700-3500 4100-6300 7200-8200 3100-2000 6700-2900 10900-2900 5200 0 9500 1500 13000 4600 3400 3100 5200 7200 5500 12100h-7500c-200-2900-1400-5400-3400-7300-2100-2000-4600-2900-7600-2900-4000 0-7100 1400-9300 4300s-3300 7100-3300 12600v1500c0 5300 1100 9400 3300 12300s5300 4300 9400 4300z"/><path id="3" class="fil2" d="M1485500 1867800c-500-900-800-2500-1100-4800-3700 3800-8100 5700-13200 5700-4600 0-8300-1300-11200-3900s-4400-5800-4400-9800c0-4800 1800-8600 5500-11200 3600-2700 8800-4000 15400-4000h7700v-3700c0-2700-800-4900-2400-6600-1700-1600-4100-2400-7300-2400-2900 0-5200 700-7200 2100-1900 1400-2800 3200-2800 5200h-8000c0-2300 800-4600 2500-6700 1600-2200 3800-3900 6700-5100 2800-1300 5800-1900 9200-1900 5400 0 9500 1300 12600 4000 3000 2600 4600 6300 4700 11000v21300c0 4200 500 7600 1600 10100v700h-8300zm-13100-5900c2400 0 4800-600 7000-1900s3800-3000 4800-5000v-9600h-6100c-9700 0-14600 2800-14600 8600 0 2500 800 4400 2500 5800 1600 1400 3800 2100 6400 2100z"/><path id="4" class="fil2" d="M1513200 1867800h-7900v-65700h7900z"/><path id="5" class="fil2" d="M1534500 1867800h-8000v-46200h8000v46200zm-8600-58600c0-1200 400-2300 1200-3200s1900-1400 3500-1400c1500 0 2700 500 3500 1400s1200 2000 1200 3200c0 1300-400 2400-1200 3300-800 800-2000 1300-3500 1300-1600 0-2700-500-3500-1300-800-900-1200-2000-1200-3300z"/><path id="6" class="fil2" d="M1554600 1861300h27000v6500h-36700v-5800l25500-33900h-25100v-6500h35100v5600z"/><path id="7" class="fil2" d="M1619100 1867800c-400-900-800-2500-1100-4800-3700 3800-8100 5700-13200 5700-4500 0-8300-1300-11200-3900s-4400-5800-4400-9800c0-4800 1800-8600 5500-11200 3700-2700 8800-4000 15500-4000h7700v-3700c0-2700-800-4900-2500-6600-1700-1600-4100-2400-7300-2400-2800 0-5200 700-7100 2100s-2900 3200-2900 5200h-7900c0-2300 800-4600 2400-6700 1700-2200 3900-3900 6700-5100 2800-1300 5900-1900 9300-1900 5300 0 9500 1300 12500 4000 3000 2600 4600 6300 4700 11000v21300c0 4200 500 7600 1600 10100v700h-8300zm-13100-5900c2500 0 4800-600 7000-1900 2300-1300 3900-3000 4900-5000v-9600h-6200c-9700 0-14600 2800-14600 8600 0 2500 900 4400 2500 5800 1700 1400 3800 2100 6400 2100z"/><path id="8" class="fil2" d="M1677400 1845200c0 7100-1600 12800-4900 17100-3200 4300-7600 6400-13100 6400-5800 0-10300-2100-13500-6200l-400 5300h-7300v-65700h7900v24500c3200-3900 7600-5900 13200-5900 5700 0 10100 2100 13300 6400 3200 4200 4800 10000 4800 17400v700zm-7900-900c0-5400-1100-9500-3100-12500-2100-2900-5100-4400-9000-4400-5200 0-9000 2500-11300 7300v20000c2500 4800 6200 7200 11400 7200 3800 0 6700-1400 8800-4300 2100-3000 3200-7400 3200-13300z"/><path id="9" class="fil2" d="M1696000 1867800h-7900v-65700h7900z"/><path id="10" class="fil2" d="M1727900 1868700c-6300 0-11400-2100-15400-6200-3900-4100-5900-9600-5900-16500v-1500c0-4600 900-8700 2700-12300 1700-3600 4200-6400 7300-8500 3200-2000 6600-3000 10300-3000 6000 0 10700 2000 14000 5900 3300 4000 5000 9700 5000 17100v3300h-31400c200 4500 1500 8200 4100 11000 2500 2800 5700 4200 9700 4200 2800 0 5100-600 7100-1700 1900-1100 3600-2600 5100-4500l4800 3800c-3900 5900-9700 8900-17400 8900zm-1000-41500c-3200 0-5900 1100-8100 3500-2100 2300-3500 5600-4000 9800h23200v-600c-200-4100-1300-7200-3300-9400-1900-2200-4500-3300-7800-3300z"/><path id="11" class="fil2" d="M1800800 1842700h-14600v25100h-8200v-62300h20600c7000 0 12400 1600 16200 4800s5600 7900 5600 14000c0 3900-1000 7300-3100 10200-2100 2800-5000 5000-8700 6400l14600 26400v500h-8800l-13600-25100zm-14600-6800h12600c4100 0 7400-1000 9800-3100 2400-2200 3600-5000 3600-8500 0-3900-1200-6900-3500-8900-2200-2100-5600-3100-9900-3100h-12600v23600z"/><path id="12" class="fil2" d="M1849900 1868700c-6300 0-11400-2100-15300-6200s-5900-9600-5900-16500v-1500c0-4600 900-8700 2600-12300 1800-3600 4200-6400 7400-8500 3100-2000 6600-3000 10200-3000 6100 0 10700 2000 14100 5900 3300 4000 5000 9700 5000 17100v3300h-31400c100 4500 1500 8200 4000 11000 2600 2800 5800 4200 9800 4200 2700 0 5100-600 7100-1700 1900-1100 3600-2600 5000-4500l4900 3800c-3900 5900-9700 8900-17500 8900zm-1000-41500c-3200 0-5800 1100-8000 3500-2200 2300-3500 5600-4000 9800h23200v-600c-300-4100-1300-7200-3300-9400-1900-2200-4600-3300-7900-3300z"/><path id="13" class="fil2" d="M1904100 1855500c0-2100-800-3800-2400-4900-1600-1200-4400-2200-8500-3100-4000-800-7100-1900-9500-3100-2300-1200-4100-2600-5200-4300-1100-1600-1700-3600-1700-5900 0-3800 1600-7000 4800-9600s7300-3900 12300-3900c5300 0 9500 1300 12800 4000 3300 2800 4900 6200 4900 10400h-8000c0-2100-900-4000-2700-5600-1900-1600-4200-2300-7000-2300-2900 0-5100 600-6700 1800-1700 1300-2500 2900-2500 5000 0 1900 800 3300 2300 4300s4200 1900 8200 2800c3900 900 7100 1900 9600 3100 2400 1300 4300 2800 5400 4500 1200 1700 1800 3800 1800 6300 0 4100-1600 7400-4900 9900s-7600 3800-12900 3800c-3700 0-7000-700-9900-2000-2800-1300-5100-3100-6700-5500-1600-2300-2400-4900-2400-7600h7900c200 2600 1200 4700 3200 6300 2000 1500 4600 2300 7900 2300 3000 0 5400-600 7200-1800s2700-2800 2700-4900z"/><path id="14" class="fil2" d="M1920200 1844300c0-4600 900-8700 2700-12300s4200-6400 7400-8400c3200-1900 6800-2900 10900-2900 6300 0 11400 2200 15300 6500 3900 4400 5800 10200 5800 17400v600c0 4500-800 8600-2500 12100-1800 3600-4200 6400-7400 8400s-6900 3000-11100 3000c-6300 0-11400-2200-15300-6500-3800-4400-5800-10200-5800-17400v-500zm8000 900c0 5100 1200 9200 3500 12400 2400 3100 5600 4600 9600 4600s7200-1600 9600-4700c2300-3200 3500-7600 3500-13300 0-5000-1200-9200-3600-12300-2400-3200-5600-4700-9600-4700-3900 0-7000 1500-9400 4600s-3600 7600-3600 13400z"/><path id="15" class="fil2" d="M2000900 1863300c-3100 3600-7600 5400-13600 5400-4900 0-8700-1400-11300-4300s-3900-7100-3900-12700v-30100h7900v29800c0 7000 2900 10500 8600 10500 6000 0 10100-2200 12000-6700v-33600h8000v46200h-7600l-100-4500z"/><path id="16" class="fil2" d="M2043000 1828600c-1200-200-2500-300-3900-300-5200 0-8700 2200-10600 6600v32900h-7900v-46200h7700l100 5300c2600-4100 6300-6200 11100-6200 1500 0 2700 200 3500 600v7300z"/><path id="17" class="fil2" d="M2068000 1862200c2800 0 5300-800 7400-2500 2100-1800 3300-3900 3500-6500h7500c-100 2700-1100 5200-2700 7600-1700 2400-4000 4300-6800 5800-2800 1400-5800 2100-8900 2100-6300 0-11300-2100-15000-6300-3800-4200-5600-10000-5600-17300v-1300c0-4500 800-8500 2500-12000 1600-3500 4000-6300 7100-8200 3100-2000 6700-2900 10900-2900 5200 0 9600 1500 13000 4600s5300 7200 5500 12100h-7500c-200-2900-1400-5400-3400-7300-2000-2000-4600-2900-7600-2900-4000 0-7100 1400-9300 4300s-3300 7100-3300 12600v1500c0 5300 1100 9400 3300 12300s5300 4300 9400 4300z"/><path id="18" class="fil2" d="M2114500 1868700c-6200 0-11300-2100-15300-6200-3900-4100-5900-9600-5900-16500v-1500c0-4600 900-8700 2600-12300 1800-3600 4300-6400 7400-8500 3200-2000 6600-3000 10300-3000 6000 0 10600 2000 14000 5900 3300 4000 5000 9700 5000 17100v3300h-31400c200 4500 1500 8200 4000 11000 2600 2800 5800 4200 9800 4200 2800 0 5100-600 7100-1700 1900-1100 3600-2600 5100-4500l4800 3800c-3900 5900-9700 8900-17500 8900zm-900-41500c-3200 0-5900 1100-8100 3500-2100 2300-3500 5600-4000 9800h23200v-600c-200-4100-1300-7200-3300-9400-1900-2200-4500-3300-7800-3300z"/><path id="19" class="fil2" d="M1672100 1932100h-26100v27500h-8200v-62300h38600v6700h-30400v21300h26100z"/><path id="20" class="fil2" d="M1693600 1959600h-7900v-46300h7900v46300zm-8600-58600c0-1300 400-2400 1200-3300 800-800 1900-1300 3500-1300 1500 0 2700 500 3500 1300 800 900 1200 2000 1200 3300s-400 2400-1200 3300c-800 800-2000 1200-3500 1200-1600 0-2700-400-3500-1200-800-900-1200-2000-1200-3300z"/><path id="21" class="fil2" d="M1714800 1959600h-7900v-65700h7900z"/><path id="22" class="fil2" d="M1746700 1960500c-6300 0-11400-2100-15300-6200s-5900-9600-5900-16500v-1500c0-4600 900-8700 2600-12300 1800-3600 4200-6400 7400-8500 3100-2000 6600-3000 10200-3000 6000 0 10700 1900 14100 5900 3300 4000 5000 9700 5000 17000v3300h-31400c100 4600 1400 8300 4000 11100s5800 4200 9700 4200c2800 0 5200-600 7100-1700 2000-1200 3700-2700 5100-4500l4900 3700c-3900 6000-9700 9000-17500 9000zm-1000-41600c-3200 0-5800 1200-8000 3500-2200 2400-3500 5700-4000 9900h23200v-600c-300-4100-1400-7200-3300-9400-1900-2300-4600-3400-7900-3400z"/><path id="23" class="fil2" d="M1800900 1947300c0-2100-800-3800-2400-4900-1600-1200-4400-2300-8500-3100-4000-900-7100-1900-9500-3100-2300-1200-4100-2600-5200-4300-1200-1600-1700-3600-1700-5900 0-3800 1600-7000 4800-9600s7300-3900 12300-3900c5300 0 9500 1300 12800 4000 3200 2700 4900 6200 4900 10400h-8000c0-2200-900-4000-2700-5600-1900-1600-4200-2400-7000-2400-2900 0-5100 700-6800 1900-1600 1300-2400 2900-2400 4900s800 3400 2300 4400c1500 900 4200 1900 8200 2700 3900 900 7100 2000 9600 3200 2400 1200 4200 2700 5400 4500 1200 1700 1800 3800 1800 6300 0 4100-1600 7400-5000 9900-3300 2500-7600 3800-12800 3800-3700 0-7000-700-9900-2000-2800-1300-5100-3100-6700-5500-1600-2300-2400-4900-2400-7600h7900c200 2600 1200 4700 3200 6300 2000 1500 4600 2300 7900 2300 3000 0 5400-600 7200-1800s2700-2900 2700-4900z"/><path class="fil2" d="M3925800 1812300h-20000v55500h-8200v-55500h-19900v-6800h48100z"/><path id="1" class="fil2" d="M3953000 1828600c-1200-200-2500-300-3900-300-5200 0-8700 2200-10600 6600v32900h-7900v-46200h7700l100 5300c2600-4100 6300-6200 11100-6200 1500 0 2700 200 3500 600v7300z"/><path id="2" class="fil2" d="M3987100 1867800c-400-900-800-2500-1100-4800-3600 3800-8000 5700-13100 5700-4600 0-8300-1300-11300-3900-2900-2600-4300-5800-4300-9800 0-4800 1800-8600 5400-11200 3700-2700 8900-4000 15500-4000h7700v-3700c0-2700-800-4900-2500-6600-1600-1600-4100-2400-7300-2400-2800 0-5200 700-7100 2100s-2900 3200-2900 5200h-7900c0-2300 800-4600 2400-6700 1700-2200 3900-3900 6700-5100 2800-1300 5900-1900 9300-1900 5300 0 9500 1300 12500 4000 3000 2600 4600 6300 4700 11000v21300c0 4200 600 7600 1700 10100v700h-8400zm-13100-5900c2500 0 4900-600 7100-1900s3800-3000 4800-5000v-9600h-6200c-9700 0-14500 2800-14500 8600 0 2500 800 4400 2400 5800 1700 1400 3800 2100 6400 2100z"/><path id="3" class="fil2" d="M4013700 1821600l300 5800c3500-4500 8200-6700 13900-6700 9700 0 14700 5500 14800 16500v30600h-8000v-30600c0-3300-700-5800-2200-7400s-3900-2400-7000-2400c-2600 0-4900 700-6800 2100-1900 1300-3500 3100-4500 5400v32900h-7900v-46200h7400z"/><path id="4" class="fil2" d="M4081600 1855500c0-2100-800-3800-2500-4900-1600-1200-4400-2200-8400-3100-4000-800-7200-1900-9500-3100-2400-1200-4100-2600-5200-4300-1200-1600-1700-3600-1700-5900 0-3800 1600-7000 4800-9600s7300-3900 12300-3900c5200 0 9500 1300 12800 4000 3200 2800 4900 6200 4900 10400h-8000c0-2100-900-4000-2800-5600-1800-1600-4100-2300-6900-2300-2900 0-5200 600-6800 1800-1600 1300-2400 2900-2400 5000 0 1900 700 3300 2200 4300 1600 1000 4300 1900 8200 2800 4000 900 7200 1900 9700 3100 2400 1300 4200 2800 5400 4500s1800 3800 1800 6300c0 4100-1700 7400-5000 9900s-7600 3800-12900 3800c-3700 0-6900-700-9800-2000s-5100-3100-6700-5500c-1600-2300-2400-4900-2400-7600h7900c100 2600 1200 4700 3200 6300 2000 1500 4600 2300 7800 2300 3000 0 5400-600 7200-1800 1900-1200 2800-2800 2800-4900z"/><path id="5" class="fil2" d="M4108400 1867800h-7900v-65700h7900z"/><path id="6" class="fil2" d="M4149600 1867800c-400-900-800-2500-1100-4800-3700 3800-8100 5700-13200 5700-4500 0-8300-1300-11200-3900s-4400-5800-4400-9800c0-4800 1900-8600 5500-11200 3700-2700 8800-4000 15500-4000h7700v-3700c0-2700-800-4900-2500-6600-1600-1600-4100-2400-7300-2400-2800 0-5200 700-7100 2100s-2900 3200-2900 5200h-7900c0-2300 800-4600 2400-6700 1700-2200 3900-3900 6700-5100 2800-1300 5900-1900 9300-1900 5300 0 9500 1300 12500 4000 3000 2600 4600 6300 4700 11000v21300c0 4200 600 7600 1600 10100v700h-8300zm-13100-5900c2500 0 4800-600 7100-1900 2200-1300 3800-3000 4800-5000v-9600h-6200c-9700 0-14600 2800-14600 8600 0 2500 900 4400 2500 5800 1700 1400 3800 2100 6400 2100z"/><path id="7" class="fil2" d="M4179500 1810300v11300h8600v6100h-8600v28700c0 1800 400 3200 1100 4200 800 900 2100 1300 4000 1300 900 0 2100-100 3700-500v6400c-2100 600-4100 900-6000 900-3600 0-6300-1100-8100-3200-1700-2100-2600-5200-2600-9100v-28700h-8500v-6100h8500v-11300h7900z"/><path id="8" class="fil2" d="M4206000 1867800h-8000v-46200h8000v46200zm-8600-58600c0-1200 400-2300 1200-3200s1900-1400 3500-1400c1500 0 2700 500 3500 1400s1200 2000 1200 3200c0 1300-400 2400-1200 3300-800 800-2000 1300-3500 1300-1600 0-2700-500-3500-1300-800-900-1200-2000-1200-3300z"/><path id="9" class="fil2" d="M4216500 1844300c0-4600 900-8700 2700-12300s4200-6400 7400-8400c3200-1900 6800-2900 10900-2900 6300 0 11400 2200 15300 6500 3900 4400 5800 10200 5800 17400v600c0 4500-800 8600-2600 12100-1700 3600-4100 6400-7400 8400-3200 2000-6800 3000-11000 3000-6300 0-11400-2200-15300-6500-3900-4400-5800-10200-5800-17400v-500zm8000 900c0 5100 1100 9200 3500 12400 2400 3100 5600 4600 9600 4600s7200-1600 9600-4700c2300-3200 3500-7600 3500-13300 0-5000-1200-9200-3600-12300-2400-3200-5600-4700-9600-4700-3900 0-7100 1500-9400 4600-2400 3100-3600 7600-3600 13400z"/><path id="10" class="fil2" d="M4276100 1821600l200 5800c3600-4500 8200-6700 13900-6700 9800 0 14700 5500 14800 16500v30600h-7900v-30600c0-3300-800-5800-2300-7400s-3800-2400-7000-2400c-2600 0-4800 700-6800 2100-1900 1300-3400 3100-4500 5400v32900h-7900v-46200h7500z"/><path id="11" class="fil2" d="M4348700 1867800h-8200v-62300h8200z"/><path id="12" class="fil2" d="M4370000 1821600l200 5800c3500-4500 8200-6700 13900-6700 9800 0 14700 5500 14800 16500v30600h-7900v-30600c-100-3300-800-5800-2300-7400s-3900-2400-7000-2400c-2600 0-4800 700-6800 2100-1900 1300-3400 3100-4500 5400v32900h-7900v-46200h7500z"/><path id="13" class="fil2" d="M4421600 1810300v11300h8600v6100h-8600v28700c0 1800 300 3200 1100 4200 800 900 2100 1300 4000 1300 900 0 2100-100 3700-500v6400c-2100 600-4100 900-6100 900-3500 0-6200-1100-8000-3200s-2600-5200-2600-9100v-28700h-8500v-6100h8500v-11300h7900z"/><path id="14" class="fil2" d="M4458600 1868700c-6200 0-11300-2100-15300-6200-3900-4100-5900-9600-5900-16500v-1500c0-4600 900-8700 2700-12300 1700-3600 4200-6400 7300-8500 3200-2000 6600-3000 10300-3000 6000 0 10700 2000 14000 5900 3300 4000 5000 9700 5000 17100v3300h-31400c200 4500 1500 8200 4000 11000 2600 2800 5800 4200 9800 4200 2800 0 5100-600 7100-1700 1900-1100 3600-2600 5100-4500l4800 3800c-3900 5900-9700 8900-17500 8900zm-900-41500c-3200 0-5900 1100-8100 3500-2100 2300-3500 5600-4000 9800h23200v-600c-200-4100-1300-7200-3300-9400-1900-2200-4500-3300-7800-3300z"/><path id="15" class="fil2" d="M4508200 1828600c-1200-200-2500-300-3900-300-5200 0-8700 2200-10500 6600v32900h-8000v-46200h7700l200 5300c2600-4100 6200-6200 11000-6200 1600 0 2700 200 3500 600v7300z"/><path id="16" class="fil2" d="M4533200 1862200c2900 0 5300-800 7500-2500 2100-1800 3200-3900 3500-6500h7500c-200 2700-1100 5200-2800 7600s-3900 4300-6700 5800c-2800 1400-5800 2100-9000 2100-6200 0-11300-2100-15000-6300s-5600-10000-5600-17300v-1300c0-4500 900-8500 2500-12000 1700-3500 4000-6300 7100-8200 3100-2000 6800-2900 11000-2900 5200 0 9500 1500 13000 4600 3400 3100 5200 7200 5500 12100h-7500c-300-2900-1400-5400-3400-7300-2100-2000-4600-2900-7600-2900-4000 0-7100 1400-9300 4300-2300 2900-3400 7100-3400 12600v1500c0 5300 1100 9400 3300 12300s5400 4300 9400 4300z"/><path id="17" class="fil2" d="M4568500 1827100c3500-4300 8100-6400 13700-6400 9800 0 14700 5500 14800 16500v30600h-7900v-30600c0-3300-800-5800-2300-7400s-3800-2400-7000-2400c-2600 0-4800 700-6800 2100-1900 1300-3400 3100-4500 5400v32900h-7900v-65700h7900v25000z"/><path id="18" class="fil2" d="M4637400 1867800c-400-900-800-2500-1100-4800-3700 3800-8100 5700-13200 5700-4500 0-8300-1300-11200-3900s-4400-5800-4400-9800c0-4800 1900-8600 5500-11200 3700-2700 8800-4000 15500-4000h7700v-3700c0-2700-800-4900-2500-6600-1600-1600-4100-2400-7300-2400-2800 0-5200 700-7100 2100s-2900 3200-2900 5200h-7900c0-2300 800-4600 2400-6700 1700-2200 3900-3900 6700-5100 2800-1300 5900-1900 9300-1900 5300 0 9500 1300 12500 4000 3000 2600 4600 6300 4700 11000v21300c0 4200 600 7600 1600 10100v700h-8300zm-13100-5900c2500 0 4800-600 7100-1900 2200-1300 3800-3000 4800-5000v-9600h-6200c-9700 0-14600 2800-14600 8600 0 2500 900 4400 2500 5800 1700 1400 3800 2100 6400 2100z"/><path id="19" class="fil2" d="M4664000 1821600l300 5800c3500-4500 8100-6700 13800-6700 9800 0 14800 5500 14800 16500v30600h-7900v-30600c0-3300-800-5800-2300-7400s-3800-2400-7000-2400c-2500 0-4800 700-6700 2100-2000 1300-3500 3100-4600 5400v32900h-7900v-46200h7500z"/><path id="20" class="fil2" d="M4703000 1844300c0-7200 1600-13000 5000-17200 3300-4300 7800-6400 13300-6400 5600 0 10000 2000 13200 6000l400-5100h7200v45100c0 6000-1800 10700-5300 14200-3600 3400-8400 5100-14300 5100-3400 0-6600-700-9800-2100s-5700-3400-7400-5800l4200-4800c3300 4200 7500 6300 12400 6300 3900 0 6800-1100 9000-3300 2200-2100 3200-5200 3200-9100v-4000c-3100 3700-7500 5500-12900 5500s-9800-2200-13200-6500c-3300-4400-5000-10400-5000-17900zm7900 900c0 5200 1100 9300 3300 12300 2100 3000 5100 4400 8900 4400 5000 0 8700-2200 11000-6700v-21200c-2400-4400-6000-6600-10900-6600-3800 0-6800 1500-9000 4500s-3300 7400-3300 13300z"/><path id="21" class="fil2" d="M4773200 1868700c-6200 0-11300-2100-15300-6200-3900-4100-5900-9600-5900-16500v-1500c0-4600 900-8700 2700-12300 1700-3600 4200-6400 7300-8500 3200-2000 6600-3000 10300-3000 6000 0 10700 2000 14000 5900 3300 4000 5000 9700 5000 17100v3300h-31400c200 4500 1500 8200 4000 11000 2600 2800 5800 4200 9800 4200 2800 0 5100-600 7100-1700 1900-1100 3600-2600 5100-4500l4800 3800c-3900 5900-9700 8900-17500 8900zm-900-41500c-3200 0-5900 1100-8100 3500-2100 2300-3500 5600-4000 9800h23200v-600c-200-4100-1300-7200-3300-9400-1900-2200-4500-3300-7800-3300z"/><path id="22" class="fil2" d="M4285300 1932100h-26100v27500h-8200v-62300h38600v6700h-30400v21300h26100z"/><path id="23" class="fil2" d="M4306800 1959600h-8000v-46300h8000v46300zm-8600-58600c0-1300 400-2400 1200-3300 800-800 1900-1300 3500-1300 1500 0 2700 500 3500 1300 800 900 1200 2000 1200 3300s-400 2400-1200 3300c-800 800-2000 1200-3500 1200-1600 0-2700-400-3500-1200-800-900-1200-2000-1200-3300z"/><path id="24" class="fil2" d="M4328000 1959600h-7900v-65700h7900z"/><path id="25" class="fil2" d="M4359900 1960500c-6300 0-11400-2100-15300-6200-4000-4100-5900-9600-5900-16500v-1500c0-4600 900-8700 2600-12300 1800-3600 4200-6400 7400-8500 3100-2000 6500-3000 10200-3000 6000 0 10700 1900 14000 5900 3400 4000 5100 9700 5100 17000v3300h-31400c100 4600 1400 8300 4000 11100 2500 2800 5800 4200 9700 4200 2800 0 5200-600 7100-1700 2000-1200 3700-2700 5100-4500l4900 3700c-3900 6000-9800 9000-17500 9000zm-1000-41600c-3200 0-5900 1200-8000 3500-2200 2400-3500 5700-4000 9900h23100v-600c-200-4100-1300-7200-3200-9400-2000-2300-4600-3400-7900-3400z"/><path id="26" class="fil2" d="M4414100 1947300c0-2100-800-3800-2400-4900-1600-1200-4500-2300-8500-3100-4000-900-7200-1900-9500-3100-2400-1200-4100-2600-5200-4300-1200-1600-1700-3600-1700-5900 0-3800 1600-7000 4800-9600s7300-3900 12300-3900c5200 0 9500 1300 12800 4000 3200 2700 4900 6200 4900 10400h-8000c0-2200-900-4000-2800-5600-1800-1600-4100-2400-6900-2400-2900 0-5100 700-6800 1900-1600 1300-2400 2900-2400 4900s800 3400 2300 4400c1500 900 4200 1900 8200 2700 3900 900 7100 2000 9600 3200 2400 1200 4200 2700 5400 4500 1200 1700 1800 3800 1800 6300 0 4100-1700 7400-5000 9900s-7600 3800-12800 3800c-3800 0-7000-700-9900-2000-2800-1300-5100-3100-6700-5500-1600-2300-2400-4900-2400-7600h7900c200 2600 1200 4700 3200 6300 2000 1500 4600 2300 7900 2300 2900 0 5400-600 7200-1800s2700-2900 2700-4900z"/><path class="fil2" d="M5288700 1867800h-8200v-62300h8200z"/><path id="1" class="fil2" d="M5310000 1821600l200 5800c3500-4500 8200-6700 13900-6700 9700 0 14700 5500 14800 16500v30600h-7900v-30600c-100-3300-800-5800-2300-7400s-3900-2400-7000-2400c-2600 0-4800 700-6800 2100-1900 1300-3400 3100-4500 5400v32900h-7900v-46200h7500z"/><path id="2" class="fil2" d="M5361600 1810300v11300h8600v6100h-8600v28700c0 1800 300 3200 1100 4200 800 900 2100 1300 3900 1300 1000 0 2200-100 3800-500v6400c-2100 600-4100 900-6100 900-3500 0-6200-1100-8000-3200s-2700-5200-2700-9100v-28700h-8400v-6100h8400v-11300h8000z"/><path id="3" class="fil2" d="M5398600 1868700c-6200 0-11300-2100-15300-6200-3900-4100-5900-9600-5900-16500v-1500c0-4600 900-8700 2700-12300 1700-3600 4200-6400 7300-8500 3200-2000 6600-3000 10300-3000 6000 0 10700 2000 14000 5900 3300 4000 5000 9700 5000 17100v3300h-31400c200 4500 1500 8200 4000 11000 2600 2800 5800 4200 9800 4200 2800 0 5100-600 7100-1700 1900-1100 3600-2600 5100-4500l4800 3800c-3900 5900-9700 8900-17500 8900zm-900-41500c-3200 0-5900 1100-8100 3500-2100 2300-3500 5600-4000 9800h23200v-600c-200-4100-1300-7200-3300-9400-1900-2200-4500-3300-7800-3300z"/><path id="4" class="fil2" d="M5448200 1828600c-1200-200-2500-300-3900-300-5200 0-8700 2200-10500 6600v32900h-8000v-46200h7700l200 5300c2600-4100 6200-6200 11000-6200 1600 0 2700 200 3500 600v7300z"/><path id="5" class="fil2" d="M5463000 1821600l300 5800c3500-4500 8100-6700 13800-6700 9800 0 14700 5500 14800 16500v30600h-7900v-30600c0-3300-800-5800-2300-7400s-3800-2400-7000-2400c-2500 0-4800 700-6700 2100-2000 1300-3500 3100-4600 5400v32900h-7900v-46200h7500z"/><path id="6" class="fil2" d="M5532400 1867800c-400-900-800-2500-1100-4800-3700 3800-8100 5700-13100 5700-4600 0-8400-1300-11300-3900s-4400-5800-4400-9800c0-4800 1900-8600 5500-11200 3700-2700 8900-4000 15500-4000h7700v-3700c0-2700-800-4900-2500-6600-1600-1600-4100-2400-7300-2400-2800 0-5200 700-7100 2100s-2900 3200-2900 5200h-7900c0-2300 800-4600 2400-6700 1700-2200 3900-3900 6700-5100 2800-1300 5900-1900 9300-1900 5300 0 9500 1300 12500 4000 3000 2600 4600 6300 4700 11000v21300c0 4200 600 7600 1600 10100v700h-8300zm-13100-5900c2500 0 4800-600 7100-1900 2200-1300 3800-3000 4800-5000v-9600h-6200c-9700 0-14500 2800-14500 8600 0 2500 800 4400 2400 5800 1700 1400 3800 2100 6400 2100z"/><path id="7" class="fil2" d="M5560100 1867800h-7900v-65700h7900z"/><path id="8" class="fil2" d="M5592400 1844300c0-4600 900-8700 2700-12300 1700-3600 4200-6400 7400-8400 3200-1900 6800-2900 10900-2900 6300 0 11400 2200 15300 6500 3900 4400 5800 10200 5800 17400v600c0 4500-800 8600-2600 12100-1700 3600-4200 6400-7400 8400s-6900 3000-11000 3000c-6300 0-11400-2200-15300-6500-3900-4400-5800-10200-5800-17400v-500zm7900 900c0 5100 1200 9200 3600 12400 2400 3100 5600 4600 9600 4600s7200-1600 9500-4700c2400-3200 3600-7600 3600-13300 0-5000-1200-9200-3600-12300-2400-3200-5600-4700-9600-4700-3900 0-7100 1500-9500 4600s-3600 7600-3600 13400z"/><path id="9" class="fil2" d="M5666800 1828600c-1200-200-2500-300-3900-300-5200 0-8700 2200-10500 6600v32900h-8000v-46200h7700l200 5300c2600-4100 6200-6200 11000-6200 1600 0 2700 200 3500 600v7300z"/><path id="10" class="fil2" d="M5732200 1839100h-26900v22000h31300v6700h-39600v-62300h39200v6800h-30900v20000h26900z"/><path id="11" class="fil2" d="M5761100 1838400l10300-16800h9200l-15100 22800 15600 23400h-9100l-10700-17300-10700 17300h-9200l15600-23400-15200-22800h9200z"/><path id="12" class="fil2" d="M5799800 1810300v11300h8600v6100h-8600v28700c0 1800 400 3200 1100 4200 800 900 2100 1300 4000 1300 900 0 2200-100 3700-500v6400c-2000 600-4100 900-6000 900-3600 0-6200-1100-8000-3200s-2700-5200-2700-9100v-28700h-8500v-6100h8500v-11300h7900z"/><path id="13" class="fil2" d="M5836900 1868700c-6300 0-11400-2100-15300-6200-4000-4100-6000-9600-6000-16500v-1500c0-4600 900-8700 2700-12300 1700-3600 4200-6400 7300-8500 3200-2000 6600-3000 10300-3000 6000 0 10700 2000 14000 5900 3400 4000 5000 9700 5000 17100v3300h-31300c100 4500 1400 8200 4000 11000 2500 2800 5800 4200 9700 4200 2800 0 5200-600 7100-1700s3600-2600 5100-4500l4800 3800c-3800 5900-9700 8900-17400 8900zm-1000-41500c-3200 0-5900 1100-8100 3500-2100 2300-3500 5600-4000 9800h23200v-600c-200-4100-1300-7200-3200-9400-2000-2200-4600-3300-7900-3300z"/><path id="14" class="fil2" d="M5886400 1828600c-1200-200-2500-300-3800-300-5200 0-8800 2200-10600 6600v32900h-7900v-46200h7700l100 5300c2600-4100 6300-6200 11000-6200 1600 0 2800 200 3500 600v7300z"/><path id="15" class="fil2" d="M5901200 1821600l300 5800c3500-4500 8100-6700 13800-6700 9800 0 14800 5500 14900 16500v30600h-8000v-30600c0-3300-800-5800-2300-7400-1400-1600-3800-2400-7000-2400-2500 0-4800 700-6700 2100-1900 1300-3500 3100-4500 5400v32900h-8000v-46200h7500z"/><path id="16" class="fil2" d="M5970700 1867800c-500-900-900-2500-1100-4800-3700 3800-8100 5700-13200 5700-4600 0-8300-1300-11200-3900-3000-2600-4400-5800-4400-9800 0-4800 1800-8600 5500-11200 3600-2700 8800-4000 15400-4000h7700v-3700c0-2700-800-4900-2400-6600-1700-1600-4200-2400-7400-2400-2800 0-5200 700-7100 2100s-2800 3200-2800 5200h-8000c0-2300 800-4600 2500-6700 1600-2200 3800-3900 6600-5100 2800-1300 5900-1900 9300-1900 5300 0 9500 1300 12500 4000 3100 2600 4600 6300 4700 11000v21300c0 4200 600 7600 1700 10100v700h-8300zm-13200-5900c2500 0 4900-600 7100-1900s3800-3000 4800-5000v-9600h-6200c-9700 0-14500 2800-14500 8600 0 2500 800 4400 2500 5800 1600 1400 3700 2100 6300 2100z"/><path id="17" class="fil2" d="M5998400 1867800h-8000v-65700h8000z"/><path id="18" class="fil2" d="M5318100 1904000h-20000v55600h-8100v-55600h-20000v-6700h48100z"/><path id="19" class="fil2" d="M5345300 1920400c-1200-200-2500-300-3900-300-5200 0-8700 2200-10600 6600v32900h-7900v-46300h7700l100 5400c2600-4200 6300-6200 11100-6200 1500 0 2700 200 3500 600v7300z"/><path id="20" class="fil2" d="M5379500 1959600c-500-900-900-2500-1200-4900-3600 3900-8000 5800-13100 5800-4600 0-8300-1300-11300-3900-2900-2600-4300-5900-4300-9800 0-4800 1800-8600 5500-11200 3600-2700 8800-4000 15400-4000h7700v-3700c0-2700-800-4900-2500-6600-1600-1600-4100-2400-7300-2400-2800 0-5200 700-7100 2100s-2800 3100-2800 5200h-8000c0-2400 800-4600 2400-6800 1700-2100 3900-3800 6700-5100 2800-1200 5900-1800 9300-1800 5300 0 9500 1300 12500 4000 3100 2600 4600 6300 4700 11000v21300c0 4200 600 7600 1700 10100v700h-8300zm-13200-5900c2500 0 4900-600 7100-1900s3800-3000 4800-5100v-9500h-6200c-9700 0-14500 2800-14500 8600 0 2500 800 4400 2400 5800 1700 1400 3800 2100 6400 2100z"/><path id="21" class="fil2" d="M5406000 1913300l300 5800c3500-4400 8200-6600 13900-6600 9700 0 14700 5500 14800 16500v30600h-8000v-30600c0-3300-700-5800-2200-7400s-3900-2400-7000-2400c-2600 0-4900 700-6800 2000-1900 1400-3400 3200-4500 5400v33000h-7900v-46300h7400z"/><path id="22" class="fil2" d="M5473900 1947300c0-2100-800-3800-2500-4900-1600-1200-4400-2300-8400-3100-4000-900-7200-1900-9500-3100-2400-1200-4100-2600-5200-4300-1200-1600-1700-3600-1700-5900 0-3800 1600-7000 4800-9600s7300-3900 12300-3900c5200 0 9500 1300 12800 4000 3200 2700 4900 6200 4900 10400h-8000c0-2200-900-4000-2800-5600-1800-1600-4100-2400-6900-2400-2900 0-5100 700-6800 1900-1600 1300-2400 2900-2400 4900s700 3400 2300 4400c1500 900 4200 1900 8200 2700 3900 900 7100 2000 9600 3200 2400 1200 4200 2700 5400 4500 1200 1700 1800 3800 1800 6300 0 4100-1700 7400-5000 9900s-7600 3800-12900 3800c-3700 0-6900-700-9800-2000-2800-1300-5100-3100-6700-5500-1600-2300-2400-4900-2400-7600h7900c100 2600 1200 4700 3200 6300 2000 1500 4600 2300 7800 2300 3000 0 5400-600 7300-1800 1800-1200 2700-2900 2700-4900z"/><path id="23" class="fil2" d="M5500700 1959600h-7900v-65700h7900z"/><path id="24" class="fil2" d="M5541900 1959600c-400-900-800-2500-1100-4900-3700 3900-8100 5800-13200 5800-4500 0-8300-1300-11200-3900s-4400-5900-4400-9800c0-4800 1900-8600 5500-11200 3700-2700 8900-4000 15500-4000h7700v-3700c0-2700-800-4900-2500-6600-1600-1600-4100-2400-7300-2400-2800 0-5200 700-7100 2100s-2900 3100-2900 5200h-7900c0-2400 800-4600 2400-6800 1700-2100 3900-3800 6700-5100 2800-1200 5900-1800 9300-1800 5300 0 9500 1300 12500 4000 3000 2600 4600 6300 4700 11000v21300c0 4200 600 7600 1600 10100v700h-8300zm-13100-5900c2500 0 4800-600 7100-1900 2200-1300 3800-3000 4800-5100v-9500h-6200c-9700 0-14500 2800-14500 8600 0 2500 800 4400 2400 5800 1700 1400 3800 2100 6400 2100z"/><path id="25" class="fil2" d="M5571800 1902100v11200h8600v6200h-8600v28700c0 1800 400 3200 1100 4100 800 1000 2100 1400 4000 1400 900 0 2100-100 3700-500v6400c-2100 600-4100 900-6000 900-3600 0-6200-1100-8000-3200-1800-2200-2700-5200-2700-9100v-28700h-8500v-6200h8500v-11200h7900z"/><path id="26" class="fil2" d="M5598300 1959600h-8000v-46300h8000v46300zm-8600-58600c0-1300 400-2400 1200-3300 800-800 1900-1300 3500-1300 1500 0 2700 500 3500 1300 800 900 1200 2000 1200 3300s-400 2400-1200 3300c-800 800-2000 1200-3500 1200-1600 0-2700-400-3500-1200-800-900-1200-2000-1200-3300z"/><path id="27" class="fil2" d="M5608800 1936000c0-4500 900-8600 2700-12200s4200-6400 7400-8400 6800-2900 10900-2900c6300 0 11400 2100 15300 6500s5800 10200 5800 17400v600c0 4500-800 8500-2500 12100-1800 3600-4200 6400-7500 8400-3100 2000-6800 3000-11000 3000-6300 0-11400-2200-15300-6600-3800-4300-5800-10100-5800-17300v-600zm8000 1000c0 5100 1100 9200 3500 12300s5600 4700 9600 4700 7200-1600 9600-4700c2300-3200 3500-7600 3500-13300 0-5100-1200-9200-3600-12300-2400-3200-5600-4800-9600-4800-3900 0-7100 1600-9400 4700-2400 3100-3600 7600-3600 13400z"/><path id="28" class="fil2" d="M5668400 1913300l200 5800c3600-4400 8200-6600 13900-6600 9800 0 14700 5500 14800 16500v30600h-7900v-30600c0-3300-800-5800-2300-7400s-3800-2400-7000-2400c-2600 0-4800 700-6800 2000-1900 1400-3400 3200-4500 5400v33000h-7900v-46300h7500z"/><path id="29" class="fil2" d="M5750500 1931800c-7000-2000-12200-4500-15400-7400-3200-3000-4800-6600-4800-11000 0-4900 2000-8900 5900-12200 3900-3200 9000-4800 15300-4800 4300 0 8100 900 11400 2500 3400 1700 6000 3900 7800 6800 1900 3000 2800 6100 2800 9600h-8300c0-3800-1200-6700-3600-8900-2400-2100-5700-3200-10100-3200-4100 0-7200 900-9500 2600-2300 1800-3400 4300-3400 7500 0 2500 1100 4700 3300 6400 2100 1800 5800 3400 10900 4900 5200 1400 9300 3000 12200 4800 2900 1700 5100 3800 6500 6100 1400 2400 2100 5100 2100 8300 0 5000-2000 9100-5900 12100-3900 3100-9200 4600-15800 4600-4300 0-8300-800-12000-2500-3700-1600-6500-3900-8500-6700-2000-2900-3000-6100-3000-9700h8200c0 3700 1400 6700 4200 8900 2800 2100 6500 3200 11100 3200 4400 0 7700-900 10000-2600 2300-1800 3500-4200 3500-7200 0-3100-1100-5500-3200-7100-2200-1700-6100-3300-11700-5000z"/><path id="30" class="fil2" d="M5802100 1960500c-6200 0-11300-2100-15300-6200-3900-4100-5900-9600-5900-16500v-1500c0-4600 900-8700 2600-12300 1800-3600 4200-6400 7400-8500 3200-2000 6600-3000 10300-3000 6000 0 10600 1900 14000 5900 3300 4000 5000 9700 5000 17000v3300h-31400c100 4600 1500 8300 4000 11100 2600 2800 5800 4200 9800 4200 2800 0 5100-600 7100-1700 1900-1200 3600-2700 5100-4500l4800 3700c-3900 6000-9700 9000-17500 9000zm-900-41600c-3200 0-5900 1200-8100 3500-2200 2400-3500 5700-4000 9900h23200v-600c-200-4100-1300-7200-3300-9400-1900-2300-4500-3400-7800-3400z"/><path id="31" class="fil2" d="M5851700 1920400c-1200-200-2500-300-3900-300-5200 0-8700 2200-10600 6600v32900h-7900v-46300h7700l200 5400c2600-4200 6200-6200 11000-6200 1600 0 2700 200 3500 600v7300z"/><path id="32" class="fil2" d="M5875000 1948900l11500-35600h8100l-16600 46300h-6100l-16700-46300h8100z"/><path id="33" class="fil2" d="M5910800 1959600h-7900v-46300h7900v46300zm-8500-58600c0-1300 400-2400 1100-3300 800-800 2000-1300 3500-1300 1600 0 2700 500 3500 1300 800 900 1200 2000 1200 3300s-400 2400-1200 3300c-800 800-1900 1200-3500 1200-1500 0-2700-400-3500-1200-700-900-1100-2000-1100-3300z"/><path id="34" class="fil2" d="M5942000 1954000c2900 0 5300-900 7400-2600s3300-3800 3500-6400h7500c-100 2700-1000 5200-2700 7600s-4000 4300-6800 5700c-2800 1500-5700 2200-8900 2200-6300 0-11300-2100-15000-6300s-5600-10000-5600-17300v-1300c0-4500 800-8600 2500-12100 1600-3500 4000-6200 7100-8100 3100-2000 6800-2900 11000-2900 5200 0 9500 1500 12900 4600 3500 3100 5300 7200 5500 12100h-7500c-200-3000-1300-5400-3400-7400-2000-1900-4500-2900-7500-2900-4000 0-7200 1500-9400 4400s-3300 7100-3300 12500v1500c0 5400 1100 9500 3300 12400 2200 2800 5300 4300 9400 4300z"/><path id="35" class="fil2" d="M5988600 1960500c-6300 0-11400-2100-15400-6200-3900-4100-5900-9600-5900-16500v-1500c0-4600 900-8700 2700-12300 1700-3600 4200-6400 7300-8500 3200-2000 6600-3000 10300-3000 6000 0 10700 1900 14000 5900s5000 9700 5000 17000v3300h-31300c100 4600 1400 8300 4000 11100 2500 2800 5800 4200 9700 4200 2800 0 5200-600 7100-1700 1900-1200 3600-2700 5100-4500l4800 3700c-3900 6000-9700 9000-17400 9000zm-1000-41600c-3200 0-5900 1200-8100 3500-2100 2400-3500 5700-4000 9900h23200v-600c-200-4100-1300-7200-3200-9400-2000-2300-4600-3400-7900-3400z"/><g id="_1506024012640"><path class="fil1 str0" d="M1457900 1009400h342800v465200h-342800z"/><path class="fil0 str0" d="M1667600 1090500h74900M1538300 1144300h140800M1639300 1206600h103200M1516100 1330000h113200M1516100 1090500h67400M1546700 1234200h103300M1608700 1264900h103200M1516100 1289200h103200M1629300 1362200h113200M1662300 1330000h62600M1516100 1407900h113200"/><g><path class="fil1 str0" d="M1552600 1133300h342800v465200h-342800z"/><path class="fil0 str0" d="M1762300 1517300h74900M1633000 1463500h140800M1734000 1401300h103200M1610800 1277900h113200M1610800 1517300h67400M1641400 1373600h103300M1703400 1343000h103200M1610800 1318600h103200M1724000 1245700h113200M1757000 1277900h62600M1610800 1199900h113200"/></g><g><path class="fil1 str0" d="M1647300 1257100h342800v465200h-342800z"/><path class="fil0 str0" d="M1857000 1338200h75000M1727700 1392000h140800M1828700 1454200h103300M1705500 1577700h113200M1705500 1338200h67400M1736200 1481900h103200M1798100 1512500h103300M1705500 1536900h103200M1818700 1609800h113300M1851700 1577700h62700M1705500 1655600h113200"/></g></g><g id="_1506024027392"><path class="fil1 str0" d="M4068000 1009400h342800v465200h-342800z"/><path class="fil0 str0" d="M4126100 1090500h95700M4126100 1163400h95700M4126100 1236300h95700"/><path class="fil3" d="M4178900 1414200c0-2500 800-4500 2500-6100 1700-1500 3800-2300 6300-2300 2600 0 4700 800 6400 2300 1700 1600 2500 3600 2500 6100 0 2400-800 4400-2500 5900-1600 1600-3800 2300-6400 2300s-4700-700-6300-2300c-1700-1500-2500-3500-2500-5900z"/><path id="1" class="fil3" d="M4229500 1394100v27800h-16200v-78900h30700c6000 0 11200 1100 15700 3200 4500 2200 7900 5300 10300 9300 2500 4000 3700 8500 3700 13600 0 7800-2700 13900-8000 18300-5300 4500-12600 6700-21900 6700h-14300zm0-13200h14500c4300 0 7600-1000 9900-3000 2200-2000 3400-4900 3400-8700s-1200-6900-3500-9300c-2200-2400-5400-3600-9400-3700h-14900v24700z"/><path id="2" class="fil3" d="M4353500 1384200c0 7800-1400 14600-4100 20500-2800 5800-6700 10300-11800 13500s-11000 4800-17600 4800c-6500 0-12300-1600-17500-4700-5100-3200-9100-7700-11900-13500s-4200-12600-4300-20200v-3900c0-7700 1400-14600 4200-20500s6800-10400 11900-13600c5100-3100 11000-4700 17500-4700 6600 0 12400 1600 17500 4700 5200 3200 9100 7700 11900 13600s4200 12800 4200 20500v3500zm-16500-3600c0-8200-1400-14500-4400-18800-3000-4400-7200-6500-12700-6500-5400 0-9600 2100-12600 6400-3000 4200-4500 10500-4500 18700v3800c0 8100 1500 14400 4500 18800 2900 4400 7200 6700 12700 6700s9700-2200 12600-6500c2900-4200 4400-10500 4400-18700v-3900z"/><path class="fil0 str0" d="M4256900 1090500h95700M4256900 1163400h95700M4256900 1236300h95700"/><g><path class="fil1 str0" d="M4162700 1133300h342800v465200h-342800z"/><path class="fil0 str0" d="M4220800 1214400h95700M4220800 1287200h95700M4220800 1360100h95700"/><path class="fil3" d="M4273600 1538000c0-2500 800-4500 2500-6100 1700-1500 3800-2300 6300-2300 2600 0 4700 800 6400 2300 1700 1600 2500 3600 2500 6100 0 2400-800 4400-2500 6000-1600 1500-3800 2300-6400 2300-2500 0-4700-800-6300-2300-1700-1600-2500-3600-2500-6000z"/><path id="1" class="fil3" d="M4324200 1518000v27700h-16200v-78900h30700c6000 0 11200 1100 15700 3300 4500 2100 7900 5200 10300 9200 2500 4000 3700 8500 3700 13700 0 7700-2700 13800-8000 18300-5300 4400-12600 6700-21900 6700h-14300zm0-13200h14500c4300 0 7600-1100 9900-3100 2200-2000 3400-4900 3400-8600 0-3900-1200-7000-3500-9400-2200-2400-5400-3600-9400-3700h-14900v24800z"/><path id="2" class="fil3" d="M4448200 1508000c0 7800-1400 14600-4100 20500-2700 5800-6700 10400-11800 13500-5100 3200-11000 4800-17600 4800-6500 0-12300-1600-17500-4700-5100-3200-9100-7600-11900-13500-2800-5800-4200-12500-4300-20100v-3900c0-7800 1400-14600 4200-20600 2800-5900 6800-10400 11900-13600 5100-3100 11000-4700 17500-4700 6600 0 12400 1600 17600 4700 5100 3200 9000 7700 11800 13600 2800 6000 4200 12800 4200 20500v3500zm-16400-3500c0-8300-1500-14600-4500-18900s-7200-6500-12700-6500c-5400 0-9600 2100-12600 6400s-4500 10500-4500 18700v3800c0 8100 1500 14400 4500 18800 2900 4500 7200 6700 12700 6700s9700-2200 12600-6400c2900-4300 4400-10600 4500-18800v-3800z"/><path class="fil0 str0" d="M4351700 1214400h95600M4351700 1287200h95600M4351700 1360100h95600"/></g><g><path class="fil1 str0" d="M4257400 1257100h342800v465200h-342800z"/><path class="fil0 str0" d="M4315600 1338200h95600M4315600 1411100h95600M4315600 1484000h95600"/><path class="fil3" d="M4368300 1661800c0-2500 900-4500 2500-6000 1700-1600 3800-2400 6300-2400 2600 0 4700 800 6400 2400 1700 1500 2500 3500 2500 6000s-800 4400-2500 6000c-1600 1500-3800 2300-6400 2300-2500 0-4600-800-6300-2300-1600-1600-2500-3500-2500-6000z"/><path id="1" class="fil3" d="M4418900 1641800v27700h-16200v-78900h30800c5900 0 11100 1100 15600 3300 4500 2100 7900 5200 10400 9200 2400 4000 3600 8600 3600 13700 0 7700-2700 13800-8000 18300-5200 4400-12600 6700-21900 6700h-14300zm0-13200h14600c4200 0 7500-1000 9800-3100 2300-2000 3400-4900 3400-8600 0-3900-1200-7000-3400-9400-2300-2400-5500-3600-9500-3700h-14900v24800z"/><path id="2" class="fil3" d="M4542900 1631900c0 7700-1300 14500-4100 20400-2700 5900-6700 10400-11800 13600-5100 3100-10900 4700-17600 4700-6500 0-12300-1500-17400-4700-5200-3100-9200-7600-12000-13500-2800-5800-4200-12500-4200-20100v-3900c0-7800 1300-14600 4200-20500 2700-5900 6700-10500 11800-13600 5100-3200 11000-4800 17500-4800 6600 0 12400 1600 17600 4800 5100 3100 9000 7700 11800 13600s4200 12700 4200 20400v3600zm-16400-3600c0-8300-1500-14600-4500-18900s-7200-6500-12700-6500c-5400 0-9600 2200-12600 6400-3000 4300-4400 10500-4500 18700v3900c0 8000 1500 14300 4500 18700 2900 4500 7200 6700 12700 6700s9700-2100 12600-6400 4400-10500 4500-18800v-3800z"/><path class="fil0 str0" d="M4446400 1338200h95600M4446400 1411100h95600M4446400 1484000h95600"/></g></g><path class="fil2" d="M194400 1840100c-7100-2100-12200-4600-15400-7500-3200-3000-4800-6600-4800-11000 0-4900 1900-8900 5900-12100 3900-3300 9000-4900 15300-4900 4200 0 8100 900 11400 2500 3400 1700 6000 4000 7800 6900s2800 6100 2800 9500h-8300c0-3800-1200-6700-3600-8900-2400-2100-5800-3200-10100-3200-4100 0-7200 900-9500 2700s-3400 4200-3400 7400c0 2500 1100 4700 3200 6400 2200 1800 5800 3400 11000 4900 5200 1400 9200 3000 12200 4800 2900 1700 5000 3800 6500 6100 1400 2400 2100 5100 2100 8300 0 5100-2000 9100-5900 12100-4000 3100-9200 4600-15800 4600-4300 0-8300-800-12000-2500-3700-1600-6600-3900-8600-6700-2000-2900-3000-6100-3000-9700h8300c0 3700 1400 6700 4200 8900 2700 2200 6400 3200 11100 3200 4300 0 7600-800 10000-2600 2300-1800 3400-4200 3400-7200 0-3100-1000-5400-3200-7100-2100-1700-6000-3300-11600-4900z"/><path id="1" class="fil2" d="M224700 1844300c0-4600 900-8700 2700-12300 1700-3600 4200-6400 7400-8400 3200-1900 6800-2900 10900-2900 6300 0 11400 2200 15300 6500 3900 4400 5800 10200 5800 17400v600c0 4500-800 8600-2600 12100-1700 3600-4200 6400-7400 8400s-6900 3000-11000 3000c-6300 0-11400-2200-15300-6500-3900-4400-5800-10200-5800-17400v-500zm7900 900c0 5100 1200 9200 3600 12400 2400 3100 5600 4600 9600 4600s7200-1600 9600-4700c2300-3200 3500-7600 3500-13300 0-5000-1200-9200-3600-12300-2400-3200-5600-4700-9600-4700-3900 0-7100 1500-9500 4600s-3600 7600-3600 13400z"/><path id="2" class="fil2" d="M305300 1863300c-3000 3600-7600 5400-13500 5400-5000 0-8700-1400-11300-4300s-3900-7100-3900-12700v-30100h7900v29800c0 7000 2800 10500 8600 10500 6000 0 10000-2200 12000-6700v-33600h7900v46200h-7500l-200-4500z"/><path id="3" class="fil2" d="M347400 1828600c-1200-200-2500-300-3900-300-5200 0-8700 2200-10500 6600v32900h-7900v-46200h7700l100 5300c2600-4100 6300-6200 11000-6200 1600 0 2700 200 3500 600v7300z"/><path id="4" class="fil2" d="M372500 1862200c2800 0 5300-800 7400-2500 2100-1800 3300-3900 3500-6500h7500c-200 2700-1100 5200-2800 7600s-3900 4300-6700 5800c-2800 1400-5800 2100-8900 2100-6300 0-11400-2100-15100-6300s-5600-10000-5600-17300v-1300c0-4500 900-8500 2500-12000 1700-3500 4100-6300 7200-8200 3000-2000 6700-2900 10900-2900 5200 0 9500 1500 13000 4600 3400 3100 5200 7200 5500 12100h-7500c-200-2900-1400-5400-3400-7300-2100-2000-4600-2900-7600-2900-4000 0-7100 1400-9300 4300s-3300 7100-3300 12600v1500c0 5300 1000 9400 3300 12300 2100 2900 5300 4300 9400 4300z"/><path id="5" class="fil2" d="M419000 1868700c-6300 0-11400-2100-15300-6200s-5900-9600-5900-16500v-1500c0-4600 900-8700 2600-12300 1800-3600 4200-6400 7400-8500 3100-2000 6600-3000 10200-3000 6000 0 10700 2000 14100 5900 3300 4000 5000 9700 5000 17100v3300h-31400c100 4500 1400 8200 4000 11000s5800 4200 9700 4200c2800 0 5200-600 7100-1700 2000-1100 3700-2600 5100-4500l4900 3800c-3900 5900-9700 8900-17500 8900zm-1000-41500c-3200 0-5800 1100-8000 3500-2200 2300-3500 5600-4000 9800h23200v-600c-300-4100-1400-7200-3300-9400s-4600-3300-7900-3300z"/><path id="6" class="fil2" d="M515000 1848100c-800 6600-3200 11600-7300 15200s-9500 5400-16300 5400c-7400 0-13300-2600-17700-7900-4500-5300-6700-12400-6700-21200v-6000c0-5800 1000-10900 3100-15300s5000-7800 8800-10100c3800-2400 8200-3600 13200-3600 6600 0 11900 1900 15900 5600s6300 8800 7000 15300h-8300c-700-5000-2200-8500-4600-10800-2400-2200-5700-3300-10000-3300-5300 0-9400 1900-12400 5800-2900 3900-4400 9400-4400 16600v6000c0 6800 1400 12200 4200 16200s6800 5900 11900 5900c4500 0 8000-1000 10500-3000 2400-2100 4000-5700 4800-10800h8300z"/><path id="7" class="fil2" d="M522800 1844300c0-4600 900-8700 2700-12300s4300-6400 7500-8400c3100-1900 6800-2900 10800-2900 6300 0 11400 2200 15300 6500 3900 4400 5900 10200 5900 17400v600c0 4500-900 8600-2600 12100-1700 3600-4200 6400-7400 8400s-6900 3000-11100 3000c-6300 0-11300-2200-15200-6500-3900-4400-5900-10200-5900-17400v-500zm8000 900c0 5100 1200 9200 3600 12400 2300 3100 5500 4600 9500 4600s7200-1600 9600-4700c2400-3200 3500-7600 3500-13300 0-5000-1100-9200-3600-12300-2400-3200-5600-4700-9600-4700-3900 0-7000 1500-9400 4600s-3600 7600-3600 13400z"/><path id="8" class="fil2" d="M573000 1844300c0-7100 1700-12800 5000-17100 3400-4400 7800-6500 13300-6500 5400 0 9700 1800 12800 5500v-24100h8000v65700h-7300l-400-4900c-3200 3900-7600 5800-13200 5800-5400 0-9800-2200-13100-6600-3400-4400-5100-10100-5100-17200v-600zm7900 900c0 5200 1100 9300 3300 12300 2100 3000 5100 4400 8900 4400 5100 0 8700-2200 11000-6700v-21200c-2300-4400-6000-6600-10900-6600-3800 0-6900 1500-9000 4500-2200 3000-3300 7400-3300 13300z"/><path id="9" class="fil2" d="M643600 1868700c-6300 0-11400-2100-15400-6200-3900-4100-5900-9600-5900-16500v-1500c0-4600 900-8700 2700-12300 1700-3600 4200-6400 7300-8500 3200-2000 6600-3000 10300-3000 6000 0 10700 2000 14000 5900 3300 4000 5000 9700 5000 17100v3300h-31400c200 4500 1500 8200 4100 11000 2500 2800 5700 4200 9700 4200 2800 0 5100-600 7100-1700 1900-1100 3600-2600 5100-4500l4800 3800c-3900 5900-9700 8900-17400 8900zm-1000-41500c-3200 0-5900 1100-8100 3500-2100 2300-3500 5600-4000 9800h23200v-600c-200-4100-1300-7200-3300-9400-1900-2200-4500-3300-7800-3300z"/><path id="10" class="fil2" d="M203800 1934400h-14700v25200h-8200v-62300h20600c7000 0 12400 1600 16200 4800s5700 7900 5700 14000c0 3800-1100 7200-3200 10100s-5000 5100-8700 6500l14600 26400v500h-8800l-13500-25200zm-14700-6700h12700c4000 0 7300-1000 9700-3200 2400-2100 3600-4900 3600-8500 0-3800-1100-6800-3400-8800-2300-2100-5600-3100-10000-3200h-12600v23700z"/><path id="11" class="fil2" d="M252800 1960500c-6200 0-11300-2100-15300-6200-3900-4100-5900-9600-5900-16500v-1500c0-4600 900-8700 2600-12300 1800-3600 4200-6400 7400-8500 3200-2000 6600-3000 10300-3000 6000 0 10600 1900 14000 5900 3300 4000 5000 9700 5000 17000v3300h-31400c100 4600 1500 8300 4000 11100 2600 2800 5800 4200 9800 4200 2800 0 5100-600 7100-1700 1900-1200 3600-2700 5100-4500l4800 3700c-3900 6000-9700 9000-17500 9000zm-900-41600c-3200 0-5900 1200-8100 3500-2200 2400-3500 5700-4000 9900h23200v-600c-300-4100-1300-7200-3300-9400-1900-2300-4500-3400-7800-3400z"/><path id="12" class="fil2" d="M319200 1937000c0 7000-1700 12700-4900 17000s-7600 6500-13100 6500c-5600 0-10000-1800-13200-5400v22300h-8000v-64100h7300l400 5100c3200-3900 7700-5900 13400-5900 5600 0 10000 2100 13200 6200 3200 4200 4900 10100 4900 17500v800zm-8000-900c0-5200-1100-9300-3300-12400-2200-3000-5300-4500-9200-4500-4800 0-8300 2100-10700 6400v22100c2300 4200 5900 6300 10800 6300 3800 0 6800-1500 9100-4500 2200-3000 3300-7500 3300-13400z"/><path id="13" class="fil2" d="M327100 1936000c0-4500 900-8600 2700-12200s4200-6400 7400-8400 6800-2900 10900-2900c6300 0 11400 2100 15300 6500s5800 10200 5800 17400v600c0 4500-800 8500-2600 12100-1700 3600-4100 6400-7400 8400-3200 2000-6900 3000-11000 3000-6300 0-11400-2200-15300-6600-3900-4300-5800-10100-5800-17300v-600zm8000 1000c0 5100 1100 9200 3500 12300s5600 4700 9600 4700 7200-1600 9600-4700c2300-3200 3500-7600 3500-13300 0-5100-1200-9200-3600-12300-2400-3200-5600-4800-9600-4800-3900 0-7100 1600-9500 4700-2300 3100-3500 7600-3500 13400z"/><path id="14" class="fil2" d="M406100 1947300c0-2100-700-3800-2400-4900-1600-1200-4400-2300-8400-3100-4000-900-7200-1900-9500-3100-2400-1200-4100-2600-5200-4300-1200-1600-1700-3600-1700-5900 0-3800 1600-7000 4800-9600s7300-3900 12300-3900c5200 0 9500 1300 12700 4000 3300 2700 4900 6200 4900 10400h-7900c0-2200-900-4000-2800-5600-1800-1600-4100-2400-6900-2400-2900 0-5200 700-6800 1900-1600 1300-2400 2900-2400 4900s700 3400 2200 4400c1600 900 4300 1900 8200 2700 4000 900 7200 2000 9600 3200 2500 1200 4300 2700 5500 4500 1200 1700 1800 3800 1800 6300 0 4100-1700 7400-5000 9900s-7600 3800-12900 3800c-3700 0-7000-700-9800-2000-2900-1300-5100-3100-6700-5500-1600-2300-2400-4900-2400-7600h7900c100 2600 1200 4700 3200 6300 2000 1500 4600 2300 7800 2300 3000 0 5400-600 7200-1800s2700-2900 2700-4900z"/><path id="15" class="fil2" d="M433000 1959600h-7900v-46300h7900v46300zm-8600-58600c0-1300 400-2400 1200-3300 800-800 2000-1300 3500-1300s2700 500 3500 1300c800 900 1200 2000 1200 3300s-400 2400-1200 3300c-800 800-2000 1200-3500 1200s-2700-400-3500-1200c-800-900-1200-2000-1200-3300z"/><path id="16" class="fil2" d="M456400 1902100v11200h8600v6200h-8600v28700c0 1800 400 3200 1100 4100 800 1000 2100 1400 4000 1400 900 0 2200-100 3700-500v6400c-2000 600-4100 900-6000 900-3600 0-6200-1100-8000-3200-1800-2200-2700-5200-2700-9100v-28700h-8500v-6200h8500v-11200h7900z"/><path id="17" class="fil2" d="M471300 1936000c0-4500 900-8600 2700-12200 1700-3600 4200-6400 7400-8400s6800-2900 10900-2900c6300 0 11400 2100 15300 6500s5800 10200 5800 17400v600c0 4500-800 8500-2600 12100-1700 3600-4200 6400-7400 8400s-6900 3000-11000 3000c-6300 0-11400-2200-15300-6600-3900-4300-5800-10100-5800-17300v-600zm7900 1000c0 5100 1200 9200 3600 12300s5600 4700 9600 4700 7200-1600 9600-4700c2300-3200 3500-7600 3500-13300 0-5100-1200-9200-3600-12300-2400-3200-5600-4800-9600-4800-3900 0-7100 1600-9500 4700s-3600 7600-3600 13400z"/><path id="18" class="fil2" d="M545700 1920400c-1200-200-2500-300-3900-300-5200 0-8700 2200-10500 6600v32900h-7900v-46300h7700l100 5400c2600-4200 6300-6200 11000-6200 1600 0 2700 200 3500 600v7300z"/><path id="19" class="fil2" d="M561600 1959600h-7900v-46300h7900v46300zm-8500-58600c0-1300 400-2400 1100-3300 800-800 2000-1300 3500-1300 1600 0 2800 500 3500 1300 800 900 1200 2000 1200 3300s-400 2400-1200 3300c-700 800-1900 1200-3500 1200-1500 0-2700-400-3500-1200-700-900-1100-2000-1100-3300z"/><path id="20" class="fil2" d="M593500 1960500c-6300 0-11400-2100-15300-6200s-5900-9600-5900-16500v-1500c0-4600 900-8700 2600-12300 1800-3600 4200-6400 7400-8500 3100-2000 6500-3000 10200-3000 6000 0 10700 1900 14100 5900 3300 4000 5000 9700 5000 17000v3300h-31400c100 4600 1400 8300 4000 11100s5800 4200 9700 4200c2800 0 5200-600 7100-1700 2000-1200 3700-2700 5100-4500l4900 3700c-3900 6000-9700 9000-17500 9000zm-1000-41600c-3200 0-5900 1200-8000 3500-2200 2400-3500 5700-4000 9900h23200v-600c-300-4100-1400-7200-3300-9400-2000-2300-4600-3400-7900-3400z"/><path id="21" class="fil2" d="M647700 1947300c0-2100-800-3800-2400-4900-1600-1200-4400-2300-8500-3100-4000-900-7100-1900-9500-3100s-4100-2600-5200-4300c-1200-1600-1700-3600-1700-5900 0-3800 1600-7000 4800-9600s7300-3900 12300-3900c5200 0 9500 1300 12800 4000 3200 2700 4900 6200 4900 10400h-8000c0-2200-900-4000-2700-5600-1900-1600-4200-2400-7000-2400-2900 0-5100 700-6800 1900-1600 1300-2400 2900-2400 4900s800 3400 2300 4400c1500 900 4200 1900 8200 2700 3900 900 7100 2000 9600 3200 2400 1200 4200 2700 5400 4500 1200 1700 1800 3800 1800 6300 0 4100-1700 7400-5000 9900s-7600 3800-12800 3800c-3800 0-7000-700-9900-2000-2800-1300-5100-3100-6700-5500-1600-2300-2400-4900-2400-7600h7900c200 2600 1200 4700 3200 6300 2000 1500 4600 2300 7900 2300 2900 0 5400-600 7200-1800s2700-2900 2700-4900z"/><g id="_1506023973280"><rect class="fil4 str0" transform="rotate(45 -1010069.347 1010890.99) scale(.92296)" width="544800" height="544800" rx="55100" ry="55100"/><path class="fil0 str0" d="M337000 1092300l249400 249400M461700 1217000v280100"/></g><path class="fil5" d="M3006800 1377800h-24200v65700h-16200v-65700h-23900v-13200h64300z"/><path id="1" class="fil5" d="M3041200 1364600l20200 57200 20200-57200h21400v78900h-16400v-21600l1700-37200-21300 58800h-11200l-21200-58700 1600 37100v21600h-16300v-78900z"/><path class="fil2" d="M940400 1145100c1000-6600 2700-13000 5300-19300 2500-6200 5700-11500 9400-15900s7800-7800 12400-10000l1100 5300c-4500 3300-8300 7700-11500 13000-3200 5400-5700 11800-7400 19200-1800 7400-2600 14700-2600 21900 0 5900 800 11100 2300 15600 1600 4500 3800 8000 6600 10600l-1900 4800c-4700-3300-8400-8200-10900-14700-2500-6400-3700-13900-3400-22200 0-2700 200-5400 600-7800v-500z"/><path id="1" class="fil2" d="M990100 1170200h-7800l9200-52500-16600 5800 1300-7500 23100-8300h1400z"/><path id="2" class="fil2" d="M1035800 1145200c-1000 7000-2800 13600-5400 19800s-5800 11400-9400 15700c-3700 4200-7800 7500-12200 9700l-1200-4900c9800-7400 16300-19200 19600-35500 1300-6500 1900-12900 1900-18900-200-12300-3100-21000-9000-26300l2100-4800c3200 2200 5900 5100 8100 8800s3800 8000 4800 12900c1100 4900 1600 10000 1400 15200 0 2800-300 5400-600 7900l-100 400z"/><path id="3" class="fil6" d="M1110500 1147500c0 7200-1600 12900-4800 17200-3300 4300-7600 6400-13100 6400-4700 0-8500-1600-11400-4900v21800h-12300v-64000h11400l500 4500c2900-3600 6900-5400 11700-5400 5700 0 10100 2100 13300 6300 3100 4300 4700 10100 4700 17500v600zm-12300-900c0-4300-800-7700-2300-10000s-3800-3500-6700-3500c-3900 0-6500 1500-8000 4400v19000c1500 3100 4200 4600 8100 4600 5900 0 8900-4800 8900-14500z"/><path id="4" class="fil6" d="M1145900 1165600c-3000 3700-7200 5500-12600 5500-5000 0-8800-1400-11400-4300-2600-2800-3900-7000-4000-12500v-30300h12400v29900c0 4800 2200 7200 6600 7200 4200 0 7000-1400 8600-4300v-32800h12400v46200h-11600l-400-4600z"/><path id="5" class="fil6" d="M1180300 1170200h-12400v-65700h12400z"/><path id="6" class="fil6" d="M1203500 1170200h-12400v-65700h12400z"/><path class="fil2" d="M944400 1559400c900-6600 2700-13000 5200-19200 2600-6300 5700-11600 9400-16000s7900-7800 12400-10000l1200 5300c-4500 3300-8300 7700-11500 13100-3300 5300-5700 11700-7500 19100-1700 7400-2500 14700-2500 21900 0 5900 800 11100 2300 15600s3700 8000 6600 10600l-1900 4800c-4800-3300-8400-8200-11000-14700-2500-6400-3600-13800-3400-22200 100-2700 300-5300 600-7800l100-500z"/><path id="1" class="fil2" d="M977600 1553200l7900-30900h31100l-1200 7300h-24400l-4800 17000c3200-1800 6500-2800 10200-2700 5200 100 9100 2000 11900 5800 2800 3900 3900 8800 3400 14700-600 6400-2800 11500-6800 15400s-9000 5800-15000 5600c-4900 0-8900-1600-12000-4800-3000-3100-4600-7300-4800-12500h7200c200 3400 1200 6100 2900 7900 1800 1900 4100 2900 7100 3000 3600 100 6700-1200 9200-3900s4000-6300 4400-10700c400-3800-200-7000-2000-9500-1700-2500-4300-3800-7600-3900-2100-100-4000 300-5600 900-1600 700-3200 1700-4800 3000l-6300-1700z"/><path id="2" class="fil2" d="M1039800 1559500c-1000 7000-2800 13600-5500 19800-2600 6200-5700 11400-9400 15700s-7700 7500-12200 9700l-1200-4900c9800-7400 16300-19200 19600-35500 1300-6500 2000-12800 1900-18900-100-12200-3100-21000-8900-26300l2000-4800c3200 2200 5900 5200 8100 8900s3900 8000 4900 12800c1100 4900 1500 10000 1400 15200-100 2800-300 5400-600 7900l-100 400z"/><path id="3" class="fil6" d="M1114500 1561900c0 7100-1600 12800-4900 17100-3200 4300-7600 6400-13100 6400-4700 0-8400-1600-11300-4800v21800h-12400v-64100h11500l400 4500c3000-3600 6900-5400 11700-5400 5700 0 10200 2100 13300 6400 3200 4200 4800 10000 4800 17400v700zm-12400-1000c0-4300-700-7600-2300-10000-1500-2300-3700-3500-6600-3500-3900 0-6600 1500-8000 4500v19000c1500 3000 4200 4600 8100 4600 5900 0 8800-4900 8800-14600z"/><path id="4" class="fil6" d="M1149900 1579900c-3100 3700-7300 5500-12700 5500-4900 0-8700-1400-11300-4200-2600-2900-4000-7100-4000-12600v-30300h12300v29900c0 4800 2200 7300 6600 7300 4200 0 7100-1500 8700-4400v-32800h12400v46300h-11700l-300-4700z"/><path id="5" class="fil6" d="M1196200 1571800c0-1500-700-2700-2200-3600s-3900-1600-7200-2300c-11000-2300-16500-7000-16500-14100 0-4100 1700-7500 5100-10200 3400-2800 7800-4200 13400-4200 5800 0 10500 1400 14000 4200 3600 2700 5300 6300 5300 10800h-12300c0-1800-600-3300-1700-4400-1200-1200-3000-1700-5400-1700-2100 0-3700 400-4800 1400-1200 900-1700 2100-1700 3600 0 1300 600 2400 1900 3300 1300 800 3500 1500 6600 2100 3100 700 5600 1400 7800 2100 6500 2400 9800 6600 9800 12500 0 4200-1800 7600-5500 10200-3600 2600-8300 3900-14000 3900-3900 0-7300-600-10300-2000-3100-1400-5400-3300-7100-5700s-2600-5000-2600-7800h11700c100 2200 1000 3800 2500 5000s3500 1800 6000 1800c2400 0 4200-500 5400-1400s1800-2100 1800-3500z"/><path id="6" class="fil6" d="M1228300 1543300c3300-3900 7400-5900 12400-5900 10000 0 15100 5800 15300 17500v29700h-12400v-29400c0-2700-600-4600-1700-5900-1200-1200-3100-1900-5700-1900-3600 0-6300 1400-7900 4200v33000h-12400v-65800h12400v24500z"/><path class="fil2" d="M2292900 1145100c1000-6600 2800-13000 5300-19300 2500-6200 5700-11500 9400-15900s7800-7800 12400-10000l1100 5300c-4400 3300-8300 7700-11500 13000-3200 5400-5700 11800-7400 19200s-2600 14700-2500 21900c0 5900 700 11100 2300 15600 1500 4500 3700 8000 6600 10600l-2000 4800c-4700-3300-8400-8200-10900-14700-2500-6400-3700-13900-3400-22200 0-2700 200-5400 600-7800v-500z"/><path id="1" class="fil2" d="M2334600 1135300h5100c3800 0 6900-1000 9500-3000 2600-1900 4100-4600 4500-8000 300-3300-300-5900-1900-7800s-3900-2900-7000-3000c-3200 0-6000 900-8200 2900-2300 1900-3700 4600-4200 7900h-7700c500-5100 2700-9300 6600-12500s8500-4800 13900-4700c5300 100 9400 1700 12300 4900 3000 3100 4300 7300 3900 12500-200 2900-1400 5600-3400 8000s-4700 4400-8300 6000c2900 1200 5000 3000 6400 5400 1400 2500 1900 5400 1700 8700-400 5600-2700 10100-6700 13600-4000 3400-8900 5000-14600 4900-5300-100-9600-1700-12700-4900-3200-3200-4700-7400-4500-12400h7800c-200 3200 600 5800 2300 7700 1700 2000 4200 3000 7400 3100 3700 100 6700-900 9200-3100 2400-2200 3800-5100 4100-8800 300-3400-400-6000-2300-7900s-4600-2900-8300-3000h-5900l1000-6500z"/><path id="2" class="fil2" d="M2372000 1161300c1300 0 2500 400 3400 1300s1400 2000 1300 3400c0 1400-400 2500-1400 3400-900 900-2000 1300-3400 1400-1400 0-2500-400-3400-1200-900-900-1300-2000-1300-3300 0-1400 400-2600 1300-3500 900-1000 2100-1400 3500-1500z"/><path id="3" class="fil2" d="M2413600 1170200h-7800l9200-52500-16600 5800 1300-7500 23100-8300h1400z"/><path id="4" class="fil2" d="M2459300 1145200c-1000 7000-2800 13600-5400 19800s-5800 11400-9400 15700c-3700 4200-7800 7500-12200 9700l-1200-4900c9800-7400 16300-19200 19600-35500 1300-6500 1900-12900 1900-18900-200-12300-3100-21000-8900-26300l2000-4800c3200 2200 5900 5100 8100 8800s3800 8000 4900 12900c1000 4900 1500 10000 1400 15200-100 2800-300 5400-700 7900l-100 400z"/><path class="fil2" d="M3597500 1145100c1000-6600 2800-13000 5300-19300 2500-6200 5700-11500 9400-15900s7800-7800 12400-10000l1200 5300c-4500 3300-8400 7700-11600 13000-3200 5400-5700 11800-7400 19200s-2600 14700-2500 21900c0 5900 700 11100 2300 15600 1500 4500 3700 8000 6600 10600l-2000 4800c-4700-3300-8400-8200-10900-14700-2500-6400-3700-13900-3400-22200 0-2700 200-5400 600-7800v-500z"/><path id="1" class="fil2" d="M3639200 1135300h5100c3800 0 6900-1000 9500-3000 2600-1900 4100-4600 4500-8000 300-3300-300-5900-1900-7800s-3900-2900-7000-3000c-3200 0-6000 900-8200 2900-2300 1900-3700 4600-4200 7900h-7700c500-5100 2700-9300 6600-12500s8500-4800 13900-4700c5300 100 9400 1700 12300 4900 3000 3100 4300 7300 3900 12500-200 2900-1400 5600-3400 8000s-4700 4400-8300 6000c2900 1200 5000 3000 6400 5400 1400 2500 1900 5400 1700 8700-400 5600-2700 10100-6700 13600-4000 3400-8900 5000-14600 4900-5300-100-9600-1700-12700-4900-3200-3200-4700-7400-4500-12400h7800c-200 3200 600 5800 2300 7700 1700 2000 4200 3000 7400 3100 3700 100 6700-900 9200-3100 2400-2200 3800-5100 4100-8800 300-3400-400-6000-2300-7900s-4600-2900-8300-3000h-5900l1000-6500z"/><path id="2" class="fil2" d="M3676600 1161300c1300 0 2500 400 3400 1300s1400 2000 1300 3400c0 1400-400 2500-1400 3400-900 900-2000 1300-3400 1400-1400 0-2500-400-3400-1200-800-900-1300-2000-1300-3300 0-1400 500-2600 1300-3500 900-1000 2100-1400 3500-1500z"/><path id="3" class="fil2" d="M3710200 1135300h5100c3800 0 6900-1000 9500-3000 2600-1900 4100-4600 4500-8000 300-3300-300-5900-1900-7800s-3900-2900-7000-3000c-3200 0-6000 900-8200 2900-2300 1900-3700 4600-4200 7900h-7700c500-5100 2700-9300 6600-12500s8500-4800 13900-4700c5200 100 9300 1700 12300 4900 3000 3100 4300 7300 3900 12500-300 2900-1400 5600-3400 8000s-4700 4400-8300 6000c2800 1200 4900 3000 6400 5400 1400 2500 1900 5400 1700 8700-500 5600-2700 10100-6700 13600-4000 3400-8900 5000-14600 4900-5300-100-9600-1700-12800-4900-3100-3200-4600-7400-4400-12400h7800c-200 3200 600 5800 2300 7700 1700 2000 4200 3000 7400 3100 3700 100 6700-900 9200-3100 2400-2200 3800-5100 4100-8800 300-3400-400-6000-2300-7900s-4600-2900-8300-3000h-6000l1100-6500z"/><path id="4" class="fil2" d="M3763900 1145200c-1000 7000-2800 13600-5400 19800s-5800 11400-9400 15700c-3700 4200-7800 7500-12200 9700l-1200-4900c9800-7400 16300-19200 19600-35500 1300-6500 1900-12900 1900-18900-200-12300-3100-21000-8900-26300l2000-4800c3200 2200 5900 5100 8100 8800s3800 8000 4900 12900c1000 4900 1500 10000 1400 15200-100 2800-300 5400-700 7900l-100 400z"/><path class="fil2" d="M4707300 1145100c1000-6600 2700-13000 5200-19300 2600-6200 5700-11500 9400-15900 3800-4400 7900-7800 12500-10000l1100 5300c-4500 3300-8300 7700-11500 13000-3200 5400-5700 11800-7400 19200-1800 7400-2600 14700-2600 21900 0 5900 800 11100 2300 15600s3800 8000 6600 10600l-1900 4800c-4800-3300-8400-8200-10900-14700-2500-6400-3700-13900-3500-22200 100-2700 300-5400 600-7800l100-500z"/><path id="1" class="fil2" d="M4767800 1149300h8400l-1200 6500h-8300l-2500 14400h-7800l2500-14400h-27600l900-5100 34300-42800h8400l-7100 41400zm-26300 0h18500l5600-30600-1300 1800-22800 28800z"/><path id="2" class="fil2" d="M4802700 1145200c-1000 7000-2800 13600-5400 19800-2700 6200-5800 11400-9500 15700-3600 4200-7700 7500-12100 9700l-1200-4900c9700-7400 16300-19200 19600-35500 1300-6500 1900-12900 1800-18900-100-12300-3100-21000-8900-26300l2000-4800c3200 2200 5900 5100 8100 8800 2300 3700 3900 8000 4900 12900 1100 4900 1500 10000 1400 15200-100 2800-300 5400-600 7900l-100 400z"/><path id="3" class="fil6" d="M4877400 1147500c0 7200-1600 12900-4800 17200-3300 4300-7700 6400-13200 6400-4600 0-8400-1600-11300-4900v21800h-12400v-64000h11500l400 4500c3000-3600 6900-5400 11800-5400 5700 0 10100 2100 13300 6300 3100 4300 4700 10100 4700 17500v600zm-12400-900c0-4300-700-7700-2200-10000-1600-2300-3800-3500-6700-3500-3900 0-6500 1500-8000 4400v19000c1500 3100 4200 4600 8100 4600 5900 0 8800-4800 8800-14500z"/><path id="4" class="fil6" d="M4912800 1165600c-3000 3700-7300 5500-12600 5500-5000 0-8800-1400-11400-4300-2600-2800-4000-7000-4000-12500v-30300h12400v29900c0 4800 2200 7200 6500 7200 4200 0 7100-1400 8700-4300v-32800h12400v46200h-11600l-400-4600z"/><path id="5" class="fil6" d="M4959200 1157500c0-1500-800-2700-2300-3600s-3900-1700-7200-2300c-11000-2300-16500-7000-16500-14100 0-4100 1700-7500 5100-10300 3400-2700 7900-4100 13400-4100 5800 0 10500 1400 14100 4100 3500 2800 5300 6400 5300 10800h-12400c0-1700-600-3200-1700-4300-1200-1200-2900-1800-5400-1800-2100 0-3700 500-4800 1400-1100 1000-1700 2200-1700 3600s600 2500 1900 3300c1300 900 3500 1600 6600 2200s5700 1300 7800 2100c6500 2400 9800 6500 9800 12400 0 4300-1800 7700-5400 10300-3700 2600-8400 3900-14100 3900-3900 0-7300-700-10300-2100-3000-1300-5400-3200-7100-5700-1700-2400-2600-5000-2600-7800h11800c100 2200 900 3900 2400 5100s3500 1800 6100 1800c2300 0 4100-500 5300-1400 1300-900 1900-2100 1900-3500z"/><path id="6" class="fil6" d="M4991200 1129000c3300-3900 7400-5900 12400-5900 10000 0 15100 5800 15300 17500v29600h-12400v-29300c0-2700-600-4600-1700-5900s-3000-1900-5700-1900c-3600 0-6200 1400-7900 4200v32900h-12300v-65700h12300v24500z"/><path id="7" class="fil6" d="M5052200 1148600h-24100v-10000h24100z"/><path id="8" class="fil6" d="M5077000 1112600v11400h7900v9100h-7900v23100c0 1700 300 2900 900 3600 700 800 2000 1200 3800 1200 1400 0 2600-200 3700-300v9300c-2500 800-5000 1100-7500 1100-8700 0-13100-4400-13300-13100v-24900h-6800v-9100h6800v-11400h12400z"/><path id="9" class="fil6" d="M5116800 1157500c0-1500-700-2700-2200-3600s-3900-1700-7200-2300c-11100-2300-16600-7000-16600-14100 0-4100 1800-7500 5200-10300 3400-2700 7800-4100 13300-4100 5900 0 10600 1400 14100 4100 3500 2800 5300 6400 5300 10800h-12400c0-1700-500-3200-1700-4300-1100-1200-2900-1800-5300-1800-2100 0-3700 500-4800 1400-1200 1000-1800 2200-1800 3600s700 2500 2000 3300c1300 900 3500 1600 6600 2200 3000 600 5600 1300 7700 2100 6600 2400 9800 6500 9800 12400 0 4300-1800 7700-5400 10300s-8300 3900-14000 3900c-3900 0-7400-700-10400-2100-3000-1300-5300-3200-7100-5700-1700-2400-2500-5000-2500-7800h11700c100 2200 900 3900 2400 5100 1600 1200 3600 1800 6100 1800 2400 0 4200-500 5400-1400s1800-2100 1800-3500z"/><path class="fil2" d="M2292800 1559400c900-6600 2700-13000 5200-19200 2600-6300 5700-11600 9400-16000s7900-7800 12400-10000l1200 5300c-4500 3300-8300 7700-11500 13100-3300 5300-5700 11700-7500 19100-1700 7400-2500 14700-2500 21900 0 5900 800 11100 2300 15600s3700 8000 6600 10600l-1900 4800c-4800-3300-8400-8200-11000-14700-2500-6400-3600-13800-3400-22200 100-2700 300-5300 600-7800l100-500z"/><path id="1" class="fil2" d="M2334400 1549600h5100c3800 0 7000-1000 9600-2900 2500-2000 4000-4700 4400-8100 400-3300-300-5900-1800-7800-1600-1900-4000-2900-7000-2900-3300-100-6000 900-8300 2800-2300 2000-3700 4600-4200 7900h-7600c500-5100 2600-9300 6500-12500s8600-4800 14000-4700c5200 100 9300 1700 12300 4900 2900 3100 4200 7300 3800 12500-200 2900-1300 5600-3300 8000-2000 2500-4800 4500-8400 6100 2900 1100 5000 2900 6400 5400 1400 2400 2000 5300 1700 8600-400 5600-2600 10200-6600 13600-4100 3400-8900 5100-14700 4900-5300-100-9500-1700-12700-4900s-4600-7300-4400-12400h7700c-100 3200 600 5800 2300 7800 1700 1900 4200 2900 7500 3100 3600 100 6700-1000 9100-3200 2400-2100 3800-5100 4100-8700 300-3400-400-6100-2300-8000-1800-1900-4600-2900-8300-3000h-5900l1000-6500z"/><path id="2" class="fil2" d="M2371800 1575600c1400 0 2500 400 3500 1300 900 900 1300 2000 1300 3400s-500 2500-1400 3400-2100 1300-3400 1400c-1400 0-2500-300-3400-1200-900-800-1400-1900-1400-3300s500-2600 1400-3500 2000-1400 3400-1500z"/><path id="3" class="fil2" d="M2424300 1563600h8400l-1200 6500h-8300l-2600 14500h-7800l2600-14500h-27600l900-5100 34200-42700h8500l-7100 41300zm-26300 0h18500l5500-30600-1200 1800-22800 28800z"/><path id="4" class="fil2" d="M2459200 1559500c-1000 7000-2800 13600-5500 19800-2600 6200-5700 11400-9400 15700s-7700 7500-12200 9700l-1200-4900c9800-7400 16300-19200 19600-35500 1300-6500 2000-12800 1900-18900-100-12200-3100-21000-8900-26300l2000-4800c3200 2200 5900 5200 8100 8900s3900 8000 4900 12800c1100 4900 1500 10000 1400 15200-100 2800-300 5400-600 7900l-100 400z"/><path class="fil2" d="M3597800 1559400c1000-6600 2700-13000 5300-19200 2500-6300 5600-11600 9300-16000 3800-4400 7900-7800 12500-10000l1100 5300c-4500 3300-8300 7700-11500 13100-3200 5300-5700 11700-7400 19100-1800 7400-2600 14700-2600 21900 0 5900 800 11100 2300 15600 1600 4500 3800 8000 6600 10600l-1900 4800c-4800-3300-8400-8200-10900-14700-2500-6400-3700-13800-3500-22200 100-2700 300-5300 600-7800l100-500z"/><path id="1" class="fil2" d="M3639400 1549600h5200c3700 0 6900-1000 9500-2900 2600-2000 4100-4700 4400-8100 400-3300-200-5900-1800-7800s-3900-2900-7000-2900c-3200-100-6000 900-8300 2800-2200 2000-3600 4600-4100 7900h-7700c500-5100 2700-9300 6600-12500s8500-4800 13900-4700c5200 100 9300 1700 12300 4900 3000 3100 4300 7300 3900 12500-300 2900-1400 5600-3400 8000-2000 2500-4800 4500-8300 6100 2800 1100 4900 2900 6300 5400 1400 2400 2000 5300 1800 8600-500 5600-2700 10200-6700 13600s-8900 5100-14600 4900c-5400-100-9600-1700-12800-4900s-4600-7300-4400-12400h7800c-200 3200 600 5800 2300 7800 1700 1900 4200 2900 7400 3100 3700 100 6700-1000 9100-3200 2500-2100 3800-5100 4200-8700 300-3400-500-6100-2300-8000-1900-1900-4700-2900-8300-3000h-6000l1000-6500z"/><path id="2" class="fil2" d="M3676800 1575600c1400 0 2600 400 3500 1300s1300 2000 1300 3400-500 2500-1400 3400-2100 1300-3400 1400c-1400 0-2500-300-3400-1200-900-800-1300-1900-1300-3300s400-2600 1300-3500 2000-1400 3400-1500z"/><path id="3" class="fil2" d="M3733300 1584600h-39700l1000-6100 22900-22300 4200-4200c4900-4800 7500-9200 8000-13300 400-3100-200-5700-1800-7700s-3900-3000-6800-3100c-3700-100-6800 900-9300 3200-2600 2300-4100 5500-4600 9400l-7700 100c400-3800 1600-7200 3600-10200 1900-2900 4500-5200 7800-6800 3200-1600 6700-2300 10500-2200 5200 100 9300 1700 12300 4700 3100 3000 4400 6900 4000 11700-500 5400-3700 11200-9500 17300l-3900 3900-20100 19100h30100l-1000 6500z"/><path id="4" class="fil2" d="M3764200 1559500c-1000 7000-2800 13600-5400 19800-2700 6200-5800 11400-9500 15700-3600 4300-7700 7500-12100 9700l-1200-4900c9700-7400 16300-19200 19600-35500 1300-6500 1900-12800 1800-18900-100-12200-3100-21000-8900-26300l2000-4800c3200 2200 5900 5200 8100 8900 2300 3700 3900 8000 4900 12800 1100 4900 1500 10000 1400 15200-100 2800-300 5400-600 7900l-100 400z"/><path class="fil2" d="M4856300 1559400c900-6600 2700-13000 5200-19200 2600-6300 5700-11600 9400-16000s7900-7800 12400-10000l1200 5300c-4500 3300-8300 7700-11500 13100-3200 5300-5700 11700-7500 19100-1700 7400-2500 14700-2500 21900 0 5900 800 11100 2300 15600s3700 8000 6600 10600l-1900 4800c-4800-3300-8400-8200-10900-14700-2600-6400-3700-13800-3500-22200 100-2700 300-5300 600-7800l100-500z"/><path id="1" class="fil2" d="M4920800 1584600h-39700l900-6100 23000-22300 4200-4200c4800-4800 7500-9200 8000-13300 400-3100-200-5700-1800-7700s-3900-3000-6800-3100c-3700-100-6800 900-9300 3200-2600 2300-4100 5500-4600 9400l-7700 100c400-3800 1600-7200 3500-10200 2000-2900 4600-5200 7900-6800 3200-1600 6700-2300 10500-2200 5200 100 9300 1700 12300 4700 3100 3000 4400 6900 3900 11700-500 5400-3600 11200-9400 17300l-3900 3900-20100 19100h30100l-1000 6500z"/><path id="2" class="fil2" d="M4951700 1559500c-1000 7000-2800 13600-5400 19800-2700 6200-5800 11400-9500 15700-3600 4300-7700 7500-12200 9700l-1200-4900c9800-7400 16400-19200 19600-35500 1400-6500 2000-12800 1900-18900-100-12200-3100-21000-8900-26300l2000-4800c3200 2200 5900 5200 8100 8900 2300 3700 3900 8000 4900 12800 1100 4900 1500 10000 1400 15200-100 2800-300 5400-600 7900l-100 400z"/><path id="3" class="fil6" d="M5026400 1561900c0 7100-1600 12800-4900 17100-3200 4300-7600 6400-13100 6400-4600 0-8400-1600-11300-4800v21800h-12400v-64100h11500l400 4500c3000-3600 6900-5400 11800-5400 5700 0 10100 2100 13300 6400 3100 4200 4700 10000 4700 17400v700zm-12400-1000c0-4300-700-7600-2300-10000-1500-2300-3700-3500-6600-3500-3900 0-6500 1500-8000 4500v19000c1500 3000 4200 4600 8100 4600 5900 0 8800-4900 8800-14600z"/><path id="4" class="fil6" d="M5061800 1579900c-3000 3700-7300 5500-12700 5500-4900 0-8700-1400-11300-4200-2600-2900-4000-7100-4000-12600v-30300h12300v29900c0 4800 2200 7300 6600 7300 4200 0 7100-1500 8700-4400v-32800h12400v46300h-11700l-300-4700z"/><path id="5" class="fil6" d="M5096100 1584600h-12400v-65800h12400z"/><path id="6" class="fil6" d="M5119400 1584600h-12400v-65800h12400z"/><path id="7" class="fil6" d="M5153600 1562900h-24100v-10000h24100z"/><path id="8" class="fil6" d="M5178300 1526900v11400h8000v9100h-8000v23100c0 1700 400 2900 1000 3700 700 700 1900 1100 3800 1100 1400 0 2600-100 3600-300v9300c-2400 800-4900 1100-7500 1100-8600 0-13100-4300-13200-13100v-24900h-6800v-9100h6800v-11400h12300z"/><path id="9" class="fil6" d="M5218200 1571800c0-1500-800-2700-2200-3600-1600-900-3900-1600-7300-2300-11000-2300-16500-7000-16500-14100 0-4100 1700-7500 5100-10200 3400-2800 7900-4200 13400-4200 5900 0 10600 1400 14100 4200 3500 2700 5300 6300 5300 10800h-12400c0-1800-500-3300-1700-4400-1100-1200-2900-1700-5300-1700-2100 0-3700 400-4900 1400-1100 900-1700 2100-1700 3600 0 1300 700 2400 2000 3300 1300 800 3500 1500 6500 2100 3100 700 5700 1400 7800 2100 6600 2400 9800 6600 9800 12500 0 4200-1800 7600-5400 10200s-8300 3900-14000 3900c-3900 0-7400-600-10400-2000s-5300-3300-7100-5700c-1700-2400-2500-5000-2500-7800h11700c100 2200 900 3800 2400 5000s3600 1800 6100 1800c2400 0 4200-500 5400-1400s1800-2100 1800-3500z"/><g id="_1506023981440"><path class="fil0 str1" d="M3995400 775900c49600 0 89800 40300 89800 89900M3995400 775900h-876500M3029000 686100c0 49600-40200 89800-89800 89800M3029000 686100c0 49600 40300 89800 89900 89800M2939200 775900h-876500M2062700 775900c-49600 0-89900 40300-89900 89900"/></g><path class="fil2" d="M2818400 609700c900-6600 2700-13000 5200-19200 2600-6300 5700-11600 9400-16000s7900-7800 12400-10000l1200 5300c-4500 3300-8300 7700-11500 13100-3200 5300-5700 11700-7500 19100-1700 7400-2500 14700-2500 21900 0 5900 800 11100 2300 15600s3700 8000 6600 10600l-1900 4800c-4800-3300-8400-8200-11000-14700-2500-6400-3600-13800-3400-22200 100-2700 300-5300 600-7800l100-500z"/><path id="1" class="fil2" d="M2860000 599900h5200c3700 0 6900-1000 9500-2900 2500-2000 4000-4700 4400-8100 400-3300-200-5900-1800-7800s-4000-2900-7000-2900c-3300-100-6000 900-8300 2800-2300 2000-3700 4600-4200 7900h-7600c500-5100 2700-9300 6500-12500 3900-3200 8600-4800 14000-4700 5200 100 9300 1700 12300 4900 2900 3100 4200 7300 3800 12500-200 2900-1300 5600-3300 8000s-4800 4500-8300 6000c2800 1200 4900 3000 6300 5500 1400 2400 2000 5300 1700 8600-400 5600-2600 10100-6600 13600-4100 3400-8900 5000-14700 4900-5300-100-9500-1700-12700-4900s-4600-7300-4400-12400h7700c-100 3200 600 5800 2300 7800 1700 1900 4200 2900 7500 3000 3600 200 6700-900 9100-3100s3800-5100 4100-8800c400-3300-400-6000-2300-7900-1800-1900-4600-2900-8300-3000h-5900l1000-6500z"/><path id="2" class="fil2" d="M2913800 609800c-1000 7000-2800 13600-5500 19800-2600 6200-5700 11400-9400 15700-3600 4200-7700 7500-12200 9700l-1200-4900c9800-7400 16400-19200 19600-35500 1400-6500 2000-12900 1900-18900-100-12200-3100-21000-8900-26300l2000-4800c3200 2200 5900 5200 8100 8900 2300 3700 3900 7900 4900 12800 1100 4900 1500 10000 1400 15200-100 2800-300 5400-600 7900l-100 400z"/><path id="3" class="fil6" d="M2959900 634900h-12400v-65800h12400z"/><path id="4" class="fil6" d="M2968100 611300c0-4600 900-8700 2700-12300 1700-3600 4300-6400 7600-8300 3300-2000 7200-3000 11600-3000 6200 0 11300 1900 15300 5800 3900 3800 6100 9000 6600 15500l100 3200c0 7100-2000 12800-6000 17100-3900 4300-9300 6400-15900 6400-6700 0-12000-2100-16000-6400s-6000-10100-6000-17400v-600zm12400 900c0 4400 800 7700 2500 10100 1600 2300 4000 3400 7100 3400 3000 0 5300-1100 7000-3400s2500-6000 2500-11000c0-4300-800-7700-2500-10000-1700-2400-4100-3600-7100-3600s-5400 1200-7000 3500c-1700 2400-2500 6000-2500 11000z"/><path id="5" class="fil6" d="M3038800 625700c2300 0 4200-600 5600-1800 1400-1300 2200-2900 2200-5000h11600c0 3100-900 6000-2600 8600-1600 2600-3900 4600-6900 6100-2900 1400-6100 2100-9600 2100-6700 0-11900-2100-15700-6300s-5700-10000-5700-17400v-800c0-7200 1900-12900 5700-17100 3700-4300 9000-6400 15600-6400 5800 0 10400 1700 13900 4900 3500 3300 5300 7700 5300 13200h-11600c0-2400-800-4300-2200-5800-1400-1600-3300-2300-5600-2300-2900 0-5100 1100-6600 3100-1400 2100-2200 5500-2200 10300v1200c0 4800 800 8200 2200 10300 1500 2100 3700 3100 6600 3100z"/><path id="6" class="fil6" d="M3092100 634900c-500-1200-900-2500-1200-4200-3000 3400-6900 5000-11700 5000-4500 0-8300-1300-11300-3900s-4400-6000-4400-10000c0-4900 1800-8600 5400-11300 3700-2600 8900-3900 15800-3900h5700v-2700c0-2100-600-3800-1700-5100-1100-1200-2800-1900-5200-1900-2000 0-3700 500-4900 1500-1100 1000-1800 2300-1800 4000h-12300c0-2600 800-5100 2500-7400 1600-2300 4000-4000 7000-5300s6400-2000 10200-2000c5700 0 10200 1400 13600 4300 3300 2900 5000 6900 5000 12100v20100c0 4300 600 7700 1800 9900v800h-12500zm-10200-8600c1800 0 3500-400 5100-1200 1500-900 2600-2000 3400-3300v-8000h-4600c-6200 0-9500 2200-9900 6400l-100 800c0 1500 600 2800 1700 3800 1000 1000 2500 1500 4400 1500z"/><path id="7" class="fil6" d="M3125300 634900h-12400v-65800h12400z"/><path id="8" class="fil6" d="M3148600 634900h-12400v-46300h12400v46300zm-13200-58300c0-1800 600-3300 1900-4500 1200-1200 2900-1800 5100-1800 2100 0 3800 600 5000 1800 1300 1200 1900 2700 1900 4500 0 1900-600 3500-1900 4700s-3000 1800-5000 1800c-2100 0-3800-600-5100-1800-1200-1200-1900-2800-1900-4700z"/><path id="9" class="fil6" d="M3173000 624900h22600v10000h-38400v-7600l21800-28700h-21200v-10000h37100v7300z"/><path id="10" class="fil6" d="M3224000 635700c-6800 0-12300-2100-16600-6200-4300-4200-6400-9700-6400-16700v-1200c0-4600 900-8800 2700-12400 1800-3700 4300-6500 7700-8500 3300-2000 7000-3000 11200-3000 6400 0 11300 2000 15000 6000 3600 4000 5400 9700 5400 17000v5100h-29400c400 3000 1600 5400 3600 7200s4500 2700 7600 2700c4800 0 8500-1700 11200-5100l6000 6800c-1800 2600-4300 4700-7500 6100-3100 1500-6700 2200-10500 2200zm-1400-38000c-2500 0-4500 800-6000 2500s-2500 4000-2900 7100h17200v-1000c-100-2700-800-4800-2200-6300-1500-1500-3500-2300-6100-2300z"/><g id="_1506023986272"><path class="fil0 str1" d="M5289300 294200H3118900M3029000 204400c0 49600-40200 89800-89800 89800M3029000 204400c0 49600 40300 89800 89900 89800M2939200 294200H768800M5289300 294200c49600 0 89800 40300 89800 89900M768800 294200c-49600 0-89900 40300-89900 89900"/></g><path class="fil6" d="M2966800 140400c0-1500-800-2700-2300-3600s-3900-1600-7200-2300c-11000-2300-16500-7000-16500-14100 0-4100 1700-7500 5100-10200 3400-2800 7900-4200 13400-4200 5800 0 10600 1400 14100 4200 3500 2700 5300 6300 5300 10800h-12400c0-1800-600-3300-1700-4400-1200-1200-2900-1700-5400-1700-2100 0-3700 400-4800 1400-1100 900-1700 2100-1700 3600 0 1300 600 2400 1900 3300 1300 800 3500 1500 6600 2100 3100 700 5700 1400 7800 2100 6500 2400 9800 6600 9800 12500 0 4200-1800 7600-5400 10200-3700 2600-8400 3900-14100 3900-3900 0-7300-600-10300-2000s-5400-3300-7100-5700-2600-5000-2600-7800h11800c100 2200 900 3800 2400 5000s3500 1800 6100 1800c2300 0 4100-500 5300-1400 1300-900 1900-2100 1900-3500z"/><path id="1" class="fil6" d="M3004000 135700l8600-28800h13300l-18600 53400-1100 2500c-2700 6000-7300 9000-13700 9000-1800 0-3600-300-5400-800v-9400l1800 100c2400 0 4100-400 5300-1100 1100-700 2000-1900 2700-3500l1400-3800-16200-46400h13300l8600 28800z"/><path id="2" class="fil6" d="M3042100 106900l400 5300c3300-4100 7700-6200 13300-6200 4900 0 8600 1500 11000 4300 2400 2900 3600 7200 3600 13000v29900h-12300v-29700c0-2600-600-4500-1700-5700-1200-1200-3100-1800-5700-1800-3500 0-6100 1500-7900 4500v32700h-12300v-46300h11600z"/><path id="3" class="fil6" d="M3099000 144100c2300 0 4200-700 5600-1900 1400-1300 2200-2900 2200-5000h11600c0 3100-800 6000-2500 8600s-4000 4600-7000 6100c-2900 1400-6100 2100-9600 2100-6600 0-11900-2100-15700-6300s-5700-10000-5700-17400v-800c0-7200 1900-12800 5700-17100 3700-4300 9000-6400 15600-6400 5800 0 10400 1700 13900 5000s5300 7600 5300 13100h-11600c0-2400-800-4300-2200-5800s-3300-2300-5600-2300c-2900 0-5100 1100-6600 3100-1400 2200-2200 5600-2200 10300v1200c0 4800 800 8200 2200 10300 1500 2100 3700 3200 6600 3200z"/><g id="_1506023991328"><path class="fil0 str2" d="M847000 1258100h521700M1292200 1181700l76500 76400-76500 76500"/><g><path class="fil0 str3" d="M1327100 1445500H805400M881900 1522000l-76500-76500 76500-76400"/></g></g><g id="_1506023993536"><path class="fil0 str2" d="M2136500 1258100h521700M2581700 1181700l76500 76400-76500 76500"/><g><path class="fil0 str3" d="M2616500 1445500h-521600M2171300 1522000l-76400-76500 76400-76400"/></g></g><g id="_1506023995232"><path class="fil0 str2" d="M3441600 1258100h521600M3886800 1181700l76400 76400-76400 76500"/><g><path class="fil0 str3" d="M3921600 1445500h-521700M3476400 1522000l-76500-76500 76500-76400"/></g></g><g id="_1506023997088"><path class="fil0 str2" d="M4746600 1258100h521600M5191800 1181700l76400 76400-76400 76500"/><g><path class="fil0 str3" d="M5226600 1445500h-521700M4781400 1522000l-76500-76500 76500-76400"/></g></g><g id="_1506023998880"><rect class="str4" x="5318700" y="1091400" width="640700" height="450900" rx="22900" ry="16100" fill="#fff"/><rect class="fil4 str4" x="5452700" y="1604200" width="372800" height="36000" rx="13300" ry="1300"/><path class="fil4 str4" d="M5588900 1542400h100500v61900h-100500z"/><path class="fil3" d="M5515400 1349500h-28400l-5500 16200h-17200l29300-78900h15100l29500 78900h-17300l-5500-16200zm-24100-13300h19800l-9900-29500-9900 29500z"/><path class="fil0 str5" d="M5769500 1273800c0 61200-18400 88100-57000 88100M5721000 1301100h97000M5769500 1273800c0 61200 18400 88100 57100 88100"/><g><path class="fil0 str6" d="M5573800 1326200h89900M5637400 1299800l26300 26400-26300 26400"/></g></g></g></svg>