<?xml version="1.0" encoding="UTF-8"?>
<!DOCTYPE svg PUBLIC "-//W3C//DTD SVG 1.1//EN" "http://www.w3.org/Graphics/SVG/1.1/DTD/svg11.dtd">
<!-- Creator: CorelDRAW X6 -->
<svg xmlns="http://www.w3.org/2000/svg" xml:space="preserve" width="87.2698mm" height="29.6802mm" version="1.1" style="shape-rendering:geometricPrecision; text-rendering:geometricPrecision; image-rendering:optimizeQuality; fill-rule:evenodd; clip-rule:evenodd"
viewBox="0 0 5127 1744"
 xmlns:xlink="http://www.w3.org/1999/xlink">
 <defs>
  <style type="text/css">
   <![CDATA[
    .str0 {stroke:#2B2A29;stroke-width:11.7492}
    .str1 {stroke:#9D9E9E;stroke-width:11.7492}
    .fil0 {fill:none}
    .fil5 {fill:#CC6F3C}
    .fil1 {fill:#EBECEC}
    .fil7 {fill:#FEFEFE}
    .fil6 {fill:#2B2A29;fill-rule:nonzero}
    .fil8 {fill:#2B2A29;fill-rule:nonzero}
    .fil2 {fill:#727271;fill-rule:nonzero}
    .fil4 {fill:#CC6F3C;fill-rule:nonzero}
    .fil3 {fill:#5FB336;fill-rule:nonzero}
   ]]>
  </style>
 </defs>
 <g id="Layer_x0020_1">
  <metadata id="CorelCorpID_0Corel-Layer"/>
  <rect class="fil0" width="5127" height="1744"/>
  <path class="fil1 str0" d="M2350 925l428 0 0 462c0,36 -96,65 -214,65 -118,0 -214,-29 -214,-65l0 -462z"/>
  <ellipse class="fil1 str0" cx="2564" cy="925" rx="214" ry="65"/>
  <polygon class="fil2" points="2106,1581 2099,1581 2099,1528 2106,1528 "/>
  <path id="1" class="fil2" d="M2124 1542l1 6c1,-2 3,-4 5,-5 2,-1 4,-2 6,-2 5,0 8,1 10,4 3,2 4,6 4,11l0 25 -7 0 0 -25c0,-3 -1,-5 -2,-7 -2,-1 -4,-2 -7,-2 -2,0 -4,0 -5,1 -2,1 -3,3 -4,4l0 29 -7 0 0 -39 6 0z"/>
  <path id="2" class="fil2" d="M2169 1532l0 10 8 0 0 5 -8 0 0 24c0,2 1,3 2,4 0,0 1,1 3,1 0,0 1,0 1,0 1,0 1,-1 1,-1l1 5c0,1 -1,1 -2,1 -1,1 -2,1 -3,1 -3,0 -5,-1 -7,-3 -2,-2 -3,-4 -3,-8l0 -24 -6 0 0 -5 6 0 0 -10 7 0z"/>
  <path id="3" class="fil2" d="M2202 1582c-5,0 -10,-2 -13,-6 -3,-3 -5,-8 -5,-14l0 -1c0,-6 2,-11 5,-14 3,-4 7,-6 12,-6 5,0 9,2 12,5 3,3 4,7 4,13l0 4 -25 0 -1 0c0,4 1,7 3,10 2,2 5,3 8,3 2,0 5,0 6,-1 2,-1 4,-2 5,-3l3 5c-2,1 -3,2 -6,3 -2,1 -5,2 -8,2zm-1 -35c-3,0 -5,1 -6,3 -2,2 -3,4 -3,7l0 0 18 0 0 0c0,-3 -1,-6 -2,-7 -2,-2 -4,-3 -7,-3z"/>
  <path id="4" class="fil2" d="M2243 1548l-3 0c-2,0 -4,0 -5,1 -1,1 -2,2 -3,4l0 28 -7 0 0 -39 6 0 1 6c1,-2 2,-4 4,-5 2,-1 4,-2 6,-2 0,0 1,0 1,0 1,0 1,0 1,1l-1 6z"/>
  <path id="5" class="fil2" d="M2257 1542l0 6c2,-2 3,-4 5,-5 2,-1 4,-2 7,-2 4,0 7,1 10,4 2,2 3,6 3,11l0 25 -7 0 0 -25c0,-3 -1,-5 -2,-7 -1,-1 -3,-2 -6,-2 -2,0 -4,0 -6,1 -1,1 -3,3 -3,4l0 29 -8 0 0 -39 7 0z"/>
  <path id="6" class="fil2" d="M2317 1581c-1,-1 -1,-2 -1,-3 0,-1 0,-2 0,-3 -2,2 -3,4 -5,5 -3,1 -5,2 -7,2 -4,0 -7,-1 -10,-3 -2,-2 -3,-5 -3,-9 0,-4 2,-7 5,-9 3,-2 7,-3 12,-3l8 0 0 -4c0,-2 -1,-4 -2,-5 -2,-2 -4,-2 -6,-2 -3,0 -4,0 -6,2 -1,1 -2,2 -2,4l-7 0 0 -1c0,-2 1,-5 4,-7 3,-3 7,-4 11,-4 5,0 8,1 11,4 3,2 4,5 4,9l0 19c0,2 0,3 0,4 0,1 1,3 1,4l-7 0zm-12 -5c2,0 5,-1 7,-2 2,-2 3,-3 4,-5l0 -6 -8 0c-3,0 -5,1 -7,2 -2,1 -3,3 -3,5 0,2 1,3 2,4 1,1 3,2 5,2z"/>
  <polygon id="7" class="fil2" points="2341,1581 2334,1581 2334,1525 2341,1525 "/>
  <polygon id="8" class="fil2" points="2407,1534 2391,1534 2391,1581 2383,1581 2383,1534 2366,1534 2366,1528 2407,1528 "/>
  <path id="9" class="fil2" d="M2430 1548l-4 0c-1,0 -3,0 -4,1 -2,1 -3,2 -3,4l0 28 -7 0 0 -39 6 0 1 6c1,-2 2,-4 4,-5 1,-1 3,-2 5,-2 1,0 1,0 2,0 0,0 1,0 1,1l-1 6z"/>
  <path id="10" class="fil2" d="M2461 1581c0,-1 0,-2 -1,-3 0,-1 0,-2 0,-3 -1,2 -3,4 -5,5 -2,1 -4,2 -7,2 -4,0 -7,-1 -9,-3 -2,-2 -3,-5 -3,-9 0,-4 1,-7 4,-9 3,-2 7,-3 13,-3l7 0 0 -4c0,-2 0,-4 -2,-5 -1,-2 -3,-2 -6,-2 -2,0 -4,0 -5,2 -2,1 -3,2 -3,4l-6 0 0 -1c-1,-2 1,-5 4,-7 2,-3 6,-4 11,-4 4,0 8,1 10,4 3,2 4,5 4,9l0 19c0,2 0,3 1,4 0,1 0,3 0,4l-7 0zm-12 -5c3,0 5,-1 7,-2 2,-2 4,-3 4,-5l0 -6 -8 0c-3,0 -5,1 -7,2 -1,1 -2,3 -2,5 0,2 0,3 1,4 1,1 3,2 5,2z"/>
  <path id="11" class="fil2" d="M2484 1542l1 6c1,-2 3,-4 5,-5 2,-1 4,-2 6,-2 4,0 8,1 10,4 2,2 4,6 4,11l0 25 -8 0 0 -25c0,-3 0,-5 -2,-7 -1,-1 -3,-2 -6,-2 -2,0 -4,0 -5,1 -2,1 -3,3 -4,4l0 29 -7 0 0 -39 6 0z"/>
  <path id="12" class="fil2" d="M2543 1571c0,-2 -1,-3 -2,-4 -1,-1 -4,-2 -7,-3 -5,-1 -8,-2 -11,-4 -2,-2 -3,-4 -3,-7 0,-4 1,-6 4,-9 3,-2 6,-3 10,-3 5,0 9,1 11,4 3,2 4,5 4,8l0 0 -7 0c0,-1 0,-3 -2,-4 -1,-2 -3,-2 -6,-2 -2,0 -4,0 -5,1 -1,2 -2,3 -2,4 0,2 0,3 2,4 1,1 3,2 6,2 5,2 9,3 11,5 3,2 4,4 4,7 0,4 -2,6 -4,9 -3,2 -7,3 -11,3 -5,0 -9,-1 -12,-4 -3,-3 -4,-6 -4,-9l0 0 7 0c0,2 1,4 2,5 2,2 4,2 7,2 2,0 4,0 6,-1 1,-1 2,-3 2,-4z"/>
  <polygon id="13" class="fil2" points="2566,1581 2559,1581 2559,1525 2566,1525 "/>
  <path id="14" class="fil2" d="M2601 1581c0,-1 0,-2 0,-3 0,-1 0,-2 0,-3 -2,2 -3,4 -6,5 -2,1 -4,2 -6,2 -4,0 -8,-1 -10,-3 -2,-2 -3,-5 -3,-9 0,-4 2,-7 5,-9 3,-2 7,-3 12,-3l8 0 0 -4c0,-2 -1,-4 -2,-5 -2,-2 -4,-2 -6,-2 -3,0 -5,0 -6,2 -1,1 -2,2 -2,4l-7 0 0 -1c0,-2 1,-5 4,-7 3,-3 7,-4 11,-4 4,0 8,1 11,4 2,2 4,5 4,9l0 19c0,2 0,3 0,4 0,1 0,3 1,4l-8 0zm-11 -5c2,0 5,-1 7,-2 2,-2 3,-3 4,-5l0 -6 -8 0c-3,0 -5,1 -7,2 -2,1 -3,3 -3,5 0,2 1,3 2,4 1,1 3,2 5,2z"/>
  <path id="15" class="fil2" d="M2628 1532l0 10 7 0 0 5 -7 0 0 24c0,2 0,3 1,4 0,0 1,1 3,1 0,0 1,0 1,0 1,0 1,-1 1,-1l1 5c0,1 -1,1 -2,1 -1,1 -2,1 -3,1 -3,0 -5,-1 -7,-3 -2,-2 -3,-4 -3,-8l0 -24 -6 0 0 -5 6 0 0 -10 8 0z"/>
  <path id="16" class="fil2" d="M2652 1581l-8 0 0 -39 8 0 0 39zm0 -49l-8 0 0 -8 8 0 0 8z"/>
  <path id="17" class="fil2" d="M2661 1561c0,-6 1,-10 5,-14 3,-4 7,-6 12,-6 6,0 10,2 13,6 3,3 5,8 5,14l0 1c0,6 -2,10 -5,14 -3,4 -7,6 -13,6 -5,0 -9,-2 -12,-6 -4,-4 -5,-8 -5,-14l0 -1zm7 1c0,4 1,7 3,10 1,3 4,4 7,4 4,0 6,-1 8,-4 2,-3 3,-6 3,-10l0 -1c0,-4 -1,-7 -3,-10 -2,-3 -4,-4 -8,-4 -3,0 -6,1 -7,4 -2,3 -3,6 -3,10l0 1z"/>
  <path id="18" class="fil2" d="M2711 1542l1 6c1,-2 2,-4 4,-5 2,-1 5,-2 7,-2 4,0 8,1 10,4 2,2 3,6 3,11l0 25 -7 0 0 -25c0,-3 0,-5 -2,-7 -1,-1 -3,-2 -6,-2 -2,0 -4,0 -5,1 -2,1 -3,3 -4,4l0 29 -7 0 0 -39 6 0z"/>
  <polygon id="19" class="fil2" points="2776,1528 2793,1571 2793,1571 2810,1528 2819,1528 2819,1581 2812,1581 2812,1560 2812,1539 2812,1539 2795,1581 2790,1581 2773,1539 2773,1539 2774,1560 2774,1581 2767,1581 2767,1528 "/>
  <path id="20" class="fil2" d="M2847 1582c-6,0 -10,-2 -13,-6 -4,-3 -5,-8 -5,-14l0 -1c0,-6 1,-11 5,-14 3,-4 7,-6 12,-6 5,0 9,2 12,5 2,3 4,7 4,13l0 4 -26 0 0 0c0,4 1,7 3,10 2,2 4,3 8,3 2,0 4,0 6,-1 2,-1 3,-2 5,-3l3 5c-2,1 -4,2 -6,3 -2,1 -5,2 -8,2zm-1 -35c-3,0 -5,1 -7,3 -1,2 -2,4 -3,7l0 0 18 0 0 0c0,-3 0,-6 -2,-7 -1,-2 -3,-3 -6,-3z"/>
  <path id="21" class="fil2" d="M2876 1542l1 5c1,-2 2,-3 4,-4 2,-1 5,-2 7,-2 3,0 5,1 7,2 2,1 3,3 4,5 1,-2 3,-4 5,-5 2,-1 4,-2 7,-2 4,0 7,2 10,4 2,3 3,7 3,13l0 23 -7 0 0 -23c0,-4 -1,-7 -2,-9 -1,-1 -3,-2 -6,-2 -2,0 -4,1 -6,2 -1,2 -2,4 -3,7l0 0 0 25 -7 0 0 -23c0,-4 0,-7 -2,-9 -1,-1 -3,-2 -6,-2 -2,0 -4,0 -5,1 -1,1 -2,2 -3,4l0 29 -7 0 0 -39 6 0z"/>
  <path id="22" class="fil2" d="M2933 1561c0,-6 1,-10 5,-14 3,-4 7,-6 12,-6 6,0 10,2 13,6 3,3 5,8 5,14l0 1c0,6 -2,10 -5,14 -3,4 -7,6 -13,6 -5,0 -9,-2 -12,-6 -4,-4 -5,-8 -5,-14l0 -1zm7 1c0,4 1,7 3,10 1,3 4,4 7,4 4,0 6,-1 8,-4 2,-3 3,-6 3,-10l0 -1c0,-4 -1,-7 -3,-10 -2,-3 -4,-4 -8,-4 -3,0 -6,1 -7,4 -2,3 -3,6 -3,10l0 1z"/>
  <path id="23" class="fil2" d="M2995 1548l-3 0c-2,0 -4,0 -5,1 -2,1 -3,2 -3,4l0 28 -7 0 0 -39 6 0 1 6c1,-2 2,-4 4,-5 1,-1 3,-2 5,-2 1,0 1,0 2,0 0,0 1,0 1,1l-1 6z"/>
  <path id="24" class="fil2" d="M3015 1567l1 4 0 0 10 -29 8 0 -17 45c-1,3 -2,5 -4,7 -2,2 -4,3 -7,3 -1,0 -2,0 -3,0 -1,-1 -1,-1 -2,-1l1 -5c0,0 0,0 1,0 1,0 2,0 2,0 2,0 3,-1 4,-2 1,-2 2,-3 2,-5l2 -4 -15 -38 8 0 9 25z"/>
  <path id="25" class="fil2" d="M2411 1647l0 -53 17 0c6,0 12,2 16,7 4,4 6,9 6,16l0 7c0,7 -2,12 -6,17 -4,4 -10,6 -16,6l-17 0zm7 -47l0 41 10 0c4,0 8,-1 11,-5 3,-3 4,-7 4,-12l0 -7c0,-5 -1,-9 -4,-12 -3,-4 -7,-5 -11,-5l-10 0z"/>
  <path id="26" class="fil2" d="M2483 1647c0,-1 -1,-2 -1,-3 0,-1 0,-2 0,-3 -1,2 -3,4 -5,5 -2,1 -5,2 -7,2 -4,0 -7,-1 -9,-3 -2,-3 -4,-5 -4,-9 0,-4 2,-7 5,-9 3,-2 7,-3 12,-3l8 0 0 -4c0,-2 -1,-4 -2,-5 -1,-2 -3,-2 -6,-2 -2,0 -4,0 -6,1 -1,2 -2,3 -2,5l-6 0 -1 -1c0,-2 2,-5 4,-7 3,-3 7,-4 11,-4 5,0 8,1 11,3 3,3 4,6 4,10l0 19c0,1 0,3 0,4 1,1 1,3 1,4l-7 0zm-12 -5c3,0 5,-1 7,-2 2,-2 3,-3 4,-5l0 -6 -8 0c-3,0 -5,0 -7,2 -2,1 -2,3 -2,5 0,2 0,3 1,4 1,1 3,2 5,2z"/>
  <path id="27" class="fil2" d="M2509 1598l0 10 7 0 0 5 -7 0 0 24c0,2 0,3 1,4 1,0 2,1 3,1 1,0 1,0 2,-1 0,0 0,0 1,0l1 5c-1,1 -1,1 -3,1 -1,1 -2,1 -3,1 -3,0 -5,-1 -7,-3 -1,-2 -2,-4 -2,-8l0 -24 -6 0 0 -5 6 0 0 -10 7 0z"/>
  <path id="28" class="fil2" d="M2549 1647c0,-1 0,-2 0,-3 0,-1 0,-2 0,-3 -2,2 -4,4 -6,5 -2,1 -4,2 -7,2 -4,0 -7,-1 -9,-3 -2,-3 -3,-5 -3,-9 0,-4 1,-7 4,-9 3,-2 8,-3 13,-3l8 0 0 -4c0,-2 -1,-4 -3,-5 -1,-2 -3,-2 -6,-2 -2,0 -4,0 -5,1 -2,2 -2,3 -2,5l-7 0 0 -1c0,-2 1,-5 4,-7 3,-3 6,-4 11,-4 4,0 8,1 11,3 2,3 4,6 4,10l0 19c0,1 0,3 0,4 0,1 0,3 1,4l-8 0zm-12 -5c3,0 5,-1 7,-2 3,-2 4,-3 5,-5l0 -6 -8 0c-3,0 -6,0 -7,2 -2,1 -3,3 -3,5 0,2 1,3 2,4 1,1 2,2 4,2z"/>
  <path id="29" class="fil2" d="M2599 1629c0,5 -1,10 -4,13 -2,4 -6,6 -11,6 -2,0 -5,-1 -7,-2 -1,-1 -3,-2 -4,-4l-1 5 -6 0 0 -57 7 0 0 22c1,-1 3,-3 5,-4 2,-1 4,-1 6,-1 5,0 9,2 11,6 3,4 4,9 4,15l0 1zm-7 -1c0,-4 0,-8 -2,-11 -2,-3 -4,-4 -8,-4 -2,0 -4,0 -5,1 -2,1 -3,3 -4,5l0 17c1,2 2,3 4,4 1,1 3,2 5,2 4,0 6,-1 8,-4 2,-2 2,-5 2,-9l0 -1z"/>
  <path id="30" class="fil2" d="M2632 1647c0,-1 0,-2 0,-3 0,-1 -1,-2 -1,-3 -1,2 -3,4 -5,5 -2,1 -4,2 -7,2 -4,0 -7,-1 -9,-3 -2,-3 -3,-5 -3,-9 0,-4 1,-7 4,-9 3,-2 8,-3 13,-3l7 0 0 -4c0,-2 0,-4 -2,-5 -1,-2 -3,-2 -6,-2 -2,0 -4,0 -5,1 -2,2 -2,3 -2,5l-7 0 0 -1c0,-2 1,-5 4,-7 3,-3 6,-4 11,-4 4,0 8,1 11,3 2,3 4,6 4,10l0 19c0,1 0,3 0,4 0,1 0,3 1,4l-8 0zm-12 -5c3,0 5,-1 7,-2 3,-2 4,-3 4,-5l0 -6 -8 0c-2,0 -5,0 -6,2 -2,1 -3,3 -3,5 0,2 1,3 2,4 1,1 2,2 4,2z"/>
  <path id="31" class="fil2" d="M2672 1636c0,-1 -1,-2 -2,-3 -1,-1 -4,-2 -7,-3 -5,-1 -8,-2 -11,-4 -2,-2 -3,-4 -3,-7 0,-4 1,-6 4,-9 3,-2 6,-3 10,-3 5,0 9,1 11,4 3,2 4,5 4,8l0 0 -7 0c0,-1 0,-3 -2,-4 -1,-2 -3,-2 -6,-2 -2,0 -4,0 -5,1 -1,1 -2,3 -2,4 0,2 0,3 2,4 1,1 3,2 6,2 5,1 9,3 11,5 3,1 4,4 4,7 0,3 -2,6 -4,8 -3,3 -7,4 -11,4 -5,0 -9,-2 -12,-4 -3,-3 -4,-6 -4,-9l0 0 7 0c0,2 1,4 2,5 2,1 4,2 7,2 2,0 4,0 6,-2 1,-1 2,-2 2,-4z"/>
  <path id="32" class="fil2" d="M2704 1648c-5,0 -10,-2 -13,-6 -3,-3 -5,-8 -5,-14l0 -2c0,-5 2,-10 5,-13 3,-4 7,-6 12,-6 5,0 9,2 12,5 3,3 4,7 4,13l0 4 -25 0 -1 0c1,4 1,7 3,9 2,3 5,4 8,4 2,0 5,0 6,-1 2,-1 4,-2 5,-3l3 5c-2,1 -3,2 -6,3 -2,1 -5,2 -8,2zm-1 -35c-2,0 -5,1 -6,3 -2,2 -3,4 -3,7l0 0 18 0 0 -1c0,-2 -1,-5 -2,-7 -2,-1 -4,-2 -7,-2z"/>
  <polygon class="fil2" points="1116,1575 1140,1575 1140,1581 1108,1581 1108,1528 1116,1528 "/>
  <path id="1" class="fil2" d="M1145 1561c0,-6 2,-10 5,-14 3,-4 8,-6 13,-6 5,0 10,2 13,6 3,3 5,8 5,14l0 1c0,6 -2,10 -5,14 -3,4 -8,6 -13,6 -5,0 -10,-2 -13,-6 -3,-4 -5,-8 -5,-14l0 -1zm8 1c0,4 0,7 2,10 2,3 5,4 8,4 3,0 6,-1 8,-4 2,-3 2,-6 2,-10l0 -1c0,-4 0,-7 -2,-10 -2,-3 -5,-4 -8,-4 -3,0 -6,1 -8,4 -2,3 -2,6 -2,10l0 1z"/>
  <path id="2" class="fil2" d="M1205 1576c3,0 5,-1 6,-2 2,-2 3,-3 3,-5l7 0 0 0c0,3 -2,6 -5,9 -3,2 -7,4 -11,4 -6,0 -10,-2 -13,-6 -3,-4 -4,-8 -4,-14l0 -1c0,-6 1,-11 4,-14 3,-4 8,-6 13,-6 5,0 9,1 11,4 3,3 5,6 5,10l0 0 -7 0c0,-2 -1,-4 -2,-6 -2,-1 -4,-2 -7,-2 -4,0 -6,1 -8,4 -1,2 -2,6 -2,10l0 1c0,4 1,7 2,10 2,3 4,4 8,4z"/>
  <path id="3" class="fil2" d="M1253 1581c-1,-1 -1,-2 -1,-3 0,-1 0,-2 0,-3 -1,2 -3,4 -5,5 -2,1 -5,2 -7,2 -4,0 -7,-1 -9,-3 -3,-2 -4,-5 -4,-9 0,-4 2,-7 5,-9 3,-2 7,-3 12,-3l8 0 0 -4c0,-2 -1,-4 -2,-5 -2,-2 -4,-2 -6,-2 -2,0 -4,0 -6,2 -1,1 -2,2 -2,4l-7 0 0 -1c0,-2 1,-5 4,-7 3,-3 7,-4 11,-4 5,0 8,1 11,4 3,2 4,5 4,9l0 19c0,2 0,3 0,4 0,1 1,3 1,4l-7 0zm-12 -5c2,0 5,-1 7,-2 2,-2 3,-3 4,-5l0 -6 -8 0c-3,0 -5,1 -7,2 -2,1 -3,3 -3,5 0,2 1,3 2,4 1,1 3,2 5,2z"/>
  <polygon id="4" class="fil2" points="1277,1581 1270,1581 1270,1525 1277,1525 "/>
  <path id="5" class="fil2" d="M1296 1581l-7 0 0 -39 7 0 0 39zm0 -49l-7 0 0 -8 7 0 0 8z"/>
  <polygon id="6" class="fil2" points="1314,1575 1336,1575 1336,1581 1305,1581 1305,1576 1326,1548 1305,1548 1305,1542 1335,1542 1335,1547 "/>
  <path id="7" class="fil2" d="M1368 1581c0,-1 0,-2 0,-3 0,-1 -1,-2 -1,-3 -1,2 -3,4 -5,5 -2,1 -4,2 -7,2 -4,0 -7,-1 -9,-3 -2,-2 -3,-5 -3,-9 0,-4 1,-7 4,-9 3,-2 7,-3 13,-3l7 0 0 -4c0,-2 0,-4 -2,-5 -1,-2 -3,-2 -6,-2 -2,0 -4,0 -5,2 -2,1 -2,2 -2,4l-7 0 0 -1c0,-2 1,-5 4,-7 3,-3 6,-4 11,-4 4,0 8,1 10,4 3,2 5,5 5,9l0 19c0,2 0,3 0,4 0,1 0,3 1,4l-8 0zm-12 -5c3,0 5,-1 7,-2 2,-2 4,-3 4,-5l0 -6 -8 0c-2,0 -5,1 -7,2 -1,1 -2,3 -2,5 0,2 0,3 2,4 1,1 2,2 4,2z"/>
  <path id="8" class="fil2" d="M1418 1563c0,6 -1,10 -4,14 -2,3 -6,5 -11,5 -3,0 -5,-1 -7,-2 -2,-1 -3,-2 -4,-4l-1 5 -6 0 0 -56 7 0 0 21c1,-1 3,-3 5,-3 1,-1 4,-2 6,-2 5,0 9,2 11,6 3,4 4,9 4,15l0 1zm-7 -1c0,-4 -1,-8 -2,-11 -2,-3 -4,-4 -8,-4 -2,0 -4,0 -5,2 -2,1 -3,2 -4,4l0 17c1,2 2,3 4,4 1,1 3,2 5,2 4,0 6,-1 8,-4 1,-2 2,-5 2,-9l0 -1z"/>
  <polygon id="9" class="fil2" points="1435,1581 1428,1581 1428,1525 1435,1525 "/>
  <path id="10" class="fil2" d="M1462 1582c-5,0 -10,-2 -13,-6 -3,-3 -5,-8 -5,-14l0 -1c0,-6 2,-11 5,-14 3,-4 7,-6 12,-6 5,0 9,2 12,5 3,3 4,7 4,13l0 4 -25 0 -1 0c1,4 1,7 3,10 2,2 5,3 8,3 2,0 5,0 6,-1 2,-1 4,-2 5,-3l3 5c-2,1 -3,2 -6,3 -2,1 -5,2 -8,2zm-1 -35c-2,0 -5,1 -6,3 -2,2 -3,4 -3,7l0 0 18 0 0 0c0,-3 -1,-6 -2,-7 -2,-2 -4,-3 -7,-3z"/>
  <path id="11" class="fil2" d="M1512 1558l0 23 -7 0 0 -53 19 0c6,0 10,2 13,4 3,3 5,6 5,11 0,3 -1,5 -3,7 -1,2 -3,4 -6,5 3,1 5,3 7,5 1,2 1,4 1,8l0 5c0,1 1,3 1,4 0,1 1,2 2,3l0 1 -7 0c-1,-1 -2,-2 -2,-4 -1,-1 -1,-3 -1,-5l0 -4c0,-3 0,-5 -2,-7 -2,-2 -4,-3 -7,-3l-13 0zm0 -5l11 0c4,0 7,-1 9,-3 2,-1 2,-4 2,-7 0,-3 0,-5 -2,-7 -2,-1 -5,-2 -8,-2l-12 0 0 19z"/>
  <path id="12" class="fil2" d="M1569 1582c-6,0 -10,-2 -13,-6 -3,-3 -5,-8 -5,-14l0 -1c0,-6 2,-11 5,-14 3,-4 7,-6 12,-6 5,0 9,2 12,5 2,3 4,7 4,13l0 4 -26 0 0 0c0,4 1,7 3,10 2,2 5,3 8,3 2,0 4,0 6,-1 2,-1 4,-2 5,-3l3 5c-2,1 -4,2 -6,3 -2,1 -5,2 -8,2zm-1 -35c-3,0 -5,1 -6,3 -2,2 -3,4 -4,7l1 0 18 0 0 0c0,-3 -1,-6 -3,-7 -1,-2 -3,-3 -6,-3z"/>
  <path id="13" class="fil2" d="M1615 1571c0,-2 -1,-3 -2,-4 -1,-1 -4,-2 -7,-3 -5,-1 -8,-2 -11,-4 -2,-2 -3,-4 -3,-7 0,-4 1,-6 4,-9 2,-2 6,-3 10,-3 5,0 8,1 11,4 3,2 4,5 4,8l0 0 -7 0c0,-1 -1,-3 -2,-4 -1,-2 -3,-2 -6,-2 -2,0 -4,0 -5,1 -2,2 -2,3 -2,4 0,2 0,3 1,4 1,1 4,2 7,2 5,2 9,3 11,5 2,2 4,4 4,7 0,4 -2,6 -5,9 -2,2 -6,3 -11,3 -5,0 -8,-1 -11,-4 -3,-3 -5,-6 -4,-9l0 0 6 0c1,2 1,4 3,5 2,2 4,2 6,2 3,0 5,0 6,-1 2,-1 3,-3 3,-4z"/>
  <path id="14" class="fil2" d="M1629 1561c0,-6 1,-10 5,-14 3,-4 7,-6 12,-6 6,0 10,2 13,6 3,3 5,8 5,14l0 1c0,6 -2,10 -5,14 -3,4 -7,6 -13,6 -5,0 -9,-2 -12,-6 -4,-4 -5,-8 -5,-14l0 -1zm7 1c0,4 1,7 3,10 1,3 4,4 7,4 4,0 6,-1 8,-4 2,-3 3,-6 3,-10l0 -1c0,-4 -1,-7 -3,-10 -2,-3 -4,-4 -8,-4 -3,0 -6,1 -7,4 -2,3 -3,6 -3,10l0 1z"/>
  <path id="15" class="fil2" d="M1698 1575c-2,2 -3,4 -5,5 -2,1 -4,2 -7,2 -4,0 -7,-2 -10,-4 -2,-3 -3,-7 -3,-13l0 -23 7 0 0 23c0,4 0,7 2,9 1,1 3,2 5,2 3,0 5,-1 7,-2 1,-1 3,-2 3,-4l0 -28 7 0 0 39 -6 0 0 -6z"/>
  <path id="16" class="fil2" d="M1733 1548l-3 0c-2,0 -4,0 -5,1 -1,1 -2,2 -3,4l0 28 -7 0 0 -39 6 0 1 6c1,-2 2,-4 4,-5 2,-1 4,-2 6,-2 0,0 1,0 1,0 1,0 1,0 1,1l-1 6z"/>
  <path id="17" class="fil2" d="M1756 1576c2,0 4,-1 6,-2 2,-2 3,-3 3,-5l6 0 0 0c0,3 -1,6 -5,9 -3,2 -6,4 -10,4 -6,0 -10,-2 -14,-6 -3,-4 -4,-8 -4,-14l0 -1c0,-6 1,-11 5,-14 3,-4 7,-6 13,-6 4,0 8,1 11,4 3,3 4,6 4,10l0 0 -6 0c0,-2 -1,-4 -3,-6 -2,-1 -4,-2 -6,-2 -4,0 -7,1 -8,4 -2,2 -3,6 -3,10l0 1c0,4 1,7 3,10 1,3 4,4 8,4z"/>
  <path id="18" class="fil2" d="M1795 1582c-5,0 -10,-2 -13,-6 -3,-3 -5,-8 -5,-14l0 -1c0,-6 2,-11 5,-14 4,-4 8,-6 12,-6 5,0 9,2 12,5 3,3 4,7 4,13l0 4 -25 0 0 0c0,4 1,7 3,10 1,2 4,3 7,3 3,0 5,0 7,-1 1,-1 3,-2 4,-3l3 5c-1,1 -3,2 -5,3 -3,1 -5,2 -9,2zm-1 -35c-2,0 -4,1 -6,3 -2,2 -3,4 -3,7l0 0 18 0 0 0c0,-3 -1,-6 -2,-7 -2,-2 -4,-3 -7,-3z"/>
  <polygon id="19" class="fil2" points="1416,1624 1392,1624 1392,1647 1385,1647 1385,1594 1420,1594 1420,1600 1392,1600 1392,1618 1416,1618 "/>
  <path id="20" class="fil2" d="M1434 1647l-7 0 0 -39 7 0 0 39zm0 -49l-7 0 0 -8 7 0 0 8z"/>
  <polygon id="21" class="fil2" points="1453,1647 1446,1647 1446,1590 1453,1590 "/>
  <path id="22" class="fil2" d="M1480 1648c-5,0 -10,-2 -13,-6 -3,-3 -5,-8 -5,-14l0 -2c0,-5 2,-10 5,-13 4,-4 8,-6 12,-6 5,0 9,2 12,5 3,3 4,7 4,13l0 4 -25 0 0 0c0,4 1,7 2,9 2,3 5,4 8,4 3,0 5,0 7,-1 1,-1 3,-2 4,-3l3 5c-1,1 -3,2 -5,3 -3,1 -6,2 -9,2zm-1 -35c-2,0 -4,1 -6,3 -2,2 -3,4 -3,7l0 0 18 0 0 -1c0,-2 -1,-5 -2,-7 -2,-1 -4,-2 -7,-2z"/>
  <path id="23" class="fil2" d="M1526 1636c0,-1 -1,-2 -2,-3 -1,-1 -3,-2 -7,-3 -4,-1 -8,-2 -10,-4 -3,-2 -4,-4 -4,-7 0,-4 1,-6 4,-9 3,-2 6,-3 11,-3 4,0 8,1 11,4 2,2 3,5 3,8l0 0 -7 0c0,-1 0,-3 -2,-4 -1,-2 -3,-2 -5,-2 -3,0 -5,0 -6,1 -1,1 -2,3 -2,4 0,2 1,3 2,4 1,1 3,2 6,2 5,1 9,3 11,5 3,1 4,4 4,7 0,3 -1,6 -4,8 -3,3 -7,4 -11,4 -5,0 -9,-2 -12,-4 -3,-3 -4,-6 -4,-9l0 0 7 0c0,2 1,4 3,5 1,1 3,2 6,2 2,0 4,0 6,-2 1,-1 2,-2 2,-4z"/>
  <polygon class="fil2" points="3315,1534 3298,1534 3298,1581 3291,1581 3291,1534 3274,1534 3274,1528 3315,1528 "/>
  <path id="1" class="fil2" d="M3338 1548l-4 0c-2,0 -4,0 -5,1 -1,1 -2,2 -3,4l0 28 -7 0 0 -39 6 0 1 6c1,-2 3,-4 4,-5 2,-1 4,-2 6,-2 0,0 1,0 1,0 1,0 1,0 2,1l-1 6z"/>
  <path id="2" class="fil2" d="M3369 1581c-1,-1 -1,-2 -1,-3 0,-1 0,-2 0,-3 -2,2 -3,4 -5,5 -3,1 -5,2 -7,2 -4,0 -8,-1 -10,-3 -2,-2 -3,-5 -3,-9 0,-4 2,-7 5,-9 3,-2 7,-3 12,-3l8 0 0 -4c0,-2 -1,-4 -2,-5 -2,-2 -4,-2 -6,-2 -3,0 -4,0 -6,2 -1,1 -2,2 -2,4l-7 0 0 -1c0,-2 1,-5 4,-7 3,-3 7,-4 11,-4 5,0 8,1 11,4 3,2 4,5 4,9l0 19c0,2 0,3 0,4 0,1 0,3 1,4l-7 0zm-12 -5c2,0 5,-1 7,-2 2,-2 3,-3 4,-5l0 -6 -8 0c-3,0 -5,1 -7,2 -2,1 -3,3 -3,5 0,2 1,3 2,4 1,1 3,2 5,2z"/>
  <path id="3" class="fil2" d="M3392 1542l0 6c1,-2 3,-4 5,-5 2,-1 4,-2 7,-2 4,0 7,1 10,4 2,2 3,6 3,11l0 25 -7 0 0 -25c0,-3 -1,-5 -2,-7 -2,-1 -4,-2 -6,-2 -2,0 -4,0 -6,1 -1,1 -3,3 -4,4l0 29 -7 0 0 -39 7 0z"/>
  <path id="4" class="fil2" d="M3450 1571c0,-2 0,-3 -2,-4 -1,-1 -3,-2 -6,-3 -5,-1 -9,-2 -11,-4 -3,-2 -4,-4 -4,-7 0,-4 2,-6 4,-9 3,-2 7,-3 11,-3 4,0 8,1 11,4 2,2 4,5 4,8l0 0 -7 0c0,-1 -1,-3 -2,-4 -2,-2 -4,-2 -6,-2 -3,0 -5,0 -6,1 -1,2 -2,3 -2,4 0,2 1,3 2,4 1,1 3,2 7,2 5,2 8,3 11,5 2,2 3,4 3,7 0,4 -1,6 -4,9 -3,2 -6,3 -11,3 -5,0 -9,-1 -12,-4 -3,-3 -4,-6 -4,-9l0 0 7 0c0,2 1,4 3,5 2,2 4,2 6,2 3,0 5,0 6,-1 1,-1 2,-3 2,-4z"/>
  <polygon id="5" class="fil2" points="3474,1581 3467,1581 3467,1525 3474,1525 "/>
  <path id="6" class="fil2" d="M3509 1581c0,-1 0,-2 -1,-3 0,-1 0,-2 0,-3 -1,2 -3,4 -5,5 -2,1 -4,2 -7,2 -4,0 -7,-1 -9,-3 -2,-2 -3,-5 -3,-9 0,-4 1,-7 4,-9 3,-2 7,-3 12,-3l8 0 0 -4c0,-2 -1,-4 -2,-5 -1,-2 -3,-2 -6,-2 -2,0 -4,0 -5,2 -2,1 -3,2 -3,4l-6 0 -1 -1c0,-2 2,-5 5,-7 2,-3 6,-4 11,-4 4,0 8,1 10,4 3,2 4,5 4,9l0 19c0,2 0,3 0,4 1,1 1,3 1,4l-7 0zm-12 -5c3,0 5,-1 7,-2 2,-2 4,-3 4,-5l0 -6 -8 0c-3,0 -5,1 -7,2 -1,1 -2,3 -2,5 0,2 0,3 1,4 1,1 3,2 5,2z"/>
  <path id="7" class="fil2" d="M3535 1532l0 10 7 0 0 5 -7 0 0 24c0,2 0,3 1,4 1,0 2,1 3,1 1,0 1,0 2,0 0,0 1,-1 1,-1l1 5c-1,1 -1,1 -2,1 -2,1 -3,1 -4,1 -2,0 -5,-1 -7,-3 -1,-2 -2,-4 -2,-8l0 -24 -6 0 0 -5 6 0 0 -10 7 0z"/>
  <path id="8" class="fil2" d="M3559 1581l-7 0 0 -39 7 0 0 39zm0 -49l-7 0 0 -8 7 0 0 8z"/>
  <path id="9" class="fil2" d="M3568 1561c0,-6 2,-10 5,-14 3,-4 7,-6 13,-6 5,0 10,2 13,6 3,3 4,8 4,14l0 1c0,6 -1,10 -4,14 -3,4 -8,6 -13,6 -6,0 -10,-2 -13,-6 -3,-4 -5,-8 -5,-14l0 -1zm7 1c0,4 1,7 3,10 2,3 4,4 8,4 3,0 6,-1 8,-4 1,-3 2,-6 2,-10l0 -1c0,-4 -1,-7 -2,-10 -2,-3 -5,-4 -8,-4 -4,0 -6,1 -8,4 -2,3 -3,6 -3,10l0 1z"/>
  <path id="10" class="fil2" d="M3619 1542l0 6c1,-2 3,-4 5,-5 2,-1 4,-2 7,-2 4,0 7,1 9,4 3,2 4,6 4,11l0 25 -7 0 0 -25c0,-3 -1,-5 -2,-7 -2,-1 -4,-2 -7,-2 -2,0 -3,0 -5,1 -2,1 -3,3 -4,4l0 29 -7 0 0 -39 7 0z"/>
  <polygon id="11" class="fil2" points="3682,1581 3674,1581 3674,1528 3682,1528 "/>
  <path id="12" class="fil2" d="M3700 1542l1 6c1,-2 2,-4 4,-5 2,-1 5,-2 7,-2 4,0 8,1 10,4 2,2 3,6 3,11l0 25 -7 0 0 -25c0,-3 0,-5 -2,-7 -1,-1 -3,-2 -6,-2 -2,0 -4,0 -5,1 -2,1 -3,3 -4,4l0 29 -7 0 0 -39 6 0z"/>
  <path id="13" class="fil2" d="M3745 1532l0 10 8 0 0 5 -8 0 0 24c0,2 1,3 1,4 1,0 2,1 3,1 1,0 1,0 2,0 0,0 1,-1 1,-1l1 5c0,1 -1,1 -2,1 -1,1 -2,1 -3,1 -3,0 -6,-1 -7,-3 -2,-2 -3,-4 -3,-8l0 -24 -6 0 0 -5 6 0 0 -10 7 0z"/>
  <path id="14" class="fil2" d="M3778 1582c-6,0 -10,-2 -13,-6 -4,-3 -5,-8 -5,-14l0 -1c0,-6 2,-11 5,-14 3,-4 7,-6 12,-6 5,0 9,2 12,5 2,3 4,7 4,13l0 4 -26 0 0 0c0,4 1,7 3,10 2,2 4,3 8,3 2,0 4,0 6,-1 2,-1 3,-2 5,-3l3 5c-2,1 -4,2 -6,3 -2,1 -5,2 -8,2zm-1 -35c-3,0 -5,1 -6,3 -2,2 -3,4 -4,7l0 0 19 0 0 0c0,-3 -1,-6 -3,-7 -1,-2 -3,-3 -6,-3z"/>
  <path id="15" class="fil2" d="M3819 1548l-3 0c-2,0 -4,0 -5,1 -1,1 -2,2 -3,4l0 28 -7 0 0 -39 6 0 1 6c1,-2 2,-4 4,-5 2,-1 3,-2 5,-2 1,0 2,0 2,0 0,0 1,0 1,1l-1 6z"/>
  <path id="16" class="fil2" d="M3841 1576c3,0 5,-1 7,-2 1,-2 2,-3 2,-5l7 0 0 0c0,3 -2,6 -5,9 -3,2 -6,4 -11,4 -5,0 -10,-2 -13,-6 -3,-4 -4,-8 -4,-14l0 -1c0,-6 1,-11 4,-14 3,-4 8,-6 13,-6 5,0 9,1 12,4 3,3 4,6 4,10l0 0 -7 0c0,-2 -1,-4 -2,-6 -2,-1 -4,-2 -7,-2 -3,0 -6,1 -8,4 -1,2 -2,6 -2,10l0 1c0,4 1,7 2,10 2,3 5,4 8,4z"/>
  <path id="17" class="fil2" d="M3872 1547c1,-2 3,-3 5,-4 2,-1 4,-2 6,-2 5,0 8,1 10,4 3,2 4,6 4,11l0 25 -7 0 0 -25c0,-3 -1,-5 -3,-7 -1,-1 -3,-2 -6,-2 -2,0 -3,0 -5,1 -2,1 -3,2 -4,4l0 29 -7 0 0 -56 7 0 0 22z"/>
  <path id="18" class="fil2" d="M3931 1581c0,-1 0,-2 -1,-3 0,-1 0,-2 0,-3 -1,2 -3,4 -5,5 -2,1 -4,2 -7,2 -4,0 -7,-1 -9,-3 -2,-2 -3,-5 -3,-9 0,-4 1,-7 4,-9 3,-2 7,-3 13,-3l7 0 0 -4c0,-2 0,-4 -2,-5 -1,-2 -3,-2 -6,-2 -2,0 -4,0 -5,2 -2,1 -3,2 -3,4l-6 0 0 -1c-1,-2 1,-5 4,-7 2,-3 6,-4 11,-4 4,0 8,1 10,4 3,2 4,5 4,9l0 19c0,2 0,3 1,4 0,1 0,3 0,4l-7 0zm-12 -5c3,0 5,-1 7,-2 2,-2 4,-3 4,-5l0 -6 -8 0c-3,0 -5,1 -7,2 -1,1 -2,3 -2,5 0,2 0,3 1,4 1,1 3,2 5,2z"/>
  <path id="19" class="fil2" d="M3954 1542l1 6c1,-2 3,-4 5,-5 2,-1 4,-2 6,-2 4,0 8,1 10,4 2,2 4,6 4,11l0 25 -8 0 0 -25c0,-3 0,-5 -2,-7 -1,-1 -3,-2 -6,-2 -2,0 -4,0 -5,1 -2,1 -3,3 -4,4l0 29 -7 0 0 -39 6 0z"/>
  <path id="20" class="fil2" d="M3988 1562c0,-6 2,-11 4,-15 3,-4 7,-6 12,-6 2,0 5,1 6,2 2,1 4,2 5,4l1 -5 6 0 0 39c0,5 -2,9 -5,12 -3,2 -7,4 -12,4 -2,0 -4,0 -6,-1 -3,0 -5,-1 -6,-2l2 -6c1,1 2,2 4,2 2,1 4,1 6,1 3,0 6,-1 7,-3 2,-1 3,-4 3,-7l0 -4c-2,1 -3,3 -5,4 -2,0 -4,1 -6,1 -5,0 -9,-2 -12,-5 -2,-4 -4,-8 -4,-14l0 -1zm7 1c0,4 1,7 3,9 2,3 4,4 8,4 2,0 4,-1 5,-1 1,-1 3,-3 4,-5l0 -18c-1,-1 -3,-3 -4,-4 -1,-1 -3,-1 -5,-1 -4,0 -6,1 -8,4 -2,3 -3,7 -3,11l0 1z"/>
  <path id="21" class="fil2" d="M4048 1582c-5,0 -9,-2 -13,-6 -3,-3 -5,-8 -5,-14l0 -1c0,-6 2,-11 5,-14 4,-4 8,-6 12,-6 6,0 10,2 12,5 3,3 4,7 4,13l0 4 -25 0 0 0c0,4 1,7 3,10 1,2 4,3 7,3 3,0 5,0 7,-1 1,-1 3,-2 4,-3l3 5c-1,1 -3,2 -5,3 -3,1 -5,2 -9,2zm-1 -35c-2,0 -4,1 -6,3 -2,2 -3,4 -3,7l0 0 18 0 0 0c0,-3 -1,-6 -2,-7 -2,-2 -4,-3 -7,-3z"/>
  <polygon id="22" class="fil2" points="3535,1624 3511,1624 3511,1647 3504,1647 3504,1594 3539,1594 3539,1600 3511,1600 3511,1618 3535,1618 "/>
  <path id="23" class="fil2" d="M3553 1647l-7 0 0 -39 7 0 0 39zm0 -49l-7 0 0 -8 7 0 0 8z"/>
  <polygon id="24" class="fil2" points="3572,1647 3565,1647 3565,1590 3572,1590 "/>
  <path id="25" class="fil2" d="M3599 1648c-5,0 -10,-2 -13,-6 -3,-3 -5,-8 -5,-14l0 -2c0,-5 2,-10 5,-13 4,-4 8,-6 12,-6 5,0 9,2 12,5 3,3 4,7 4,13l0 4 -25 0 0 0c0,4 1,7 3,9 1,3 4,4 7,4 3,0 5,0 7,-1 1,-1 3,-2 4,-3l3 5c-1,1 -3,2 -5,3 -3,1 -6,2 -9,2zm-1 -35c-2,0 -4,1 -6,3 -2,2 -3,4 -3,7l0 0 18 0 0 -1c0,-2 -1,-5 -2,-7 -2,-1 -4,-2 -7,-2z"/>
  <path id="26" class="fil2" d="M3645 1636c0,-1 -1,-2 -2,-3 -1,-1 -3,-2 -7,-3 -4,-1 -8,-2 -10,-4 -3,-2 -4,-4 -4,-7 0,-4 1,-6 4,-9 3,-2 6,-3 11,-3 4,0 8,1 11,4 2,2 4,5 3,8l0 0 -6 0c0,-1 -1,-3 -3,-4 -1,-2 -3,-2 -5,-2 -3,0 -5,0 -6,1 -1,1 -2,3 -2,4 0,2 1,3 2,4 1,1 3,2 6,2 5,1 9,3 11,5 3,1 4,4 4,7 0,3 -1,6 -4,8 -3,3 -7,4 -11,4 -5,0 -9,-2 -12,-4 -3,-3 -4,-6 -4,-9l0 0 7 0c0,2 1,4 3,5 1,1 3,2 6,2 2,0 4,0 6,-2 1,-1 2,-2 2,-4z"/>
  <path id="27" class="fil2" d="M3679 1626c0,-10 2,-18 6,-25 4,-7 8,-11 12,-13l0 0 1 4c-3,2 -6,7 -8,12 -3,6 -4,13 -4,21l0 1c0,8 1,15 4,21 2,6 5,10 8,13l-1 4 0 0c-4,-3 -8,-7 -12,-14 -4,-6 -6,-15 -6,-24l0 0z"/>
  <polygon id="28" class="fil2" points="3712,1647 3705,1647 3705,1639 3712,1639 "/>
  <path id="29" class="fil2" d="M3732 1626l0 21 -7 0 0 -53 20 0c6,0 10,2 13,5 4,2 5,6 5,11 0,5 -1,9 -5,11 -3,3 -7,5 -13,5l-13 0zm0 -6l13 0c4,0 7,-1 8,-3 2,-2 3,-4 3,-7 0,-3 -1,-5 -3,-7 -1,-2 -4,-3 -8,-3l-13 0 0 20z"/>
  <path id="30" class="fil2" d="M3813 1625c0,7 -2,12 -6,16 -4,5 -10,7 -16,7 -6,0 -11,-2 -15,-7 -4,-4 -6,-9 -6,-16l0 -9c0,-7 2,-12 6,-16 4,-4 9,-7 15,-7 6,0 12,3 16,7 4,4 6,9 6,16l0 9zm-8 -9c0,-5 -1,-9 -3,-12 -3,-3 -7,-5 -11,-5 -4,0 -7,2 -10,5 -2,3 -4,7 -4,12l0 9c0,5 2,9 4,12 3,3 6,5 10,5 4,0 8,-2 11,-5 2,-3 3,-7 3,-12l0 -9z"/>
  <path id="31" class="fil2" d="M3836 1626c0,9 -2,18 -5,24 -4,7 -8,11 -12,14l-1 0 -1 -4c3,-3 6,-7 9,-13 2,-6 3,-13 3,-21l0 -1c0,-8 -1,-15 -4,-21 -2,-6 -5,-10 -8,-12l1 -4 1 0c4,2 8,6 12,13 3,7 5,15 5,25l0 0z"/>
  <g id="_865520400">
   <g>
    <path class="fil3" d="M1777 1224l102 43c-15,-29 -15,-58 0,-87l-102 44z"/>
    <rect class="fil3" x="1839" y="1209" width="406.398" height="28.1729"/>
   </g>
   <g>
    <path class="fil4" d="M2246 1065l-102 -44c15,30 15,58 0,88l102 -44z"/>
    <rect class="fil5" x="1777" y="1051" width="406.398" height="28.1729"/>
   </g>
  </g>
  <polygon class="fil2" points="4471,1581 4464,1581 4464,1528 4471,1528 "/>
  <path id="1" class="fil2" d="M4490 1542l0 6c1,-2 3,-4 5,-5 2,-1 4,-2 7,-2 4,0 7,1 9,4 3,2 4,6 4,11l0 25 -7 0 0 -25c0,-3 -1,-5 -2,-7 -2,-1 -4,-2 -7,-2 -2,0 -3,0 -5,1 -2,1 -3,3 -4,4l0 29 -7 0 0 -39 7 0z"/>
  <path id="2" class="fil2" d="M4535 1532l0 10 7 0 0 5 -7 0 0 24c0,2 0,3 1,4 1,0 2,1 3,1 0,0 1,0 1,0 1,0 1,-1 2,-1l0 5c0,1 -1,1 -2,1 -1,1 -2,1 -3,1 -3,0 -5,-1 -7,-3 -2,-2 -2,-4 -2,-8l0 -24 -7 0 0 -5 7 0 0 -10 7 0z"/>
  <path id="3" class="fil2" d="M4567 1582c-5,0 -10,-2 -13,-6 -3,-3 -5,-8 -5,-14l0 -1c0,-6 2,-11 5,-14 4,-4 8,-6 12,-6 5,0 9,2 12,5 3,3 4,7 4,13l0 4 -25 0 0 0c0,4 1,7 2,10 2,2 5,3 8,3 3,0 5,0 7,-1 1,-1 3,-2 4,-3l3 5c-1,1 -3,2 -5,3 -3,1 -6,2 -9,2zm-1 -35c-2,0 -4,1 -6,3 -2,2 -3,4 -3,7l0 0 18 0 0 0c0,-3 -1,-6 -2,-7 -2,-2 -4,-3 -7,-3z"/>
  <path id="4" class="fil2" d="M4609 1548l-4 0c-2,0 -3,0 -5,1 -1,1 -2,2 -3,4l0 28 -7 0 0 -39 7 0 0 6c1,-2 3,-4 4,-5 2,-1 4,-2 6,-2 0,0 1,0 1,0 1,0 1,0 2,1l-1 6z"/>
  <path id="5" class="fil2" d="M4622 1542l0 6c2,-2 3,-4 5,-5 2,-1 5,-2 7,-2 4,0 8,1 10,4 2,2 3,6 3,11l0 25 -7 0 0 -25c0,-3 0,-5 -2,-7 -1,-1 -3,-2 -6,-2 -2,0 -4,0 -6,1 -1,1 -2,3 -3,4l0 29 -7 0 0 -39 6 0z"/>
  <path id="6" class="fil2" d="M4682 1581c0,-1 -1,-2 -1,-3 0,-1 0,-2 0,-3 -1,2 -3,4 -5,5 -2,1 -5,2 -7,2 -4,0 -7,-1 -9,-3 -3,-2 -4,-5 -4,-9 0,-4 2,-7 5,-9 3,-2 7,-3 12,-3l8 0 0 -4c0,-2 -1,-4 -2,-5 -1,-2 -3,-2 -6,-2 -2,0 -4,0 -6,2 -1,1 -2,2 -2,4l-7 0 0 -1c0,-2 2,-5 4,-7 3,-3 7,-4 11,-4 5,0 8,1 11,4 3,2 4,5 4,9l0 19c0,2 0,3 0,4 1,1 1,3 1,4l-7 0zm-12 -5c3,0 5,-1 7,-2 2,-2 3,-3 4,-5l0 -6 -8 0c-3,0 -5,1 -7,2 -2,1 -2,3 -2,5 0,2 0,3 1,4 1,1 3,2 5,2z"/>
  <polygon id="7" class="fil2" points="4706,1581 4699,1581 4699,1525 4706,1525 "/>
  <path id="8" class="fil2" d="M4734 1561c0,-6 2,-10 5,-14 3,-4 7,-6 12,-6 6,0 10,2 13,6 4,3 5,8 5,14l0 1c0,6 -1,10 -5,14 -3,4 -7,6 -12,6 -6,0 -10,-2 -13,-6 -3,-4 -5,-8 -5,-14l0 -1zm7 1c0,4 1,7 3,10 1,3 4,4 8,4 3,0 6,-1 7,-4 2,-3 3,-6 3,-10l0 -1c0,-4 -1,-7 -3,-10 -2,-3 -4,-4 -8,-4 -3,0 -6,1 -7,4 -2,3 -3,6 -3,10l0 1z"/>
  <path id="9" class="fil2" d="M4796 1548l-3 0c-2,0 -4,0 -5,1 -1,1 -2,2 -3,4l0 28 -7 0 0 -39 6 0 1 6c1,-2 2,-4 4,-5 2,-1 3,-2 6,-2 0,0 1,0 1,0 1,0 1,0 1,1l-1 6z"/>
  <polygon id="10" class="fil2" points="4854,1557 4830,1557 4830,1575 4858,1575 4858,1581 4823,1581 4823,1528 4858,1528 4858,1534 4830,1534 4830,1551 4854,1551 "/>
  <polygon id="11" class="fil2" points="4878,1556 4887,1542 4895,1542 4882,1561 4895,1581 4887,1581 4878,1566 4870,1581 4862,1581 4875,1561 4862,1542 4870,1542 "/>
  <path id="12" class="fil2" d="M4912 1532l0 10 7 0 0 5 -7 0 0 24c0,2 0,3 1,4 1,0 2,1 3,1 0,0 1,0 1,0 1,0 1,-1 2,-1l1 5c-1,1 -2,1 -3,1 -1,1 -2,1 -3,1 -3,0 -5,-1 -7,-3 -2,-2 -2,-4 -2,-8l0 -24 -7 0 0 -5 7 0 0 -10 7 0z"/>
  <path id="13" class="fil2" d="M4944 1582c-5,0 -10,-2 -13,-6 -3,-3 -5,-8 -5,-14l0 -1c0,-6 2,-11 5,-14 4,-4 8,-6 12,-6 5,0 9,2 12,5 3,3 4,7 4,13l0 4 -25 0 0 0c0,4 1,7 3,10 1,2 4,3 7,3 3,0 5,0 7,-1 1,-1 3,-2 4,-3l3 5c-1,1 -3,2 -5,3 -3,1 -6,2 -9,2zm-1 -35c-2,0 -4,1 -6,3 -2,2 -3,4 -3,7l0 0 18 0 0 0c0,-3 -1,-6 -2,-7 -2,-2 -4,-3 -7,-3z"/>
  <path id="14" class="fil2" d="M4986 1548l-4 0c-2,0 -3,0 -5,1 -1,1 -2,2 -3,4l0 28 -7 0 0 -39 7 0 0 6c1,-2 3,-4 4,-5 2,-1 4,-2 6,-2 1,0 1,0 2,0 0,0 0,0 1,1l-1 6z"/>
  <path id="15" class="fil2" d="M4999 1542l1 6c1,-2 2,-4 4,-5 2,-1 5,-2 7,-2 4,0 8,1 10,4 2,2 3,6 3,11l0 25 -7 0 0 -25c0,-3 0,-5 -2,-7 -1,-1 -3,-2 -6,-2 -2,0 -4,0 -5,1 -2,1 -3,3 -4,4l0 29 -7 0 0 -39 6 0z"/>
  <path id="16" class="fil2" d="M5059 1581c0,-1 -1,-2 -1,-3 0,-1 0,-2 0,-3 -1,2 -3,4 -5,5 -2,1 -5,2 -7,2 -4,0 -7,-1 -9,-3 -2,-2 -4,-5 -4,-9 0,-4 2,-7 5,-9 3,-2 7,-3 12,-3l8 0 0 -4c0,-2 -1,-4 -2,-5 -1,-2 -3,-2 -6,-2 -2,0 -4,0 -6,2 -1,1 -2,2 -2,4l-7 0 0 -1c0,-2 2,-5 4,-7 3,-3 7,-4 11,-4 5,0 8,1 11,4 3,2 4,5 4,9l0 19c0,2 0,3 0,4 1,1 1,3 1,4l-7 0zm-12 -5c3,0 5,-1 7,-2 2,-2 3,-3 4,-5l0 -6 -8 0c-3,0 -5,1 -7,2 -2,1 -2,3 -2,5 0,2 0,3 1,4 1,1 3,2 5,2z"/>
  <polygon id="17" class="fil2" points="5083,1581 5076,1581 5076,1525 5083,1525 "/>
  <polygon id="18" class="fil2" points="4495,1600 4478,1600 4478,1647 4471,1647 4471,1600 4454,1600 4454,1594 4495,1594 "/>
  <path id="19" class="fil2" d="M4517 1614l-3 0c-2,0 -4,0 -5,1 -1,1 -2,2 -3,4l0 28 -7 0 0 -39 6 0 1 5c1,-2 2,-3 4,-4 2,-1 4,-2 6,-2 0,0 1,0 1,0 1,0 1,0 1,0l-1 7z"/>
  <path id="20" class="fil2" d="M4548 1647c0,-1 0,-2 0,-3 0,-1 0,-2 0,-3 -2,2 -4,4 -6,5 -2,1 -4,2 -7,2 -4,0 -7,-1 -9,-3 -2,-3 -3,-5 -3,-9 0,-4 1,-7 4,-9 3,-2 8,-3 13,-3l8 0 0 -4c0,-2 -1,-4 -3,-5 -1,-2 -3,-2 -5,-2 -3,0 -5,0 -6,1 -2,2 -2,3 -2,5l-7 0 0 -1c0,-2 1,-5 4,-7 3,-3 6,-4 11,-4 4,0 8,1 11,3 2,3 4,6 4,10l0 19c0,1 0,3 0,4 0,1 0,3 1,4l-8 0zm-11 -5c2,0 4,-1 7,-2 2,-2 3,-3 4,-5l0 -6 -8 0c-3,0 -6,0 -7,2 -2,1 -3,3 -3,5 0,2 1,3 2,4 1,1 2,2 5,2z"/>
  <path id="21" class="fil2" d="M4571 1608l1 6c1,-2 3,-4 5,-5 2,-1 4,-2 7,-2 4,0 7,1 9,4 3,2 4,6 4,11l0 25 -7 0 0 -25c0,-3 -1,-6 -2,-7 -2,-1 -4,-2 -7,-2 -2,0 -3,0 -5,1 -2,1 -3,3 -4,4l0 29 -7 0 0 -39 6 0z"/>
  <path id="22" class="fil2" d="M4630 1636c0,-1 -1,-2 -2,-3 -1,-1 -3,-2 -7,-3 -4,-1 -8,-2 -10,-4 -3,-2 -4,-4 -4,-7 0,-4 1,-6 4,-9 3,-2 6,-3 11,-3 4,0 8,1 11,4 2,2 4,5 3,8l0 0 -6 0c0,-1 -1,-3 -3,-4 -1,-2 -3,-2 -5,-2 -3,0 -5,0 -6,1 -1,1 -2,3 -2,4 0,2 1,3 2,4 1,1 3,2 6,2 5,1 9,3 12,5 2,1 3,4 3,7 0,3 -1,6 -4,8 -3,3 -7,4 -11,4 -5,0 -9,-2 -12,-4 -3,-3 -4,-6 -4,-9l0 0 7 0c0,2 1,4 3,5 1,1 4,2 6,2 2,0 4,0 6,-2 1,-1 2,-2 2,-4z"/>
  <polygon id="23" class="fil2" points="4654,1647 4647,1647 4647,1590 4654,1590 "/>
  <path id="24" class="fil2" d="M4689 1647c0,-1 -1,-2 -1,-3 0,-1 0,-2 0,-3 -1,2 -3,4 -5,5 -2,1 -5,2 -7,2 -4,0 -7,-1 -9,-3 -3,-3 -4,-5 -4,-9 0,-4 2,-7 5,-9 3,-2 7,-3 12,-3l8 0 0 -4c0,-2 -1,-4 -2,-5 -2,-2 -4,-2 -6,-2 -2,0 -4,0 -6,1 -1,2 -2,3 -2,5l-7 0 0 -1c0,-2 2,-5 4,-7 3,-3 7,-4 11,-4 5,0 8,1 11,3 3,3 4,6 4,10l0 19c0,1 0,3 0,4 0,1 1,3 1,4l-7 0zm-12 -5c3,0 5,-1 7,-2 2,-2 3,-3 4,-5l0 -6 -8 0c-3,0 -5,0 -7,2 -2,1 -3,3 -3,5 0,2 1,3 2,4 1,1 3,2 5,2z"/>
  <path id="25" class="fil2" d="M4715 1598l0 10 7 0 0 5 -7 0 0 24c0,2 0,3 1,4 1,0 2,1 3,1 0,0 1,0 1,-1 1,0 1,0 2,0l1 5c-1,1 -2,1 -3,1 -1,1 -2,1 -3,1 -3,0 -5,-1 -7,-3 -1,-2 -2,-4 -2,-8l0 -24 -6 0 0 -5 6 0 0 -10 7 0z"/>
  <path id="26" class="fil2" d="M4739 1647l-7 0 0 -39 7 0 0 39zm0 -49l-7 0 0 -8 7 0 0 8z"/>
  <path id="27" class="fil2" d="M4748 1627c0,-6 2,-11 5,-14 3,-4 7,-6 13,-6 5,0 9,2 13,6 3,3 4,8 4,14l0 1c0,6 -1,10 -4,14 -4,4 -8,6 -13,6 -6,0 -10,-2 -13,-6 -3,-4 -5,-8 -5,-14l0 -1zm7 1c0,4 1,7 3,10 2,3 4,4 8,4 3,0 6,-1 7,-4 2,-3 3,-6 3,-10l0 -1c0,-4 -1,-8 -3,-10 -1,-3 -4,-4 -7,-4 -4,0 -6,1 -8,4 -2,2 -3,6 -3,10l0 1z"/>
  <path id="28" class="fil2" d="M4798 1608l1 6c1,-2 3,-4 5,-5 2,-1 4,-2 6,-2 5,0 8,1 10,4 3,2 4,6 4,11l0 25 -7 0 0 -25c0,-3 -1,-6 -2,-7 -2,-1 -4,-2 -7,-2 -2,0 -4,0 -5,1 -2,1 -3,3 -4,4l0 29 -7 0 0 -39 6 0z"/>
  <path id="29" class="fil2" d="M4883 1634c0,-3 -1,-5 -3,-6 -2,-2 -5,-3 -10,-4 -5,-2 -10,-4 -13,-6 -3,-3 -4,-6 -4,-10 0,-4 1,-8 5,-10 3,-3 7,-5 13,-5 5,0 10,2 13,5 4,3 6,7 5,11l0 0 -6 0c0,-3 -2,-5 -4,-7 -2,-2 -5,-3 -8,-3 -4,0 -7,1 -9,2 -1,2 -2,4 -2,7 0,2 1,4 3,5 2,2 5,3 10,5 5,1 10,3 12,6 3,2 5,6 5,10 0,4 -2,7 -5,10 -4,2 -8,4 -14,4 -5,0 -10,-2 -14,-5 -4,-3 -6,-6 -6,-11l0 0 7 0c0,3 1,6 4,7 2,2 5,3 9,3 4,0 6,-1 8,-2 3,-2 4,-4 4,-6z"/>
  <path id="30" class="fil2" d="M4915 1648c-5,0 -10,-2 -13,-6 -3,-3 -5,-8 -5,-14l0 -2c0,-5 2,-10 5,-13 3,-4 7,-6 12,-6 5,0 9,2 12,5 3,3 4,7 4,13l0 4 -25 0 -1 0c1,4 2,7 3,9 2,3 5,4 8,4 2,0 5,0 6,-1 2,-1 4,-2 5,-3l3 5c-1,1 -3,2 -6,3 -2,1 -5,2 -8,2zm-1 -35c-2,0 -4,1 -6,3 -2,2 -3,4 -3,7l0 0 18 0 0 -1c0,-2 -1,-5 -2,-7 -2,-1 -4,-2 -7,-2z"/>
  <path id="31" class="fil2" d="M4957 1614l-4 0c-2,0 -4,0 -5,1 -1,1 -2,2 -3,4l0 28 -7 0 0 -39 6 0 1 5c1,-2 3,-3 4,-4 2,-1 4,-2 6,-2 0,0 1,0 1,0 1,0 1,0 2,0l-1 7z"/>
  <polygon id="32" class="fil2" points="4977,1635 4978,1638 4978,1638 4979,1635 4988,1608 4995,1608 4981,1647 4975,1647 4961,1608 4968,1608 "/>
  <path id="33" class="fil2" d="M5009 1647l-7 0 0 -39 7 0 0 39zm0 -49l-7 0 0 -8 7 0 0 8z"/>
  <path id="34" class="fil2" d="M5036 1642c2,0 4,-1 6,-2 2,-2 3,-3 3,-6l6 0 0 1c1,3 -1,6 -4,9 -3,2 -7,4 -11,4 -6,0 -10,-2 -13,-6 -3,-4 -5,-8 -5,-14l0 -1c0,-6 2,-11 5,-14 3,-4 7,-6 13,-6 5,0 8,1 11,4 3,3 5,6 4,10l0 0 -6 0c0,-2 -1,-4 -3,-6 -1,-2 -3,-2 -6,-2 -4,0 -6,1 -8,4 -2,2 -2,6 -2,10l0 1c0,4 0,7 2,10 2,3 4,4 8,4z"/>
  <path id="35" class="fil2" d="M5076 1648c-6,0 -10,-2 -13,-6 -4,-3 -5,-8 -5,-14l0 -2c0,-5 2,-10 5,-13 3,-4 7,-6 12,-6 5,0 9,2 12,5 2,3 4,7 4,13l0 4 -26 0 0 0c0,4 1,7 3,9 2,3 4,4 8,4 2,0 4,0 6,-1 2,-1 3,-2 5,-3l3 5c-2,1 -4,2 -6,3 -2,1 -5,2 -8,2zm-1 -35c-3,0 -5,1 -6,3 -2,2 -3,4 -4,7l0 0 19 0 0 -1c0,-2 -1,-5 -3,-7 -1,-1 -3,-2 -6,-2z"/>
  <g id="_865524336">
   <g>
    <rect class="fil1 str0" x="1234" y="854" width="290" height="394"/>
    <line class="fil0 str0" x1="1412" y1="923" x2="1475" y2= "923" />
    <line class="fil0 str0" x1="1302" y1="969" x2="1421" y2= "969" />
    <line class="fil0 str0" x1="1388" y1="1021" x2="1475" y2= "1021" />
    <line class="fil0 str0" x1="1283" y1="1126" x2="1379" y2= "1126" />
    <line class="fil0 str0" x1="1283" y1="923" x2="1340" y2= "923" />
    <line class="fil0 str0" x1="1309" y1="1045" x2="1397" y2= "1045" />
    <line class="fil0 str0" x1="1362" y1="1071" x2="1449" y2= "1071" />
    <line class="fil0 str0" x1="1283" y1="1091" x2="1371" y2= "1091" />
    <line class="fil0 str0" x1="1379" y1="1153" x2="1475" y2= "1153" />
    <line class="fil0 str0" x1="1407" y1="1126" x2="1460" y2= "1126" />
    <line class="fil0 str0" x1="1283" y1="1192" x2="1379" y2= "1192" />
   </g>
   <g>
    <rect class="fil1 str0" x="1314" y="959" width="290" height="394"/>
    <line class="fil0 str0" x1="1492" y1="1284" x2="1555" y2= "1284" />
    <line class="fil0 str0" x1="1382" y1="1239" x2="1501" y2= "1239" />
    <line class="fil0 str0" x1="1468" y1="1186" x2="1555" y2= "1186" />
    <line class="fil0 str0" x1="1363" y1="1082" x2="1459" y2= "1082" />
    <line class="fil0 str0" x1="1363" y1="1284" x2="1420" y2= "1284" />
    <line class="fil0 str0" x1="1389" y1="1163" x2="1477" y2= "1163" />
    <line class="fil0 str0" x1="1442" y1="1137" x2="1529" y2= "1137" />
    <line class="fil0 str0" x1="1363" y1="1116" x2="1451" y2= "1116" />
    <line class="fil0 str0" x1="1459" y1="1054" x2="1555" y2= "1054" />
    <line class="fil0 str0" x1="1487" y1="1082" x2="1540" y2= "1082" />
    <line class="fil0 str0" x1="1363" y1="1016" x2="1459" y2= "1016" />
   </g>
   <g>
    <rect class="fil1 str0" x="1394" y="1064" width="290" height="394"/>
    <line class="fil0 str0" x1="1572" y1="1133" x2="1635" y2= "1133" />
    <line class="fil0 str0" x1="1462" y1="1178" x2="1582" y2= "1178" />
    <line class="fil0 str0" x1="1548" y1="1231" x2="1635" y2= "1231" />
    <line class="fil0 str0" x1="1444" y1="1335" x2="1539" y2= "1335" />
    <line class="fil0 str0" x1="1444" y1="1133" x2="1501" y2= "1133" />
    <line class="fil0 str0" x1="1470" y1="1254" x2="1557" y2= "1254" />
    <line class="fil0 str0" x1="1522" y1="1280" x2="1609" y2= "1280" />
    <line class="fil0 str0" x1="1444" y1="1301" x2="1531" y2= "1301" />
    <line class="fil0 str0" x1="1539" y1="1363" x2="1635" y2= "1363" />
    <line class="fil0 str0" x1="1567" y1="1335" x2="1620" y2= "1335" />
    <line class="fil0 str0" x1="1444" y1="1401" x2="1539" y2= "1401" />
   </g>
  </g>
  <g id="_865534096">
   <g>
    <rect class="fil1 str0" x="3443" y="854" width="290" height="394"/>
    <line class="fil0 str0" x1="3493" y1="923" x2="3574" y2= "923" />
    <line class="fil0 str0" x1="3493" y1="985" x2="3574" y2= "985" />
    <line class="fil0 str0" x1="3493" y1="1046" x2="3574" y2= "1046" />
    <polygon class="fil6" points="3558,1204 3545,1204 3545,1192 3558,1192 "/>
    <path id="1" class="fil6" d="M3585 1179l0 25 -13 0 0 -67 26 0c8,0 14,2 18,6 5,4 7,9 7,15 0,6 -2,12 -7,16 -4,3 -10,5 -18,5l-13 0zm0 -10l13 0c4,0 7,-1 9,-3 2,-2 3,-5 3,-8 0,-3 -1,-6 -3,-8 -2,-2 -5,-3 -9,-3l-13 0 0 22z"/>
    <path id="2" class="fil6" d="M3687 1176c0,8 -3,15 -8,20 -5,6 -12,8 -20,8 -9,0 -15,-2 -20,-8 -6,-5 -8,-12 -8,-20l0 -12c0,-8 2,-15 8,-20 5,-5 11,-8 20,-8 8,0 15,3 20,8 5,5 8,12 8,20l0 12zm-14 -12c0,-5 -1,-9 -4,-13 -2,-3 -6,-5 -10,-5 -5,0 -9,2 -11,5 -3,3 -4,8 -4,13l0 12c0,5 1,10 4,13 3,3 6,5 11,5 4,0 8,-2 10,-5 3,-3 4,-8 4,-13l0 -12z"/>
    <line class="fil0 str0" x1="3603" y1="923" x2="3684" y2= "923" />
    <line class="fil0 str0" x1="3603" y1="985" x2="3684" y2= "985" />
    <line class="fil0 str0" x1="3603" y1="1046" x2="3684" y2= "1046" />
   </g>
   <g>
    <rect class="fil1 str0" x="3524" y="959" width="290" height="394"/>
    <line class="fil0 str0" x1="3573" y1="1028" x2="3654" y2= "1028" />
    <line class="fil0 str0" x1="3573" y1="1090" x2="3654" y2= "1090" />
    <line class="fil0 str0" x1="3573" y1="1151" x2="3654" y2= "1151" />
    <polygon class="fil6" points="3638,1308 3625,1308 3625,1297 3638,1297 "/>
    <path id="1" class="fil6" d="M3665 1284l0 24 -13 0 0 -66 26 0c8,0 14,2 19,5 4,4 6,10 6,16 0,6 -2,11 -6,15 -5,4 -11,6 -19,6l-13 0zm0 -10l13 0c4,0 7,-1 9,-3 2,-2 3,-5 3,-8 0,-3 -1,-6 -3,-8 -2,-2 -5,-3 -9,-3l-13 0 0 22z"/>
    <path id="2" class="fil6" d="M3767 1281c0,8 -3,15 -8,20 -5,6 -12,8 -20,8 -8,0 -15,-2 -20,-8 -5,-5 -8,-12 -8,-20l0 -12c0,-8 3,-15 8,-20 5,-6 11,-8 20,-8 8,0 15,2 20,8 5,5 8,12 8,20l0 12zm-14 -12c0,-5 -1,-10 -4,-13 -2,-3 -6,-5 -10,-5 -5,0 -8,2 -11,5 -2,3 -4,8 -4,13l0 12c0,5 2,10 4,13 3,3 6,5 11,5 4,0 8,-2 10,-5 3,-3 4,-8 4,-13l0 -12z"/>
    <line class="fil0 str0" x1="3683" y1="1028" x2="3764" y2= "1028" />
    <line class="fil0 str0" x1="3683" y1="1090" x2="3764" y2= "1090" />
    <line class="fil0 str0" x1="3683" y1="1151" x2="3764" y2= "1151" />
   </g>
   <g>
    <rect class="fil1 str0" x="3604" y="1064" width="290" height="394"/>
    <line class="fil0 str0" x1="3653" y1="1133" x2="3734" y2= "1133" />
    <line class="fil0 str0" x1="3653" y1="1194" x2="3734" y2= "1194" />
    <line class="fil0 str0" x1="3653" y1="1256" x2="3734" y2= "1256" />
    <polygon class="fil6" points="3718,1413 3705,1413 3705,1401 3718,1401 "/>
    <path id="1" class="fil6" d="M3745 1389l0 24 -13 0 0 -67 27 0c7,0 13,2 18,6 4,4 6,9 6,16 0,6 -2,11 -6,15 -5,4 -11,6 -18,6l-14 0zm0 -10l14 0c3,0 6,-1 8,-3 2,-2 3,-5 3,-8 0,-3 -1,-6 -3,-8 -2,-2 -5,-3 -8,-3l-14 0 0 22z"/>
    <path id="2" class="fil6" d="M3847 1386c0,8 -3,15 -8,20 -5,5 -12,8 -20,8 -8,0 -15,-3 -20,-8 -5,-5 -8,-12 -8,-20l0 -12c0,-8 3,-15 8,-20 5,-6 12,-9 20,-9 8,0 15,3 20,9 5,5 8,12 8,20l0 12zm-13 -12c0,-6 -2,-10 -4,-13 -3,-4 -7,-5 -11,-5 -5,0 -8,1 -11,5 -2,3 -3,7 -3,13l0 12c0,5 1,9 3,13 3,3 6,5 11,5 5,0 8,-2 11,-5 2,-4 4,-8 4,-13l0 -12z"/>
    <line class="fil0 str0" x1="3764" y1="1133" x2="3845" y2= "1133" />
    <line class="fil0 str0" x1="3764" y1="1194" x2="3845" y2= "1194" />
    <line class="fil0 str0" x1="3764" y1="1256" x2="3845" y2= "1256" />
   </g>
  </g>
  <g id="_865538864">
   <g>
    <path class="fil3" d="M2882 1224l102 43c-15,-29 -15,-58 0,-87l-102 44z"/>
    <rect class="fil3" x="2944" y="1209" width="406.398" height="28.1729"/>
   </g>
   <g>
    <path class="fil4" d="M3351 1065l-102 -44c14,30 14,58 0,88l102 -44z"/>
    <rect class="fil5" x="2882" y="1051" width="406.398" height="28.1729"/>
   </g>
  </g>
  <g id="_865541072">
   <g>
    <path class="fil3" d="M3987 1224l101 43c-14,-29 -14,-58 0,-87l-101 44z"/>
    <rect class="fil3" x="4049" y="1209" width="406.398" height="28.1729"/>
   </g>
   <g>
    <path class="fil4" d="M4455 1065l-101 -44c14,30 14,58 0,88l101 -44z"/>
    <rect class="fil5" x="3987" y="1051" width="406.398" height="28.1729"/>
   </g>
  </g>
  <polygon class="fil6" points="2551,1165 2532,1165 2532,1222 2519,1222 2519,1165 2500,1165 2500,1155 2551,1155 "/>
  <polygon id="1" class="fil6" points="2576,1155 2593,1204 2593,1204 2610,1155 2628,1155 2628,1222 2615,1222 2615,1202 2616,1172 2616,1172 2598,1222 2589,1222 2571,1173 2571,1173 2572,1202 2572,1222 2559,1222 2559,1155 "/>
  <path class="fil2" d="M177 1568c0,-3 -1,-5 -3,-6 -2,-2 -5,-3 -10,-4 -5,-2 -10,-4 -13,-6 -3,-3 -4,-6 -4,-10 0,-4 1,-8 5,-10 3,-3 7,-4 13,-4 5,0 10,1 13,4 4,3 6,7 5,11l0 1 -6 0c0,-4 -2,-6 -4,-8 -2,-2 -5,-3 -8,-3 -4,0 -7,1 -9,3 -1,1 -2,3 -2,6 0,2 1,4 3,6 2,1 5,2 10,4 5,1 10,3 12,6 3,2 5,6 5,10 0,4 -2,7 -5,10 -4,2 -8,4 -14,4 -5,0 -10,-2 -14,-5 -4,-2 -6,-6 -6,-11l0 0 7 0c0,3 1,6 4,7 2,2 5,3 9,3 4,0 6,-1 8,-2 3,-2 4,-4 4,-6z"/>
  <path id="1" class="fil2" d="M191 1561c0,-6 2,-10 5,-14 3,-4 7,-6 13,-6 5,0 9,2 13,6 3,3 4,8 4,14l0 1c0,6 -1,10 -4,14 -4,4 -8,6 -13,6 -6,0 -10,-2 -13,-6 -3,-4 -5,-8 -5,-14l0 -1zm7 1c0,4 1,7 3,10 2,3 4,4 8,4 3,0 6,-1 7,-4 2,-3 3,-6 3,-10l0 -1c0,-4 -1,-7 -3,-10 -1,-3 -4,-4 -7,-4 -4,0 -6,1 -8,4 -2,3 -3,6 -3,10l0 1z"/>
  <path id="2" class="fil2" d="M260 1575c-1,2 -3,4 -5,5 -2,1 -4,2 -7,2 -4,0 -7,-2 -10,-4 -2,-3 -3,-7 -3,-13l0 -23 7 0 0 23c0,4 1,7 2,9 1,1 3,2 6,2 2,0 4,-1 6,-2 1,-1 3,-2 4,-4l0 -28 7 0 0 39 -7 0 0 -6z"/>
  <path id="3" class="fil2" d="M296 1548l-4 0c-2,0 -3,0 -5,1 -1,1 -2,2 -3,4l0 28 -7 0 0 -39 6 0 1 6c1,-2 3,-4 4,-5 2,-1 4,-2 6,-2 0,0 1,0 1,0 1,0 1,0 2,1l-1 6z"/>
  <path id="4" class="fil2" d="M318 1576c2,0 4,-1 6,-2 2,-2 3,-3 3,-5l6 0 0 0c0,3 -1,6 -4,9 -3,2 -7,4 -11,4 -6,0 -10,-2 -13,-6 -3,-4 -5,-8 -5,-14l0 -1c0,-6 2,-11 5,-14 3,-4 7,-6 13,-6 4,0 8,1 11,4 3,3 4,6 4,10l0 0 -6 0c0,-2 -1,-4 -3,-6 -1,-1 -4,-2 -6,-2 -4,0 -7,1 -8,4 -2,2 -3,6 -3,10l0 1c0,4 1,7 3,10 1,3 4,4 8,4z"/>
  <path id="5" class="fil2" d="M357 1582c-5,0 -9,-2 -13,-6 -3,-3 -4,-8 -4,-14l0 -1c0,-6 1,-11 5,-14 3,-4 7,-6 11,-6 6,0 10,2 12,5 3,3 4,7 4,13l0 4 -25 0 0 0c0,4 1,7 3,10 2,2 4,3 7,3 3,0 5,0 7,-1 2,-1 3,-2 5,-3l2 5c-1,1 -3,2 -5,3 -2,1 -5,2 -9,2zm-1 -35c-2,0 -4,1 -6,3 -1,2 -2,4 -3,7l0 0 18 0 0 0c0,-3 0,-6 -2,-7 -1,-2 -4,-3 -7,-3z"/>
  <path id="6" class="fil2" d="M437 1564l1 0c0,5 -2,9 -6,13 -3,3 -8,5 -14,5 -6,0 -11,-2 -14,-7 -4,-4 -6,-9 -6,-16l0 -9c0,-7 2,-12 6,-16 3,-4 8,-6 14,-6 6,0 11,1 14,4 4,4 6,8 6,13l-1 0 -6 0c0,-4 -1,-6 -4,-9 -2,-2 -5,-3 -9,-3 -4,0 -7,2 -9,5 -3,3 -4,7 -4,12l0 9c0,5 1,9 4,12 2,4 5,5 9,5 4,0 7,-1 9,-3 3,-2 4,-5 4,-9l6 0z"/>
  <path id="7" class="fil2" d="M444 1561c0,-6 2,-10 5,-14 3,-4 7,-6 13,-6 5,0 9,2 13,6 3,3 4,8 4,14l0 1c0,6 -1,10 -4,14 -4,4 -8,6 -13,6 -6,0 -10,-2 -13,-6 -3,-4 -5,-8 -5,-14l0 -1zm7 1c0,4 1,7 3,10 2,3 4,4 8,4 3,0 6,-1 8,-4 1,-3 2,-6 2,-10l0 -1c0,-4 -1,-7 -3,-10 -1,-3 -4,-4 -7,-4 -4,0 -6,1 -8,4 -2,3 -3,6 -3,10l0 1z"/>
  <path id="8" class="fil2" d="M486 1562c0,-6 2,-11 4,-15 3,-4 7,-6 12,-6 2,0 4,1 6,1 2,1 3,2 4,4l0 -21 8 0 0 56 -6 0 -1 -5c-1,2 -3,3 -5,4 -2,1 -4,2 -6,2 -5,0 -9,-2 -12,-5 -2,-4 -4,-8 -4,-14l0 -1zm8 1c0,4 0,7 2,9 2,3 4,4 7,4 3,0 4,0 6,-1 1,-1 2,-3 3,-5l0 -18c-1,-1 -2,-3 -3,-4 -2,-1 -3,-1 -5,-1 -4,0 -6,1 -8,4 -2,3 -2,7 -2,11l0 1z"/>
  <path id="9" class="fil2" d="M546 1582c-5,0 -9,-2 -13,-6 -3,-3 -4,-8 -4,-14l0 -1c0,-6 1,-11 5,-14 3,-4 7,-6 11,-6 6,0 10,2 12,5 3,3 4,7 4,13l0 4 -25 0 0 0c0,4 1,7 3,10 2,2 4,3 7,3 3,0 5,0 7,-1 2,-1 3,-2 5,-3l2 5c-1,1 -3,2 -5,3 -3,1 -5,2 -9,2zm-1 -35c-2,0 -4,1 -6,3 -1,2 -3,4 -3,7l0 0 18 0 0 0c0,-3 0,-6 -2,-7 -1,-2 -4,-3 -7,-3z"/>
  <path id="10" class="fil2" d="M156 1624l0 23 -7 0 0 -53 19 0c6,0 11,2 14,4 3,3 4,6 4,11 0,3 -1,5 -2,7 -1,2 -3,4 -6,5 3,1 5,3 6,5 1,2 2,4 2,7l0 5c0,2 0,4 1,5 0,1 1,2 1,3l0 1 -7 0c-1,-1 -1,-2 -2,-4 0,-1 0,-3 0,-5l0 -4c0,-3 -1,-6 -3,-7 -1,-2 -4,-3 -6,-3l-14 0zm0 -6l12 0c4,0 7,0 8,-2 2,-1 3,-4 3,-7 0,-3 -1,-5 -3,-7 -1,-1 -4,-2 -8,-2l-12 0 0 18z"/>
  <path id="11" class="fil2" d="M213 1648c-5,0 -9,-2 -13,-6 -3,-3 -5,-8 -5,-14l0 -2c0,-5 2,-10 5,-13 4,-4 8,-6 12,-6 6,0 10,2 12,5 3,3 4,7 4,13l0 4 -25 0 0 0c0,4 1,7 3,9 1,3 4,4 7,4 3,0 5,0 7,-1 2,-1 3,-2 4,-3l3 5c-1,1 -3,2 -5,3 -3,1 -5,2 -9,2zm-1 -35c-2,0 -4,1 -6,3 -2,2 -3,4 -3,7l0 0 18 0 0 -1c0,-2 -1,-5 -2,-7 -2,-1 -4,-2 -7,-2z"/>
  <path id="12" class="fil2" d="M270 1629c0,5 -2,10 -4,13 -3,4 -7,6 -12,6 -2,0 -4,-1 -6,-2 -2,0 -3,-2 -5,-3l0 19 -7 0 0 -54 6 0 1 5c1,-2 3,-4 5,-4 2,-1 4,-2 6,-2 5,0 9,2 12,6 2,4 4,9 4,15l0 1zm-7 -1c0,-4 -1,-8 -3,-11 -2,-3 -4,-4 -8,-4 -2,0 -4,0 -5,1 -2,1 -3,2 -4,4l0 19c1,2 2,3 4,4 1,1 3,1 5,1 4,0 6,-1 8,-4 2,-2 3,-5 3,-9l0 -1z"/>
  <path id="13" class="fil2" d="M277 1627c0,-6 1,-11 4,-14 4,-4 8,-6 13,-6 6,0 10,2 13,6 3,3 5,8 5,14l0 1c0,6 -2,10 -5,14 -3,4 -7,6 -13,6 -5,0 -9,-2 -12,-6 -4,-4 -5,-8 -5,-14l0 -1zm7 1c0,4 1,7 3,10 1,3 4,4 7,4 4,0 6,-1 8,-4 2,-3 3,-6 3,-10l0 -1c0,-4 -1,-8 -3,-10 -2,-3 -4,-4 -8,-4 -3,0 -6,1 -7,4 -2,2 -3,6 -3,10l0 1z"/>
  <path id="14" class="fil2" d="M343 1636c0,-1 0,-2 -1,-3 -2,-1 -4,-2 -7,-3 -5,-1 -9,-2 -11,-4 -2,-2 -4,-4 -4,-7 0,-4 2,-6 5,-9 2,-2 6,-3 10,-3 5,0 8,1 11,4 3,2 4,5 4,8l0 0 -7 0c0,-1 -1,-3 -2,-4 -2,-2 -4,-2 -6,-2 -2,0 -4,0 -6,1 -1,1 -1,3 -1,4 0,2 0,3 1,4 1,1 4,2 7,2 5,1 8,3 11,5 2,1 4,4 4,7 0,3 -2,6 -5,8 -3,3 -6,4 -11,4 -5,0 -9,-2 -12,-4 -2,-3 -4,-6 -4,-9l0 0 7 0c0,2 1,4 3,5 2,1 4,2 6,2 3,0 5,0 6,-2 2,-1 2,-2 2,-4z"/>
  <path id="15" class="fil2" d="M367 1647l-7 0 0 -39 7 0 0 39zm0 -49l-7 0 0 -8 7 0 0 8z"/>
  <path id="16" class="fil2" d="M388 1598l0 10 7 0 0 5 -7 0 0 24c0,2 0,3 1,4 0,0 1,1 3,1 0,0 1,0 1,-1 1,0 1,0 1,0l1 5c0,1 -1,1 -2,1 -1,1 -2,1 -3,1 -3,0 -5,-1 -7,-3 -2,-2 -3,-4 -3,-8l0 -24 -6 0 0 -5 6 0 0 -10 8 0z"/>
  <path id="17" class="fil2" d="M402 1627c0,-6 2,-11 5,-14 3,-4 7,-6 13,-6 5,0 9,2 12,6 4,3 5,8 5,14l0 1c0,6 -1,10 -5,14 -3,4 -7,6 -12,6 -6,0 -10,-2 -13,-6 -3,-4 -5,-8 -5,-14l0 -1zm7 1c0,4 1,7 3,10 2,3 4,4 8,4 3,0 6,-1 7,-4 2,-3 3,-6 3,-10l0 -1c0,-4 -1,-8 -3,-10 -1,-3 -4,-4 -7,-4 -4,0 -6,1 -8,4 -2,2 -3,6 -3,10l0 1z"/>
  <path id="18" class="fil2" d="M464 1614l-3 0c-2,0 -4,0 -5,1 -1,1 -2,2 -3,4l0 28 -7 0 0 -39 6 0 1 5c1,-2 2,-3 4,-4 2,-1 4,-2 6,-2 0,0 1,0 1,0 1,0 1,0 1,0l-1 7z"/>
  <path id="19" class="fil2" d="M479 1647l-7 0 0 -39 7 0 0 39zm0 -49l-7 0 0 -8 7 0 0 8z"/>
  <path id="20" class="fil2" d="M506 1648c-5,0 -10,-2 -13,-6 -3,-3 -5,-8 -5,-14l0 -2c0,-5 2,-10 5,-13 4,-4 8,-6 12,-6 5,0 9,2 12,5 3,3 4,7 4,13l0 4 -25 0 0 0c0,4 1,7 3,9 1,3 4,4 7,4 3,0 5,0 7,-1 1,-1 3,-2 4,-3l3 5c-1,1 -3,2 -5,3 -3,1 -5,2 -9,2zm-1 -35c-2,0 -4,1 -6,3 -2,2 -3,4 -3,7l0 0 18 0 0 -1c0,-2 -1,-5 -2,-7 -2,-1 -4,-2 -7,-2z"/>
  <path id="21" class="fil2" d="M552 1636c0,-1 -1,-2 -2,-3 -1,-1 -3,-2 -7,-3 -4,-1 -8,-2 -10,-4 -3,-2 -4,-4 -4,-7 0,-4 1,-6 4,-9 3,-2 6,-3 11,-3 4,0 8,1 11,4 2,2 4,5 3,8l0 0 -6 0c0,-1 -1,-3 -3,-4 -1,-2 -3,-2 -5,-2 -3,0 -5,0 -6,1 -1,1 -2,3 -2,4 0,2 1,3 2,4 1,1 3,2 6,2 5,1 9,3 12,5 2,1 3,4 3,7 0,3 -1,6 -4,8 -3,3 -7,4 -11,4 -5,0 -9,-2 -12,-4 -3,-3 -4,-6 -4,-9l0 0 7 0c0,2 1,4 3,5 1,1 4,2 6,2 2,0 4,0 6,-2 1,-1 2,-2 2,-4z"/>
  <g id="_865543728">
   <rect class="fil7 str0" transform="matrix(0.652632 0.652632 -0.652632 0.652632 354.638 855.191)" width="461" height="461" rx="47" ry="47"/>
   <line class="fil0 str0" x1="285" y1="925" x2="496" y2= "1136" />
   <line class="fil0 str0" x1="391" y1="1030" x2="391" y2= "1267" />
  </g>
  <g id="_865543056">
   <g>
    <path class="fil3" d="M673 1224l101 43c-14,-29 -14,-58 0,-87l-101 44z"/>
    <rect class="fil3" x="735" y="1209" width="406.398" height="28.1729"/>
   </g>
   <g>
    <path class="fil4" d="M1141 1065l-101 -44c14,30 14,58 0,88l101 -44z"/>
    <rect class="fil5" x="673" y="1051" width="406.398" height="28.1729"/>
   </g>
  </g>
  <g id="_865545776">
   <polygon class="fil6" points="4798,1130 4791,1140 4792,1140 4822,1126 4792,1111 4791,1112 4798,1122 4729,1122 4729,1130 "/>
   <g>
    <path class="fil6" d="M4694 1148l-23 0 -5 14 -13 0 23 -67 13 0 23 67 -13 0 -5 -14zm-20 -11l17 0 -8 -26 -1 0 -8 26z"/>
    <path class="fil6" d="M4889 1133l-27 0 0 19 32 0 0 10 -46 0 0 -67 46 0 0 11 -32 0 0 17 27 0 0 10zm-2 -44l-12 0 0 -9 12 0 0 9zm-23 0l-12 0 0 -9 12 0 0 9z"/>
   </g>
   <rect class="fil7 str0" x="4502" y="924" width="542" height="382" rx="19" ry="14"/>
   <rect class="fil7 str0" x="4615" y="1358" width="315.557" height="30.4985" rx="11" ry="1"/>
   <rect class="fil7 str0" x="4731" y="1306" width="85.0701" height="52.3806"/>
   <g>
    <polygon class="fil6" points="4798,1124 4791,1134 4792,1134 4822,1120 4792,1105 4791,1106 4798,1116 4729,1116 4729,1124 "/>
    <g>
     <path class="fil6" d="M4694 1142l-23 0 -5 14 -13 0 23 -67 13 0 23 67 -13 0 -5 -14zm-20 -11l17 0 -8 -26 -1 0 -8 26z"/>
     <path class="fil6" d="M4889 1127l-27 0 0 19 32 0 0 10 -46 0 0 -67 46 0 0 11 -32 0 0 16 27 0 0 11zm-2 -44l-12 0 0 -10 12 0 0 10zm-23 0l-12 0 0 -10 12 0 0 10z"/>
    </g>
   </g>
  </g>
  <path class="fil2" d="M799 969c1,-10 4,-18 9,-24 5,-7 9,-11 13,-14l1 0 0 5c-3,2 -6,6 -10,12 -3,6 -5,13 -6,21l0 1c-2,8 -2,15 -1,21 2,5 4,10 7,12l-2 4 -1 0c-3,-2 -6,-6 -9,-13 -2,-7 -3,-15 -1,-24l0 -1z"/>
  <polygon id="1" class="fil2" points="837,991 830,991 839,945 828,946 829,941 848,938 "/>
  <path id="2" class="fil2" d="M875 969c-1,10 -4,19 -9,25 -5,7 -9,11 -13,13l-1 0 0 -4c3,-2 6,-6 10,-12 3,-6 5,-13 6,-21l1 -1c1,-9 1,-16 -1,-21 -1,-6 -3,-10 -5,-13l2 -4 0 0c3,3 6,7 9,14 2,7 3,15 2,24l-1 0z"/>
  <path id="3" class="fil8" d="M937 972c0,6 -1,10 -4,14 -2,4 -6,5 -11,5 -2,0 -4,0 -5,-1 -2,-1 -3,-2 -4,-3l0 19 -11 0 0 -55 10 0 0 5c1,-2 3,-3 4,-4 2,-1 4,-1 6,-1 5,0 9,2 11,5 3,4 4,9 4,15l0 1zm-10 -1c0,-3 -1,-6 -2,-9 -1,-2 -3,-3 -6,-3 -1,0 -3,0 -4,1 -1,0 -2,1 -2,3l0 17c0,1 1,2 2,2 1,1 3,1 4,1 3,0 5,-1 6,-3 1,-2 2,-5 2,-8l0 -1z"/>
  <path id="4" class="fil8" d="M968 985c-1,2 -3,4 -5,5 -2,1 -4,1 -6,1 -4,0 -7,-1 -10,-4 -2,-2 -3,-6 -3,-12l0 -24 10 0 0 24c0,3 1,5 2,6 1,2 2,2 4,2 2,0 3,0 4,-1 1,0 2,-1 3,-2l0 -29 11 0 0 40 -9 0 -1 -6z"/>
  <polygon id="5" class="fil8" points="997,991 986,991 986,934 997,934 "/>
  <polygon id="6" class="fil8" points="1017,991 1006,991 1006,934 1017,934 "/>
  <path class="fil2" d="M778 1320c2,-10 5,-18 10,-25 4,-6 9,-11 13,-13l0 0 1 4c-3,3 -7,7 -10,13 -3,5 -5,12 -7,21l0 0c-1,9 -1,16 0,22 2,5 4,9 6,12l-2 4 0 0c-3,-2 -7,-7 -9,-13 -3,-7 -3,-15 -2,-25l0 0z"/>
  <path id="1" class="fil2" d="M804 1317l7 -28 25 0 -1 6 -19 0 -4 15c1,-1 2,-2 4,-2 1,-1 3,-1 4,-1 5,0 8,1 10,5 2,3 3,7 2,12 -1,6 -3,10 -6,13 -3,3 -7,5 -12,5 -4,0 -8,-1 -10,-4 -3,-2 -3,-6 -3,-10l0 -1 7 0c-1,3 0,6 1,7 1,2 3,2 5,2 3,0 5,-1 7,-3 2,-2 3,-5 4,-9 0,-3 0,-6 -1,-8 -1,-2 -3,-3 -6,-3 -2,0 -4,0 -6,1 -1,1 -2,2 -3,4l-5 -1z"/>
  <path id="2" class="fil2" d="M855 1320c-1,10 -5,18 -9,25 -5,6 -9,11 -14,13l0 0 -1 -4c4,-2 7,-7 10,-12 4,-6 6,-13 7,-22l0 0c2,-9 2,-16 0,-22 -1,-5 -3,-9 -6,-12l2 -4 1 0c3,2 6,7 9,14 2,6 3,14 1,24l0 0z"/>
  <path id="3" class="fil8" d="M917 1323c0,6 -1,10 -4,14 -3,3 -6,5 -11,5 -2,0 -4,0 -6,-1 -1,-1 -3,-2 -4,-3l0 18 -10 0 0 -54 9 0 1 5c1,-2 3,-3 4,-4 2,-1 4,-2 6,-2 5,0 8,2 11,6 3,4 4,9 4,15l0 1zm-10 -1c0,-4 -1,-7 -2,-9 -1,-2 -3,-3 -6,-3 -1,0 -3,0 -4,0 -1,1 -2,2 -3,3l0 17c1,2 2,2 3,3 1,1 3,1 4,1 3,0 5,-1 6,-3 1,-2 2,-5 2,-8l0 -1z"/>
  <path id="4" class="fil8" d="M948 1336c-2,2 -3,3 -5,4 -2,1 -4,2 -6,2 -5,0 -8,-1 -10,-4 -2,-3 -4,-7 -4,-12l0 -24 11 0 0 24c0,3 0,5 1,6 1,1 3,2 5,2 1,0 3,0 4,-1 1,-1 2,-1 3,-2l0 -29 11 0 0 39 -9 0 -1 -5z"/>
  <path id="5" class="fil8" d="M987 1330c0,-1 -1,-2 -2,-3 -1,0 -3,-1 -6,-2 -5,-1 -8,-2 -11,-4 -2,-2 -3,-4 -3,-8 0,-3 1,-6 4,-8 3,-2 7,-4 11,-4 5,0 9,2 12,4 3,2 5,5 5,9l0 0 -11 0c0,-2 0,-3 -1,-4 -1,-1 -3,-1 -5,-1 -1,0 -3,0 -4,1 -1,1 -1,2 -1,3 0,1 0,2 1,3 1,1 4,1 7,2 5,1 8,2 10,4 3,2 4,5 4,8 0,4 -2,6 -5,9 -3,2 -7,3 -11,3 -6,0 -10,-1 -13,-4 -3,-3 -4,-6 -4,-9l0 0 10 0c0,2 0,3 2,4 1,1 3,2 5,2 2,0 3,-1 4,-1 1,-1 2,-2 2,-4z"/>
  <path id="6" class="fil8" d="M1014 1307c1,-2 3,-3 5,-4 1,-1 3,-2 6,-2 4,0 7,2 9,4 3,3 4,7 4,13l0 23 -11 0 0 -23c0,-3 0,-5 -1,-7 -2,-1 -3,-1 -5,-1 -2,0 -3,0 -4,0 -1,1 -2,2 -3,2l0 29 -10 0 0 -56 10 0 0 22z"/>
  <path class="fil2" d="M1945 969c1,-10 4,-18 9,-24 5,-7 9,-11 14,-14l0 0 1 5c-4,2 -7,6 -10,12 -4,6 -6,13 -7,21l0 1c-2,8 -2,15 0,21 1,5 3,10 6,12l-2 4 0 0c-4,-2 -7,-6 -10,-13 -2,-7 -3,-15 -1,-24l0 -1z"/>
  <path id="1" class="fil2" d="M1978 962l0 -1 6 0c3,0 5,-1 6,-2 2,-2 3,-4 3,-7 1,-3 0,-5 -1,-7 -1,-2 -3,-2 -5,-2 -3,0 -5,1 -7,2 -1,2 -3,4 -3,7l-7 0 0 -1c1,-4 3,-7 6,-10 3,-3 7,-4 12,-4 4,0 7,1 10,4 2,3 3,6 2,11 0,2 -1,5 -3,7 -1,2 -3,3 -6,5 3,1 5,2 5,5 1,2 2,4 1,7 -1,5 -3,9 -6,11 -3,3 -7,4 -12,4 -4,0 -8,-1 -10,-4 -3,-2 -4,-6 -3,-10l0 0 7 0c-1,3 0,5 1,6 1,2 3,3 6,3 2,0 5,-1 6,-3 2,-1 4,-4 4,-7 1,-3 0,-6 -1,-7 -1,-2 -3,-2 -6,-2l-6 0 1 -5z"/>
  <polygon id="2" class="fil2" points="2011,991 2005,991 2006,983 2013,983 "/>
  <polygon id="3" class="fil2" points="2042,991 2035,991 2044,945 2033,946 2034,941 2053,938 "/>
  <path id="4" class="fil2" d="M2080 969c-2,10 -5,19 -9,25 -5,7 -10,11 -14,13l0 0 -1 -4c4,-2 7,-6 10,-12 3,-6 6,-13 7,-21l0 -1c1,-9 1,-16 0,-21 -1,-6 -3,-10 -6,-13l2 -4 0 0c4,3 7,7 9,14 3,7 4,15 2,24l0 0z"/>
  <path class="fil2" d="M3049 969c2,-10 5,-18 9,-24 5,-7 10,-11 14,-14l0 0 1 5c-4,2 -7,6 -10,12 -3,6 -6,13 -7,21l0 1c-1,8 -1,15 0,21 1,5 3,10 6,12l-2 4 0 0c-4,-2 -7,-6 -9,-13 -3,-7 -4,-15 -2,-24l0 -1z"/>
  <path id="1" class="fil2" d="M3082 962l0 -1 6 0c3,0 5,-1 7,-2 1,-2 2,-4 3,-7 0,-3 0,-5 -1,-7 -1,-2 -3,-2 -6,-2 -2,0 -4,1 -6,2 -2,2 -3,4 -4,7l-6 0 0 -1c0,-4 2,-7 5,-10 3,-3 7,-4 12,-4 4,0 8,1 10,4 2,3 3,6 2,11 0,2 -1,5 -2,7 -2,2 -4,3 -7,5 3,1 5,2 6,5 1,2 1,4 0,7 0,5 -2,9 -6,11 -3,3 -7,4 -12,4 -4,0 -8,-1 -10,-4 -3,-2 -4,-6 -3,-10l0 0 7 0c0,3 0,5 1,6 1,2 3,3 6,3 3,0 5,-1 7,-3 2,-1 3,-4 3,-7 1,-3 1,-6 0,-7 -1,-2 -4,-2 -7,-2l-5 0 0 -5z"/>
  <polygon id="2" class="fil2" points="3116,991 3109,991 3110,983 3117,983 "/>
  <path id="3" class="fil2" d="M3141 962l0 -1 6 0c2,0 5,-1 6,-2 2,-2 2,-4 3,-7 0,-3 0,-5 -1,-7 -1,-2 -3,-2 -6,-2 -2,0 -4,1 -6,2 -2,2 -3,4 -3,7l-7 0 0 -1c1,-4 2,-7 6,-10 3,-3 7,-4 11,-4 5,0 8,1 10,4 3,3 4,6 3,11 -1,2 -1,5 -3,7 -2,2 -4,3 -6,5 2,1 4,2 5,5 1,2 1,4 1,7 -1,5 -3,9 -6,11 -4,3 -8,4 -12,4 -5,0 -8,-1 -11,-4 -2,-2 -3,-6 -2,-10l0 0 6 0c0,3 0,5 2,6 1,2 3,3 5,3 3,0 5,-1 7,-3 2,-1 3,-4 4,-7 0,-3 0,-6 -1,-7 -1,-2 -3,-2 -6,-2l-6 0 1 -5z"/>
  <path id="4" class="fil2" d="M3184 969c-1,10 -4,19 -9,25 -5,7 -9,11 -14,13l0 0 -1 -4c4,-2 7,-6 10,-12 4,-6 6,-13 7,-21l0 -1c2,-9 2,-16 0,-21 -1,-6 -3,-10 -6,-13l2 -4 1 0c3,3 6,7 9,14 2,7 3,15 1,24l0 0z"/>
  <path class="fil2" d="M4035 969c2,-10 5,-18 10,-24 4,-7 9,-11 13,-14l0 0 1 5c-3,2 -7,6 -10,12 -3,6 -5,13 -7,21l0 1c-1,8 -1,15 0,21 2,5 4,10 6,12l-2 4 0 0c-3,-2 -7,-6 -9,-13 -3,-7 -3,-15 -2,-24l0 -1z"/>
  <path id="1" class="fil2" d="M4085 973l6 0 -1 5 -6 0 -3 13 -7 0 3 -13 -22 0 0 -4 29 -36 8 0 -7 35zm-22 0l0 0 15 0 5 -24 -1 0 0 1 -19 23z"/>
  <path id="2" class="fil2" d="M4112 969c-1,10 -5,19 -9,25 -5,7 -9,11 -14,13l0 0 -1 -4c4,-2 7,-6 10,-12 4,-6 6,-13 7,-21l0 -1c2,-9 2,-16 0,-21 -1,-6 -3,-10 -6,-13l2 -4 1 0c3,3 6,7 9,14 2,7 3,15 1,24l0 0z"/>
  <path id="3" class="fil8" d="M4174 972c0,6 -1,10 -4,14 -3,4 -6,5 -11,5 -2,0 -4,0 -6,-1 -1,-1 -3,-2 -4,-3l0 19 -10 0 0 -55 9 0 1 5c1,-2 3,-3 4,-4 2,-1 4,-1 6,-1 5,0 8,2 11,5 3,4 4,9 4,15l0 1zm-10 -1c0,-3 -1,-6 -2,-9 -1,-2 -3,-3 -6,-3 -1,0 -3,0 -4,1 -1,0 -2,1 -3,3l0 17c1,1 2,2 3,2 1,1 3,1 4,1 3,0 5,-1 6,-3 1,-2 2,-5 2,-8l0 -1z"/>
  <path id="4" class="fil8" d="M4205 985c-2,2 -3,4 -5,5 -2,1 -4,1 -6,1 -5,0 -8,-1 -10,-4 -2,-2 -4,-6 -4,-12l0 -24 11 0 0 24c0,3 0,5 1,6 1,2 3,2 5,2 1,0 3,0 4,-1 1,0 2,-1 3,-2l0 -29 11 0 0 40 -9 0 -1 -6z"/>
  <path id="5" class="fil8" d="M4244 980c0,-1 -1,-2 -2,-3 -1,-1 -3,-2 -6,-2 -5,-1 -8,-3 -11,-5 -2,-2 -3,-4 -3,-7 0,-4 1,-6 4,-9 3,-2 7,-3 11,-3 5,0 9,1 12,3 3,3 5,5 5,9l0 0 -11 0c0,-1 0,-3 -1,-4 -1,-1 -3,-1 -5,-1 -1,0 -3,0 -4,1 -1,1 -1,2 -1,3 0,2 0,2 1,3 1,1 4,2 7,2 5,1 8,3 10,5 3,1 4,4 4,7 0,4 -2,7 -5,9 -3,2 -7,3 -11,3 -6,0 -10,-1 -13,-4 -3,-2 -4,-5 -4,-9l0 0 10 0c0,2 0,4 2,5 1,1 3,1 5,1 2,0 3,0 4,-1 1,-1 2,-2 2,-3z"/>
  <path id="6" class="fil8" d="M4271 956c1,-1 3,-3 5,-4 1,-1 3,-1 6,-1 4,0 7,1 9,4 3,2 4,7 4,12l0 24 -11 0 0 -24c0,-3 0,-5 -1,-6 -2,-2 -3,-2 -5,-2 -2,0 -3,0 -4,1 -1,0 -2,1 -3,2l0 29 -10 0 0 -57 10 0 0 22z"/>
  <polygon id="7" class="fil8" points="4323,972 4303,972 4303,964 4323,964 "/>
  <path id="8" class="fil8" d="M4367 972c0,6 -1,10 -4,14 -3,4 -6,5 -11,5 -2,0 -4,0 -6,-1 -1,-1 -3,-2 -4,-3l0 19 -10 0 0 -55 9 0 1 5c1,-2 2,-3 4,-4 2,-1 4,-1 6,-1 5,0 8,2 11,5 3,4 4,9 4,15l0 1zm-11 -1c0,-3 0,-6 -1,-9 -2,-2 -4,-3 -6,-3 -2,0 -3,0 -4,1 -1,0 -2,1 -3,3l0 17c1,1 2,2 3,2 1,1 2,1 4,1 3,0 4,-1 6,-3 1,-2 1,-5 1,-8l0 -1z"/>
  <path id="9" class="fil8" d="M4372 971c0,-6 2,-11 5,-15 3,-3 8,-5 13,-5 6,0 11,2 14,5 3,4 5,9 5,15l0 0c0,6 -2,11 -5,15 -3,3 -8,5 -14,5 -5,0 -10,-2 -13,-5 -3,-4 -5,-9 -5,-15l0 0zm10 0c0,4 1,7 2,9 2,2 4,3 6,3 3,0 5,-1 6,-3 2,-2 2,-5 2,-9l0 0c0,-4 0,-7 -2,-9 -1,-2 -3,-3 -6,-3 -2,0 -4,1 -6,3 -1,2 -2,5 -2,9l0 0z"/>
  <path class="fil2" d="M1945 1320c1,-10 4,-18 9,-25 5,-6 9,-11 13,-13l1 0 0 4c-3,3 -6,7 -10,13 -3,5 -5,12 -6,21l0 0c-2,9 -2,16 -1,22 2,5 4,9 6,12l-1 4 -1 0c-3,-2 -6,-7 -9,-13 -2,-7 -3,-15 -1,-25l0 0z"/>
  <path id="1" class="fil2" d="M1978 1313l0 -1 6 0c3,0 5,-1 6,-3 2,-1 3,-4 3,-6 1,-3 0,-6 -1,-7 -1,-2 -3,-3 -5,-3 -3,0 -5,1 -7,3 -2,2 -3,4 -3,6l-7 0 0 0c1,-4 3,-7 6,-10 3,-3 7,-4 11,-4 5,0 8,1 11,4 2,2 3,6 2,11 0,2 -1,4 -3,6 -1,3 -3,4 -6,5 3,1 4,3 5,5 1,2 1,5 1,8 -1,5 -3,8 -6,11 -4,3 -8,4 -12,4 -5,0 -8,-1 -11,-4 -2,-3 -3,-6 -2,-10l0 -1 7 0c-1,3 0,5 1,7 1,2 3,2 6,2 2,0 5,0 6,-2 2,-2 3,-4 4,-7 0,-4 0,-6 -1,-8 -1,-1 -3,-2 -6,-2l-6 0 1 -4z"/>
  <polygon id="2" class="fil2" points="2011,1341 2004,1341 2006,1334 2013,1334 "/>
  <path id="3" class="fil2" d="M2052 1324l7 0 -1 5 -7 0 -2 12 -7 0 2 -12 -22 0 1 -4 29 -36 7 0 -7 35zm-21 -1l0 1 14 0 5 -25 0 0 -1 2 -18 22z"/>
  <path id="4" class="fil2" d="M2080 1320c-2,10 -5,18 -10,25 -4,6 -9,11 -13,13l0 0 -1 -4c3,-2 7,-7 10,-12 3,-6 5,-13 7,-22l0 0c1,-9 1,-16 0,-22 -2,-5 -4,-9 -6,-12l2 -4 0 0c4,2 7,7 9,14 3,6 3,14 2,24l0 0z"/>
  <path class="fil2" d="M3049 1320c2,-10 5,-18 10,-25 4,-6 9,-11 13,-13l0 0 1 4c-3,3 -7,7 -10,13 -3,5 -5,12 -7,21l0 0c-1,9 -1,16 0,22 1,5 3,9 6,12l-2 4 0 0c-4,-2 -7,-7 -9,-13 -3,-7 -3,-15 -2,-25l0 0z"/>
  <path id="1" class="fil2" d="M3082 1313l1 -1 6 0c2,0 4,-1 6,-3 1,-1 2,-4 3,-6 0,-3 0,-6 -1,-7 -1,-2 -3,-3 -6,-3 -2,0 -4,1 -6,3 -2,2 -3,4 -3,6l-7 0 0 0c0,-4 2,-7 5,-10 4,-3 8,-4 12,-4 5,0 8,1 10,4 3,2 3,6 3,11 -1,2 -2,4 -3,6 -2,3 -4,4 -6,5 2,1 4,3 5,5 1,2 1,5 1,8 -1,5 -3,8 -7,11 -3,3 -7,4 -12,4 -4,0 -7,-1 -10,-4 -2,-3 -3,-6 -3,-10l1 -1 6 0c0,3 0,5 1,7 2,2 4,2 6,2 3,0 5,0 7,-2 2,-2 3,-4 4,-7 0,-4 0,-6 -1,-8 -1,-1 -3,-2 -6,-2l-6 0 0 -4z"/>
  <polygon id="2" class="fil2" points="3116,1341 3109,1341 3110,1334 3117,1334 "/>
  <path id="3" class="fil2" d="M3159 1341l-32 0 1 -5 19 -19c3,-3 6,-6 7,-8 1,-2 2,-4 3,-6 0,-3 0,-5 -1,-7 -1,-2 -3,-3 -5,-3 -4,0 -6,1 -8,3 -2,2 -3,5 -4,8l-6 0 -1 0c1,-5 3,-9 7,-12 3,-3 7,-4 13,-4 4,0 7,1 9,4 3,3 3,6 3,10 -1,3 -2,6 -4,9 -2,3 -5,6 -8,9l-15 15 0 1 23 0 -1 5z"/>
  <path id="4" class="fil2" d="M3184 1320c-1,10 -4,18 -9,25 -4,6 -9,11 -13,13l-1 0 0 -4c3,-2 6,-7 10,-12 3,-6 5,-13 6,-22l1 0c1,-9 1,-16 -1,-22 -1,-5 -3,-9 -5,-12l2 -4 0 0c3,2 6,7 9,14 3,6 3,14 2,24l-1 0z"/>
  <path class="fil2" d="M4056 1320c1,-10 5,-18 9,-25 5,-6 9,-11 14,-13l0 0 1 4c-4,3 -7,7 -10,13 -4,5 -6,12 -7,21l0 0c-2,9 -2,16 0,22 1,5 3,9 6,12l-2 4 0 0c-4,-2 -7,-7 -10,-13 -2,-7 -3,-15 -1,-25l0 0z"/>
  <path id="1" class="fil2" d="M4107 1341l-32 0 1 -5 19 -19c4,-3 6,-6 7,-8 2,-2 3,-4 3,-6 0,-3 0,-5 -1,-7 -1,-2 -3,-3 -5,-3 -3,0 -6,1 -8,3 -2,2 -3,5 -4,8l-6 0 0 0c0,-5 2,-9 6,-12 3,-3 7,-4 13,-4 4,0 7,1 10,4 2,3 3,6 2,10 -1,3 -2,6 -4,9 -2,3 -4,6 -8,9l-15 15 0 1 23 0 -1 5z"/>
  <path id="2" class="fil2" d="M4133 1320c-2,10 -5,18 -10,25 -4,6 -9,11 -13,13l0 0 -1 -4c3,-2 7,-7 10,-12 3,-6 5,-13 7,-22l0 0c1,-9 1,-16 0,-22 -2,-5 -4,-9 -6,-12l2 -4 0 0c4,2 7,7 9,14 3,6 3,14 2,24l0 0z"/>
  <path id="3" class="fil8" d="M4195 1323c0,6 -2,10 -4,14 -3,3 -7,5 -12,5 -2,0 -3,0 -5,-1 -2,-1 -3,-2 -4,-3l0 18 -11 0 0 -54 10 0 0 5c2,-2 3,-3 5,-4 1,-1 3,-2 5,-2 5,0 9,2 12,6 2,4 4,9 4,15l0 1zm-11 -1c0,-4 -1,-7 -2,-9 -1,-2 -3,-3 -5,-3 -2,0 -3,0 -5,0 -1,1 -2,2 -2,3l0 17c0,2 1,2 2,3 2,1 3,1 5,1 2,0 4,-1 5,-3 1,-2 2,-5 2,-8l0 -1z"/>
  <path id="4" class="fil8" d="M4225 1336c-1,2 -3,3 -5,4 -1,1 -4,2 -6,2 -4,0 -7,-1 -10,-4 -2,-3 -3,-7 -3,-12l0 -24 10 0 0 24c0,3 1,5 2,6 1,1 2,2 4,2 2,0 3,0 5,-1 1,-1 2,-1 2,-2l0 -29 11 0 0 39 -9 0 -1 -5z"/>
  <polygon id="5" class="fil8" points="4254,1341 4244,1341 4244,1285 4254,1285 "/>
  <polygon id="6" class="fil8" points="4274,1341 4263,1341 4263,1285 4274,1285 "/>
  <polygon id="7" class="fil8" points="4303,1323 4283,1323 4283,1315 4303,1315 "/>
  <path id="8" class="fil8" d="M4347 1323c0,6 -1,10 -4,14 -3,3 -6,5 -11,5 -2,0 -4,0 -6,-1 -1,-1 -3,-2 -4,-3l0 18 -10 0 0 -54 9 0 1 5c1,-2 2,-3 4,-4 2,-1 4,-2 6,-2 5,0 8,2 11,6 3,4 4,9 4,15l0 1zm-11 -1c0,-4 0,-7 -1,-9 -2,-2 -4,-3 -6,-3 -2,0 -3,0 -4,0 -1,1 -2,2 -3,3l0 17c1,2 2,2 3,3 1,1 2,1 4,1 3,0 4,-1 6,-3 1,-2 1,-5 1,-8l0 -1z"/>
  <path id="9" class="fil8" d="M4352 1321c0,-6 2,-10 5,-14 3,-4 8,-6 13,-6 6,0 11,2 14,6 3,4 5,8 5,14l0 1c0,6 -2,11 -5,14 -3,4 -8,6 -14,6 -5,0 -10,-2 -13,-6 -3,-3 -5,-8 -5,-14l0 -1zm10 1c0,4 1,6 2,9 2,2 4,3 6,3 3,0 5,-1 6,-3 2,-3 2,-5 2,-9l0 -1c0,-3 0,-6 -2,-8 -1,-2 -3,-3 -6,-3 -2,0 -4,1 -6,3 -1,2 -2,5 -2,8l0 1z"/>
  <g id="_865552496">
   <path class="fil0 str1" d="M3382 657c42,0 76,34 76,76"/>
   <line class="fil0 str1" x1="3382" y1="657" x2="2640" y2= "657" />
   <g>
    <path class="fil0 str1" d="M2564 581c0,42 -34,76 -76,76"/>
    <path class="fil0 str1" d="M2564 581c0,42 34,76 76,76"/>
   </g>
   <line class="fil0 str1" x1="2488" y1="657" x2="1746" y2= "657" />
   <path class="fil0 str1" d="M1746 657c-42,0 -76,34 -76,76"/>
  </g>
  <path class="fil2" d="M2389 516c2,-10 5,-18 9,-25 5,-6 9,-10 14,-13l0 0 1 4c-4,3 -7,7 -10,13 -3,6 -6,13 -7,21l0 0c-1,9 -2,16 0,22 1,5 3,9 6,12l-2 4 0 0c-4,-2 -7,-7 -10,-13 -2,-7 -3,-15 -1,-25l0 0z"/>
  <path id="1" class="fil2" d="M2422 509l0 -1 6 0c3,0 5,-1 7,-3 1,-1 2,-3 2,-6 1,-3 1,-6 0,-7 -2,-2 -3,-2 -6,-2 -2,0 -5,0 -6,2 -2,2 -3,4 -4,6l-6 0 0 0c0,-4 2,-7 5,-10 3,-3 7,-4 12,-4 4,0 8,1 10,4 2,2 3,6 2,11 0,2 -1,4 -2,7 -2,2 -4,3 -7,4 3,1 5,3 6,5 0,3 1,5 0,8 0,5 -3,8 -6,11 -3,3 -7,4 -12,4 -4,0 -8,-1 -10,-4 -3,-2 -4,-6 -3,-10l0 -1 7 0c-1,3 0,6 1,7 1,2 3,2 6,2 3,0 5,0 7,-2 2,-2 3,-4 3,-7 1,-4 1,-6 -1,-7 -1,-2 -3,-3 -6,-3l-6 0 1 -4z"/>
  <path id="2" class="fil2" d="M2466 516c-2,10 -5,18 -10,25 -4,6 -9,11 -13,13l0 0 -1 -4c3,-2 7,-7 10,-12 3,-6 5,-13 7,-22l0 0c1,-9 1,-16 0,-21 -2,-6 -4,-10 -6,-13l2 -4 0 0c4,2 7,7 9,14 3,6 3,14 2,24l0 0z"/>
  <polygon id="3" class="fil8" points="2504,537 2493,537 2493,481 2504,481 "/>
  <path id="4" class="fil8" d="M2511 517c0,-5 1,-10 4,-14 4,-4 8,-6 14,-6 6,0 10,2 14,6 3,4 5,9 5,14l0 1c0,6 -2,11 -5,15 -4,3 -8,5 -14,5 -6,0 -10,-2 -14,-5 -3,-4 -4,-9 -4,-15l0 -1zm10 1c0,4 1,7 2,9 1,2 3,3 6,3 3,0 5,-1 6,-3 1,-2 2,-5 2,-9l0 -1c0,-3 -1,-6 -2,-8 -1,-2 -3,-3 -6,-3 -3,0 -5,1 -6,3 -1,2 -2,5 -2,8l0 1z"/>
  <path id="5" class="fil8" d="M2571 530c1,0 3,-1 4,-2 1,-1 2,-2 2,-4l9 0 0 0c1,4 -1,7 -4,10 -3,3 -7,4 -11,4 -6,0 -11,-2 -14,-5 -3,-4 -5,-9 -5,-15l0 -1c0,-5 2,-10 5,-14 3,-4 8,-6 13,-6 5,0 9,2 12,5 3,2 5,6 4,10l0 1 -9 0c0,-2 -1,-4 -2,-5 -1,-2 -3,-2 -5,-2 -2,0 -4,1 -5,3 -2,2 -2,5 -2,8l0 1c0,4 0,7 2,9 1,2 3,3 6,3z"/>
  <path id="6" class="fil8" d="M2615 537c0,-1 0,-1 -1,-2 0,-1 0,-2 0,-3 -1,1 -3,3 -4,4 -2,1 -4,2 -7,2 -4,0 -7,-1 -9,-3 -3,-2 -4,-5 -4,-9 0,-4 2,-6 5,-9 3,-2 7,-3 13,-3l6 0 0 -3c0,-2 -1,-3 -2,-4 -1,-1 -2,-2 -4,-2 -2,0 -3,1 -4,1 -1,1 -2,2 -2,4l-10 0 0 0c0,-4 1,-7 5,-9 3,-2 7,-4 11,-4 5,0 9,2 12,4 3,2 4,6 4,10l0 16c0,2 0,4 1,6 0,1 0,3 1,4l-11 0zm-9 -7c2,0 3,0 5,-1 1,-1 2,-2 3,-3l0 -6 -6 0c-2,0 -4,1 -5,2 -1,1 -2,2 -2,4 0,1 0,2 1,3 1,1 2,1 4,1z"/>
  <polygon id="7" class="fil8" points="2643,537 2633,537 2633,481 2643,481 "/>
  <path id="8" class="fil8" d="M2663 537l-10 0 0 -39 10 0 0 39zm0 -48l-10 0 0 -8 10 0 0 8z"/>
  <polygon id="9" class="fil8" points="2684,529 2703,529 2703,537 2671,537 2671,531 2689,506 2671,506 2671,498 2703,498 2703,504 "/>
  <path id="10" class="fil8" d="M2726 538c-5,0 -10,-2 -13,-5 -3,-4 -5,-9 -5,-14l0 -2c0,-5 1,-10 5,-14 3,-4 7,-6 13,-6 5,0 9,2 12,5 3,3 4,8 4,13l0 6 -23 0 0 0c0,3 1,5 2,6 2,2 4,3 7,3 2,0 4,0 5,-1 2,0 4,-1 5,-2l3 7c-1,1 -3,2 -6,3 -2,1 -5,1 -9,1zm0 -32c-2,0 -4,0 -5,2 -1,1 -2,3 -2,6l0 0 13 0 0 -1c0,-2 -1,-4 -2,-5 -1,-2 -2,-2 -4,-2z"/>
  <g id="_865554320">
   <line class="fil0 str1" x1="4477" y1="249" x2="2640" y2= "249" />
   <g>
    <path class="fil0 str1" d="M2564 173c0,42 -34,76 -76,76"/>
    <path class="fil0 str1" d="M2564 173c0,42 34,76 76,76"/>
   </g>
   <line class="fil0 str1" x1="2488" y1="249" x2="651" y2= "249" />
   <path class="fil0 str1" d="M4477 249c42,0 76,34 76,76"/>
   <path class="fil0 str1" d="M651 249c-42,0 -76,34 -76,76"/>
  </g>
  <path class="fil8" d="M2511 119c0,-1 -1,-2 -2,-3 -1,-1 -3,-2 -6,-2 -5,-1 -8,-3 -11,-5 -2,-1 -3,-4 -3,-7 0,-4 1,-6 4,-9 3,-2 7,-3 12,-3 5,0 9,1 11,3 3,3 5,6 5,9l0 0 -11 0c0,-1 0,-3 -1,-4 -1,0 -3,-1 -4,-1 -2,0 -4,0 -4,1 -1,1 -2,2 -2,3 0,2 1,3 2,3 1,1 3,2 6,2 5,1 8,3 11,5 2,2 3,4 3,7 0,4 -1,7 -4,9 -3,2 -7,3 -12,3 -6,0 -10,-1 -13,-4 -3,-2 -4,-5 -4,-9l0 0 10 0c0,2 0,4 2,5 1,1 3,1 5,1 2,0 3,0 4,-1 1,-1 2,-2 2,-3z"/>
  <path id="1" class="fil8" d="M2542 113l0 2 1 0 7 -25 12 0 -16 45c-1,3 -3,6 -5,8 -2,1 -5,2 -8,2 -1,0 -2,0 -3,0 -1,0 -2,0 -3,0l2 -8c0,0 0,0 1,0 0,0 0,0 1,0 1,0 3,0 4,-1 0,-1 1,-2 2,-3l1 -3 -14 -40 11 0 7 23z"/>
  <path id="2" class="fil8" d="M2575 90l1 6c1,-2 3,-3 5,-5 2,-1 4,-1 6,-1 4,0 7,1 9,3 3,3 4,7 4,12l0 25 -11 0 0 -25c0,-2 0,-4 -1,-5 -2,-2 -3,-2 -5,-2 -2,0 -3,0 -4,1 -1,0 -2,1 -3,2l0 29 -10 0 0 -40 9 0z"/>
  <path id="3" class="fil8" d="M2624 122c2,0 4,0 5,-1 1,-1 1,-3 1,-5l10 0 0 0c0,4 -1,8 -4,10 -4,3 -7,4 -12,4 -6,0 -10,-1 -13,-5 -4,-4 -5,-9 -5,-14l0 -1c0,-6 1,-11 5,-15 3,-3 7,-5 13,-5 5,0 9,1 12,4 3,3 4,6 4,11l0 0 -10 0c0,-2 0,-4 -1,-5 -1,-1 -3,-2 -5,-2 -3,0 -5,1 -6,3 -1,2 -2,5 -2,9l0 1c0,3 1,6 2,8 1,2 3,3 6,3z"/>
 </g>
</svg>
